%TF.GenerationSoftware,KiCad,Pcbnew,7.0.7*%
%TF.CreationDate,2026-01-29T00:22:59-05:00*%
%TF.ProjectId,sobc,736f6263-2e6b-4696-9361-645f70636258,rev?*%
%TF.SameCoordinates,Original*%
%TF.FileFunction,Paste,Top*%
%TF.FilePolarity,Positive*%
%FSLAX46Y46*%
G04 Gerber Fmt 4.6, Leading zero omitted, Abs format (unit mm)*
G04 Created by KiCad (PCBNEW 7.0.7) date 2026-01-29 00:22:59*
%MOMM*%
%LPD*%
G01*
G04 APERTURE LIST*
G04 Aperture macros list*
%AMRoundRect*
0 Rectangle with rounded corners*
0 $1 Rounding radius*
0 $2 $3 $4 $5 $6 $7 $8 $9 X,Y pos of 4 corners*
0 Add a 4 corners polygon primitive as box body*
4,1,4,$2,$3,$4,$5,$6,$7,$8,$9,$2,$3,0*
0 Add four circle primitives for the rounded corners*
1,1,$1+$1,$2,$3*
1,1,$1+$1,$4,$5*
1,1,$1+$1,$6,$7*
1,1,$1+$1,$8,$9*
0 Add four rect primitives between the rounded corners*
20,1,$1+$1,$2,$3,$4,$5,0*
20,1,$1+$1,$4,$5,$6,$7,0*
20,1,$1+$1,$6,$7,$8,$9,0*
20,1,$1+$1,$8,$9,$2,$3,0*%
G04 Aperture macros list end*
%ADD10RoundRect,0.218750X0.256250X-0.218750X0.256250X0.218750X-0.256250X0.218750X-0.256250X-0.218750X0*%
%ADD11RoundRect,0.140000X0.170000X-0.140000X0.170000X0.140000X-0.170000X0.140000X-0.170000X-0.140000X0*%
%ADD12RoundRect,0.135000X-0.185000X0.135000X-0.185000X-0.135000X0.185000X-0.135000X0.185000X0.135000X0*%
%ADD13RoundRect,0.150000X-0.150000X0.835000X-0.150000X-0.835000X0.150000X-0.835000X0.150000X0.835000X0*%
%ADD14RoundRect,0.135000X0.185000X-0.135000X0.185000X0.135000X-0.185000X0.135000X-0.185000X-0.135000X0*%
%ADD15RoundRect,0.250000X0.475000X-0.250000X0.475000X0.250000X-0.475000X0.250000X-0.475000X-0.250000X0*%
%ADD16RoundRect,0.140000X-0.140000X-0.170000X0.140000X-0.170000X0.140000X0.170000X-0.140000X0.170000X0*%
%ADD17RoundRect,0.073750X0.221250X-0.951250X0.221250X0.951250X-0.221250X0.951250X-0.221250X-0.951250X0*%
%ADD18R,2.000000X1.500000*%
%ADD19R,2.000000X3.800000*%
%ADD20RoundRect,0.225000X0.225000X0.250000X-0.225000X0.250000X-0.225000X-0.250000X0.225000X-0.250000X0*%
%ADD21RoundRect,0.140000X-0.170000X0.140000X-0.170000X-0.140000X0.170000X-0.140000X0.170000X0.140000X0*%
%ADD22RoundRect,0.218750X0.218750X0.256250X-0.218750X0.256250X-0.218750X-0.256250X0.218750X-0.256250X0*%
%ADD23R,1.400000X1.200000*%
%ADD24R,0.600000X1.450000*%
%ADD25R,0.300000X1.450000*%
%ADD26RoundRect,0.140000X0.140000X0.170000X-0.140000X0.170000X-0.140000X-0.170000X0.140000X-0.170000X0*%
%ADD27R,0.250000X0.475000*%
%ADD28R,0.475000X0.250000*%
%ADD29RoundRect,0.218750X-0.256250X0.218750X-0.256250X-0.218750X0.256250X-0.218750X0.256250X0.218750X0*%
%ADD30RoundRect,0.250000X0.250000X0.475000X-0.250000X0.475000X-0.250000X-0.475000X0.250000X-0.475000X0*%
%ADD31RoundRect,0.225000X-0.250000X0.225000X-0.250000X-0.225000X0.250000X-0.225000X0.250000X0.225000X0*%
%ADD32RoundRect,0.075000X-0.075000X0.662500X-0.075000X-0.662500X0.075000X-0.662500X0.075000X0.662500X0*%
%ADD33RoundRect,0.075000X-0.662500X0.075000X-0.662500X-0.075000X0.662500X-0.075000X0.662500X0.075000X0*%
%ADD34R,0.800000X1.000000*%
%ADD35R,1.500000X0.700000*%
G04 APERTURE END LIST*
D10*
%TO.C,D18*%
X179845000Y-90575000D03*
X179845000Y-89000000D03*
%TD*%
%TO.C,D17*%
X208165000Y-86525000D03*
X208165000Y-84950000D03*
%TD*%
D11*
%TO.C,C3*%
X250575000Y-94703400D03*
X250575000Y-93743400D03*
%TD*%
D12*
%TO.C,R7*%
X236220000Y-97940000D03*
X236220000Y-98960000D03*
%TD*%
D13*
%TO.C,Level Shifter*%
X239345000Y-102288400D03*
X238075000Y-102288400D03*
X236805000Y-102288400D03*
X235535000Y-102288400D03*
X234265000Y-102288400D03*
X232995000Y-102288400D03*
X231725000Y-102288400D03*
X231725000Y-107238400D03*
X232995000Y-107238400D03*
X234265000Y-107238400D03*
X235535000Y-107238400D03*
X236805000Y-107238400D03*
X238075000Y-107238400D03*
X239345000Y-107238400D03*
%TD*%
D10*
%TO.C,D21*%
X191980000Y-90575000D03*
X191980000Y-89000000D03*
%TD*%
%TO.C,D24*%
X204115000Y-90570000D03*
X204115000Y-88995000D03*
%TD*%
%TO.C,D57*%
X208140000Y-106755000D03*
X208140000Y-105180000D03*
%TD*%
D11*
%TO.C,C14*%
X238831600Y-96096400D03*
X238831600Y-95136400D03*
%TD*%
D10*
%TO.C,D33*%
X208155000Y-94620000D03*
X208155000Y-93045000D03*
%TD*%
%TO.C,D36*%
X187925000Y-98665000D03*
X187925000Y-97090000D03*
%TD*%
%TO.C,D50*%
X179825000Y-106760000D03*
X179825000Y-105185000D03*
%TD*%
D14*
%TO.C,R3*%
X246502400Y-109588400D03*
X246502400Y-108568400D03*
%TD*%
D10*
%TO.C,D23*%
X200070000Y-90570000D03*
X200070000Y-88995000D03*
%TD*%
%TO.C,D3*%
X183900000Y-82480000D03*
X183900000Y-80905000D03*
%TD*%
D15*
%TO.C,C12*%
X254275000Y-109843400D03*
X254275000Y-107943400D03*
%TD*%
D10*
%TO.C,D6*%
X196035000Y-82480000D03*
X196035000Y-80905000D03*
%TD*%
%TO.C,D41*%
X208150000Y-98665000D03*
X208150000Y-97090000D03*
%TD*%
D16*
%TO.C,C11*%
X246185000Y-94483400D03*
X247145000Y-94483400D03*
%TD*%
D14*
%TO.C,R2*%
X249194800Y-109588400D03*
X249194800Y-108568400D03*
%TD*%
D17*
%TO.C,MAX7219*%
X215724600Y-109575400D03*
X216994600Y-109575400D03*
X218264600Y-109575400D03*
X219534600Y-109575400D03*
X220804600Y-109575400D03*
X222074600Y-109575400D03*
X223344600Y-109575400D03*
X224614600Y-109575400D03*
X225884600Y-109575400D03*
X227154600Y-109575400D03*
X228424600Y-109575400D03*
X229694600Y-109575400D03*
X229694600Y-100265400D03*
X228424600Y-100265400D03*
X227154600Y-100265400D03*
X225884600Y-100265400D03*
X224614600Y-100265400D03*
X223344600Y-100265400D03*
X222074600Y-100265400D03*
X220804600Y-100265400D03*
X219534600Y-100265400D03*
X218264600Y-100265400D03*
X216994600Y-100265400D03*
X215724600Y-100265400D03*
%TD*%
D10*
%TO.C,D34*%
X179835000Y-98665000D03*
X179835000Y-97090000D03*
%TD*%
%TO.C,D55*%
X200050000Y-106760000D03*
X200050000Y-105185000D03*
%TD*%
D18*
%TO.C,AMS1117*%
X256605000Y-106663400D03*
X256605000Y-108963400D03*
D19*
X262905000Y-108963400D03*
D18*
X256605000Y-111263400D03*
%TD*%
D10*
%TO.C,D56*%
X204095000Y-106755000D03*
X204095000Y-105180000D03*
%TD*%
%TO.C,D9*%
X208170000Y-82480000D03*
X208170000Y-80905000D03*
%TD*%
%TO.C,D30*%
X196020000Y-94620000D03*
X196020000Y-93045000D03*
%TD*%
%TO.C,D52*%
X187915000Y-106760000D03*
X187915000Y-105185000D03*
%TD*%
%TO.C,D28*%
X187930000Y-94620000D03*
X187930000Y-93045000D03*
%TD*%
%TO.C,D35*%
X183880000Y-98665000D03*
X183880000Y-97090000D03*
%TD*%
%TO.C,D5*%
X191990000Y-82480000D03*
X191990000Y-80905000D03*
%TD*%
%TO.C,D63*%
X200045000Y-110805000D03*
X200045000Y-109230000D03*
%TD*%
D11*
%TO.C,C7*%
X244095000Y-94733400D03*
X244095000Y-93773400D03*
%TD*%
D10*
%TO.C,D62*%
X196000000Y-110805000D03*
X196000000Y-109230000D03*
%TD*%
D20*
%TO.C,C16*%
X222744600Y-96280400D03*
X221194600Y-96280400D03*
%TD*%
D10*
%TO.C,D31*%
X200065000Y-94620000D03*
X200065000Y-93045000D03*
%TD*%
%TO.C,D8*%
X204125000Y-82480000D03*
X204125000Y-80905000D03*
%TD*%
D21*
%TO.C,C15*%
X240685000Y-101513400D03*
X240685000Y-102473400D03*
%TD*%
D10*
%TO.C,D65*%
X208135000Y-110805000D03*
X208135000Y-109230000D03*
%TD*%
D16*
%TO.C,C9*%
X250848400Y-96099000D03*
X251808400Y-96099000D03*
%TD*%
D10*
%TO.C,D44*%
X187920000Y-102715000D03*
X187920000Y-101140000D03*
%TD*%
D11*
%TO.C,C8*%
X243085000Y-93283400D03*
X243085000Y-92323400D03*
%TD*%
D10*
%TO.C,D61*%
X191955000Y-110805000D03*
X191955000Y-109230000D03*
%TD*%
%TO.C,D54*%
X196005000Y-106760000D03*
X196005000Y-105185000D03*
%TD*%
%TO.C,D60*%
X187910000Y-110805000D03*
X187910000Y-109230000D03*
%TD*%
D22*
%TO.C,FB1*%
X242862500Y-94553400D03*
X241287500Y-94553400D03*
%TD*%
D10*
%TO.C,D19*%
X183890000Y-90575000D03*
X183890000Y-89000000D03*
%TD*%
%TO.C,D32*%
X204110000Y-94620000D03*
X204110000Y-93045000D03*
%TD*%
D23*
%TO.C,Y1*%
X248975000Y-90503400D03*
X246775000Y-90503400D03*
X246775000Y-92203400D03*
X248975000Y-92203400D03*
%TD*%
D10*
%TO.C,D40*%
X204105000Y-98665000D03*
X204105000Y-97090000D03*
%TD*%
D14*
%TO.C,R5*%
X260695000Y-97303400D03*
X260695000Y-96283400D03*
%TD*%
D10*
%TO.C,D10*%
X179850000Y-86530000D03*
X179850000Y-84955000D03*
%TD*%
D24*
%TO.C,J3*%
X244370000Y-111485000D03*
X245170000Y-111485000D03*
D25*
X246370000Y-111485000D03*
X247370000Y-111485000D03*
X247870000Y-111485000D03*
X248870000Y-111485000D03*
D24*
X250070000Y-111485000D03*
X250870000Y-111485000D03*
X250870000Y-111485000D03*
X250070000Y-111485000D03*
D25*
X249370000Y-111485000D03*
X248370000Y-111485000D03*
X246870000Y-111485000D03*
X245870000Y-111485000D03*
D24*
X245170000Y-111485000D03*
X244370000Y-111485000D03*
%TD*%
D10*
%TO.C,D53*%
X191960000Y-106760000D03*
X191960000Y-105185000D03*
%TD*%
D16*
%TO.C,C18*%
X240655000Y-107203400D03*
X241615000Y-107203400D03*
%TD*%
D21*
%TO.C,C1*%
X252903200Y-97473200D03*
X252903200Y-98433200D03*
%TD*%
D10*
%TO.C,D64*%
X204090000Y-110805000D03*
X204090000Y-109230000D03*
%TD*%
D26*
%TO.C,C2*%
X250132000Y-106233600D03*
X249172000Y-106233600D03*
%TD*%
D27*
%TO.C,U3*%
X237839600Y-97250400D03*
X238339600Y-97250400D03*
X238839600Y-97250400D03*
X239339600Y-97250400D03*
X239839600Y-97250400D03*
X240339600Y-97250400D03*
X240839600Y-97250400D03*
D28*
X241249600Y-98400400D03*
D27*
X240839600Y-99560400D03*
X240339600Y-99560400D03*
X239839600Y-99560400D03*
X239339600Y-99570400D03*
X238839600Y-99570400D03*
X238339600Y-99570400D03*
X237839600Y-99570400D03*
D28*
X237429600Y-98410400D03*
%TD*%
D10*
%TO.C,D48*%
X204100000Y-102710000D03*
X204100000Y-101135000D03*
%TD*%
%TO.C,D29*%
X191975000Y-94620000D03*
X191975000Y-93045000D03*
%TD*%
%TO.C,D15*%
X200075000Y-86525000D03*
X200075000Y-84950000D03*
%TD*%
%TO.C,D45*%
X191965000Y-102710000D03*
X191965000Y-101135000D03*
%TD*%
D12*
%TO.C,R6*%
X224109600Y-95705400D03*
X224109600Y-96725400D03*
%TD*%
D10*
%TO.C,D43*%
X183875000Y-102715000D03*
X183875000Y-101140000D03*
%TD*%
%TO.C,D59*%
X183865000Y-110805000D03*
X183865000Y-109230000D03*
%TD*%
%TO.C,D51*%
X183870000Y-106760000D03*
X183870000Y-105185000D03*
%TD*%
D29*
%TO.C,D1*%
X260665000Y-98655900D03*
X260665000Y-100230900D03*
%TD*%
D10*
%TO.C,D26*%
X179840000Y-94620000D03*
X179840000Y-93045000D03*
%TD*%
%TO.C,D22*%
X196025000Y-90575000D03*
X196025000Y-89000000D03*
%TD*%
%TO.C,D47*%
X200055000Y-102710000D03*
X200055000Y-101135000D03*
%TD*%
%TO.C,D27*%
X183885000Y-94620000D03*
X183885000Y-93045000D03*
%TD*%
D30*
%TO.C,C13*%
X260795000Y-104163400D03*
X258895000Y-104163400D03*
%TD*%
D14*
%TO.C,R1*%
X254325600Y-100698400D03*
X254325600Y-99678400D03*
%TD*%
D10*
%TO.C,D25*%
X208160000Y-90570000D03*
X208160000Y-88995000D03*
%TD*%
D31*
%TO.C,C5*%
X254224000Y-96873400D03*
X254224000Y-98423400D03*
%TD*%
D10*
%TO.C,D42*%
X179830000Y-102715000D03*
X179830000Y-101140000D03*
%TD*%
%TO.C,D14*%
X196030000Y-86525000D03*
X196030000Y-84950000D03*
%TD*%
%TO.C,D39*%
X200060000Y-98665000D03*
X200060000Y-97090000D03*
%TD*%
%TO.C,D49*%
X208145000Y-102710000D03*
X208145000Y-101135000D03*
%TD*%
%TO.C,D46*%
X196010000Y-102710000D03*
X196010000Y-101135000D03*
%TD*%
D32*
%TO.C,U6*%
X249862000Y-96279900D03*
X249362000Y-96279900D03*
X248862000Y-96279900D03*
X248362000Y-96279900D03*
X247862000Y-96279900D03*
X247362000Y-96279900D03*
X246862000Y-96279900D03*
X246362000Y-96279900D03*
X245862000Y-96279900D03*
X245362000Y-96279900D03*
X244862000Y-96279900D03*
X244362000Y-96279900D03*
D33*
X242949500Y-97692400D03*
X242949500Y-98192400D03*
X242949500Y-98692400D03*
X242949500Y-99192400D03*
X242949500Y-99692400D03*
X242949500Y-100192400D03*
X242949500Y-100692400D03*
X242949500Y-101192400D03*
X242949500Y-101692400D03*
X242949500Y-102192400D03*
X242949500Y-102692400D03*
X242949500Y-103192400D03*
D32*
X244362000Y-104604900D03*
X244862000Y-104604900D03*
X245362000Y-104604900D03*
X245862000Y-104604900D03*
X246362000Y-104604900D03*
X246862000Y-104604900D03*
X247362000Y-104604900D03*
X247862000Y-104604900D03*
X248362000Y-104604900D03*
X248862000Y-104604900D03*
X249362000Y-104604900D03*
X249862000Y-104604900D03*
D33*
X251274500Y-103192400D03*
X251274500Y-102692400D03*
X251274500Y-102192400D03*
X251274500Y-101692400D03*
X251274500Y-101192400D03*
X251274500Y-100692400D03*
X251274500Y-100192400D03*
X251274500Y-99692400D03*
X251274500Y-99192400D03*
X251274500Y-98692400D03*
X251274500Y-98192400D03*
X251274500Y-97692400D03*
%TD*%
D10*
%TO.C,D16*%
X204120000Y-86525000D03*
X204120000Y-84950000D03*
%TD*%
D34*
%TO.C,SW1*%
X262370000Y-93420000D03*
X264580000Y-93420000D03*
X262370000Y-86120000D03*
X264580000Y-86120000D03*
D35*
X261720000Y-92020000D03*
X261720000Y-89020000D03*
X261720000Y-87520000D03*
%TD*%
D10*
%TO.C,D2*%
X179855000Y-82480000D03*
X179855000Y-80905000D03*
%TD*%
%TO.C,D4*%
X187945000Y-82480000D03*
X187945000Y-80905000D03*
%TD*%
%TO.C,D12*%
X187940000Y-86525000D03*
X187940000Y-84950000D03*
%TD*%
D16*
%TO.C,C10*%
X248645000Y-94723400D03*
X249605000Y-94723400D03*
%TD*%
D10*
%TO.C,D20*%
X187935000Y-90575000D03*
X187935000Y-89000000D03*
%TD*%
D26*
%TO.C,C17*%
X222539600Y-98320400D03*
X221579600Y-98320400D03*
%TD*%
D10*
%TO.C,D11*%
X183895000Y-86530000D03*
X183895000Y-84955000D03*
%TD*%
%TO.C,D58*%
X179820000Y-110805000D03*
X179820000Y-109230000D03*
%TD*%
%TO.C,D37*%
X191970000Y-98665000D03*
X191970000Y-97090000D03*
%TD*%
%TO.C,D38*%
X196015000Y-98665000D03*
X196015000Y-97090000D03*
%TD*%
%TO.C,D13*%
X191985000Y-86525000D03*
X191985000Y-84950000D03*
%TD*%
D11*
%TO.C,C6*%
X245181600Y-94724800D03*
X245181600Y-93764800D03*
%TD*%
D10*
%TO.C,D7*%
X200080000Y-82480000D03*
X200080000Y-80905000D03*
%TD*%
D26*
%TO.C,C4*%
X242735000Y-104133400D03*
X241775000Y-104133400D03*
%TD*%
M02*
