M48
; DRILL file {KiCad 7.0.7} date Thu Jan 29 00:22:51 2026
; FORMAT={-:-/ absolute / metric / decimal}
; #@! TF.CreationDate,2026-01-29T00:22:51-05:00
; #@! TF.GenerationSoftware,Kicad,Pcbnew,7.0.7
; #@! TF.FileFunction,MixedPlating,1,2
FMAT,2
METRIC
; #@! TA.AperFunction,Plated,PTH,ViaDrill
T1C0.300
; #@! TA.AperFunction,Plated,PTH,ViaDrill
T2C0.400
; #@! TA.AperFunction,Plated,PTH,ComponentDrill
T3C0.600
; #@! TA.AperFunction,NonPlated,NPTH,ComponentDrill
T4C0.650
; #@! TA.AperFunction,NonPlated,NPTH,ComponentDrill
T5C0.900
%
G90
G05
T1
X247.985Y-93.873
X253.755Y-106.713
X254.785Y-106.713
X258.005Y-106.023
X258.005Y-106.963
X258.925Y-102.953
T2
X182.77Y-83.419
X182.77Y-87.47
X182.77Y-91.52
X182.77Y-95.57
X182.77Y-99.62
X182.77Y-103.67
X182.77Y-107.72
X182.78Y-81.599
X182.78Y-85.65
X182.78Y-89.7
X182.78Y-93.75
X182.78Y-97.8
X182.78Y-101.85
X182.78Y-105.9
X186.81Y-87.469
X186.815Y-83.42
X186.815Y-91.52
X186.815Y-95.57
X186.815Y-99.62
X186.815Y-103.67
X186.815Y-107.721
X186.82Y-85.649
X186.825Y-81.6
X186.825Y-89.7
X186.825Y-93.751
X186.825Y-97.8
X186.825Y-101.85
X186.825Y-105.9
X190.85Y-87.474
X190.855Y-83.425
X190.855Y-91.525
X190.855Y-95.575
X190.855Y-99.625
X190.855Y-103.675
X190.855Y-107.725
X190.86Y-85.654
X190.865Y-81.605
X190.865Y-89.705
X190.865Y-93.755
X190.865Y-97.805
X190.865Y-101.855
X190.865Y-105.905
X194.9Y-87.474
X194.905Y-83.425
X194.905Y-91.525
X194.905Y-95.575
X194.905Y-99.625
X194.905Y-103.675
X194.905Y-107.725
X194.91Y-85.654
X194.915Y-81.605
X194.915Y-89.705
X194.915Y-93.755
X194.915Y-97.805
X194.915Y-101.855
X194.915Y-105.905
X198.94Y-87.474
X198.945Y-83.425
X198.945Y-91.525
X198.945Y-95.575
X198.945Y-99.625
X198.945Y-103.675
X198.945Y-107.725
X198.95Y-85.654
X198.955Y-81.605
X198.955Y-89.705
X198.955Y-93.755
X198.955Y-97.805
X198.955Y-101.855
X198.955Y-105.905
X202.98Y-87.474
X202.985Y-83.425
X202.985Y-91.525
X202.985Y-95.575
X202.985Y-99.625
X202.985Y-103.675
X202.985Y-107.725
X202.99Y-85.654
X202.995Y-81.605
X202.995Y-89.705
X202.995Y-93.755
X202.995Y-97.805
X202.995Y-101.855
X202.995Y-105.905
X207.02Y-87.474
X207.025Y-83.425
X207.025Y-91.525
X207.025Y-95.575
X207.025Y-99.625
X207.025Y-103.675
X207.025Y-107.725
X207.03Y-85.654
X207.035Y-81.605
X207.035Y-89.705
X207.035Y-93.755
X207.035Y-97.805
X207.035Y-101.855
X207.035Y-105.905
X214.03Y-103.37
X214.13Y-100.65
X214.95Y-78.039
X215.829Y-103.64
X215.86Y-101.97
X215.93Y-80.21
X216.02Y-83.98
X216.06Y-82.21
X217.306Y-77.984
X217.43Y-112.499
X217.88Y-107.93
X219.114Y-80.42
X219.53Y-107.89
X220.22Y-114.199
X220.65Y-107.88
X220.95Y-83.98
X220.98Y-82.21
X221.21Y-94.94
X222.65Y-111.65
X222.924Y-107.85
X224.73Y-107.82
X225.035Y-84.62
X225.17Y-114.27
X225.89Y-107.89
X226.734Y-84.62
X226.92Y-107.87
X226.94Y-111.65
X229.8Y-107.73
X231.745Y-103.963
X232.08Y-110.28
X234.885Y-105.763
X234.9Y-100.77
X236.115Y-94.733
X236.395Y-104.853
X237.195Y-96.123
X237.425Y-105.723
X238.08Y-109.01
X238.47Y-98.26
X239.865Y-94.353
X240.385Y-103.403
X240.695Y-104.863
X241.195Y-100.553
X241.77Y-96.9
X242.655Y-107.213
X243.08Y-91.36
X243.485Y-110.643
X244.09Y-92.79
X244.325Y-100.733
X244.765Y-102.173
X245.165Y-92.823
X246.325Y-97.713
X246.465Y-107.513
X246.755Y-89.163
X249.185Y-107.593
X249.345Y-103.173
X249.875Y-98.173
X250.445Y-91.843
X250.865Y-92.833
X250.865Y-110.253
X252.745Y-95.593
X256.849Y-100.7
X258.052Y-99.5
X260.11Y-92.03
X260.715Y-95.173
T4
X244.73Y-112.93
X250.51Y-112.93
T5
X263.48Y-88.27
X263.48Y-91.27
T3
G00X243.3Y-111.85
M15
G01X243.3Y-112.95
M16
G05
G00X243.3Y-116.28
M15
G01X243.3Y-116.88
M16
G05
G00X251.94Y-111.85
M15
G01X251.94Y-112.95
M16
G05
G00X251.94Y-116.28
M15
G01X251.94Y-116.88
M16
G05
T0
M30
