%TF.GenerationSoftware,KiCad,Pcbnew,7.0.7*%
%TF.CreationDate,2026-01-29T00:22:59-05:00*%
%TF.ProjectId,sobc,736f6263-2e6b-4696-9361-645f70636258,rev?*%
%TF.SameCoordinates,Original*%
%TF.FileFunction,Legend,Top*%
%TF.FilePolarity,Positive*%
%FSLAX46Y46*%
G04 Gerber Fmt 4.6, Leading zero omitted, Abs format (unit mm)*
G04 Created by KiCad (PCBNEW 7.0.7) date 2026-01-29 00:22:59*
%MOMM*%
%LPD*%
G01*
G04 APERTURE LIST*
%ADD10C,0.050000*%
%ADD11C,0.150000*%
%ADD12C,0.200000*%
%ADD13C,0.100000*%
%ADD14C,0.080000*%
%ADD15C,0.120000*%
%ADD16C,0.127000*%
G04 APERTURE END LIST*
D10*
X245550000Y-90768400D02*
X245400000Y-90678400D01*
X245855000Y-94253400D02*
X245415000Y-90693400D01*
X245395800Y-90687200D02*
X245294200Y-90839600D01*
D11*
X257685826Y-86447247D02*
X257800112Y-86485342D01*
X257800112Y-86485342D02*
X257838207Y-86523438D01*
X257838207Y-86523438D02*
X257876303Y-86599628D01*
X257876303Y-86599628D02*
X257876303Y-86713914D01*
X257876303Y-86713914D02*
X257838207Y-86790104D01*
X257838207Y-86790104D02*
X257800112Y-86828200D01*
X257800112Y-86828200D02*
X257723922Y-86866295D01*
X257723922Y-86866295D02*
X257419160Y-86866295D01*
X257419160Y-86866295D02*
X257419160Y-86066295D01*
X257419160Y-86066295D02*
X257685826Y-86066295D01*
X257685826Y-86066295D02*
X257762017Y-86104390D01*
X257762017Y-86104390D02*
X257800112Y-86142485D01*
X257800112Y-86142485D02*
X257838207Y-86218676D01*
X257838207Y-86218676D02*
X257838207Y-86294866D01*
X257838207Y-86294866D02*
X257800112Y-86371057D01*
X257800112Y-86371057D02*
X257762017Y-86409152D01*
X257762017Y-86409152D02*
X257685826Y-86447247D01*
X257685826Y-86447247D02*
X257419160Y-86447247D01*
X258371541Y-86066295D02*
X258523922Y-86066295D01*
X258523922Y-86066295D02*
X258600112Y-86104390D01*
X258600112Y-86104390D02*
X258676303Y-86180580D01*
X258676303Y-86180580D02*
X258714398Y-86332961D01*
X258714398Y-86332961D02*
X258714398Y-86599628D01*
X258714398Y-86599628D02*
X258676303Y-86752009D01*
X258676303Y-86752009D02*
X258600112Y-86828200D01*
X258600112Y-86828200D02*
X258523922Y-86866295D01*
X258523922Y-86866295D02*
X258371541Y-86866295D01*
X258371541Y-86866295D02*
X258295350Y-86828200D01*
X258295350Y-86828200D02*
X258219160Y-86752009D01*
X258219160Y-86752009D02*
X258181064Y-86599628D01*
X258181064Y-86599628D02*
X258181064Y-86332961D01*
X258181064Y-86332961D02*
X258219160Y-86180580D01*
X258219160Y-86180580D02*
X258295350Y-86104390D01*
X258295350Y-86104390D02*
X258371541Y-86066295D01*
X259209636Y-86066295D02*
X259362017Y-86066295D01*
X259362017Y-86066295D02*
X259438207Y-86104390D01*
X259438207Y-86104390D02*
X259514398Y-86180580D01*
X259514398Y-86180580D02*
X259552493Y-86332961D01*
X259552493Y-86332961D02*
X259552493Y-86599628D01*
X259552493Y-86599628D02*
X259514398Y-86752009D01*
X259514398Y-86752009D02*
X259438207Y-86828200D01*
X259438207Y-86828200D02*
X259362017Y-86866295D01*
X259362017Y-86866295D02*
X259209636Y-86866295D01*
X259209636Y-86866295D02*
X259133445Y-86828200D01*
X259133445Y-86828200D02*
X259057255Y-86752009D01*
X259057255Y-86752009D02*
X259019159Y-86599628D01*
X259019159Y-86599628D02*
X259019159Y-86332961D01*
X259019159Y-86332961D02*
X259057255Y-86180580D01*
X259057255Y-86180580D02*
X259133445Y-86104390D01*
X259133445Y-86104390D02*
X259209636Y-86066295D01*
X259781064Y-86066295D02*
X260238207Y-86066295D01*
X260009635Y-86866295D02*
X260009635Y-86066295D01*
X257419160Y-88154295D02*
X257419160Y-87354295D01*
X257419160Y-87735247D02*
X257876303Y-87735247D01*
X257876303Y-88154295D02*
X257876303Y-87354295D01*
X258257255Y-87735247D02*
X258523921Y-87735247D01*
X258638207Y-88154295D02*
X258257255Y-88154295D01*
X258257255Y-88154295D02*
X258257255Y-87354295D01*
X258257255Y-87354295D02*
X258638207Y-87354295D01*
X259438208Y-88154295D02*
X259171541Y-87773342D01*
X258981065Y-88154295D02*
X258981065Y-87354295D01*
X258981065Y-87354295D02*
X259285827Y-87354295D01*
X259285827Y-87354295D02*
X259362017Y-87392390D01*
X259362017Y-87392390D02*
X259400112Y-87430485D01*
X259400112Y-87430485D02*
X259438208Y-87506676D01*
X259438208Y-87506676D02*
X259438208Y-87620961D01*
X259438208Y-87620961D02*
X259400112Y-87697152D01*
X259400112Y-87697152D02*
X259362017Y-87735247D01*
X259362017Y-87735247D02*
X259285827Y-87773342D01*
X259285827Y-87773342D02*
X258981065Y-87773342D01*
X259781065Y-87735247D02*
X260047731Y-87735247D01*
X260162017Y-88154295D02*
X259781065Y-88154295D01*
X259781065Y-88154295D02*
X259781065Y-87354295D01*
X259781065Y-87354295D02*
X260162017Y-87354295D01*
X240206779Y-83559819D02*
X240206779Y-82893152D01*
X240206779Y-82988390D02*
X240254398Y-82940771D01*
X240254398Y-82940771D02*
X240349636Y-82893152D01*
X240349636Y-82893152D02*
X240492493Y-82893152D01*
X240492493Y-82893152D02*
X240587731Y-82940771D01*
X240587731Y-82940771D02*
X240635350Y-83036009D01*
X240635350Y-83036009D02*
X240635350Y-83559819D01*
X240635350Y-83036009D02*
X240682969Y-82940771D01*
X240682969Y-82940771D02*
X240778207Y-82893152D01*
X240778207Y-82893152D02*
X240921064Y-82893152D01*
X240921064Y-82893152D02*
X241016303Y-82940771D01*
X241016303Y-82940771D02*
X241063922Y-83036009D01*
X241063922Y-83036009D02*
X241063922Y-83559819D01*
X241968683Y-83559819D02*
X241968683Y-83036009D01*
X241968683Y-83036009D02*
X241921064Y-82940771D01*
X241921064Y-82940771D02*
X241825826Y-82893152D01*
X241825826Y-82893152D02*
X241635350Y-82893152D01*
X241635350Y-82893152D02*
X241540112Y-82940771D01*
X241968683Y-83512200D02*
X241873445Y-83559819D01*
X241873445Y-83559819D02*
X241635350Y-83559819D01*
X241635350Y-83559819D02*
X241540112Y-83512200D01*
X241540112Y-83512200D02*
X241492493Y-83416961D01*
X241492493Y-83416961D02*
X241492493Y-83321723D01*
X241492493Y-83321723D02*
X241540112Y-83226485D01*
X241540112Y-83226485D02*
X241635350Y-83178866D01*
X241635350Y-83178866D02*
X241873445Y-83178866D01*
X241873445Y-83178866D02*
X241968683Y-83131247D01*
X242397255Y-83512200D02*
X242492493Y-83559819D01*
X242492493Y-83559819D02*
X242682969Y-83559819D01*
X242682969Y-83559819D02*
X242778207Y-83512200D01*
X242778207Y-83512200D02*
X242825826Y-83416961D01*
X242825826Y-83416961D02*
X242825826Y-83369342D01*
X242825826Y-83369342D02*
X242778207Y-83274104D01*
X242778207Y-83274104D02*
X242682969Y-83226485D01*
X242682969Y-83226485D02*
X242540112Y-83226485D01*
X242540112Y-83226485D02*
X242444874Y-83178866D01*
X242444874Y-83178866D02*
X242397255Y-83083628D01*
X242397255Y-83083628D02*
X242397255Y-83036009D01*
X242397255Y-83036009D02*
X242444874Y-82940771D01*
X242444874Y-82940771D02*
X242540112Y-82893152D01*
X242540112Y-82893152D02*
X242682969Y-82893152D01*
X242682969Y-82893152D02*
X242778207Y-82940771D01*
X243254398Y-83559819D02*
X243254398Y-82559819D01*
X243682969Y-83559819D02*
X243682969Y-83036009D01*
X243682969Y-83036009D02*
X243635350Y-82940771D01*
X243635350Y-82940771D02*
X243540112Y-82893152D01*
X243540112Y-82893152D02*
X243397255Y-82893152D01*
X243397255Y-82893152D02*
X243302017Y-82940771D01*
X243302017Y-82940771D02*
X243254398Y-82988390D01*
X244587731Y-83559819D02*
X244587731Y-83036009D01*
X244587731Y-83036009D02*
X244540112Y-82940771D01*
X244540112Y-82940771D02*
X244444874Y-82893152D01*
X244444874Y-82893152D02*
X244254398Y-82893152D01*
X244254398Y-82893152D02*
X244159160Y-82940771D01*
X244587731Y-83512200D02*
X244492493Y-83559819D01*
X244492493Y-83559819D02*
X244254398Y-83559819D01*
X244254398Y-83559819D02*
X244159160Y-83512200D01*
X244159160Y-83512200D02*
X244111541Y-83416961D01*
X244111541Y-83416961D02*
X244111541Y-83321723D01*
X244111541Y-83321723D02*
X244159160Y-83226485D01*
X244159160Y-83226485D02*
X244254398Y-83178866D01*
X244254398Y-83178866D02*
X244492493Y-83178866D01*
X244492493Y-83178866D02*
X244587731Y-83131247D01*
X245063922Y-83559819D02*
X245063922Y-82893152D01*
X245063922Y-82988390D02*
X245111541Y-82940771D01*
X245111541Y-82940771D02*
X245206779Y-82893152D01*
X245206779Y-82893152D02*
X245349636Y-82893152D01*
X245349636Y-82893152D02*
X245444874Y-82940771D01*
X245444874Y-82940771D02*
X245492493Y-83036009D01*
X245492493Y-83036009D02*
X245492493Y-83559819D01*
X245492493Y-83036009D02*
X245540112Y-82940771D01*
X245540112Y-82940771D02*
X245635350Y-82893152D01*
X245635350Y-82893152D02*
X245778207Y-82893152D01*
X245778207Y-82893152D02*
X245873446Y-82940771D01*
X245873446Y-82940771D02*
X245921065Y-83036009D01*
X245921065Y-83036009D02*
X245921065Y-83559819D01*
X246825826Y-82893152D02*
X246825826Y-83559819D01*
X246397255Y-82893152D02*
X246397255Y-83416961D01*
X246397255Y-83416961D02*
X246444874Y-83512200D01*
X246444874Y-83512200D02*
X246540112Y-83559819D01*
X246540112Y-83559819D02*
X246682969Y-83559819D01*
X246682969Y-83559819D02*
X246778207Y-83512200D01*
X246778207Y-83512200D02*
X246825826Y-83464580D01*
X247254398Y-83512200D02*
X247349636Y-83559819D01*
X247349636Y-83559819D02*
X247540112Y-83559819D01*
X247540112Y-83559819D02*
X247635350Y-83512200D01*
X247635350Y-83512200D02*
X247682969Y-83416961D01*
X247682969Y-83416961D02*
X247682969Y-83369342D01*
X247682969Y-83369342D02*
X247635350Y-83274104D01*
X247635350Y-83274104D02*
X247540112Y-83226485D01*
X247540112Y-83226485D02*
X247397255Y-83226485D01*
X247397255Y-83226485D02*
X247302017Y-83178866D01*
X247302017Y-83178866D02*
X247254398Y-83083628D01*
X247254398Y-83083628D02*
X247254398Y-83036009D01*
X247254398Y-83036009D02*
X247302017Y-82940771D01*
X247302017Y-82940771D02*
X247397255Y-82893152D01*
X247397255Y-82893152D02*
X247540112Y-82893152D01*
X247540112Y-82893152D02*
X247635350Y-82940771D01*
X247968684Y-82893152D02*
X248349636Y-82893152D01*
X248111541Y-82559819D02*
X248111541Y-83416961D01*
X248111541Y-83416961D02*
X248159160Y-83512200D01*
X248159160Y-83512200D02*
X248254398Y-83559819D01*
X248254398Y-83559819D02*
X248349636Y-83559819D01*
X248682970Y-83559819D02*
X248682970Y-82559819D01*
X249111541Y-83559819D02*
X249111541Y-83036009D01*
X249111541Y-83036009D02*
X249063922Y-82940771D01*
X249063922Y-82940771D02*
X248968684Y-82893152D01*
X248968684Y-82893152D02*
X248825827Y-82893152D01*
X248825827Y-82893152D02*
X248730589Y-82940771D01*
X248730589Y-82940771D02*
X248682970Y-82988390D01*
X250016303Y-83559819D02*
X250016303Y-83036009D01*
X250016303Y-83036009D02*
X249968684Y-82940771D01*
X249968684Y-82940771D02*
X249873446Y-82893152D01*
X249873446Y-82893152D02*
X249682970Y-82893152D01*
X249682970Y-82893152D02*
X249587732Y-82940771D01*
X250016303Y-83512200D02*
X249921065Y-83559819D01*
X249921065Y-83559819D02*
X249682970Y-83559819D01*
X249682970Y-83559819D02*
X249587732Y-83512200D01*
X249587732Y-83512200D02*
X249540113Y-83416961D01*
X249540113Y-83416961D02*
X249540113Y-83321723D01*
X249540113Y-83321723D02*
X249587732Y-83226485D01*
X249587732Y-83226485D02*
X249682970Y-83178866D01*
X249682970Y-83178866D02*
X249921065Y-83178866D01*
X249921065Y-83178866D02*
X250016303Y-83131247D01*
X250349637Y-82893152D02*
X250730589Y-82893152D01*
X250492494Y-83559819D02*
X250492494Y-82702676D01*
X250492494Y-82702676D02*
X250540113Y-82607438D01*
X250540113Y-82607438D02*
X250635351Y-82559819D01*
X250635351Y-82559819D02*
X250730589Y-82559819D01*
X251492494Y-83559819D02*
X251492494Y-83036009D01*
X251492494Y-83036009D02*
X251444875Y-82940771D01*
X251444875Y-82940771D02*
X251349637Y-82893152D01*
X251349637Y-82893152D02*
X251159161Y-82893152D01*
X251159161Y-82893152D02*
X251063923Y-82940771D01*
X251492494Y-83512200D02*
X251397256Y-83559819D01*
X251397256Y-83559819D02*
X251159161Y-83559819D01*
X251159161Y-83559819D02*
X251063923Y-83512200D01*
X251063923Y-83512200D02*
X251016304Y-83416961D01*
X251016304Y-83416961D02*
X251016304Y-83321723D01*
X251016304Y-83321723D02*
X251063923Y-83226485D01*
X251063923Y-83226485D02*
X251159161Y-83178866D01*
X251159161Y-83178866D02*
X251397256Y-83178866D01*
X251397256Y-83178866D02*
X251492494Y-83131247D01*
X252492494Y-83559819D02*
X251921066Y-83559819D01*
X252206780Y-83559819D02*
X252206780Y-82559819D01*
X252206780Y-82559819D02*
X252111542Y-82702676D01*
X252111542Y-82702676D02*
X252016304Y-82797914D01*
X252016304Y-82797914D02*
X251921066Y-82845533D01*
X252873447Y-82655057D02*
X252921066Y-82607438D01*
X252921066Y-82607438D02*
X253016304Y-82559819D01*
X253016304Y-82559819D02*
X253254399Y-82559819D01*
X253254399Y-82559819D02*
X253349637Y-82607438D01*
X253349637Y-82607438D02*
X253397256Y-82655057D01*
X253397256Y-82655057D02*
X253444875Y-82750295D01*
X253444875Y-82750295D02*
X253444875Y-82845533D01*
X253444875Y-82845533D02*
X253397256Y-82988390D01*
X253397256Y-82988390D02*
X252825828Y-83559819D01*
X252825828Y-83559819D02*
X253444875Y-83559819D01*
X253778209Y-82559819D02*
X254397256Y-82559819D01*
X254397256Y-82559819D02*
X254063923Y-82940771D01*
X254063923Y-82940771D02*
X254206780Y-82940771D01*
X254206780Y-82940771D02*
X254302018Y-82988390D01*
X254302018Y-82988390D02*
X254349637Y-83036009D01*
X254349637Y-83036009D02*
X254397256Y-83131247D01*
X254397256Y-83131247D02*
X254397256Y-83369342D01*
X254397256Y-83369342D02*
X254349637Y-83464580D01*
X254349637Y-83464580D02*
X254302018Y-83512200D01*
X254302018Y-83512200D02*
X254206780Y-83559819D01*
X254206780Y-83559819D02*
X253921066Y-83559819D01*
X253921066Y-83559819D02*
X253825828Y-83512200D01*
X253825828Y-83512200D02*
X253778209Y-83464580D01*
X255444875Y-83083628D02*
X255397256Y-83036009D01*
X255397256Y-83036009D02*
X255302018Y-82988390D01*
X255302018Y-82988390D02*
X255206780Y-82988390D01*
X255206780Y-82988390D02*
X255111542Y-83036009D01*
X255111542Y-83036009D02*
X255063923Y-83083628D01*
X255063923Y-83083628D02*
X255016304Y-83178866D01*
X255016304Y-83178866D02*
X255016304Y-83274104D01*
X255016304Y-83274104D02*
X255063923Y-83369342D01*
X255063923Y-83369342D02*
X255111542Y-83416961D01*
X255111542Y-83416961D02*
X255206780Y-83464580D01*
X255206780Y-83464580D02*
X255302018Y-83464580D01*
X255302018Y-83464580D02*
X255397256Y-83416961D01*
X255397256Y-83416961D02*
X255444875Y-83369342D01*
X255444875Y-82988390D02*
X255444875Y-83369342D01*
X255444875Y-83369342D02*
X255492494Y-83416961D01*
X255492494Y-83416961D02*
X255540113Y-83416961D01*
X255540113Y-83416961D02*
X255635352Y-83369342D01*
X255635352Y-83369342D02*
X255682971Y-83274104D01*
X255682971Y-83274104D02*
X255682971Y-83036009D01*
X255682971Y-83036009D02*
X255587733Y-82893152D01*
X255587733Y-82893152D02*
X255444875Y-82797914D01*
X255444875Y-82797914D02*
X255254399Y-82750295D01*
X255254399Y-82750295D02*
X255063923Y-82797914D01*
X255063923Y-82797914D02*
X254921066Y-82893152D01*
X254921066Y-82893152D02*
X254825828Y-83036009D01*
X254825828Y-83036009D02*
X254778209Y-83226485D01*
X254778209Y-83226485D02*
X254825828Y-83416961D01*
X254825828Y-83416961D02*
X254921066Y-83559819D01*
X254921066Y-83559819D02*
X255063923Y-83655057D01*
X255063923Y-83655057D02*
X255254399Y-83702676D01*
X255254399Y-83702676D02*
X255444875Y-83655057D01*
X255444875Y-83655057D02*
X255587733Y-83559819D01*
X256540113Y-82893152D02*
X256540113Y-83702676D01*
X256540113Y-83702676D02*
X256492494Y-83797914D01*
X256492494Y-83797914D02*
X256444875Y-83845533D01*
X256444875Y-83845533D02*
X256349637Y-83893152D01*
X256349637Y-83893152D02*
X256206780Y-83893152D01*
X256206780Y-83893152D02*
X256111542Y-83845533D01*
X256540113Y-83512200D02*
X256444875Y-83559819D01*
X256444875Y-83559819D02*
X256254399Y-83559819D01*
X256254399Y-83559819D02*
X256159161Y-83512200D01*
X256159161Y-83512200D02*
X256111542Y-83464580D01*
X256111542Y-83464580D02*
X256063923Y-83369342D01*
X256063923Y-83369342D02*
X256063923Y-83083628D01*
X256063923Y-83083628D02*
X256111542Y-82988390D01*
X256111542Y-82988390D02*
X256159161Y-82940771D01*
X256159161Y-82940771D02*
X256254399Y-82893152D01*
X256254399Y-82893152D02*
X256444875Y-82893152D01*
X256444875Y-82893152D02*
X256540113Y-82940771D01*
X257016304Y-83559819D02*
X257016304Y-82893152D01*
X257016304Y-82988390D02*
X257063923Y-82940771D01*
X257063923Y-82940771D02*
X257159161Y-82893152D01*
X257159161Y-82893152D02*
X257302018Y-82893152D01*
X257302018Y-82893152D02*
X257397256Y-82940771D01*
X257397256Y-82940771D02*
X257444875Y-83036009D01*
X257444875Y-83036009D02*
X257444875Y-83559819D01*
X257444875Y-83036009D02*
X257492494Y-82940771D01*
X257492494Y-82940771D02*
X257587732Y-82893152D01*
X257587732Y-82893152D02*
X257730589Y-82893152D01*
X257730589Y-82893152D02*
X257825828Y-82940771D01*
X257825828Y-82940771D02*
X257873447Y-83036009D01*
X257873447Y-83036009D02*
X257873447Y-83559819D01*
X258778208Y-83559819D02*
X258778208Y-83036009D01*
X258778208Y-83036009D02*
X258730589Y-82940771D01*
X258730589Y-82940771D02*
X258635351Y-82893152D01*
X258635351Y-82893152D02*
X258444875Y-82893152D01*
X258444875Y-82893152D02*
X258349637Y-82940771D01*
X258778208Y-83512200D02*
X258682970Y-83559819D01*
X258682970Y-83559819D02*
X258444875Y-83559819D01*
X258444875Y-83559819D02*
X258349637Y-83512200D01*
X258349637Y-83512200D02*
X258302018Y-83416961D01*
X258302018Y-83416961D02*
X258302018Y-83321723D01*
X258302018Y-83321723D02*
X258349637Y-83226485D01*
X258349637Y-83226485D02*
X258444875Y-83178866D01*
X258444875Y-83178866D02*
X258682970Y-83178866D01*
X258682970Y-83178866D02*
X258778208Y-83131247D01*
X259254399Y-83559819D02*
X259254399Y-82893152D01*
X259254399Y-82559819D02*
X259206780Y-82607438D01*
X259206780Y-82607438D02*
X259254399Y-82655057D01*
X259254399Y-82655057D02*
X259302018Y-82607438D01*
X259302018Y-82607438D02*
X259254399Y-82559819D01*
X259254399Y-82559819D02*
X259254399Y-82655057D01*
X259873446Y-83559819D02*
X259778208Y-83512200D01*
X259778208Y-83512200D02*
X259730589Y-83416961D01*
X259730589Y-83416961D02*
X259730589Y-82559819D01*
X260254399Y-83464580D02*
X260302018Y-83512200D01*
X260302018Y-83512200D02*
X260254399Y-83559819D01*
X260254399Y-83559819D02*
X260206780Y-83512200D01*
X260206780Y-83512200D02*
X260254399Y-83464580D01*
X260254399Y-83464580D02*
X260254399Y-83559819D01*
X261159160Y-83512200D02*
X261063922Y-83559819D01*
X261063922Y-83559819D02*
X260873446Y-83559819D01*
X260873446Y-83559819D02*
X260778208Y-83512200D01*
X260778208Y-83512200D02*
X260730589Y-83464580D01*
X260730589Y-83464580D02*
X260682970Y-83369342D01*
X260682970Y-83369342D02*
X260682970Y-83083628D01*
X260682970Y-83083628D02*
X260730589Y-82988390D01*
X260730589Y-82988390D02*
X260778208Y-82940771D01*
X260778208Y-82940771D02*
X260873446Y-82893152D01*
X260873446Y-82893152D02*
X261063922Y-82893152D01*
X261063922Y-82893152D02*
X261159160Y-82940771D01*
X261730589Y-83559819D02*
X261635351Y-83512200D01*
X261635351Y-83512200D02*
X261587732Y-83464580D01*
X261587732Y-83464580D02*
X261540113Y-83369342D01*
X261540113Y-83369342D02*
X261540113Y-83083628D01*
X261540113Y-83083628D02*
X261587732Y-82988390D01*
X261587732Y-82988390D02*
X261635351Y-82940771D01*
X261635351Y-82940771D02*
X261730589Y-82893152D01*
X261730589Y-82893152D02*
X261873446Y-82893152D01*
X261873446Y-82893152D02*
X261968684Y-82940771D01*
X261968684Y-82940771D02*
X262016303Y-82988390D01*
X262016303Y-82988390D02*
X262063922Y-83083628D01*
X262063922Y-83083628D02*
X262063922Y-83369342D01*
X262063922Y-83369342D02*
X262016303Y-83464580D01*
X262016303Y-83464580D02*
X261968684Y-83512200D01*
X261968684Y-83512200D02*
X261873446Y-83559819D01*
X261873446Y-83559819D02*
X261730589Y-83559819D01*
X262492494Y-83559819D02*
X262492494Y-82893152D01*
X262492494Y-82988390D02*
X262540113Y-82940771D01*
X262540113Y-82940771D02*
X262635351Y-82893152D01*
X262635351Y-82893152D02*
X262778208Y-82893152D01*
X262778208Y-82893152D02*
X262873446Y-82940771D01*
X262873446Y-82940771D02*
X262921065Y-83036009D01*
X262921065Y-83036009D02*
X262921065Y-83559819D01*
X262921065Y-83036009D02*
X262968684Y-82940771D01*
X262968684Y-82940771D02*
X263063922Y-82893152D01*
X263063922Y-82893152D02*
X263206779Y-82893152D01*
X263206779Y-82893152D02*
X263302018Y-82940771D01*
X263302018Y-82940771D02*
X263349637Y-83036009D01*
X263349637Y-83036009D02*
X263349637Y-83559819D01*
X262526295Y-101800839D02*
X261726295Y-101800839D01*
X261726295Y-101800839D02*
X261726295Y-101496077D01*
X261726295Y-101496077D02*
X261764390Y-101419887D01*
X261764390Y-101419887D02*
X261802485Y-101381792D01*
X261802485Y-101381792D02*
X261878676Y-101343696D01*
X261878676Y-101343696D02*
X261992961Y-101343696D01*
X261992961Y-101343696D02*
X262069152Y-101381792D01*
X262069152Y-101381792D02*
X262107247Y-101419887D01*
X262107247Y-101419887D02*
X262145342Y-101496077D01*
X262145342Y-101496077D02*
X262145342Y-101800839D01*
X261726295Y-100848458D02*
X261726295Y-100696077D01*
X261726295Y-100696077D02*
X261764390Y-100619887D01*
X261764390Y-100619887D02*
X261840580Y-100543696D01*
X261840580Y-100543696D02*
X261992961Y-100505601D01*
X261992961Y-100505601D02*
X262259628Y-100505601D01*
X262259628Y-100505601D02*
X262412009Y-100543696D01*
X262412009Y-100543696D02*
X262488200Y-100619887D01*
X262488200Y-100619887D02*
X262526295Y-100696077D01*
X262526295Y-100696077D02*
X262526295Y-100848458D01*
X262526295Y-100848458D02*
X262488200Y-100924649D01*
X262488200Y-100924649D02*
X262412009Y-101000839D01*
X262412009Y-101000839D02*
X262259628Y-101038935D01*
X262259628Y-101038935D02*
X261992961Y-101038935D01*
X261992961Y-101038935D02*
X261840580Y-101000839D01*
X261840580Y-101000839D02*
X261764390Y-100924649D01*
X261764390Y-100924649D02*
X261726295Y-100848458D01*
X261726295Y-100238935D02*
X262526295Y-100048459D01*
X262526295Y-100048459D02*
X261954866Y-99896078D01*
X261954866Y-99896078D02*
X262526295Y-99743697D01*
X262526295Y-99743697D02*
X261726295Y-99553221D01*
X262107247Y-99248458D02*
X262107247Y-98981792D01*
X262526295Y-98867506D02*
X262526295Y-99248458D01*
X262526295Y-99248458D02*
X261726295Y-99248458D01*
X261726295Y-99248458D02*
X261726295Y-98867506D01*
X262526295Y-98067505D02*
X262145342Y-98334172D01*
X262526295Y-98524648D02*
X261726295Y-98524648D01*
X261726295Y-98524648D02*
X261726295Y-98219886D01*
X261726295Y-98219886D02*
X261764390Y-98143696D01*
X261764390Y-98143696D02*
X261802485Y-98105601D01*
X261802485Y-98105601D02*
X261878676Y-98067505D01*
X261878676Y-98067505D02*
X261992961Y-98067505D01*
X261992961Y-98067505D02*
X262069152Y-98105601D01*
X262069152Y-98105601D02*
X262107247Y-98143696D01*
X262107247Y-98143696D02*
X262145342Y-98219886D01*
X262145342Y-98219886D02*
X262145342Y-98524648D01*
X263014295Y-101877030D02*
X263814295Y-101686554D01*
X263814295Y-101686554D02*
X263242866Y-101534173D01*
X263242866Y-101534173D02*
X263814295Y-101381792D01*
X263814295Y-101381792D02*
X263014295Y-101191316D01*
X263014295Y-100734172D02*
X263014295Y-100581791D01*
X263014295Y-100581791D02*
X263052390Y-100505601D01*
X263052390Y-100505601D02*
X263128580Y-100429410D01*
X263128580Y-100429410D02*
X263280961Y-100391315D01*
X263280961Y-100391315D02*
X263547628Y-100391315D01*
X263547628Y-100391315D02*
X263700009Y-100429410D01*
X263700009Y-100429410D02*
X263776200Y-100505601D01*
X263776200Y-100505601D02*
X263814295Y-100581791D01*
X263814295Y-100581791D02*
X263814295Y-100734172D01*
X263814295Y-100734172D02*
X263776200Y-100810363D01*
X263776200Y-100810363D02*
X263700009Y-100886553D01*
X263700009Y-100886553D02*
X263547628Y-100924649D01*
X263547628Y-100924649D02*
X263280961Y-100924649D01*
X263280961Y-100924649D02*
X263128580Y-100886553D01*
X263128580Y-100886553D02*
X263052390Y-100810363D01*
X263052390Y-100810363D02*
X263014295Y-100734172D01*
X263814295Y-99591315D02*
X263433342Y-99857982D01*
X263814295Y-100048458D02*
X263014295Y-100048458D01*
X263014295Y-100048458D02*
X263014295Y-99743696D01*
X263014295Y-99743696D02*
X263052390Y-99667506D01*
X263052390Y-99667506D02*
X263090485Y-99629411D01*
X263090485Y-99629411D02*
X263166676Y-99591315D01*
X263166676Y-99591315D02*
X263280961Y-99591315D01*
X263280961Y-99591315D02*
X263357152Y-99629411D01*
X263357152Y-99629411D02*
X263395247Y-99667506D01*
X263395247Y-99667506D02*
X263433342Y-99743696D01*
X263433342Y-99743696D02*
X263433342Y-100048458D01*
X263814295Y-99248458D02*
X263014295Y-99248458D01*
X263814295Y-98791315D02*
X263357152Y-99134173D01*
X263014295Y-98791315D02*
X263471438Y-99248458D01*
X263738104Y-98334173D02*
X263776200Y-98296077D01*
X263776200Y-98296077D02*
X263814295Y-98334173D01*
X263814295Y-98334173D02*
X263776200Y-98372268D01*
X263776200Y-98372268D02*
X263738104Y-98334173D01*
X263738104Y-98334173D02*
X263814295Y-98334173D01*
X263052390Y-98486554D02*
X263014295Y-98410363D01*
X263014295Y-98410363D02*
X263014295Y-98219887D01*
X263014295Y-98219887D02*
X263052390Y-98143696D01*
X263052390Y-98143696D02*
X263128580Y-98105601D01*
X263128580Y-98105601D02*
X263204771Y-98105601D01*
X263204771Y-98105601D02*
X263280961Y-98143696D01*
X263280961Y-98143696D02*
X263319057Y-98181792D01*
X263319057Y-98181792D02*
X263357152Y-98257982D01*
X263357152Y-98257982D02*
X263395247Y-98296077D01*
X263395247Y-98296077D02*
X263471438Y-98334173D01*
X263471438Y-98334173D02*
X263509533Y-98334173D01*
X243827731Y-81132200D02*
X243732493Y-81179819D01*
X243732493Y-81179819D02*
X243542017Y-81179819D01*
X243542017Y-81179819D02*
X243446779Y-81132200D01*
X243446779Y-81132200D02*
X243399160Y-81036961D01*
X243399160Y-81036961D02*
X243399160Y-80656009D01*
X243399160Y-80656009D02*
X243446779Y-80560771D01*
X243446779Y-80560771D02*
X243542017Y-80513152D01*
X243542017Y-80513152D02*
X243732493Y-80513152D01*
X243732493Y-80513152D02*
X243827731Y-80560771D01*
X243827731Y-80560771D02*
X243875350Y-80656009D01*
X243875350Y-80656009D02*
X243875350Y-80751247D01*
X243875350Y-80751247D02*
X243399160Y-80846485D01*
X244256303Y-81132200D02*
X244351541Y-81179819D01*
X244351541Y-81179819D02*
X244542017Y-81179819D01*
X244542017Y-81179819D02*
X244637255Y-81132200D01*
X244637255Y-81132200D02*
X244684874Y-81036961D01*
X244684874Y-81036961D02*
X244684874Y-80989342D01*
X244684874Y-80989342D02*
X244637255Y-80894104D01*
X244637255Y-80894104D02*
X244542017Y-80846485D01*
X244542017Y-80846485D02*
X244399160Y-80846485D01*
X244399160Y-80846485D02*
X244303922Y-80798866D01*
X244303922Y-80798866D02*
X244256303Y-80703628D01*
X244256303Y-80703628D02*
X244256303Y-80656009D01*
X244256303Y-80656009D02*
X244303922Y-80560771D01*
X244303922Y-80560771D02*
X244399160Y-80513152D01*
X244399160Y-80513152D02*
X244542017Y-80513152D01*
X244542017Y-80513152D02*
X244637255Y-80560771D01*
X245113446Y-81179819D02*
X245113446Y-80513152D01*
X245113446Y-80179819D02*
X245065827Y-80227438D01*
X245065827Y-80227438D02*
X245113446Y-80275057D01*
X245113446Y-80275057D02*
X245161065Y-80227438D01*
X245161065Y-80227438D02*
X245113446Y-80179819D01*
X245113446Y-80179819D02*
X245113446Y-80275057D01*
X246018207Y-80513152D02*
X246018207Y-81322676D01*
X246018207Y-81322676D02*
X245970588Y-81417914D01*
X245970588Y-81417914D02*
X245922969Y-81465533D01*
X245922969Y-81465533D02*
X245827731Y-81513152D01*
X245827731Y-81513152D02*
X245684874Y-81513152D01*
X245684874Y-81513152D02*
X245589636Y-81465533D01*
X246018207Y-81132200D02*
X245922969Y-81179819D01*
X245922969Y-81179819D02*
X245732493Y-81179819D01*
X245732493Y-81179819D02*
X245637255Y-81132200D01*
X245637255Y-81132200D02*
X245589636Y-81084580D01*
X245589636Y-81084580D02*
X245542017Y-80989342D01*
X245542017Y-80989342D02*
X245542017Y-80703628D01*
X245542017Y-80703628D02*
X245589636Y-80608390D01*
X245589636Y-80608390D02*
X245637255Y-80560771D01*
X245637255Y-80560771D02*
X245732493Y-80513152D01*
X245732493Y-80513152D02*
X245922969Y-80513152D01*
X245922969Y-80513152D02*
X246018207Y-80560771D01*
X246494398Y-80513152D02*
X246494398Y-81179819D01*
X246494398Y-80608390D02*
X246542017Y-80560771D01*
X246542017Y-80560771D02*
X246637255Y-80513152D01*
X246637255Y-80513152D02*
X246780112Y-80513152D01*
X246780112Y-80513152D02*
X246875350Y-80560771D01*
X246875350Y-80560771D02*
X246922969Y-80656009D01*
X246922969Y-80656009D02*
X246922969Y-81179819D01*
X247780112Y-81132200D02*
X247684874Y-81179819D01*
X247684874Y-81179819D02*
X247494398Y-81179819D01*
X247494398Y-81179819D02*
X247399160Y-81132200D01*
X247399160Y-81132200D02*
X247351541Y-81036961D01*
X247351541Y-81036961D02*
X247351541Y-80656009D01*
X247351541Y-80656009D02*
X247399160Y-80560771D01*
X247399160Y-80560771D02*
X247494398Y-80513152D01*
X247494398Y-80513152D02*
X247684874Y-80513152D01*
X247684874Y-80513152D02*
X247780112Y-80560771D01*
X247780112Y-80560771D02*
X247827731Y-80656009D01*
X247827731Y-80656009D02*
X247827731Y-80751247D01*
X247827731Y-80751247D02*
X247351541Y-80846485D01*
X248684874Y-81179819D02*
X248684874Y-80179819D01*
X248684874Y-81132200D02*
X248589636Y-81179819D01*
X248589636Y-81179819D02*
X248399160Y-81179819D01*
X248399160Y-81179819D02*
X248303922Y-81132200D01*
X248303922Y-81132200D02*
X248256303Y-81084580D01*
X248256303Y-81084580D02*
X248208684Y-80989342D01*
X248208684Y-80989342D02*
X248208684Y-80703628D01*
X248208684Y-80703628D02*
X248256303Y-80608390D01*
X248256303Y-80608390D02*
X248303922Y-80560771D01*
X248303922Y-80560771D02*
X248399160Y-80513152D01*
X248399160Y-80513152D02*
X248589636Y-80513152D01*
X248589636Y-80513152D02*
X248684874Y-80560771D01*
X249922970Y-81179819D02*
X249922970Y-80179819D01*
X249922970Y-80560771D02*
X250018208Y-80513152D01*
X250018208Y-80513152D02*
X250208684Y-80513152D01*
X250208684Y-80513152D02*
X250303922Y-80560771D01*
X250303922Y-80560771D02*
X250351541Y-80608390D01*
X250351541Y-80608390D02*
X250399160Y-80703628D01*
X250399160Y-80703628D02*
X250399160Y-80989342D01*
X250399160Y-80989342D02*
X250351541Y-81084580D01*
X250351541Y-81084580D02*
X250303922Y-81132200D01*
X250303922Y-81132200D02*
X250208684Y-81179819D01*
X250208684Y-81179819D02*
X250018208Y-81179819D01*
X250018208Y-81179819D02*
X249922970Y-81132200D01*
X250732494Y-80513152D02*
X250970589Y-81179819D01*
X251208684Y-80513152D02*
X250970589Y-81179819D01*
X250970589Y-81179819D02*
X250875351Y-81417914D01*
X250875351Y-81417914D02*
X250827732Y-81465533D01*
X250827732Y-81465533D02*
X250732494Y-81513152D01*
X252351542Y-81179819D02*
X252351542Y-80179819D01*
X252351542Y-80179819D02*
X252684875Y-80894104D01*
X252684875Y-80894104D02*
X253018208Y-80179819D01*
X253018208Y-80179819D02*
X253018208Y-81179819D01*
X253922970Y-81179819D02*
X253922970Y-80656009D01*
X253922970Y-80656009D02*
X253875351Y-80560771D01*
X253875351Y-80560771D02*
X253780113Y-80513152D01*
X253780113Y-80513152D02*
X253589637Y-80513152D01*
X253589637Y-80513152D02*
X253494399Y-80560771D01*
X253922970Y-81132200D02*
X253827732Y-81179819D01*
X253827732Y-81179819D02*
X253589637Y-81179819D01*
X253589637Y-81179819D02*
X253494399Y-81132200D01*
X253494399Y-81132200D02*
X253446780Y-81036961D01*
X253446780Y-81036961D02*
X253446780Y-80941723D01*
X253446780Y-80941723D02*
X253494399Y-80846485D01*
X253494399Y-80846485D02*
X253589637Y-80798866D01*
X253589637Y-80798866D02*
X253827732Y-80798866D01*
X253827732Y-80798866D02*
X253922970Y-80751247D01*
X254351542Y-81132200D02*
X254446780Y-81179819D01*
X254446780Y-81179819D02*
X254637256Y-81179819D01*
X254637256Y-81179819D02*
X254732494Y-81132200D01*
X254732494Y-81132200D02*
X254780113Y-81036961D01*
X254780113Y-81036961D02*
X254780113Y-80989342D01*
X254780113Y-80989342D02*
X254732494Y-80894104D01*
X254732494Y-80894104D02*
X254637256Y-80846485D01*
X254637256Y-80846485D02*
X254494399Y-80846485D01*
X254494399Y-80846485D02*
X254399161Y-80798866D01*
X254399161Y-80798866D02*
X254351542Y-80703628D01*
X254351542Y-80703628D02*
X254351542Y-80656009D01*
X254351542Y-80656009D02*
X254399161Y-80560771D01*
X254399161Y-80560771D02*
X254494399Y-80513152D01*
X254494399Y-80513152D02*
X254637256Y-80513152D01*
X254637256Y-80513152D02*
X254732494Y-80560771D01*
X255208685Y-81179819D02*
X255208685Y-80179819D01*
X255637256Y-81179819D02*
X255637256Y-80656009D01*
X255637256Y-80656009D02*
X255589637Y-80560771D01*
X255589637Y-80560771D02*
X255494399Y-80513152D01*
X255494399Y-80513152D02*
X255351542Y-80513152D01*
X255351542Y-80513152D02*
X255256304Y-80560771D01*
X255256304Y-80560771D02*
X255208685Y-80608390D01*
X256542018Y-81179819D02*
X256542018Y-80656009D01*
X256542018Y-80656009D02*
X256494399Y-80560771D01*
X256494399Y-80560771D02*
X256399161Y-80513152D01*
X256399161Y-80513152D02*
X256208685Y-80513152D01*
X256208685Y-80513152D02*
X256113447Y-80560771D01*
X256542018Y-81132200D02*
X256446780Y-81179819D01*
X256446780Y-81179819D02*
X256208685Y-81179819D01*
X256208685Y-81179819D02*
X256113447Y-81132200D01*
X256113447Y-81132200D02*
X256065828Y-81036961D01*
X256065828Y-81036961D02*
X256065828Y-80941723D01*
X256065828Y-80941723D02*
X256113447Y-80846485D01*
X256113447Y-80846485D02*
X256208685Y-80798866D01*
X256208685Y-80798866D02*
X256446780Y-80798866D01*
X256446780Y-80798866D02*
X256542018Y-80751247D01*
X257780114Y-81179819D02*
X257780114Y-80179819D01*
X257780114Y-80179819D02*
X258113447Y-80894104D01*
X258113447Y-80894104D02*
X258446780Y-80179819D01*
X258446780Y-80179819D02*
X258446780Y-81179819D01*
X259351542Y-80513152D02*
X259351542Y-81179819D01*
X258922971Y-80513152D02*
X258922971Y-81036961D01*
X258922971Y-81036961D02*
X258970590Y-81132200D01*
X258970590Y-81132200D02*
X259065828Y-81179819D01*
X259065828Y-81179819D02*
X259208685Y-81179819D01*
X259208685Y-81179819D02*
X259303923Y-81132200D01*
X259303923Y-81132200D02*
X259351542Y-81084580D01*
X259780114Y-81132200D02*
X259875352Y-81179819D01*
X259875352Y-81179819D02*
X260065828Y-81179819D01*
X260065828Y-81179819D02*
X260161066Y-81132200D01*
X260161066Y-81132200D02*
X260208685Y-81036961D01*
X260208685Y-81036961D02*
X260208685Y-80989342D01*
X260208685Y-80989342D02*
X260161066Y-80894104D01*
X260161066Y-80894104D02*
X260065828Y-80846485D01*
X260065828Y-80846485D02*
X259922971Y-80846485D01*
X259922971Y-80846485D02*
X259827733Y-80798866D01*
X259827733Y-80798866D02*
X259780114Y-80703628D01*
X259780114Y-80703628D02*
X259780114Y-80656009D01*
X259780114Y-80656009D02*
X259827733Y-80560771D01*
X259827733Y-80560771D02*
X259922971Y-80513152D01*
X259922971Y-80513152D02*
X260065828Y-80513152D01*
X260065828Y-80513152D02*
X260161066Y-80560771D01*
X260494400Y-80513152D02*
X260875352Y-80513152D01*
X260637257Y-80179819D02*
X260637257Y-81036961D01*
X260637257Y-81036961D02*
X260684876Y-81132200D01*
X260684876Y-81132200D02*
X260780114Y-81179819D01*
X260780114Y-81179819D02*
X260875352Y-81179819D01*
X261208686Y-81179819D02*
X261208686Y-80179819D01*
X261637257Y-81179819D02*
X261637257Y-80656009D01*
X261637257Y-80656009D02*
X261589638Y-80560771D01*
X261589638Y-80560771D02*
X261494400Y-80513152D01*
X261494400Y-80513152D02*
X261351543Y-80513152D01*
X261351543Y-80513152D02*
X261256305Y-80560771D01*
X261256305Y-80560771D02*
X261208686Y-80608390D01*
X262542019Y-81179819D02*
X262542019Y-80656009D01*
X262542019Y-80656009D02*
X262494400Y-80560771D01*
X262494400Y-80560771D02*
X262399162Y-80513152D01*
X262399162Y-80513152D02*
X262208686Y-80513152D01*
X262208686Y-80513152D02*
X262113448Y-80560771D01*
X262542019Y-81132200D02*
X262446781Y-81179819D01*
X262446781Y-81179819D02*
X262208686Y-81179819D01*
X262208686Y-81179819D02*
X262113448Y-81132200D01*
X262113448Y-81132200D02*
X262065829Y-81036961D01*
X262065829Y-81036961D02*
X262065829Y-80941723D01*
X262065829Y-80941723D02*
X262113448Y-80846485D01*
X262113448Y-80846485D02*
X262208686Y-80798866D01*
X262208686Y-80798866D02*
X262446781Y-80798866D01*
X262446781Y-80798866D02*
X262542019Y-80751247D01*
X262875353Y-80513152D02*
X263256305Y-80513152D01*
X263018210Y-81179819D02*
X263018210Y-80322676D01*
X263018210Y-80322676D02*
X263065829Y-80227438D01*
X263065829Y-80227438D02*
X263161067Y-80179819D01*
X263161067Y-80179819D02*
X263256305Y-80179819D01*
X264018210Y-81179819D02*
X264018210Y-80656009D01*
X264018210Y-80656009D02*
X263970591Y-80560771D01*
X263970591Y-80560771D02*
X263875353Y-80513152D01*
X263875353Y-80513152D02*
X263684877Y-80513152D01*
X263684877Y-80513152D02*
X263589639Y-80560771D01*
X264018210Y-81132200D02*
X263922972Y-81179819D01*
X263922972Y-81179819D02*
X263684877Y-81179819D01*
X263684877Y-81179819D02*
X263589639Y-81132200D01*
X263589639Y-81132200D02*
X263542020Y-81036961D01*
X263542020Y-81036961D02*
X263542020Y-80941723D01*
X263542020Y-80941723D02*
X263589639Y-80846485D01*
X263589639Y-80846485D02*
X263684877Y-80798866D01*
X263684877Y-80798866D02*
X263922972Y-80798866D01*
X263922972Y-80798866D02*
X264018210Y-80751247D01*
X240309160Y-84675057D02*
X240356779Y-84627438D01*
X240356779Y-84627438D02*
X240452017Y-84579819D01*
X240452017Y-84579819D02*
X240690112Y-84579819D01*
X240690112Y-84579819D02*
X240785350Y-84627438D01*
X240785350Y-84627438D02*
X240832969Y-84675057D01*
X240832969Y-84675057D02*
X240880588Y-84770295D01*
X240880588Y-84770295D02*
X240880588Y-84865533D01*
X240880588Y-84865533D02*
X240832969Y-85008390D01*
X240832969Y-85008390D02*
X240261541Y-85579819D01*
X240261541Y-85579819D02*
X240880588Y-85579819D01*
X241499636Y-84579819D02*
X241594874Y-84579819D01*
X241594874Y-84579819D02*
X241690112Y-84627438D01*
X241690112Y-84627438D02*
X241737731Y-84675057D01*
X241737731Y-84675057D02*
X241785350Y-84770295D01*
X241785350Y-84770295D02*
X241832969Y-84960771D01*
X241832969Y-84960771D02*
X241832969Y-85198866D01*
X241832969Y-85198866D02*
X241785350Y-85389342D01*
X241785350Y-85389342D02*
X241737731Y-85484580D01*
X241737731Y-85484580D02*
X241690112Y-85532200D01*
X241690112Y-85532200D02*
X241594874Y-85579819D01*
X241594874Y-85579819D02*
X241499636Y-85579819D01*
X241499636Y-85579819D02*
X241404398Y-85532200D01*
X241404398Y-85532200D02*
X241356779Y-85484580D01*
X241356779Y-85484580D02*
X241309160Y-85389342D01*
X241309160Y-85389342D02*
X241261541Y-85198866D01*
X241261541Y-85198866D02*
X241261541Y-84960771D01*
X241261541Y-84960771D02*
X241309160Y-84770295D01*
X241309160Y-84770295D02*
X241356779Y-84675057D01*
X241356779Y-84675057D02*
X241404398Y-84627438D01*
X241404398Y-84627438D02*
X241499636Y-84579819D01*
X242785350Y-85579819D02*
X242213922Y-85579819D01*
X242499636Y-85579819D02*
X242499636Y-84579819D01*
X242499636Y-84579819D02*
X242404398Y-84722676D01*
X242404398Y-84722676D02*
X242309160Y-84817914D01*
X242309160Y-84817914D02*
X242213922Y-84865533D01*
X243213922Y-85484580D02*
X243261541Y-85532200D01*
X243261541Y-85532200D02*
X243213922Y-85579819D01*
X243213922Y-85579819D02*
X243166303Y-85532200D01*
X243166303Y-85532200D02*
X243213922Y-85484580D01*
X243213922Y-85484580D02*
X243213922Y-85579819D01*
X243737731Y-85579819D02*
X243928207Y-85579819D01*
X243928207Y-85579819D02*
X244023445Y-85532200D01*
X244023445Y-85532200D02*
X244071064Y-85484580D01*
X244071064Y-85484580D02*
X244166302Y-85341723D01*
X244166302Y-85341723D02*
X244213921Y-85151247D01*
X244213921Y-85151247D02*
X244213921Y-84770295D01*
X244213921Y-84770295D02*
X244166302Y-84675057D01*
X244166302Y-84675057D02*
X244118683Y-84627438D01*
X244118683Y-84627438D02*
X244023445Y-84579819D01*
X244023445Y-84579819D02*
X243832969Y-84579819D01*
X243832969Y-84579819D02*
X243737731Y-84627438D01*
X243737731Y-84627438D02*
X243690112Y-84675057D01*
X243690112Y-84675057D02*
X243642493Y-84770295D01*
X243642493Y-84770295D02*
X243642493Y-85008390D01*
X243642493Y-85008390D02*
X243690112Y-85103628D01*
X243690112Y-85103628D02*
X243737731Y-85151247D01*
X243737731Y-85151247D02*
X243832969Y-85198866D01*
X243832969Y-85198866D02*
X244023445Y-85198866D01*
X244023445Y-85198866D02*
X244118683Y-85151247D01*
X244118683Y-85151247D02*
X244166302Y-85103628D01*
X244166302Y-85103628D02*
X244213921Y-85008390D01*
X244690112Y-85579819D02*
X244880588Y-85579819D01*
X244880588Y-85579819D02*
X244975826Y-85532200D01*
X244975826Y-85532200D02*
X245023445Y-85484580D01*
X245023445Y-85484580D02*
X245118683Y-85341723D01*
X245118683Y-85341723D02*
X245166302Y-85151247D01*
X245166302Y-85151247D02*
X245166302Y-84770295D01*
X245166302Y-84770295D02*
X245118683Y-84675057D01*
X245118683Y-84675057D02*
X245071064Y-84627438D01*
X245071064Y-84627438D02*
X244975826Y-84579819D01*
X244975826Y-84579819D02*
X244785350Y-84579819D01*
X244785350Y-84579819D02*
X244690112Y-84627438D01*
X244690112Y-84627438D02*
X244642493Y-84675057D01*
X244642493Y-84675057D02*
X244594874Y-84770295D01*
X244594874Y-84770295D02*
X244594874Y-85008390D01*
X244594874Y-85008390D02*
X244642493Y-85103628D01*
X244642493Y-85103628D02*
X244690112Y-85151247D01*
X244690112Y-85151247D02*
X244785350Y-85198866D01*
X244785350Y-85198866D02*
X244975826Y-85198866D01*
X244975826Y-85198866D02*
X245071064Y-85151247D01*
X245071064Y-85151247D02*
X245118683Y-85103628D01*
X245118683Y-85103628D02*
X245166302Y-85008390D01*
X245499636Y-84579819D02*
X246118683Y-84579819D01*
X246118683Y-84579819D02*
X245785350Y-84960771D01*
X245785350Y-84960771D02*
X245928207Y-84960771D01*
X245928207Y-84960771D02*
X246023445Y-85008390D01*
X246023445Y-85008390D02*
X246071064Y-85056009D01*
X246071064Y-85056009D02*
X246118683Y-85151247D01*
X246118683Y-85151247D02*
X246118683Y-85389342D01*
X246118683Y-85389342D02*
X246071064Y-85484580D01*
X246071064Y-85484580D02*
X246023445Y-85532200D01*
X246023445Y-85532200D02*
X245928207Y-85579819D01*
X245928207Y-85579819D02*
X245642493Y-85579819D01*
X245642493Y-85579819D02*
X245547255Y-85532200D01*
X245547255Y-85532200D02*
X245499636Y-85484580D01*
X246547255Y-85484580D02*
X246594874Y-85532200D01*
X246594874Y-85532200D02*
X246547255Y-85579819D01*
X246547255Y-85579819D02*
X246499636Y-85532200D01*
X246499636Y-85532200D02*
X246547255Y-85484580D01*
X246547255Y-85484580D02*
X246547255Y-85579819D01*
X246975826Y-84675057D02*
X247023445Y-84627438D01*
X247023445Y-84627438D02*
X247118683Y-84579819D01*
X247118683Y-84579819D02*
X247356778Y-84579819D01*
X247356778Y-84579819D02*
X247452016Y-84627438D01*
X247452016Y-84627438D02*
X247499635Y-84675057D01*
X247499635Y-84675057D02*
X247547254Y-84770295D01*
X247547254Y-84770295D02*
X247547254Y-84865533D01*
X247547254Y-84865533D02*
X247499635Y-85008390D01*
X247499635Y-85008390D02*
X246928207Y-85579819D01*
X246928207Y-85579819D02*
X247547254Y-85579819D01*
X248499635Y-85579819D02*
X247928207Y-85579819D01*
X248213921Y-85579819D02*
X248213921Y-84579819D01*
X248213921Y-84579819D02*
X248118683Y-84722676D01*
X248118683Y-84722676D02*
X248023445Y-84817914D01*
X248023445Y-84817914D02*
X247928207Y-84865533D01*
X249356778Y-84913152D02*
X249356778Y-85579819D01*
X249118683Y-84532200D02*
X248880588Y-85246485D01*
X248880588Y-85246485D02*
X249499635Y-85246485D01*
X249928207Y-85579819D02*
X250118683Y-85579819D01*
X250118683Y-85579819D02*
X250213921Y-85532200D01*
X250213921Y-85532200D02*
X250261540Y-85484580D01*
X250261540Y-85484580D02*
X250356778Y-85341723D01*
X250356778Y-85341723D02*
X250404397Y-85151247D01*
X250404397Y-85151247D02*
X250404397Y-84770295D01*
X250404397Y-84770295D02*
X250356778Y-84675057D01*
X250356778Y-84675057D02*
X250309159Y-84627438D01*
X250309159Y-84627438D02*
X250213921Y-84579819D01*
X250213921Y-84579819D02*
X250023445Y-84579819D01*
X250023445Y-84579819D02*
X249928207Y-84627438D01*
X249928207Y-84627438D02*
X249880588Y-84675057D01*
X249880588Y-84675057D02*
X249832969Y-84770295D01*
X249832969Y-84770295D02*
X249832969Y-85008390D01*
X249832969Y-85008390D02*
X249880588Y-85103628D01*
X249880588Y-85103628D02*
X249928207Y-85151247D01*
X249928207Y-85151247D02*
X250023445Y-85198866D01*
X250023445Y-85198866D02*
X250213921Y-85198866D01*
X250213921Y-85198866D02*
X250309159Y-85151247D01*
X250309159Y-85151247D02*
X250356778Y-85103628D01*
X250356778Y-85103628D02*
X250404397Y-85008390D01*
D12*
X240283482Y-75019600D02*
X240854911Y-75210076D01*
X240854911Y-75210076D02*
X241807292Y-75210076D01*
X241807292Y-75210076D02*
X242188244Y-75019600D01*
X242188244Y-75019600D02*
X242378720Y-74829123D01*
X242378720Y-74829123D02*
X242569197Y-74448171D01*
X242569197Y-74448171D02*
X242569197Y-74067219D01*
X242569197Y-74067219D02*
X242378720Y-73686266D01*
X242378720Y-73686266D02*
X242188244Y-73495790D01*
X242188244Y-73495790D02*
X241807292Y-73305314D01*
X241807292Y-73305314D02*
X241045387Y-73114838D01*
X241045387Y-73114838D02*
X240664435Y-72924361D01*
X240664435Y-72924361D02*
X240473958Y-72733885D01*
X240473958Y-72733885D02*
X240283482Y-72352933D01*
X240283482Y-72352933D02*
X240283482Y-71971980D01*
X240283482Y-71971980D02*
X240473958Y-71591028D01*
X240473958Y-71591028D02*
X240664435Y-71400552D01*
X240664435Y-71400552D02*
X241045387Y-71210076D01*
X241045387Y-71210076D02*
X241997768Y-71210076D01*
X241997768Y-71210076D02*
X242569197Y-71400552D01*
X244283482Y-72543409D02*
X244283482Y-75210076D01*
X244283482Y-72924361D02*
X244473959Y-72733885D01*
X244473959Y-72733885D02*
X244854911Y-72543409D01*
X244854911Y-72543409D02*
X245426340Y-72543409D01*
X245426340Y-72543409D02*
X245807292Y-72733885D01*
X245807292Y-72733885D02*
X245997768Y-73114838D01*
X245997768Y-73114838D02*
X245997768Y-75210076D01*
X249616816Y-75210076D02*
X249616816Y-73114838D01*
X249616816Y-73114838D02*
X249426340Y-72733885D01*
X249426340Y-72733885D02*
X249045388Y-72543409D01*
X249045388Y-72543409D02*
X248283483Y-72543409D01*
X248283483Y-72543409D02*
X247902530Y-72733885D01*
X249616816Y-75019600D02*
X249235864Y-75210076D01*
X249235864Y-75210076D02*
X248283483Y-75210076D01*
X248283483Y-75210076D02*
X247902530Y-75019600D01*
X247902530Y-75019600D02*
X247712054Y-74638647D01*
X247712054Y-74638647D02*
X247712054Y-74257695D01*
X247712054Y-74257695D02*
X247902530Y-73876742D01*
X247902530Y-73876742D02*
X248283483Y-73686266D01*
X248283483Y-73686266D02*
X249235864Y-73686266D01*
X249235864Y-73686266D02*
X249616816Y-73495790D01*
X251521578Y-75210076D02*
X251521578Y-71210076D01*
X251902531Y-73686266D02*
X253045388Y-75210076D01*
X253045388Y-72543409D02*
X251521578Y-74067219D01*
X256283483Y-75019600D02*
X255902531Y-75210076D01*
X255902531Y-75210076D02*
X255140626Y-75210076D01*
X255140626Y-75210076D02*
X254759673Y-75019600D01*
X254759673Y-75019600D02*
X254569197Y-74638647D01*
X254569197Y-74638647D02*
X254569197Y-73114838D01*
X254569197Y-73114838D02*
X254759673Y-72733885D01*
X254759673Y-72733885D02*
X255140626Y-72543409D01*
X255140626Y-72543409D02*
X255902531Y-72543409D01*
X255902531Y-72543409D02*
X256283483Y-72733885D01*
X256283483Y-72733885D02*
X256473959Y-73114838D01*
X256473959Y-73114838D02*
X256473959Y-73495790D01*
X256473959Y-73495790D02*
X254569197Y-73876742D01*
D11*
X240293922Y-76039819D02*
X240865350Y-76039819D01*
X240579636Y-77039819D02*
X240579636Y-76039819D01*
X241198684Y-77039819D02*
X241198684Y-76373152D01*
X241198684Y-76039819D02*
X241151065Y-76087438D01*
X241151065Y-76087438D02*
X241198684Y-76135057D01*
X241198684Y-76135057D02*
X241246303Y-76087438D01*
X241246303Y-76087438D02*
X241198684Y-76039819D01*
X241198684Y-76039819D02*
X241198684Y-76135057D01*
X241817731Y-77039819D02*
X241722493Y-76992200D01*
X241722493Y-76992200D02*
X241674874Y-76896961D01*
X241674874Y-76896961D02*
X241674874Y-76039819D01*
X242055827Y-76373152D02*
X242436779Y-76373152D01*
X242198684Y-76039819D02*
X242198684Y-76896961D01*
X242198684Y-76896961D02*
X242246303Y-76992200D01*
X242246303Y-76992200D02*
X242341541Y-77039819D01*
X242341541Y-77039819D02*
X242436779Y-77039819D01*
X243532018Y-77039819D02*
X243532018Y-76373152D01*
X243532018Y-76468390D02*
X243579637Y-76420771D01*
X243579637Y-76420771D02*
X243674875Y-76373152D01*
X243674875Y-76373152D02*
X243817732Y-76373152D01*
X243817732Y-76373152D02*
X243912970Y-76420771D01*
X243912970Y-76420771D02*
X243960589Y-76516009D01*
X243960589Y-76516009D02*
X243960589Y-77039819D01*
X243960589Y-76516009D02*
X244008208Y-76420771D01*
X244008208Y-76420771D02*
X244103446Y-76373152D01*
X244103446Y-76373152D02*
X244246303Y-76373152D01*
X244246303Y-76373152D02*
X244341542Y-76420771D01*
X244341542Y-76420771D02*
X244389161Y-76516009D01*
X244389161Y-76516009D02*
X244389161Y-77039819D01*
X245246303Y-76992200D02*
X245151065Y-77039819D01*
X245151065Y-77039819D02*
X244960589Y-77039819D01*
X244960589Y-77039819D02*
X244865351Y-76992200D01*
X244865351Y-76992200D02*
X244817732Y-76896961D01*
X244817732Y-76896961D02*
X244817732Y-76516009D01*
X244817732Y-76516009D02*
X244865351Y-76420771D01*
X244865351Y-76420771D02*
X244960589Y-76373152D01*
X244960589Y-76373152D02*
X245151065Y-76373152D01*
X245151065Y-76373152D02*
X245246303Y-76420771D01*
X245246303Y-76420771D02*
X245293922Y-76516009D01*
X245293922Y-76516009D02*
X245293922Y-76611247D01*
X245293922Y-76611247D02*
X244817732Y-76706485D01*
X246341542Y-76373152D02*
X246722494Y-76373152D01*
X246484399Y-76039819D02*
X246484399Y-76896961D01*
X246484399Y-76896961D02*
X246532018Y-76992200D01*
X246532018Y-76992200D02*
X246627256Y-77039819D01*
X246627256Y-77039819D02*
X246722494Y-77039819D01*
X247198685Y-77039819D02*
X247103447Y-76992200D01*
X247103447Y-76992200D02*
X247055828Y-76944580D01*
X247055828Y-76944580D02*
X247008209Y-76849342D01*
X247008209Y-76849342D02*
X247008209Y-76563628D01*
X247008209Y-76563628D02*
X247055828Y-76468390D01*
X247055828Y-76468390D02*
X247103447Y-76420771D01*
X247103447Y-76420771D02*
X247198685Y-76373152D01*
X247198685Y-76373152D02*
X247341542Y-76373152D01*
X247341542Y-76373152D02*
X247436780Y-76420771D01*
X247436780Y-76420771D02*
X247484399Y-76468390D01*
X247484399Y-76468390D02*
X247532018Y-76563628D01*
X247532018Y-76563628D02*
X247532018Y-76849342D01*
X247532018Y-76849342D02*
X247484399Y-76944580D01*
X247484399Y-76944580D02*
X247436780Y-76992200D01*
X247436780Y-76992200D02*
X247341542Y-77039819D01*
X247341542Y-77039819D02*
X247198685Y-77039819D01*
X248722495Y-76373152D02*
X248722495Y-77373152D01*
X248722495Y-76420771D02*
X248817733Y-76373152D01*
X248817733Y-76373152D02*
X249008209Y-76373152D01*
X249008209Y-76373152D02*
X249103447Y-76420771D01*
X249103447Y-76420771D02*
X249151066Y-76468390D01*
X249151066Y-76468390D02*
X249198685Y-76563628D01*
X249198685Y-76563628D02*
X249198685Y-76849342D01*
X249198685Y-76849342D02*
X249151066Y-76944580D01*
X249151066Y-76944580D02*
X249103447Y-76992200D01*
X249103447Y-76992200D02*
X249008209Y-77039819D01*
X249008209Y-77039819D02*
X248817733Y-77039819D01*
X248817733Y-77039819D02*
X248722495Y-76992200D01*
X249770114Y-77039819D02*
X249674876Y-76992200D01*
X249674876Y-76992200D02*
X249627257Y-76896961D01*
X249627257Y-76896961D02*
X249627257Y-76039819D01*
X250579638Y-77039819D02*
X250579638Y-76516009D01*
X250579638Y-76516009D02*
X250532019Y-76420771D01*
X250532019Y-76420771D02*
X250436781Y-76373152D01*
X250436781Y-76373152D02*
X250246305Y-76373152D01*
X250246305Y-76373152D02*
X250151067Y-76420771D01*
X250579638Y-76992200D02*
X250484400Y-77039819D01*
X250484400Y-77039819D02*
X250246305Y-77039819D01*
X250246305Y-77039819D02*
X250151067Y-76992200D01*
X250151067Y-76992200D02*
X250103448Y-76896961D01*
X250103448Y-76896961D02*
X250103448Y-76801723D01*
X250103448Y-76801723D02*
X250151067Y-76706485D01*
X250151067Y-76706485D02*
X250246305Y-76658866D01*
X250246305Y-76658866D02*
X250484400Y-76658866D01*
X250484400Y-76658866D02*
X250579638Y-76611247D01*
X250960591Y-76373152D02*
X251198686Y-77039819D01*
X251436781Y-76373152D02*
X251198686Y-77039819D01*
X251198686Y-77039819D02*
X251103448Y-77277914D01*
X251103448Y-77277914D02*
X251055829Y-77325533D01*
X251055829Y-77325533D02*
X250960591Y-77373152D01*
X252077580Y-94161466D02*
X252125200Y-94209085D01*
X252125200Y-94209085D02*
X252172819Y-94351942D01*
X252172819Y-94351942D02*
X252172819Y-94447180D01*
X252172819Y-94447180D02*
X252125200Y-94590037D01*
X252125200Y-94590037D02*
X252029961Y-94685275D01*
X252029961Y-94685275D02*
X251934723Y-94732894D01*
X251934723Y-94732894D02*
X251744247Y-94780513D01*
X251744247Y-94780513D02*
X251601390Y-94780513D01*
X251601390Y-94780513D02*
X251410914Y-94732894D01*
X251410914Y-94732894D02*
X251315676Y-94685275D01*
X251315676Y-94685275D02*
X251220438Y-94590037D01*
X251220438Y-94590037D02*
X251172819Y-94447180D01*
X251172819Y-94447180D02*
X251172819Y-94351942D01*
X251172819Y-94351942D02*
X251220438Y-94209085D01*
X251220438Y-94209085D02*
X251268057Y-94161466D01*
X251172819Y-93828132D02*
X251172819Y-93209085D01*
X251172819Y-93209085D02*
X251553771Y-93542418D01*
X251553771Y-93542418D02*
X251553771Y-93399561D01*
X251553771Y-93399561D02*
X251601390Y-93304323D01*
X251601390Y-93304323D02*
X251649009Y-93256704D01*
X251649009Y-93256704D02*
X251744247Y-93209085D01*
X251744247Y-93209085D02*
X251982342Y-93209085D01*
X251982342Y-93209085D02*
X252077580Y-93256704D01*
X252077580Y-93256704D02*
X252125200Y-93304323D01*
X252125200Y-93304323D02*
X252172819Y-93399561D01*
X252172819Y-93399561D02*
X252172819Y-93685275D01*
X252172819Y-93685275D02*
X252125200Y-93780513D01*
X252125200Y-93780513D02*
X252077580Y-93828132D01*
X235584819Y-98566666D02*
X235108628Y-98899999D01*
X235584819Y-99138094D02*
X234584819Y-99138094D01*
X234584819Y-99138094D02*
X234584819Y-98757142D01*
X234584819Y-98757142D02*
X234632438Y-98661904D01*
X234632438Y-98661904D02*
X234680057Y-98614285D01*
X234680057Y-98614285D02*
X234775295Y-98566666D01*
X234775295Y-98566666D02*
X234918152Y-98566666D01*
X234918152Y-98566666D02*
X235013390Y-98614285D01*
X235013390Y-98614285D02*
X235061009Y-98661904D01*
X235061009Y-98661904D02*
X235108628Y-98757142D01*
X235108628Y-98757142D02*
X235108628Y-99138094D01*
X234584819Y-98233332D02*
X234584819Y-97566666D01*
X234584819Y-97566666D02*
X235584819Y-97995237D01*
D13*
X233361904Y-110324895D02*
X232980952Y-110324895D01*
X232980952Y-110324895D02*
X232980952Y-109524895D01*
X233933333Y-110286800D02*
X233857142Y-110324895D01*
X233857142Y-110324895D02*
X233704761Y-110324895D01*
X233704761Y-110324895D02*
X233628571Y-110286800D01*
X233628571Y-110286800D02*
X233590475Y-110210609D01*
X233590475Y-110210609D02*
X233590475Y-109905847D01*
X233590475Y-109905847D02*
X233628571Y-109829657D01*
X233628571Y-109829657D02*
X233704761Y-109791561D01*
X233704761Y-109791561D02*
X233857142Y-109791561D01*
X233857142Y-109791561D02*
X233933333Y-109829657D01*
X233933333Y-109829657D02*
X233971428Y-109905847D01*
X233971428Y-109905847D02*
X233971428Y-109982038D01*
X233971428Y-109982038D02*
X233590475Y-110058228D01*
X234238094Y-109791561D02*
X234428570Y-110324895D01*
X234428570Y-110324895D02*
X234619047Y-109791561D01*
X235228571Y-110286800D02*
X235152380Y-110324895D01*
X235152380Y-110324895D02*
X234999999Y-110324895D01*
X234999999Y-110324895D02*
X234923809Y-110286800D01*
X234923809Y-110286800D02*
X234885713Y-110210609D01*
X234885713Y-110210609D02*
X234885713Y-109905847D01*
X234885713Y-109905847D02*
X234923809Y-109829657D01*
X234923809Y-109829657D02*
X234999999Y-109791561D01*
X234999999Y-109791561D02*
X235152380Y-109791561D01*
X235152380Y-109791561D02*
X235228571Y-109829657D01*
X235228571Y-109829657D02*
X235266666Y-109905847D01*
X235266666Y-109905847D02*
X235266666Y-109982038D01*
X235266666Y-109982038D02*
X234885713Y-110058228D01*
X235723808Y-110324895D02*
X235647618Y-110286800D01*
X235647618Y-110286800D02*
X235609523Y-110210609D01*
X235609523Y-110210609D02*
X235609523Y-109524895D01*
X236599999Y-110286800D02*
X236714285Y-110324895D01*
X236714285Y-110324895D02*
X236904761Y-110324895D01*
X236904761Y-110324895D02*
X236980952Y-110286800D01*
X236980952Y-110286800D02*
X237019047Y-110248704D01*
X237019047Y-110248704D02*
X237057142Y-110172514D01*
X237057142Y-110172514D02*
X237057142Y-110096323D01*
X237057142Y-110096323D02*
X237019047Y-110020133D01*
X237019047Y-110020133D02*
X236980952Y-109982038D01*
X236980952Y-109982038D02*
X236904761Y-109943942D01*
X236904761Y-109943942D02*
X236752380Y-109905847D01*
X236752380Y-109905847D02*
X236676190Y-109867752D01*
X236676190Y-109867752D02*
X236638095Y-109829657D01*
X236638095Y-109829657D02*
X236599999Y-109753466D01*
X236599999Y-109753466D02*
X236599999Y-109677276D01*
X236599999Y-109677276D02*
X236638095Y-109601085D01*
X236638095Y-109601085D02*
X236676190Y-109562990D01*
X236676190Y-109562990D02*
X236752380Y-109524895D01*
X236752380Y-109524895D02*
X236942857Y-109524895D01*
X236942857Y-109524895D02*
X237057142Y-109562990D01*
X237400000Y-110324895D02*
X237400000Y-109524895D01*
X237742857Y-110324895D02*
X237742857Y-109905847D01*
X237742857Y-109905847D02*
X237704762Y-109829657D01*
X237704762Y-109829657D02*
X237628571Y-109791561D01*
X237628571Y-109791561D02*
X237514285Y-109791561D01*
X237514285Y-109791561D02*
X237438095Y-109829657D01*
X237438095Y-109829657D02*
X237400000Y-109867752D01*
X238123810Y-110324895D02*
X238123810Y-109791561D01*
X238123810Y-109524895D02*
X238085714Y-109562990D01*
X238085714Y-109562990D02*
X238123810Y-109601085D01*
X238123810Y-109601085D02*
X238161905Y-109562990D01*
X238161905Y-109562990D02*
X238123810Y-109524895D01*
X238123810Y-109524895D02*
X238123810Y-109601085D01*
X238390476Y-109791561D02*
X238695238Y-109791561D01*
X238504762Y-110324895D02*
X238504762Y-109639180D01*
X238504762Y-109639180D02*
X238542857Y-109562990D01*
X238542857Y-109562990D02*
X238619047Y-109524895D01*
X238619047Y-109524895D02*
X238695238Y-109524895D01*
X238847619Y-109791561D02*
X239152381Y-109791561D01*
X238961905Y-109524895D02*
X238961905Y-110210609D01*
X238961905Y-110210609D02*
X239000000Y-110286800D01*
X239000000Y-110286800D02*
X239076190Y-110324895D01*
X239076190Y-110324895D02*
X239152381Y-110324895D01*
X239723810Y-110286800D02*
X239647619Y-110324895D01*
X239647619Y-110324895D02*
X239495238Y-110324895D01*
X239495238Y-110324895D02*
X239419048Y-110286800D01*
X239419048Y-110286800D02*
X239380952Y-110210609D01*
X239380952Y-110210609D02*
X239380952Y-109905847D01*
X239380952Y-109905847D02*
X239419048Y-109829657D01*
X239419048Y-109829657D02*
X239495238Y-109791561D01*
X239495238Y-109791561D02*
X239647619Y-109791561D01*
X239647619Y-109791561D02*
X239723810Y-109829657D01*
X239723810Y-109829657D02*
X239761905Y-109905847D01*
X239761905Y-109905847D02*
X239761905Y-109982038D01*
X239761905Y-109982038D02*
X239380952Y-110058228D01*
X240104762Y-110324895D02*
X240104762Y-109791561D01*
X240104762Y-109943942D02*
X240142857Y-109867752D01*
X240142857Y-109867752D02*
X240180952Y-109829657D01*
X240180952Y-109829657D02*
X240257143Y-109791561D01*
X240257143Y-109791561D02*
X240333333Y-109791561D01*
D14*
X239064744Y-94204828D02*
X239102840Y-94228637D01*
X239102840Y-94228637D02*
X239140935Y-94300066D01*
X239140935Y-94300066D02*
X239140935Y-94347685D01*
X239140935Y-94347685D02*
X239102840Y-94419113D01*
X239102840Y-94419113D02*
X239026649Y-94466732D01*
X239026649Y-94466732D02*
X238950459Y-94490542D01*
X238950459Y-94490542D02*
X238798078Y-94514351D01*
X238798078Y-94514351D02*
X238683792Y-94514351D01*
X238683792Y-94514351D02*
X238531411Y-94490542D01*
X238531411Y-94490542D02*
X238455220Y-94466732D01*
X238455220Y-94466732D02*
X238379030Y-94419113D01*
X238379030Y-94419113D02*
X238340935Y-94347685D01*
X238340935Y-94347685D02*
X238340935Y-94300066D01*
X238340935Y-94300066D02*
X238379030Y-94228637D01*
X238379030Y-94228637D02*
X238417125Y-94204828D01*
X239140935Y-93728637D02*
X239140935Y-94014351D01*
X239140935Y-93871494D02*
X238340935Y-93871494D01*
X238340935Y-93871494D02*
X238455220Y-93919113D01*
X238455220Y-93919113D02*
X238531411Y-93966732D01*
X238531411Y-93966732D02*
X238569506Y-94014351D01*
X238607601Y-93300066D02*
X239140935Y-93300066D01*
X238302840Y-93419114D02*
X238874268Y-93538161D01*
X238874268Y-93538161D02*
X238874268Y-93228638D01*
D11*
X245719819Y-109110066D02*
X245243628Y-109443399D01*
X245719819Y-109681494D02*
X244719819Y-109681494D01*
X244719819Y-109681494D02*
X244719819Y-109300542D01*
X244719819Y-109300542D02*
X244767438Y-109205304D01*
X244767438Y-109205304D02*
X244815057Y-109157685D01*
X244815057Y-109157685D02*
X244910295Y-109110066D01*
X244910295Y-109110066D02*
X245053152Y-109110066D01*
X245053152Y-109110066D02*
X245148390Y-109157685D01*
X245148390Y-109157685D02*
X245196009Y-109205304D01*
X245196009Y-109205304D02*
X245243628Y-109300542D01*
X245243628Y-109300542D02*
X245243628Y-109681494D01*
X244719819Y-108776732D02*
X244719819Y-108157685D01*
X244719819Y-108157685D02*
X245100771Y-108491018D01*
X245100771Y-108491018D02*
X245100771Y-108348161D01*
X245100771Y-108348161D02*
X245148390Y-108252923D01*
X245148390Y-108252923D02*
X245196009Y-108205304D01*
X245196009Y-108205304D02*
X245291247Y-108157685D01*
X245291247Y-108157685D02*
X245529342Y-108157685D01*
X245529342Y-108157685D02*
X245624580Y-108205304D01*
X245624580Y-108205304D02*
X245672200Y-108252923D01*
X245672200Y-108252923D02*
X245719819Y-108348161D01*
X245719819Y-108348161D02*
X245719819Y-108633875D01*
X245719819Y-108633875D02*
X245672200Y-108729113D01*
X245672200Y-108729113D02*
X245624580Y-108776732D01*
D13*
X253742856Y-111512104D02*
X253707142Y-111550200D01*
X253707142Y-111550200D02*
X253599999Y-111588295D01*
X253599999Y-111588295D02*
X253528571Y-111588295D01*
X253528571Y-111588295D02*
X253421428Y-111550200D01*
X253421428Y-111550200D02*
X253349999Y-111474009D01*
X253349999Y-111474009D02*
X253314285Y-111397819D01*
X253314285Y-111397819D02*
X253278571Y-111245438D01*
X253278571Y-111245438D02*
X253278571Y-111131152D01*
X253278571Y-111131152D02*
X253314285Y-110978771D01*
X253314285Y-110978771D02*
X253349999Y-110902580D01*
X253349999Y-110902580D02*
X253421428Y-110826390D01*
X253421428Y-110826390D02*
X253528571Y-110788295D01*
X253528571Y-110788295D02*
X253599999Y-110788295D01*
X253599999Y-110788295D02*
X253707142Y-110826390D01*
X253707142Y-110826390D02*
X253742856Y-110864485D01*
X254457142Y-111588295D02*
X254028571Y-111588295D01*
X254242856Y-111588295D02*
X254242856Y-110788295D01*
X254242856Y-110788295D02*
X254171428Y-110902580D01*
X254171428Y-110902580D02*
X254099999Y-110978771D01*
X254099999Y-110978771D02*
X254028571Y-111016866D01*
X254742857Y-110864485D02*
X254778571Y-110826390D01*
X254778571Y-110826390D02*
X254850000Y-110788295D01*
X254850000Y-110788295D02*
X255028571Y-110788295D01*
X255028571Y-110788295D02*
X255100000Y-110826390D01*
X255100000Y-110826390D02*
X255135714Y-110864485D01*
X255135714Y-110864485D02*
X255171428Y-110940676D01*
X255171428Y-110940676D02*
X255171428Y-111016866D01*
X255171428Y-111016866D02*
X255135714Y-111131152D01*
X255135714Y-111131152D02*
X254707142Y-111588295D01*
X254707142Y-111588295D02*
X255171428Y-111588295D01*
D11*
X245403580Y-89979257D02*
X245451200Y-90026876D01*
X245451200Y-90026876D02*
X245498819Y-90169733D01*
X245498819Y-90169733D02*
X245498819Y-90264971D01*
X245498819Y-90264971D02*
X245451200Y-90407828D01*
X245451200Y-90407828D02*
X245355961Y-90503066D01*
X245355961Y-90503066D02*
X245260723Y-90550685D01*
X245260723Y-90550685D02*
X245070247Y-90598304D01*
X245070247Y-90598304D02*
X244927390Y-90598304D01*
X244927390Y-90598304D02*
X244736914Y-90550685D01*
X244736914Y-90550685D02*
X244641676Y-90503066D01*
X244641676Y-90503066D02*
X244546438Y-90407828D01*
X244546438Y-90407828D02*
X244498819Y-90264971D01*
X244498819Y-90264971D02*
X244498819Y-90169733D01*
X244498819Y-90169733D02*
X244546438Y-90026876D01*
X244546438Y-90026876D02*
X244594057Y-89979257D01*
X245498819Y-89026876D02*
X245498819Y-89598304D01*
X245498819Y-89312590D02*
X244498819Y-89312590D01*
X244498819Y-89312590D02*
X244641676Y-89407828D01*
X244641676Y-89407828D02*
X244736914Y-89503066D01*
X244736914Y-89503066D02*
X244784533Y-89598304D01*
X245498819Y-88074495D02*
X245498819Y-88645923D01*
X245498819Y-88360209D02*
X244498819Y-88360209D01*
X244498819Y-88360209D02*
X244641676Y-88455447D01*
X244641676Y-88455447D02*
X244736914Y-88550685D01*
X244736914Y-88550685D02*
X244784533Y-88645923D01*
X250849819Y-108990066D02*
X250373628Y-109323399D01*
X250849819Y-109561494D02*
X249849819Y-109561494D01*
X249849819Y-109561494D02*
X249849819Y-109180542D01*
X249849819Y-109180542D02*
X249897438Y-109085304D01*
X249897438Y-109085304D02*
X249945057Y-109037685D01*
X249945057Y-109037685D02*
X250040295Y-108990066D01*
X250040295Y-108990066D02*
X250183152Y-108990066D01*
X250183152Y-108990066D02*
X250278390Y-109037685D01*
X250278390Y-109037685D02*
X250326009Y-109085304D01*
X250326009Y-109085304D02*
X250373628Y-109180542D01*
X250373628Y-109180542D02*
X250373628Y-109561494D01*
X249945057Y-108609113D02*
X249897438Y-108561494D01*
X249897438Y-108561494D02*
X249849819Y-108466256D01*
X249849819Y-108466256D02*
X249849819Y-108228161D01*
X249849819Y-108228161D02*
X249897438Y-108132923D01*
X249897438Y-108132923D02*
X249945057Y-108085304D01*
X249945057Y-108085304D02*
X250040295Y-108037685D01*
X250040295Y-108037685D02*
X250135533Y-108037685D01*
X250135533Y-108037685D02*
X250278390Y-108085304D01*
X250278390Y-108085304D02*
X250849819Y-108656732D01*
X250849819Y-108656732D02*
X250849819Y-108037685D01*
D13*
X225635714Y-98444895D02*
X225635714Y-97644895D01*
X225635714Y-97644895D02*
X225902380Y-98216323D01*
X225902380Y-98216323D02*
X226169047Y-97644895D01*
X226169047Y-97644895D02*
X226169047Y-98444895D01*
X226511904Y-98216323D02*
X226892857Y-98216323D01*
X226435714Y-98444895D02*
X226702381Y-97644895D01*
X226702381Y-97644895D02*
X226969047Y-98444895D01*
X227159523Y-97644895D02*
X227692857Y-98444895D01*
X227692857Y-97644895D02*
X227159523Y-98444895D01*
X227921428Y-97644895D02*
X228454762Y-97644895D01*
X228454762Y-97644895D02*
X228111904Y-98444895D01*
X228721428Y-97721085D02*
X228759524Y-97682990D01*
X228759524Y-97682990D02*
X228835714Y-97644895D01*
X228835714Y-97644895D02*
X229026190Y-97644895D01*
X229026190Y-97644895D02*
X229102381Y-97682990D01*
X229102381Y-97682990D02*
X229140476Y-97721085D01*
X229140476Y-97721085D02*
X229178571Y-97797276D01*
X229178571Y-97797276D02*
X229178571Y-97873466D01*
X229178571Y-97873466D02*
X229140476Y-97987752D01*
X229140476Y-97987752D02*
X228683333Y-98444895D01*
X228683333Y-98444895D02*
X229178571Y-98444895D01*
X229940476Y-98444895D02*
X229483333Y-98444895D01*
X229711905Y-98444895D02*
X229711905Y-97644895D01*
X229711905Y-97644895D02*
X229635714Y-97759180D01*
X229635714Y-97759180D02*
X229559524Y-97835371D01*
X229559524Y-97835371D02*
X229483333Y-97873466D01*
X230321429Y-98444895D02*
X230473810Y-98444895D01*
X230473810Y-98444895D02*
X230550000Y-98406800D01*
X230550000Y-98406800D02*
X230588096Y-98368704D01*
X230588096Y-98368704D02*
X230664286Y-98254419D01*
X230664286Y-98254419D02*
X230702381Y-98102038D01*
X230702381Y-98102038D02*
X230702381Y-97797276D01*
X230702381Y-97797276D02*
X230664286Y-97721085D01*
X230664286Y-97721085D02*
X230626191Y-97682990D01*
X230626191Y-97682990D02*
X230550000Y-97644895D01*
X230550000Y-97644895D02*
X230397619Y-97644895D01*
X230397619Y-97644895D02*
X230321429Y-97682990D01*
X230321429Y-97682990D02*
X230283334Y-97721085D01*
X230283334Y-97721085D02*
X230245238Y-97797276D01*
X230245238Y-97797276D02*
X230245238Y-97987752D01*
X230245238Y-97987752D02*
X230283334Y-98063942D01*
X230283334Y-98063942D02*
X230321429Y-98102038D01*
X230321429Y-98102038D02*
X230397619Y-98140133D01*
X230397619Y-98140133D02*
X230550000Y-98140133D01*
X230550000Y-98140133D02*
X230626191Y-98102038D01*
X230626191Y-98102038D02*
X230664286Y-98063942D01*
X230664286Y-98063942D02*
X230702381Y-97987752D01*
X257197618Y-113416323D02*
X257578571Y-113416323D01*
X257121428Y-113644895D02*
X257388095Y-112844895D01*
X257388095Y-112844895D02*
X257654761Y-113644895D01*
X257921428Y-113644895D02*
X257921428Y-112844895D01*
X257921428Y-112844895D02*
X258188094Y-113416323D01*
X258188094Y-113416323D02*
X258454761Y-112844895D01*
X258454761Y-112844895D02*
X258454761Y-113644895D01*
X258797618Y-113606800D02*
X258911904Y-113644895D01*
X258911904Y-113644895D02*
X259102380Y-113644895D01*
X259102380Y-113644895D02*
X259178571Y-113606800D01*
X259178571Y-113606800D02*
X259216666Y-113568704D01*
X259216666Y-113568704D02*
X259254761Y-113492514D01*
X259254761Y-113492514D02*
X259254761Y-113416323D01*
X259254761Y-113416323D02*
X259216666Y-113340133D01*
X259216666Y-113340133D02*
X259178571Y-113302038D01*
X259178571Y-113302038D02*
X259102380Y-113263942D01*
X259102380Y-113263942D02*
X258949999Y-113225847D01*
X258949999Y-113225847D02*
X258873809Y-113187752D01*
X258873809Y-113187752D02*
X258835714Y-113149657D01*
X258835714Y-113149657D02*
X258797618Y-113073466D01*
X258797618Y-113073466D02*
X258797618Y-112997276D01*
X258797618Y-112997276D02*
X258835714Y-112921085D01*
X258835714Y-112921085D02*
X258873809Y-112882990D01*
X258873809Y-112882990D02*
X258949999Y-112844895D01*
X258949999Y-112844895D02*
X259140476Y-112844895D01*
X259140476Y-112844895D02*
X259254761Y-112882990D01*
X260016666Y-113644895D02*
X259559523Y-113644895D01*
X259788095Y-113644895D02*
X259788095Y-112844895D01*
X259788095Y-112844895D02*
X259711904Y-112959180D01*
X259711904Y-112959180D02*
X259635714Y-113035371D01*
X259635714Y-113035371D02*
X259559523Y-113073466D01*
X260778571Y-113644895D02*
X260321428Y-113644895D01*
X260550000Y-113644895D02*
X260550000Y-112844895D01*
X260550000Y-112844895D02*
X260473809Y-112959180D01*
X260473809Y-112959180D02*
X260397619Y-113035371D01*
X260397619Y-113035371D02*
X260321428Y-113073466D01*
X261540476Y-113644895D02*
X261083333Y-113644895D01*
X261311905Y-113644895D02*
X261311905Y-112844895D01*
X261311905Y-112844895D02*
X261235714Y-112959180D01*
X261235714Y-112959180D02*
X261159524Y-113035371D01*
X261159524Y-113035371D02*
X261083333Y-113073466D01*
X261807143Y-112844895D02*
X262340477Y-112844895D01*
X262340477Y-112844895D02*
X261997619Y-113644895D01*
X244333704Y-91838400D02*
X244371800Y-91874114D01*
X244371800Y-91874114D02*
X244409895Y-91981257D01*
X244409895Y-91981257D02*
X244409895Y-92052685D01*
X244409895Y-92052685D02*
X244371800Y-92159828D01*
X244371800Y-92159828D02*
X244295609Y-92231257D01*
X244295609Y-92231257D02*
X244219419Y-92266971D01*
X244219419Y-92266971D02*
X244067038Y-92302685D01*
X244067038Y-92302685D02*
X243952752Y-92302685D01*
X243952752Y-92302685D02*
X243800371Y-92266971D01*
X243800371Y-92266971D02*
X243724180Y-92231257D01*
X243724180Y-92231257D02*
X243647990Y-92159828D01*
X243647990Y-92159828D02*
X243609895Y-92052685D01*
X243609895Y-92052685D02*
X243609895Y-91981257D01*
X243609895Y-91981257D02*
X243647990Y-91874114D01*
X243647990Y-91874114D02*
X243686085Y-91838400D01*
X243609895Y-91588400D02*
X243609895Y-91088400D01*
X243609895Y-91088400D02*
X244409895Y-91409828D01*
D14*
X222188571Y-95389744D02*
X222164762Y-95427840D01*
X222164762Y-95427840D02*
X222093333Y-95465935D01*
X222093333Y-95465935D02*
X222045714Y-95465935D01*
X222045714Y-95465935D02*
X221974286Y-95427840D01*
X221974286Y-95427840D02*
X221926667Y-95351649D01*
X221926667Y-95351649D02*
X221902857Y-95275459D01*
X221902857Y-95275459D02*
X221879048Y-95123078D01*
X221879048Y-95123078D02*
X221879048Y-95008792D01*
X221879048Y-95008792D02*
X221902857Y-94856411D01*
X221902857Y-94856411D02*
X221926667Y-94780220D01*
X221926667Y-94780220D02*
X221974286Y-94704030D01*
X221974286Y-94704030D02*
X222045714Y-94665935D01*
X222045714Y-94665935D02*
X222093333Y-94665935D01*
X222093333Y-94665935D02*
X222164762Y-94704030D01*
X222164762Y-94704030D02*
X222188571Y-94742125D01*
X222664762Y-95465935D02*
X222379048Y-95465935D01*
X222521905Y-95465935D02*
X222521905Y-94665935D01*
X222521905Y-94665935D02*
X222474286Y-94780220D01*
X222474286Y-94780220D02*
X222426667Y-94856411D01*
X222426667Y-94856411D02*
X222379048Y-94894506D01*
X223093333Y-94665935D02*
X222998095Y-94665935D01*
X222998095Y-94665935D02*
X222950476Y-94704030D01*
X222950476Y-94704030D02*
X222926666Y-94742125D01*
X222926666Y-94742125D02*
X222879047Y-94856411D01*
X222879047Y-94856411D02*
X222855238Y-95008792D01*
X222855238Y-95008792D02*
X222855238Y-95313554D01*
X222855238Y-95313554D02*
X222879047Y-95389744D01*
X222879047Y-95389744D02*
X222902857Y-95427840D01*
X222902857Y-95427840D02*
X222950476Y-95465935D01*
X222950476Y-95465935D02*
X223045714Y-95465935D01*
X223045714Y-95465935D02*
X223093333Y-95427840D01*
X223093333Y-95427840D02*
X223117142Y-95389744D01*
X223117142Y-95389744D02*
X223140952Y-95313554D01*
X223140952Y-95313554D02*
X223140952Y-95123078D01*
X223140952Y-95123078D02*
X223117142Y-95046887D01*
X223117142Y-95046887D02*
X223093333Y-95008792D01*
X223093333Y-95008792D02*
X223045714Y-94970697D01*
X223045714Y-94970697D02*
X222950476Y-94970697D01*
X222950476Y-94970697D02*
X222902857Y-95008792D01*
X222902857Y-95008792D02*
X222879047Y-95046887D01*
X222879047Y-95046887D02*
X222855238Y-95123078D01*
X241899744Y-102301428D02*
X241937840Y-102325237D01*
X241937840Y-102325237D02*
X241975935Y-102396666D01*
X241975935Y-102396666D02*
X241975935Y-102444285D01*
X241975935Y-102444285D02*
X241937840Y-102515713D01*
X241937840Y-102515713D02*
X241861649Y-102563332D01*
X241861649Y-102563332D02*
X241785459Y-102587142D01*
X241785459Y-102587142D02*
X241633078Y-102610951D01*
X241633078Y-102610951D02*
X241518792Y-102610951D01*
X241518792Y-102610951D02*
X241366411Y-102587142D01*
X241366411Y-102587142D02*
X241290220Y-102563332D01*
X241290220Y-102563332D02*
X241214030Y-102515713D01*
X241214030Y-102515713D02*
X241175935Y-102444285D01*
X241175935Y-102444285D02*
X241175935Y-102396666D01*
X241175935Y-102396666D02*
X241214030Y-102325237D01*
X241214030Y-102325237D02*
X241252125Y-102301428D01*
X241975935Y-101825237D02*
X241975935Y-102110951D01*
X241975935Y-101968094D02*
X241175935Y-101968094D01*
X241175935Y-101968094D02*
X241290220Y-102015713D01*
X241290220Y-102015713D02*
X241366411Y-102063332D01*
X241366411Y-102063332D02*
X241404506Y-102110951D01*
X241175935Y-101372857D02*
X241175935Y-101610952D01*
X241175935Y-101610952D02*
X241556887Y-101634761D01*
X241556887Y-101634761D02*
X241518792Y-101610952D01*
X241518792Y-101610952D02*
X241480697Y-101563333D01*
X241480697Y-101563333D02*
X241480697Y-101444285D01*
X241480697Y-101444285D02*
X241518792Y-101396666D01*
X241518792Y-101396666D02*
X241556887Y-101372857D01*
X241556887Y-101372857D02*
X241633078Y-101349047D01*
X241633078Y-101349047D02*
X241823554Y-101349047D01*
X241823554Y-101349047D02*
X241899744Y-101372857D01*
X241899744Y-101372857D02*
X241937840Y-101396666D01*
X241937840Y-101396666D02*
X241975935Y-101444285D01*
X241975935Y-101444285D02*
X241975935Y-101563333D01*
X241975935Y-101563333D02*
X241937840Y-101610952D01*
X241937840Y-101610952D02*
X241899744Y-101634761D01*
X251786666Y-95639744D02*
X251762857Y-95677840D01*
X251762857Y-95677840D02*
X251691428Y-95715935D01*
X251691428Y-95715935D02*
X251643809Y-95715935D01*
X251643809Y-95715935D02*
X251572381Y-95677840D01*
X251572381Y-95677840D02*
X251524762Y-95601649D01*
X251524762Y-95601649D02*
X251500952Y-95525459D01*
X251500952Y-95525459D02*
X251477143Y-95373078D01*
X251477143Y-95373078D02*
X251477143Y-95258792D01*
X251477143Y-95258792D02*
X251500952Y-95106411D01*
X251500952Y-95106411D02*
X251524762Y-95030220D01*
X251524762Y-95030220D02*
X251572381Y-94954030D01*
X251572381Y-94954030D02*
X251643809Y-94915935D01*
X251643809Y-94915935D02*
X251691428Y-94915935D01*
X251691428Y-94915935D02*
X251762857Y-94954030D01*
X251762857Y-94954030D02*
X251786666Y-94992125D01*
X252024762Y-95715935D02*
X252120000Y-95715935D01*
X252120000Y-95715935D02*
X252167619Y-95677840D01*
X252167619Y-95677840D02*
X252191428Y-95639744D01*
X252191428Y-95639744D02*
X252239047Y-95525459D01*
X252239047Y-95525459D02*
X252262857Y-95373078D01*
X252262857Y-95373078D02*
X252262857Y-95068316D01*
X252262857Y-95068316D02*
X252239047Y-94992125D01*
X252239047Y-94992125D02*
X252215238Y-94954030D01*
X252215238Y-94954030D02*
X252167619Y-94915935D01*
X252167619Y-94915935D02*
X252072381Y-94915935D01*
X252072381Y-94915935D02*
X252024762Y-94954030D01*
X252024762Y-94954030D02*
X252000952Y-94992125D01*
X252000952Y-94992125D02*
X251977143Y-95068316D01*
X251977143Y-95068316D02*
X251977143Y-95258792D01*
X251977143Y-95258792D02*
X252000952Y-95334982D01*
X252000952Y-95334982D02*
X252024762Y-95373078D01*
X252024762Y-95373078D02*
X252072381Y-95411173D01*
X252072381Y-95411173D02*
X252167619Y-95411173D01*
X252167619Y-95411173D02*
X252215238Y-95373078D01*
X252215238Y-95373078D02*
X252239047Y-95334982D01*
X252239047Y-95334982D02*
X252262857Y-95258792D01*
D11*
X243139780Y-91039666D02*
X243187400Y-91087285D01*
X243187400Y-91087285D02*
X243235019Y-91230142D01*
X243235019Y-91230142D02*
X243235019Y-91325380D01*
X243235019Y-91325380D02*
X243187400Y-91468237D01*
X243187400Y-91468237D02*
X243092161Y-91563475D01*
X243092161Y-91563475D02*
X242996923Y-91611094D01*
X242996923Y-91611094D02*
X242806447Y-91658713D01*
X242806447Y-91658713D02*
X242663590Y-91658713D01*
X242663590Y-91658713D02*
X242473114Y-91611094D01*
X242473114Y-91611094D02*
X242377876Y-91563475D01*
X242377876Y-91563475D02*
X242282638Y-91468237D01*
X242282638Y-91468237D02*
X242235019Y-91325380D01*
X242235019Y-91325380D02*
X242235019Y-91230142D01*
X242235019Y-91230142D02*
X242282638Y-91087285D01*
X242282638Y-91087285D02*
X242330257Y-91039666D01*
X242663590Y-90468237D02*
X242615971Y-90563475D01*
X242615971Y-90563475D02*
X242568352Y-90611094D01*
X242568352Y-90611094D02*
X242473114Y-90658713D01*
X242473114Y-90658713D02*
X242425495Y-90658713D01*
X242425495Y-90658713D02*
X242330257Y-90611094D01*
X242330257Y-90611094D02*
X242282638Y-90563475D01*
X242282638Y-90563475D02*
X242235019Y-90468237D01*
X242235019Y-90468237D02*
X242235019Y-90277761D01*
X242235019Y-90277761D02*
X242282638Y-90182523D01*
X242282638Y-90182523D02*
X242330257Y-90134904D01*
X242330257Y-90134904D02*
X242425495Y-90087285D01*
X242425495Y-90087285D02*
X242473114Y-90087285D01*
X242473114Y-90087285D02*
X242568352Y-90134904D01*
X242568352Y-90134904D02*
X242615971Y-90182523D01*
X242615971Y-90182523D02*
X242663590Y-90277761D01*
X242663590Y-90277761D02*
X242663590Y-90468237D01*
X242663590Y-90468237D02*
X242711209Y-90563475D01*
X242711209Y-90563475D02*
X242758828Y-90611094D01*
X242758828Y-90611094D02*
X242854066Y-90658713D01*
X242854066Y-90658713D02*
X243044542Y-90658713D01*
X243044542Y-90658713D02*
X243139780Y-90611094D01*
X243139780Y-90611094D02*
X243187400Y-90563475D01*
X243187400Y-90563475D02*
X243235019Y-90468237D01*
X243235019Y-90468237D02*
X243235019Y-90277761D01*
X243235019Y-90277761D02*
X243187400Y-90182523D01*
X243187400Y-90182523D02*
X243139780Y-90134904D01*
X243139780Y-90134904D02*
X243044542Y-90087285D01*
X243044542Y-90087285D02*
X242854066Y-90087285D01*
X242854066Y-90087285D02*
X242758828Y-90134904D01*
X242758828Y-90134904D02*
X242711209Y-90182523D01*
X242711209Y-90182523D02*
X242663590Y-90277761D01*
X241040909Y-93278533D02*
X241040909Y-93611866D01*
X241564719Y-93611866D02*
X240564719Y-93611866D01*
X240564719Y-93611866D02*
X240564719Y-93135676D01*
X241040909Y-92421390D02*
X241088528Y-92278533D01*
X241088528Y-92278533D02*
X241136147Y-92230914D01*
X241136147Y-92230914D02*
X241231385Y-92183295D01*
X241231385Y-92183295D02*
X241374242Y-92183295D01*
X241374242Y-92183295D02*
X241469480Y-92230914D01*
X241469480Y-92230914D02*
X241517100Y-92278533D01*
X241517100Y-92278533D02*
X241564719Y-92373771D01*
X241564719Y-92373771D02*
X241564719Y-92754723D01*
X241564719Y-92754723D02*
X240564719Y-92754723D01*
X240564719Y-92754723D02*
X240564719Y-92421390D01*
X240564719Y-92421390D02*
X240612338Y-92326152D01*
X240612338Y-92326152D02*
X240659957Y-92278533D01*
X240659957Y-92278533D02*
X240755195Y-92230914D01*
X240755195Y-92230914D02*
X240850433Y-92230914D01*
X240850433Y-92230914D02*
X240945671Y-92278533D01*
X240945671Y-92278533D02*
X240993290Y-92326152D01*
X240993290Y-92326152D02*
X241040909Y-92421390D01*
X241040909Y-92421390D02*
X241040909Y-92754723D01*
X241564719Y-91230914D02*
X241564719Y-91802342D01*
X241564719Y-91516628D02*
X240564719Y-91516628D01*
X240564719Y-91516628D02*
X240707576Y-91611866D01*
X240707576Y-91611866D02*
X240802814Y-91707104D01*
X240802814Y-91707104D02*
X240850433Y-91802342D01*
X248258628Y-89146190D02*
X248734819Y-89146190D01*
X247734819Y-89479523D02*
X248258628Y-89146190D01*
X248258628Y-89146190D02*
X247734819Y-88812857D01*
X248734819Y-87955714D02*
X248734819Y-88527142D01*
X248734819Y-88241428D02*
X247734819Y-88241428D01*
X247734819Y-88241428D02*
X247877676Y-88336666D01*
X247877676Y-88336666D02*
X247972914Y-88431904D01*
X247972914Y-88431904D02*
X248020533Y-88527142D01*
D13*
X260120095Y-96941800D02*
X259739142Y-97191800D01*
X260120095Y-97370371D02*
X259320095Y-97370371D01*
X259320095Y-97370371D02*
X259320095Y-97084657D01*
X259320095Y-97084657D02*
X259358190Y-97013228D01*
X259358190Y-97013228D02*
X259396285Y-96977514D01*
X259396285Y-96977514D02*
X259472476Y-96941800D01*
X259472476Y-96941800D02*
X259586761Y-96941800D01*
X259586761Y-96941800D02*
X259662952Y-96977514D01*
X259662952Y-96977514D02*
X259701047Y-97013228D01*
X259701047Y-97013228D02*
X259739142Y-97084657D01*
X259739142Y-97084657D02*
X259739142Y-97370371D01*
X259320095Y-96263228D02*
X259320095Y-96620371D01*
X259320095Y-96620371D02*
X259701047Y-96656085D01*
X259701047Y-96656085D02*
X259662952Y-96620371D01*
X259662952Y-96620371D02*
X259624857Y-96548943D01*
X259624857Y-96548943D02*
X259624857Y-96370371D01*
X259624857Y-96370371D02*
X259662952Y-96298943D01*
X259662952Y-96298943D02*
X259701047Y-96263228D01*
X259701047Y-96263228D02*
X259777238Y-96227514D01*
X259777238Y-96227514D02*
X259967714Y-96227514D01*
X259967714Y-96227514D02*
X260043904Y-96263228D01*
X260043904Y-96263228D02*
X260082000Y-96298943D01*
X260082000Y-96298943D02*
X260120095Y-96370371D01*
X260120095Y-96370371D02*
X260120095Y-96548943D01*
X260120095Y-96548943D02*
X260082000Y-96620371D01*
X260082000Y-96620371D02*
X260043904Y-96656085D01*
D11*
X252899219Y-104400533D02*
X253613504Y-104400533D01*
X253613504Y-104400533D02*
X253756361Y-104448152D01*
X253756361Y-104448152D02*
X253851600Y-104543390D01*
X253851600Y-104543390D02*
X253899219Y-104686247D01*
X253899219Y-104686247D02*
X253899219Y-104781485D01*
X252899219Y-104019580D02*
X252899219Y-103400533D01*
X252899219Y-103400533D02*
X253280171Y-103733866D01*
X253280171Y-103733866D02*
X253280171Y-103591009D01*
X253280171Y-103591009D02*
X253327790Y-103495771D01*
X253327790Y-103495771D02*
X253375409Y-103448152D01*
X253375409Y-103448152D02*
X253470647Y-103400533D01*
X253470647Y-103400533D02*
X253708742Y-103400533D01*
X253708742Y-103400533D02*
X253803980Y-103448152D01*
X253803980Y-103448152D02*
X253851600Y-103495771D01*
X253851600Y-103495771D02*
X253899219Y-103591009D01*
X253899219Y-103591009D02*
X253899219Y-103876723D01*
X253899219Y-103876723D02*
X253851600Y-103971961D01*
X253851600Y-103971961D02*
X253803980Y-104019580D01*
D13*
X240878571Y-108448704D02*
X240854762Y-108486800D01*
X240854762Y-108486800D02*
X240783333Y-108524895D01*
X240783333Y-108524895D02*
X240735714Y-108524895D01*
X240735714Y-108524895D02*
X240664286Y-108486800D01*
X240664286Y-108486800D02*
X240616667Y-108410609D01*
X240616667Y-108410609D02*
X240592857Y-108334419D01*
X240592857Y-108334419D02*
X240569048Y-108182038D01*
X240569048Y-108182038D02*
X240569048Y-108067752D01*
X240569048Y-108067752D02*
X240592857Y-107915371D01*
X240592857Y-107915371D02*
X240616667Y-107839180D01*
X240616667Y-107839180D02*
X240664286Y-107762990D01*
X240664286Y-107762990D02*
X240735714Y-107724895D01*
X240735714Y-107724895D02*
X240783333Y-107724895D01*
X240783333Y-107724895D02*
X240854762Y-107762990D01*
X240854762Y-107762990D02*
X240878571Y-107801085D01*
X241354762Y-108524895D02*
X241069048Y-108524895D01*
X241211905Y-108524895D02*
X241211905Y-107724895D01*
X241211905Y-107724895D02*
X241164286Y-107839180D01*
X241164286Y-107839180D02*
X241116667Y-107915371D01*
X241116667Y-107915371D02*
X241069048Y-107953466D01*
X241640476Y-108067752D02*
X241592857Y-108029657D01*
X241592857Y-108029657D02*
X241569047Y-107991561D01*
X241569047Y-107991561D02*
X241545238Y-107915371D01*
X241545238Y-107915371D02*
X241545238Y-107877276D01*
X241545238Y-107877276D02*
X241569047Y-107801085D01*
X241569047Y-107801085D02*
X241592857Y-107762990D01*
X241592857Y-107762990D02*
X241640476Y-107724895D01*
X241640476Y-107724895D02*
X241735714Y-107724895D01*
X241735714Y-107724895D02*
X241783333Y-107762990D01*
X241783333Y-107762990D02*
X241807142Y-107801085D01*
X241807142Y-107801085D02*
X241830952Y-107877276D01*
X241830952Y-107877276D02*
X241830952Y-107915371D01*
X241830952Y-107915371D02*
X241807142Y-107991561D01*
X241807142Y-107991561D02*
X241783333Y-108029657D01*
X241783333Y-108029657D02*
X241735714Y-108067752D01*
X241735714Y-108067752D02*
X241640476Y-108067752D01*
X241640476Y-108067752D02*
X241592857Y-108105847D01*
X241592857Y-108105847D02*
X241569047Y-108143942D01*
X241569047Y-108143942D02*
X241545238Y-108220133D01*
X241545238Y-108220133D02*
X241545238Y-108372514D01*
X241545238Y-108372514D02*
X241569047Y-108448704D01*
X241569047Y-108448704D02*
X241592857Y-108486800D01*
X241592857Y-108486800D02*
X241640476Y-108524895D01*
X241640476Y-108524895D02*
X241735714Y-108524895D01*
X241735714Y-108524895D02*
X241783333Y-108486800D01*
X241783333Y-108486800D02*
X241807142Y-108448704D01*
X241807142Y-108448704D02*
X241830952Y-108372514D01*
X241830952Y-108372514D02*
X241830952Y-108220133D01*
X241830952Y-108220133D02*
X241807142Y-108143942D01*
X241807142Y-108143942D02*
X241783333Y-108105847D01*
X241783333Y-108105847D02*
X241735714Y-108067752D01*
X253188704Y-96603333D02*
X253226800Y-96627142D01*
X253226800Y-96627142D02*
X253264895Y-96698571D01*
X253264895Y-96698571D02*
X253264895Y-96746190D01*
X253264895Y-96746190D02*
X253226800Y-96817618D01*
X253226800Y-96817618D02*
X253150609Y-96865237D01*
X253150609Y-96865237D02*
X253074419Y-96889047D01*
X253074419Y-96889047D02*
X252922038Y-96912856D01*
X252922038Y-96912856D02*
X252807752Y-96912856D01*
X252807752Y-96912856D02*
X252655371Y-96889047D01*
X252655371Y-96889047D02*
X252579180Y-96865237D01*
X252579180Y-96865237D02*
X252502990Y-96817618D01*
X252502990Y-96817618D02*
X252464895Y-96746190D01*
X252464895Y-96746190D02*
X252464895Y-96698571D01*
X252464895Y-96698571D02*
X252502990Y-96627142D01*
X252502990Y-96627142D02*
X252541085Y-96603333D01*
X253264895Y-96127142D02*
X253264895Y-96412856D01*
X253264895Y-96269999D02*
X252464895Y-96269999D01*
X252464895Y-96269999D02*
X252579180Y-96317618D01*
X252579180Y-96317618D02*
X252655371Y-96365237D01*
X252655371Y-96365237D02*
X252693466Y-96412856D01*
D11*
X251364933Y-106643980D02*
X251317314Y-106691600D01*
X251317314Y-106691600D02*
X251174457Y-106739219D01*
X251174457Y-106739219D02*
X251079219Y-106739219D01*
X251079219Y-106739219D02*
X250936362Y-106691600D01*
X250936362Y-106691600D02*
X250841124Y-106596361D01*
X250841124Y-106596361D02*
X250793505Y-106501123D01*
X250793505Y-106501123D02*
X250745886Y-106310647D01*
X250745886Y-106310647D02*
X250745886Y-106167790D01*
X250745886Y-106167790D02*
X250793505Y-105977314D01*
X250793505Y-105977314D02*
X250841124Y-105882076D01*
X250841124Y-105882076D02*
X250936362Y-105786838D01*
X250936362Y-105786838D02*
X251079219Y-105739219D01*
X251079219Y-105739219D02*
X251174457Y-105739219D01*
X251174457Y-105739219D02*
X251317314Y-105786838D01*
X251317314Y-105786838D02*
X251364933Y-105834457D01*
X251745886Y-105834457D02*
X251793505Y-105786838D01*
X251793505Y-105786838D02*
X251888743Y-105739219D01*
X251888743Y-105739219D02*
X252126838Y-105739219D01*
X252126838Y-105739219D02*
X252222076Y-105786838D01*
X252222076Y-105786838D02*
X252269695Y-105834457D01*
X252269695Y-105834457D02*
X252317314Y-105929695D01*
X252317314Y-105929695D02*
X252317314Y-106024933D01*
X252317314Y-106024933D02*
X252269695Y-106167790D01*
X252269695Y-106167790D02*
X251698267Y-106739219D01*
X251698267Y-106739219D02*
X252317314Y-106739219D01*
X224664419Y-94392066D02*
X224188228Y-94725399D01*
X224664419Y-94963494D02*
X223664419Y-94963494D01*
X223664419Y-94963494D02*
X223664419Y-94582542D01*
X223664419Y-94582542D02*
X223712038Y-94487304D01*
X223712038Y-94487304D02*
X223759657Y-94439685D01*
X223759657Y-94439685D02*
X223854895Y-94392066D01*
X223854895Y-94392066D02*
X223997752Y-94392066D01*
X223997752Y-94392066D02*
X224092990Y-94439685D01*
X224092990Y-94439685D02*
X224140609Y-94487304D01*
X224140609Y-94487304D02*
X224188228Y-94582542D01*
X224188228Y-94582542D02*
X224188228Y-94963494D01*
X223664419Y-93534923D02*
X223664419Y-93725399D01*
X223664419Y-93725399D02*
X223712038Y-93820637D01*
X223712038Y-93820637D02*
X223759657Y-93868256D01*
X223759657Y-93868256D02*
X223902514Y-93963494D01*
X223902514Y-93963494D02*
X224092990Y-94011113D01*
X224092990Y-94011113D02*
X224473942Y-94011113D01*
X224473942Y-94011113D02*
X224569180Y-93963494D01*
X224569180Y-93963494D02*
X224616800Y-93915875D01*
X224616800Y-93915875D02*
X224664419Y-93820637D01*
X224664419Y-93820637D02*
X224664419Y-93630161D01*
X224664419Y-93630161D02*
X224616800Y-93534923D01*
X224616800Y-93534923D02*
X224569180Y-93487304D01*
X224569180Y-93487304D02*
X224473942Y-93439685D01*
X224473942Y-93439685D02*
X224235847Y-93439685D01*
X224235847Y-93439685D02*
X224140609Y-93487304D01*
X224140609Y-93487304D02*
X224092990Y-93534923D01*
X224092990Y-93534923D02*
X224045371Y-93630161D01*
X224045371Y-93630161D02*
X224045371Y-93820637D01*
X224045371Y-93820637D02*
X224092990Y-93915875D01*
X224092990Y-93915875D02*
X224140609Y-93963494D01*
X224140609Y-93963494D02*
X224235847Y-94011113D01*
X259579819Y-100161494D02*
X258579819Y-100161494D01*
X258579819Y-100161494D02*
X258579819Y-99923399D01*
X258579819Y-99923399D02*
X258627438Y-99780542D01*
X258627438Y-99780542D02*
X258722676Y-99685304D01*
X258722676Y-99685304D02*
X258817914Y-99637685D01*
X258817914Y-99637685D02*
X259008390Y-99590066D01*
X259008390Y-99590066D02*
X259151247Y-99590066D01*
X259151247Y-99590066D02*
X259341723Y-99637685D01*
X259341723Y-99637685D02*
X259436961Y-99685304D01*
X259436961Y-99685304D02*
X259532200Y-99780542D01*
X259532200Y-99780542D02*
X259579819Y-99923399D01*
X259579819Y-99923399D02*
X259579819Y-100161494D01*
X259579819Y-98637685D02*
X259579819Y-99209113D01*
X259579819Y-98923399D02*
X258579819Y-98923399D01*
X258579819Y-98923399D02*
X258722676Y-99018637D01*
X258722676Y-99018637D02*
X258817914Y-99113875D01*
X258817914Y-99113875D02*
X258865533Y-99209113D01*
X257824580Y-104376257D02*
X257872200Y-104423876D01*
X257872200Y-104423876D02*
X257919819Y-104566733D01*
X257919819Y-104566733D02*
X257919819Y-104661971D01*
X257919819Y-104661971D02*
X257872200Y-104804828D01*
X257872200Y-104804828D02*
X257776961Y-104900066D01*
X257776961Y-104900066D02*
X257681723Y-104947685D01*
X257681723Y-104947685D02*
X257491247Y-104995304D01*
X257491247Y-104995304D02*
X257348390Y-104995304D01*
X257348390Y-104995304D02*
X257157914Y-104947685D01*
X257157914Y-104947685D02*
X257062676Y-104900066D01*
X257062676Y-104900066D02*
X256967438Y-104804828D01*
X256967438Y-104804828D02*
X256919819Y-104661971D01*
X256919819Y-104661971D02*
X256919819Y-104566733D01*
X256919819Y-104566733D02*
X256967438Y-104423876D01*
X256967438Y-104423876D02*
X257015057Y-104376257D01*
X257919819Y-103423876D02*
X257919819Y-103995304D01*
X257919819Y-103709590D02*
X256919819Y-103709590D01*
X256919819Y-103709590D02*
X257062676Y-103804828D01*
X257062676Y-103804828D02*
X257157914Y-103900066D01*
X257157914Y-103900066D02*
X257205533Y-103995304D01*
X256919819Y-103090542D02*
X256919819Y-102471495D01*
X256919819Y-102471495D02*
X257300771Y-102804828D01*
X257300771Y-102804828D02*
X257300771Y-102661971D01*
X257300771Y-102661971D02*
X257348390Y-102566733D01*
X257348390Y-102566733D02*
X257396009Y-102519114D01*
X257396009Y-102519114D02*
X257491247Y-102471495D01*
X257491247Y-102471495D02*
X257729342Y-102471495D01*
X257729342Y-102471495D02*
X257824580Y-102519114D01*
X257824580Y-102519114D02*
X257872200Y-102566733D01*
X257872200Y-102566733D02*
X257919819Y-102661971D01*
X257919819Y-102661971D02*
X257919819Y-102947685D01*
X257919819Y-102947685D02*
X257872200Y-103042923D01*
X257872200Y-103042923D02*
X257824580Y-103090542D01*
X255948819Y-100405866D02*
X255472628Y-100739199D01*
X255948819Y-100977294D02*
X254948819Y-100977294D01*
X254948819Y-100977294D02*
X254948819Y-100596342D01*
X254948819Y-100596342D02*
X254996438Y-100501104D01*
X254996438Y-100501104D02*
X255044057Y-100453485D01*
X255044057Y-100453485D02*
X255139295Y-100405866D01*
X255139295Y-100405866D02*
X255282152Y-100405866D01*
X255282152Y-100405866D02*
X255377390Y-100453485D01*
X255377390Y-100453485D02*
X255425009Y-100501104D01*
X255425009Y-100501104D02*
X255472628Y-100596342D01*
X255472628Y-100596342D02*
X255472628Y-100977294D01*
X255948819Y-99453485D02*
X255948819Y-100024913D01*
X255948819Y-99739199D02*
X254948819Y-99739199D01*
X254948819Y-99739199D02*
X255091676Y-99834437D01*
X255091676Y-99834437D02*
X255186914Y-99929675D01*
X255186914Y-99929675D02*
X255234533Y-100024913D01*
X255729304Y-97773400D02*
X255767400Y-97809114D01*
X255767400Y-97809114D02*
X255805495Y-97916257D01*
X255805495Y-97916257D02*
X255805495Y-97987685D01*
X255805495Y-97987685D02*
X255767400Y-98094828D01*
X255767400Y-98094828D02*
X255691209Y-98166257D01*
X255691209Y-98166257D02*
X255615019Y-98201971D01*
X255615019Y-98201971D02*
X255462638Y-98237685D01*
X255462638Y-98237685D02*
X255348352Y-98237685D01*
X255348352Y-98237685D02*
X255195971Y-98201971D01*
X255195971Y-98201971D02*
X255119780Y-98166257D01*
X255119780Y-98166257D02*
X255043590Y-98094828D01*
X255043590Y-98094828D02*
X255005495Y-97987685D01*
X255005495Y-97987685D02*
X255005495Y-97916257D01*
X255005495Y-97916257D02*
X255043590Y-97809114D01*
X255043590Y-97809114D02*
X255081685Y-97773400D01*
X255005495Y-97094828D02*
X255005495Y-97451971D01*
X255005495Y-97451971D02*
X255386447Y-97487685D01*
X255386447Y-97487685D02*
X255348352Y-97451971D01*
X255348352Y-97451971D02*
X255310257Y-97380543D01*
X255310257Y-97380543D02*
X255310257Y-97201971D01*
X255310257Y-97201971D02*
X255348352Y-97130543D01*
X255348352Y-97130543D02*
X255386447Y-97094828D01*
X255386447Y-97094828D02*
X255462638Y-97059114D01*
X255462638Y-97059114D02*
X255653114Y-97059114D01*
X255653114Y-97059114D02*
X255729304Y-97094828D01*
X255729304Y-97094828D02*
X255767400Y-97130543D01*
X255767400Y-97130543D02*
X255805495Y-97201971D01*
X255805495Y-97201971D02*
X255805495Y-97380543D01*
X255805495Y-97380543D02*
X255767400Y-97451971D01*
X255767400Y-97451971D02*
X255729304Y-97487685D01*
X252416819Y-101204304D02*
X253226342Y-101204304D01*
X253226342Y-101204304D02*
X253321580Y-101156685D01*
X253321580Y-101156685D02*
X253369200Y-101109066D01*
X253369200Y-101109066D02*
X253416819Y-101013828D01*
X253416819Y-101013828D02*
X253416819Y-100823352D01*
X253416819Y-100823352D02*
X253369200Y-100728114D01*
X253369200Y-100728114D02*
X253321580Y-100680495D01*
X253321580Y-100680495D02*
X253226342Y-100632876D01*
X253226342Y-100632876D02*
X252416819Y-100632876D01*
X252416819Y-99728114D02*
X252416819Y-99918590D01*
X252416819Y-99918590D02*
X252464438Y-100013828D01*
X252464438Y-100013828D02*
X252512057Y-100061447D01*
X252512057Y-100061447D02*
X252654914Y-100156685D01*
X252654914Y-100156685D02*
X252845390Y-100204304D01*
X252845390Y-100204304D02*
X253226342Y-100204304D01*
X253226342Y-100204304D02*
X253321580Y-100156685D01*
X253321580Y-100156685D02*
X253369200Y-100109066D01*
X253369200Y-100109066D02*
X253416819Y-100013828D01*
X253416819Y-100013828D02*
X253416819Y-99823352D01*
X253416819Y-99823352D02*
X253369200Y-99728114D01*
X253369200Y-99728114D02*
X253321580Y-99680495D01*
X253321580Y-99680495D02*
X253226342Y-99632876D01*
X253226342Y-99632876D02*
X252988247Y-99632876D01*
X252988247Y-99632876D02*
X252893009Y-99680495D01*
X252893009Y-99680495D02*
X252845390Y-99728114D01*
X252845390Y-99728114D02*
X252797771Y-99823352D01*
X252797771Y-99823352D02*
X252797771Y-100013828D01*
X252797771Y-100013828D02*
X252845390Y-100109066D01*
X252845390Y-100109066D02*
X252893009Y-100156685D01*
X252893009Y-100156685D02*
X252988247Y-100204304D01*
X263257800Y-97103932D02*
X263305419Y-96961075D01*
X263305419Y-96961075D02*
X263305419Y-96722980D01*
X263305419Y-96722980D02*
X263257800Y-96627742D01*
X263257800Y-96627742D02*
X263210180Y-96580123D01*
X263210180Y-96580123D02*
X263114942Y-96532504D01*
X263114942Y-96532504D02*
X263019704Y-96532504D01*
X263019704Y-96532504D02*
X262924466Y-96580123D01*
X262924466Y-96580123D02*
X262876847Y-96627742D01*
X262876847Y-96627742D02*
X262829228Y-96722980D01*
X262829228Y-96722980D02*
X262781609Y-96913456D01*
X262781609Y-96913456D02*
X262733990Y-97008694D01*
X262733990Y-97008694D02*
X262686371Y-97056313D01*
X262686371Y-97056313D02*
X262591133Y-97103932D01*
X262591133Y-97103932D02*
X262495895Y-97103932D01*
X262495895Y-97103932D02*
X262400657Y-97056313D01*
X262400657Y-97056313D02*
X262353038Y-97008694D01*
X262353038Y-97008694D02*
X262305419Y-96913456D01*
X262305419Y-96913456D02*
X262305419Y-96675361D01*
X262305419Y-96675361D02*
X262353038Y-96532504D01*
X262305419Y-96199170D02*
X263305419Y-95961075D01*
X263305419Y-95961075D02*
X262591133Y-95770599D01*
X262591133Y-95770599D02*
X263305419Y-95580123D01*
X263305419Y-95580123D02*
X262305419Y-95342028D01*
X263305419Y-94437266D02*
X263305419Y-95008694D01*
X263305419Y-94722980D02*
X262305419Y-94722980D01*
X262305419Y-94722980D02*
X262448276Y-94818218D01*
X262448276Y-94818218D02*
X262543514Y-94913456D01*
X262543514Y-94913456D02*
X262591133Y-95008694D01*
D14*
X248818571Y-94089744D02*
X248794762Y-94127840D01*
X248794762Y-94127840D02*
X248723333Y-94165935D01*
X248723333Y-94165935D02*
X248675714Y-94165935D01*
X248675714Y-94165935D02*
X248604286Y-94127840D01*
X248604286Y-94127840D02*
X248556667Y-94051649D01*
X248556667Y-94051649D02*
X248532857Y-93975459D01*
X248532857Y-93975459D02*
X248509048Y-93823078D01*
X248509048Y-93823078D02*
X248509048Y-93708792D01*
X248509048Y-93708792D02*
X248532857Y-93556411D01*
X248532857Y-93556411D02*
X248556667Y-93480220D01*
X248556667Y-93480220D02*
X248604286Y-93404030D01*
X248604286Y-93404030D02*
X248675714Y-93365935D01*
X248675714Y-93365935D02*
X248723333Y-93365935D01*
X248723333Y-93365935D02*
X248794762Y-93404030D01*
X248794762Y-93404030D02*
X248818571Y-93442125D01*
X249294762Y-94165935D02*
X249009048Y-94165935D01*
X249151905Y-94165935D02*
X249151905Y-93365935D01*
X249151905Y-93365935D02*
X249104286Y-93480220D01*
X249104286Y-93480220D02*
X249056667Y-93556411D01*
X249056667Y-93556411D02*
X249009048Y-93594506D01*
X249604285Y-93365935D02*
X249651904Y-93365935D01*
X249651904Y-93365935D02*
X249699523Y-93404030D01*
X249699523Y-93404030D02*
X249723333Y-93442125D01*
X249723333Y-93442125D02*
X249747142Y-93518316D01*
X249747142Y-93518316D02*
X249770952Y-93670697D01*
X249770952Y-93670697D02*
X249770952Y-93861173D01*
X249770952Y-93861173D02*
X249747142Y-94013554D01*
X249747142Y-94013554D02*
X249723333Y-94089744D01*
X249723333Y-94089744D02*
X249699523Y-94127840D01*
X249699523Y-94127840D02*
X249651904Y-94165935D01*
X249651904Y-94165935D02*
X249604285Y-94165935D01*
X249604285Y-94165935D02*
X249556666Y-94127840D01*
X249556666Y-94127840D02*
X249532857Y-94089744D01*
X249532857Y-94089744D02*
X249509047Y-94013554D01*
X249509047Y-94013554D02*
X249485238Y-93861173D01*
X249485238Y-93861173D02*
X249485238Y-93670697D01*
X249485238Y-93670697D02*
X249509047Y-93518316D01*
X249509047Y-93518316D02*
X249532857Y-93442125D01*
X249532857Y-93442125D02*
X249556666Y-93404030D01*
X249556666Y-93404030D02*
X249604285Y-93365935D01*
X221698171Y-97710144D02*
X221674362Y-97748240D01*
X221674362Y-97748240D02*
X221602933Y-97786335D01*
X221602933Y-97786335D02*
X221555314Y-97786335D01*
X221555314Y-97786335D02*
X221483886Y-97748240D01*
X221483886Y-97748240D02*
X221436267Y-97672049D01*
X221436267Y-97672049D02*
X221412457Y-97595859D01*
X221412457Y-97595859D02*
X221388648Y-97443478D01*
X221388648Y-97443478D02*
X221388648Y-97329192D01*
X221388648Y-97329192D02*
X221412457Y-97176811D01*
X221412457Y-97176811D02*
X221436267Y-97100620D01*
X221436267Y-97100620D02*
X221483886Y-97024430D01*
X221483886Y-97024430D02*
X221555314Y-96986335D01*
X221555314Y-96986335D02*
X221602933Y-96986335D01*
X221602933Y-96986335D02*
X221674362Y-97024430D01*
X221674362Y-97024430D02*
X221698171Y-97062525D01*
X222174362Y-97786335D02*
X221888648Y-97786335D01*
X222031505Y-97786335D02*
X222031505Y-96986335D01*
X222031505Y-96986335D02*
X221983886Y-97100620D01*
X221983886Y-97100620D02*
X221936267Y-97176811D01*
X221936267Y-97176811D02*
X221888648Y-97214906D01*
X222341028Y-96986335D02*
X222674361Y-96986335D01*
X222674361Y-96986335D02*
X222460076Y-97786335D01*
D13*
X245273704Y-91838400D02*
X245311800Y-91874114D01*
X245311800Y-91874114D02*
X245349895Y-91981257D01*
X245349895Y-91981257D02*
X245349895Y-92052685D01*
X245349895Y-92052685D02*
X245311800Y-92159828D01*
X245311800Y-92159828D02*
X245235609Y-92231257D01*
X245235609Y-92231257D02*
X245159419Y-92266971D01*
X245159419Y-92266971D02*
X245007038Y-92302685D01*
X245007038Y-92302685D02*
X244892752Y-92302685D01*
X244892752Y-92302685D02*
X244740371Y-92266971D01*
X244740371Y-92266971D02*
X244664180Y-92231257D01*
X244664180Y-92231257D02*
X244587990Y-92159828D01*
X244587990Y-92159828D02*
X244549895Y-92052685D01*
X244549895Y-92052685D02*
X244549895Y-91981257D01*
X244549895Y-91981257D02*
X244587990Y-91874114D01*
X244587990Y-91874114D02*
X244626085Y-91838400D01*
X244549895Y-91195543D02*
X244549895Y-91338400D01*
X244549895Y-91338400D02*
X244587990Y-91409828D01*
X244587990Y-91409828D02*
X244626085Y-91445543D01*
X244626085Y-91445543D02*
X244740371Y-91516971D01*
X244740371Y-91516971D02*
X244892752Y-91552685D01*
X244892752Y-91552685D02*
X245197514Y-91552685D01*
X245197514Y-91552685D02*
X245273704Y-91516971D01*
X245273704Y-91516971D02*
X245311800Y-91481257D01*
X245311800Y-91481257D02*
X245349895Y-91409828D01*
X245349895Y-91409828D02*
X245349895Y-91266971D01*
X245349895Y-91266971D02*
X245311800Y-91195543D01*
X245311800Y-91195543D02*
X245273704Y-91159828D01*
X245273704Y-91159828D02*
X245197514Y-91124114D01*
X245197514Y-91124114D02*
X245007038Y-91124114D01*
X245007038Y-91124114D02*
X244930847Y-91159828D01*
X244930847Y-91159828D02*
X244892752Y-91195543D01*
X244892752Y-91195543D02*
X244854657Y-91266971D01*
X244854657Y-91266971D02*
X244854657Y-91409828D01*
X244854657Y-91409828D02*
X244892752Y-91481257D01*
X244892752Y-91481257D02*
X244930847Y-91516971D01*
X244930847Y-91516971D02*
X245007038Y-91552685D01*
X242381666Y-105372104D02*
X242357857Y-105410200D01*
X242357857Y-105410200D02*
X242286428Y-105448295D01*
X242286428Y-105448295D02*
X242238809Y-105448295D01*
X242238809Y-105448295D02*
X242167381Y-105410200D01*
X242167381Y-105410200D02*
X242119762Y-105334009D01*
X242119762Y-105334009D02*
X242095952Y-105257819D01*
X242095952Y-105257819D02*
X242072143Y-105105438D01*
X242072143Y-105105438D02*
X242072143Y-104991152D01*
X242072143Y-104991152D02*
X242095952Y-104838771D01*
X242095952Y-104838771D02*
X242119762Y-104762580D01*
X242119762Y-104762580D02*
X242167381Y-104686390D01*
X242167381Y-104686390D02*
X242238809Y-104648295D01*
X242238809Y-104648295D02*
X242286428Y-104648295D01*
X242286428Y-104648295D02*
X242357857Y-104686390D01*
X242357857Y-104686390D02*
X242381666Y-104724485D01*
X242810238Y-104914961D02*
X242810238Y-105448295D01*
X242691190Y-104610200D02*
X242572143Y-105181628D01*
X242572143Y-105181628D02*
X242881666Y-105181628D01*
D15*
%TO.C,D18*%
X179110000Y-91272500D02*
X180580000Y-91272500D01*
X180580000Y-91272500D02*
X180580000Y-88987500D01*
X179110000Y-88987500D02*
X179110000Y-91272500D01*
%TO.C,D17*%
X207430000Y-87222500D02*
X208900000Y-87222500D01*
X208900000Y-87222500D02*
X208900000Y-84937500D01*
X207430000Y-84937500D02*
X207430000Y-87222500D01*
%TO.C,C3*%
X250215000Y-94331236D02*
X250215000Y-94115564D01*
X250935000Y-94331236D02*
X250935000Y-94115564D01*
%TO.C,R7*%
X236600000Y-98296359D02*
X236600000Y-98603641D01*
X235840000Y-98296359D02*
X235840000Y-98603641D01*
D16*
%TO.C,Level Shifter*%
X239860000Y-103593400D02*
X239860000Y-105933400D01*
X231210000Y-103593400D02*
X231210000Y-105933400D01*
D12*
X239735000Y-100713400D02*
G75*
G03*
X239735000Y-100713400I-100000J0D01*
G01*
D15*
%TO.C,D21*%
X191245000Y-91272500D02*
X192715000Y-91272500D01*
X192715000Y-91272500D02*
X192715000Y-88987500D01*
X191245000Y-88987500D02*
X191245000Y-91272500D01*
%TO.C,D24*%
X203380000Y-91267500D02*
X204850000Y-91267500D01*
X204850000Y-91267500D02*
X204850000Y-88982500D01*
X203380000Y-88982500D02*
X203380000Y-91267500D01*
%TO.C,D57*%
X207405000Y-107452500D02*
X208875000Y-107452500D01*
X208875000Y-107452500D02*
X208875000Y-105167500D01*
X207405000Y-105167500D02*
X207405000Y-107452500D01*
%TO.C,C14*%
X238471600Y-95724236D02*
X238471600Y-95508564D01*
X239191600Y-95724236D02*
X239191600Y-95508564D01*
%TO.C,D33*%
X207420000Y-95317500D02*
X208890000Y-95317500D01*
X208890000Y-95317500D02*
X208890000Y-93032500D01*
X207420000Y-93032500D02*
X207420000Y-95317500D01*
%TO.C,D36*%
X187190000Y-99362500D02*
X188660000Y-99362500D01*
X188660000Y-99362500D02*
X188660000Y-97077500D01*
X187190000Y-97077500D02*
X187190000Y-99362500D01*
%TO.C,D50*%
X179090000Y-107457500D02*
X180560000Y-107457500D01*
X180560000Y-107457500D02*
X180560000Y-105172500D01*
X179090000Y-105172500D02*
X179090000Y-107457500D01*
%TO.C,R3*%
X246122400Y-109232041D02*
X246122400Y-108924759D01*
X246882400Y-109232041D02*
X246882400Y-108924759D01*
%TO.C,D23*%
X199335000Y-91267500D02*
X200805000Y-91267500D01*
X200805000Y-91267500D02*
X200805000Y-88982500D01*
X199335000Y-88982500D02*
X199335000Y-91267500D01*
%TO.C,D3*%
X183165000Y-83177500D02*
X184635000Y-83177500D01*
X184635000Y-83177500D02*
X184635000Y-80892500D01*
X183165000Y-80892500D02*
X183165000Y-83177500D01*
%TO.C,C12*%
X253540000Y-109154652D02*
X253540000Y-108632148D01*
X255010000Y-109154652D02*
X255010000Y-108632148D01*
%TO.C,D6*%
X195300000Y-83177500D02*
X196770000Y-83177500D01*
X196770000Y-83177500D02*
X196770000Y-80892500D01*
X195300000Y-80892500D02*
X195300000Y-83177500D01*
%TO.C,D41*%
X207415000Y-99362500D02*
X208885000Y-99362500D01*
X208885000Y-99362500D02*
X208885000Y-97077500D01*
X207415000Y-97077500D02*
X207415000Y-99362500D01*
%TO.C,C11*%
X246557164Y-94123400D02*
X246772836Y-94123400D01*
X246557164Y-94843400D02*
X246772836Y-94843400D01*
%TO.C,R2*%
X248814800Y-109232041D02*
X248814800Y-108924759D01*
X249574800Y-109232041D02*
X249574800Y-108924759D01*
D16*
%TO.C,MAX7219*%
X214909600Y-108720400D02*
X214909600Y-101120400D01*
X230509600Y-108720400D02*
X230509600Y-101120400D01*
D12*
X215234600Y-111625400D02*
G75*
G03*
X215234600Y-111625400I-100000J0D01*
G01*
D15*
%TO.C,D34*%
X179100000Y-99362500D02*
X180570000Y-99362500D01*
X180570000Y-99362500D02*
X180570000Y-97077500D01*
X179100000Y-97077500D02*
X179100000Y-99362500D01*
%TO.C,D55*%
X199315000Y-107457500D02*
X200785000Y-107457500D01*
X200785000Y-107457500D02*
X200785000Y-105172500D01*
X199315000Y-105172500D02*
X199315000Y-107457500D01*
%TO.C,AMS1117*%
X255655000Y-105553400D02*
X261665000Y-105553400D01*
X257905000Y-112373400D02*
X261665000Y-112373400D01*
X261665000Y-105553400D02*
X261665000Y-106813400D01*
X261665000Y-112373400D02*
X261665000Y-111113400D01*
%TO.C,D56*%
X203360000Y-107452500D02*
X204830000Y-107452500D01*
X204830000Y-107452500D02*
X204830000Y-105167500D01*
X203360000Y-105167500D02*
X203360000Y-107452500D01*
%TO.C,D9*%
X207435000Y-83177500D02*
X208905000Y-83177500D01*
X208905000Y-83177500D02*
X208905000Y-80892500D01*
X207435000Y-80892500D02*
X207435000Y-83177500D01*
%TO.C,D30*%
X195285000Y-95317500D02*
X196755000Y-95317500D01*
X196755000Y-95317500D02*
X196755000Y-93032500D01*
X195285000Y-93032500D02*
X195285000Y-95317500D01*
%TO.C,D52*%
X187180000Y-107457500D02*
X188650000Y-107457500D01*
X188650000Y-107457500D02*
X188650000Y-105172500D01*
X187180000Y-105172500D02*
X187180000Y-107457500D01*
%TO.C,D28*%
X187195000Y-95317500D02*
X188665000Y-95317500D01*
X188665000Y-95317500D02*
X188665000Y-93032500D01*
X187195000Y-93032500D02*
X187195000Y-95317500D01*
%TO.C,D35*%
X183145000Y-99362500D02*
X184615000Y-99362500D01*
X184615000Y-99362500D02*
X184615000Y-97077500D01*
X183145000Y-97077500D02*
X183145000Y-99362500D01*
%TO.C,D5*%
X191255000Y-83177500D02*
X192725000Y-83177500D01*
X192725000Y-83177500D02*
X192725000Y-80892500D01*
X191255000Y-80892500D02*
X191255000Y-83177500D01*
%TO.C,D63*%
X199310000Y-111502500D02*
X200780000Y-111502500D01*
X200780000Y-111502500D02*
X200780000Y-109217500D01*
X199310000Y-109217500D02*
X199310000Y-111502500D01*
%TO.C,C7*%
X243735000Y-94361236D02*
X243735000Y-94145564D01*
X244455000Y-94361236D02*
X244455000Y-94145564D01*
%TO.C,D62*%
X195265000Y-111502500D02*
X196735000Y-111502500D01*
X196735000Y-111502500D02*
X196735000Y-109217500D01*
X195265000Y-109217500D02*
X195265000Y-111502500D01*
%TO.C,C16*%
X222110180Y-96790400D02*
X221829020Y-96790400D01*
X222110180Y-95770400D02*
X221829020Y-95770400D01*
%TO.C,D31*%
X199330000Y-95317500D02*
X200800000Y-95317500D01*
X200800000Y-95317500D02*
X200800000Y-93032500D01*
X199330000Y-93032500D02*
X199330000Y-95317500D01*
%TO.C,D8*%
X203390000Y-83177500D02*
X204860000Y-83177500D01*
X204860000Y-83177500D02*
X204860000Y-80892500D01*
X203390000Y-80892500D02*
X203390000Y-83177500D01*
%TO.C,C15*%
X241045000Y-101885564D02*
X241045000Y-102101236D01*
X240325000Y-101885564D02*
X240325000Y-102101236D01*
%TO.C,D65*%
X207400000Y-111502500D02*
X208870000Y-111502500D01*
X208870000Y-111502500D02*
X208870000Y-109217500D01*
X207400000Y-109217500D02*
X207400000Y-111502500D01*
%TO.C,C9*%
X251220564Y-95739000D02*
X251436236Y-95739000D01*
X251220564Y-96459000D02*
X251436236Y-96459000D01*
%TO.C,D44*%
X187185000Y-103412500D02*
X188655000Y-103412500D01*
X188655000Y-103412500D02*
X188655000Y-101127500D01*
X187185000Y-101127500D02*
X187185000Y-103412500D01*
%TO.C,C8*%
X242725000Y-92911236D02*
X242725000Y-92695564D01*
X243445000Y-92911236D02*
X243445000Y-92695564D01*
%TO.C,D61*%
X191220000Y-111502500D02*
X192690000Y-111502500D01*
X192690000Y-111502500D02*
X192690000Y-109217500D01*
X191220000Y-109217500D02*
X191220000Y-111502500D01*
%TO.C,D54*%
X195270000Y-107457500D02*
X196740000Y-107457500D01*
X196740000Y-107457500D02*
X196740000Y-105172500D01*
X195270000Y-105172500D02*
X195270000Y-107457500D01*
%TO.C,D60*%
X187175000Y-111502500D02*
X188645000Y-111502500D01*
X188645000Y-111502500D02*
X188645000Y-109217500D01*
X187175000Y-109217500D02*
X187175000Y-111502500D01*
%TO.C,FB1*%
X242237779Y-95063400D02*
X241912221Y-95063400D01*
X242237779Y-94043400D02*
X241912221Y-94043400D01*
%TO.C,D19*%
X183155000Y-91272500D02*
X184625000Y-91272500D01*
X184625000Y-91272500D02*
X184625000Y-88987500D01*
X183155000Y-88987500D02*
X183155000Y-91272500D01*
%TO.C,D32*%
X203375000Y-95317500D02*
X204845000Y-95317500D01*
X204845000Y-95317500D02*
X204845000Y-93032500D01*
X203375000Y-93032500D02*
X203375000Y-95317500D01*
%TO.C,Y1*%
X249875000Y-93003400D02*
X249875000Y-89703400D01*
X249875000Y-89703400D02*
X245875000Y-89703400D01*
%TO.C,D40*%
X203370000Y-99362500D02*
X204840000Y-99362500D01*
X204840000Y-99362500D02*
X204840000Y-97077500D01*
X203370000Y-97077500D02*
X203370000Y-99362500D01*
%TO.C,R5*%
X260315000Y-96947041D02*
X260315000Y-96639759D01*
X261075000Y-96947041D02*
X261075000Y-96639759D01*
%TO.C,D10*%
X179115000Y-87227500D02*
X180585000Y-87227500D01*
X180585000Y-87227500D02*
X180585000Y-84942500D01*
X179115000Y-84942500D02*
X179115000Y-87227500D01*
%TO.C,J3*%
X242920000Y-113630000D02*
X242920000Y-115630000D01*
X242920000Y-117530000D02*
X242920000Y-119430000D01*
X242920000Y-119430000D02*
X252320000Y-119430000D01*
X252320000Y-113630000D02*
X252320000Y-115630000D01*
X252320000Y-117530000D02*
X252320000Y-119430000D01*
%TO.C,D53*%
X191225000Y-107457500D02*
X192695000Y-107457500D01*
X192695000Y-107457500D02*
X192695000Y-105172500D01*
X191225000Y-105172500D02*
X191225000Y-107457500D01*
%TO.C,C18*%
X241027164Y-106843400D02*
X241242836Y-106843400D01*
X241027164Y-107563400D02*
X241242836Y-107563400D01*
%TO.C,C1*%
X253263200Y-97845364D02*
X253263200Y-98061036D01*
X252543200Y-97845364D02*
X252543200Y-98061036D01*
%TO.C,D64*%
X203355000Y-111502500D02*
X204825000Y-111502500D01*
X204825000Y-111502500D02*
X204825000Y-109217500D01*
X203355000Y-109217500D02*
X203355000Y-111502500D01*
%TO.C,C2*%
X249759836Y-106593600D02*
X249544164Y-106593600D01*
X249759836Y-105873600D02*
X249544164Y-105873600D01*
%TO.C,U3*%
X237039600Y-96810400D02*
X237039600Y-100010400D01*
X237039600Y-100010400D02*
X241639600Y-100010400D01*
X241639600Y-96810400D02*
X237039600Y-96810400D01*
X241639600Y-100010400D02*
X241639600Y-96810400D01*
X237889600Y-96435400D02*
G75*
G03*
X237889600Y-96435400I-50000J0D01*
G01*
%TO.C,D48*%
X203365000Y-103407500D02*
X204835000Y-103407500D01*
X204835000Y-103407500D02*
X204835000Y-101122500D01*
X203365000Y-101122500D02*
X203365000Y-103407500D01*
%TO.C,D29*%
X191240000Y-95317500D02*
X192710000Y-95317500D01*
X192710000Y-95317500D02*
X192710000Y-93032500D01*
X191240000Y-93032500D02*
X191240000Y-95317500D01*
%TO.C,D15*%
X199340000Y-87222500D02*
X200810000Y-87222500D01*
X200810000Y-87222500D02*
X200810000Y-84937500D01*
X199340000Y-84937500D02*
X199340000Y-87222500D01*
%TO.C,D45*%
X191230000Y-103407500D02*
X192700000Y-103407500D01*
X192700000Y-103407500D02*
X192700000Y-101122500D01*
X191230000Y-101122500D02*
X191230000Y-103407500D01*
%TO.C,R6*%
X224489600Y-96061759D02*
X224489600Y-96369041D01*
X223729600Y-96061759D02*
X223729600Y-96369041D01*
%TO.C,G\u002A\u002A\u002A*%
G36*
X242138326Y-79400731D02*
G01*
X242157514Y-79457108D01*
X242172509Y-79540403D01*
X242182477Y-79641888D01*
X242186584Y-79752837D01*
X242183997Y-79864521D01*
X242173883Y-79968213D01*
X242172696Y-79976082D01*
X242129629Y-80151713D01*
X242060744Y-80304514D01*
X241969864Y-80430221D01*
X241860810Y-80524572D01*
X241737405Y-80583302D01*
X241611338Y-80602222D01*
X241533737Y-80594611D01*
X241480443Y-80567581D01*
X241462668Y-80550789D01*
X241424156Y-80480367D01*
X241417421Y-80413451D01*
X241481033Y-80413451D01*
X241498225Y-80480797D01*
X241546182Y-80520747D01*
X241619475Y-80531739D01*
X241712672Y-80512214D01*
X241759054Y-80493336D01*
X241877301Y-80415261D01*
X241977900Y-80301835D01*
X242040659Y-80191111D01*
X242063842Y-80132090D01*
X242079664Y-80068584D01*
X242089863Y-79989233D01*
X242096180Y-79882676D01*
X242098490Y-79813333D01*
X242105974Y-79546666D01*
X242057244Y-79624444D01*
X241975698Y-79752989D01*
X241909987Y-79852089D01*
X241853590Y-79930723D01*
X241799984Y-79997869D01*
X241742648Y-80062506D01*
X241726333Y-80080000D01*
X241628575Y-80185989D01*
X241559097Y-80266656D01*
X241513974Y-80327336D01*
X241489282Y-80373364D01*
X241481095Y-80410075D01*
X241481033Y-80413451D01*
X241417421Y-80413451D01*
X241415410Y-80393465D01*
X241438171Y-80308117D01*
X241439079Y-80306316D01*
X241466335Y-80266722D01*
X241514974Y-80207797D01*
X241574945Y-80141660D01*
X241580758Y-80135555D01*
X241729989Y-79970221D01*
X241849058Y-79816011D01*
X241946220Y-79661646D01*
X241994572Y-79570055D01*
X242037867Y-79488101D01*
X242076830Y-79423896D01*
X242105856Y-79386228D01*
X242115777Y-79380000D01*
X242138326Y-79400731D01*
G37*
G36*
X242024141Y-78732907D02*
G01*
X242066855Y-78786446D01*
X242116703Y-78866176D01*
X242169610Y-78964324D01*
X242221502Y-79073113D01*
X242268304Y-79184771D01*
X242305944Y-79291523D01*
X242318718Y-79335555D01*
X242342938Y-79463238D01*
X242356536Y-79615199D01*
X242359692Y-79778034D01*
X242352592Y-79938339D01*
X242335420Y-80082710D01*
X242308358Y-80197742D01*
X242306839Y-80202222D01*
X242223234Y-80389737D01*
X242114261Y-80543355D01*
X241981581Y-80661194D01*
X241833817Y-80738770D01*
X241731111Y-80765762D01*
X241616850Y-80777286D01*
X241509402Y-80772582D01*
X241437007Y-80755199D01*
X241338701Y-80693623D01*
X241270725Y-80601485D01*
X241235748Y-80483028D01*
X241231582Y-80428606D01*
X241233477Y-80406426D01*
X241280858Y-80406426D01*
X241297774Y-80532996D01*
X241347713Y-80629994D01*
X241429457Y-80696219D01*
X241541790Y-80730473D01*
X241614483Y-80735255D01*
X241766540Y-80713784D01*
X241851674Y-80681687D01*
X241994551Y-80591610D01*
X242117379Y-80466303D01*
X242213129Y-80313033D01*
X242217919Y-80302979D01*
X242277576Y-80130834D01*
X242310624Y-79933622D01*
X242317753Y-79721370D01*
X242299651Y-79504102D01*
X242257007Y-79291844D01*
X242190511Y-79094621D01*
X242125823Y-78963333D01*
X242087350Y-78901657D01*
X242055541Y-78859371D01*
X242039760Y-78846666D01*
X242029892Y-78867145D01*
X242019874Y-78921684D01*
X242011431Y-78999940D01*
X242009232Y-79030000D01*
X241973216Y-79248582D01*
X241894296Y-79467556D01*
X241773929Y-79683998D01*
X241613570Y-79894985D01*
X241536264Y-79979586D01*
X241434965Y-80088855D01*
X241363243Y-80176884D01*
X241316668Y-80251079D01*
X241290807Y-80318846D01*
X241281228Y-80387592D01*
X241280858Y-80406426D01*
X241233477Y-80406426D01*
X241239003Y-80341768D01*
X241267683Y-80255541D01*
X241321558Y-80162781D01*
X241404563Y-80056340D01*
X241487271Y-79964334D01*
X241654514Y-79770953D01*
X241783230Y-79587364D01*
X241876327Y-79407194D01*
X241936713Y-79224064D01*
X241967297Y-79031600D01*
X241972574Y-78900282D01*
X241974775Y-78815409D01*
X241980643Y-78750662D01*
X241989078Y-78716296D01*
X241992635Y-78713333D01*
X242024141Y-78732907D01*
G37*
G36*
X241241343Y-77596057D02*
G01*
X241290932Y-77633548D01*
X241331560Y-77679054D01*
X241347583Y-77717039D01*
X241359779Y-77718801D01*
X241390779Y-77691763D01*
X241411615Y-77668355D01*
X241459527Y-77618900D01*
X241505679Y-77597528D01*
X241568430Y-77594153D01*
X241664831Y-77615645D01*
X241737941Y-77670630D01*
X241780143Y-77753166D01*
X241781951Y-77760759D01*
X241796035Y-77824826D01*
X241852829Y-77780191D01*
X241931865Y-77742030D01*
X242013766Y-77740894D01*
X242089396Y-77771010D01*
X242149621Y-77826604D01*
X242185306Y-77901906D01*
X242187317Y-77991141D01*
X242187244Y-77991521D01*
X242181623Y-78033200D01*
X242192783Y-78043019D01*
X242229166Y-78023725D01*
X242248249Y-78011369D01*
X242320198Y-77986755D01*
X242393087Y-77998037D01*
X242459315Y-78037492D01*
X242511283Y-78097398D01*
X242541394Y-78170033D01*
X242542047Y-78247674D01*
X242525382Y-78292995D01*
X242514253Y-78319926D01*
X242526408Y-78329397D01*
X242570741Y-78325357D01*
X242591132Y-78322184D01*
X242652779Y-78317033D01*
X242696785Y-78331463D01*
X242745212Y-78372995D01*
X242747833Y-78375606D01*
X242799902Y-78454900D01*
X242817211Y-78545689D01*
X242798143Y-78633881D01*
X242780910Y-78663944D01*
X242760391Y-78697341D01*
X242768814Y-78710773D01*
X242813544Y-78713326D01*
X242820945Y-78713333D01*
X242890623Y-78724722D01*
X242936754Y-78754530D01*
X242948984Y-78786031D01*
X242936341Y-78788278D01*
X242914033Y-78770476D01*
X242874926Y-78747266D01*
X242826654Y-78736345D01*
X242786353Y-78739419D01*
X242771050Y-78756232D01*
X242789884Y-78775447D01*
X242818863Y-78784009D01*
X242864542Y-78806081D01*
X242910460Y-78850005D01*
X242913090Y-78853451D01*
X242942653Y-78897801D01*
X242946288Y-78930802D01*
X242925241Y-78975401D01*
X242920188Y-78984238D01*
X242895740Y-79038782D01*
X242896678Y-79065541D01*
X242919350Y-79059538D01*
X242951454Y-79026851D01*
X242984617Y-78993198D01*
X243005608Y-78984787D01*
X243006058Y-78985172D01*
X243000426Y-79007468D01*
X242972481Y-79049434D01*
X242959042Y-79066098D01*
X242900546Y-79135555D01*
X242955404Y-79135555D01*
X243010506Y-79149875D01*
X243040788Y-79172527D01*
X243058927Y-79197333D01*
X243045741Y-79195439D01*
X243022731Y-79183638D01*
X242968431Y-79162842D01*
X242924191Y-79159152D01*
X242904576Y-79173615D01*
X242904500Y-79175128D01*
X242923007Y-79194146D01*
X242967785Y-79216332D01*
X242970222Y-79217263D01*
X243031099Y-79259027D01*
X243054563Y-79319597D01*
X243038925Y-79391293D01*
X243016610Y-79427978D01*
X242984979Y-79481559D01*
X242983672Y-79508117D01*
X243007752Y-79502748D01*
X243050963Y-79462094D01*
X243087580Y-79426475D01*
X243104012Y-79427039D01*
X243104676Y-79432703D01*
X243088457Y-79468237D01*
X243049163Y-79509258D01*
X243046577Y-79511323D01*
X242988479Y-79556983D01*
X243041931Y-79577287D01*
X243113160Y-79624823D01*
X243155184Y-79694699D01*
X243167796Y-79775556D01*
X243150792Y-79856033D01*
X243103966Y-79924770D01*
X243048883Y-79961907D01*
X242995443Y-79986234D01*
X243061180Y-80047588D01*
X243114904Y-80123860D01*
X243130867Y-80208460D01*
X243111460Y-80290583D01*
X243059072Y-80359425D01*
X242982767Y-80402083D01*
X242905480Y-80427568D01*
X242952613Y-80491262D01*
X242987435Y-80570919D01*
X242985475Y-80654239D01*
X242952132Y-80730786D01*
X242892811Y-80790123D01*
X242812914Y-80821813D01*
X242780148Y-80824444D01*
X242729937Y-80827112D01*
X242715184Y-80839821D01*
X242725784Y-80867427D01*
X242749843Y-80955665D01*
X242732189Y-81044351D01*
X242681063Y-81117772D01*
X242635337Y-81158396D01*
X242593333Y-81176244D01*
X242535365Y-81177581D01*
X242501959Y-81174767D01*
X242436309Y-81170483D01*
X242405777Y-81175525D01*
X242401602Y-81191931D01*
X242403497Y-81197652D01*
X242406072Y-81257171D01*
X242381773Y-81326074D01*
X242338882Y-81386513D01*
X242303227Y-81413719D01*
X242205996Y-81444650D01*
X242118361Y-81433221D01*
X242051229Y-81388080D01*
X241992591Y-81329494D01*
X241992591Y-81395318D01*
X241972828Y-81468013D01*
X241941114Y-81509459D01*
X241893452Y-81548727D01*
X241872751Y-81554947D01*
X241881925Y-81530182D01*
X241912768Y-81489406D01*
X241953595Y-81430722D01*
X241969813Y-81384711D01*
X241959137Y-81359888D01*
X241948108Y-81357777D01*
X241926672Y-81374822D01*
X241925866Y-81381010D01*
X241909146Y-81416502D01*
X241869333Y-81459853D01*
X241821949Y-81496856D01*
X241782515Y-81513303D01*
X241781296Y-81513333D01*
X241742759Y-81498543D01*
X241695070Y-81462345D01*
X241688959Y-81456430D01*
X241648523Y-81422614D01*
X241621267Y-81411641D01*
X241618471Y-81413052D01*
X241616086Y-81442444D01*
X241645288Y-81482687D01*
X241698075Y-81524372D01*
X241727357Y-81541076D01*
X241772921Y-81565863D01*
X241781188Y-81577107D01*
X241755224Y-81579945D01*
X241750559Y-81579965D01*
X241698818Y-81562839D01*
X241639478Y-81517890D01*
X241628205Y-81506504D01*
X241558829Y-81433008D01*
X241507118Y-81495392D01*
X241442043Y-81544710D01*
X241364421Y-81561907D01*
X241285199Y-81550467D01*
X241215326Y-81513869D01*
X241165750Y-81455596D01*
X241147408Y-81381010D01*
X241169649Y-81381010D01*
X241189126Y-81438799D01*
X241237945Y-81491903D01*
X241301694Y-81527640D01*
X241345331Y-81535555D01*
X241412467Y-81519540D01*
X241474232Y-81481890D01*
X241515485Y-81437847D01*
X241520000Y-81414361D01*
X241492685Y-81416363D01*
X241440087Y-81447567D01*
X241365685Y-81482854D01*
X241298672Y-81478248D01*
X241246733Y-81435439D01*
X241229187Y-81401219D01*
X241217972Y-81379077D01*
X241282767Y-81379077D01*
X241291064Y-81400743D01*
X241324080Y-81420698D01*
X241369823Y-81422154D01*
X241389850Y-81411128D01*
X241732979Y-81411128D01*
X241741124Y-81432455D01*
X241780739Y-81446831D01*
X241824717Y-81435619D01*
X241844943Y-81413333D01*
X241842070Y-81387397D01*
X241804152Y-81380000D01*
X241755128Y-81389137D01*
X241732979Y-81411128D01*
X241389850Y-81411128D01*
X241401721Y-81404592D01*
X241392472Y-81385660D01*
X241355925Y-81370177D01*
X241300867Y-81363316D01*
X241282767Y-81379077D01*
X241217972Y-81379077D01*
X241203732Y-81350963D01*
X241182414Y-81337695D01*
X241170570Y-81363227D01*
X241169649Y-81381010D01*
X241147408Y-81381010D01*
X241142153Y-81329588D01*
X241121706Y-81317380D01*
X241079042Y-81341299D01*
X241070871Y-81347373D01*
X240997229Y-81377785D01*
X240916284Y-81371471D01*
X240839918Y-81331804D01*
X240781829Y-81265288D01*
X240755240Y-81196636D01*
X240758996Y-81134943D01*
X240777718Y-81134943D01*
X240782972Y-81197998D01*
X240792592Y-81226980D01*
X240840804Y-81296446D01*
X240909993Y-81340362D01*
X240987384Y-81354169D01*
X241060201Y-81333311D01*
X241070836Y-81326261D01*
X241099234Y-81294657D01*
X241091125Y-81275965D01*
X241054012Y-81276630D01*
X241025172Y-81287024D01*
X240954223Y-81299531D01*
X240893555Y-81276247D01*
X240852128Y-81225807D01*
X240840175Y-81163500D01*
X240886927Y-81163500D01*
X240892738Y-81198726D01*
X240903558Y-81214306D01*
X240938099Y-81239650D01*
X240973418Y-81246026D01*
X240991541Y-81230668D01*
X240991716Y-81227888D01*
X240976873Y-81200209D01*
X240949441Y-81170885D01*
X240909605Y-81150645D01*
X240886927Y-81163500D01*
X240840175Y-81163500D01*
X240838898Y-81156845D01*
X240846635Y-81114937D01*
X240849073Y-81077737D01*
X240827901Y-81068888D01*
X240793662Y-81087570D01*
X240777718Y-81134943D01*
X240758996Y-81134943D01*
X240759736Y-81122790D01*
X240781421Y-81059475D01*
X240788895Y-81029062D01*
X240767033Y-81029252D01*
X240758645Y-81032301D01*
X240691674Y-81038212D01*
X240621955Y-81014824D01*
X240563173Y-80970657D01*
X240529010Y-80914231D01*
X240525317Y-80887016D01*
X240534070Y-80880187D01*
X240550324Y-80902222D01*
X240586096Y-80951564D01*
X240609503Y-80974444D01*
X240650966Y-80993451D01*
X240702860Y-81001424D01*
X240747988Y-80997765D01*
X240769156Y-80981876D01*
X240769299Y-80980000D01*
X240750608Y-80962138D01*
X240723353Y-80957777D01*
X240647587Y-80939887D01*
X240596931Y-80893323D01*
X240579435Y-80835687D01*
X240636526Y-80835687D01*
X240646536Y-80871099D01*
X240650677Y-80876296D01*
X240681483Y-80890620D01*
X240701684Y-80877274D01*
X240702574Y-80870706D01*
X240692995Y-80825135D01*
X240671443Y-80788795D01*
X240655711Y-80780000D01*
X240639981Y-80797721D01*
X240636526Y-80835687D01*
X240579435Y-80835687D01*
X240577329Y-80828750D01*
X240594729Y-80756829D01*
X240603249Y-80742385D01*
X240625212Y-80699649D01*
X240627043Y-80674905D01*
X240601516Y-80674925D01*
X240568927Y-80705365D01*
X240538845Y-80755421D01*
X240526558Y-80788350D01*
X240506411Y-80857777D01*
X240504405Y-80795656D01*
X240522290Y-80726102D01*
X240558003Y-80677979D01*
X240600017Y-80633080D01*
X240610101Y-80610388D01*
X240589681Y-80602705D01*
X240573001Y-80602222D01*
X240521647Y-80582851D01*
X240471219Y-80533527D01*
X240433356Y-80467433D01*
X240422731Y-80432009D01*
X240423112Y-80420203D01*
X240446567Y-80420203D01*
X240467158Y-80487481D01*
X240498751Y-80536457D01*
X240528418Y-80564544D01*
X240529733Y-80565126D01*
X240580968Y-80577591D01*
X240610686Y-80569163D01*
X240613607Y-80560333D01*
X240596853Y-80535459D01*
X240556740Y-80503439D01*
X240517841Y-80468526D01*
X240505333Y-80422329D01*
X240506223Y-80397557D01*
X240551503Y-80397557D01*
X240567616Y-80434308D01*
X240590668Y-80446666D01*
X240607910Y-80427653D01*
X240613607Y-80391111D01*
X240603792Y-80346608D01*
X240580468Y-80336770D01*
X240557345Y-80358841D01*
X240551503Y-80397557D01*
X240506223Y-80397557D01*
X240506697Y-80384374D01*
X240520259Y-80321790D01*
X240555698Y-80283256D01*
X240580245Y-80269506D01*
X240623119Y-80246887D01*
X240628536Y-80235958D01*
X240599196Y-80229296D01*
X240595092Y-80228674D01*
X240531166Y-80238219D01*
X240481549Y-80280511D01*
X240451573Y-80344767D01*
X240446567Y-80420203D01*
X240423112Y-80420203D01*
X240425428Y-80348500D01*
X240460310Y-80270140D01*
X240518990Y-80212519D01*
X240548422Y-80198356D01*
X240613834Y-80175573D01*
X240555909Y-80106793D01*
X240512566Y-80026044D01*
X240512235Y-79951917D01*
X240542445Y-79951917D01*
X240543704Y-80025086D01*
X240548115Y-80038795D01*
X240575103Y-80088071D01*
X240608664Y-80123764D01*
X240639105Y-80139067D01*
X240656736Y-80127172D01*
X240658091Y-80116054D01*
X240642874Y-80087093D01*
X240624728Y-80068888D01*
X240592534Y-80018137D01*
X240592905Y-79993579D01*
X240645161Y-79993579D01*
X240650293Y-80007594D01*
X240670635Y-80011006D01*
X240697357Y-79987137D01*
X240718934Y-79949395D01*
X240724816Y-79920894D01*
X240711824Y-79902774D01*
X240683468Y-79910075D01*
X240655678Y-79936631D01*
X240648617Y-79950390D01*
X240645161Y-79993579D01*
X240592905Y-79993579D01*
X240593440Y-79958176D01*
X240621671Y-79901397D01*
X240671453Y-79860196D01*
X240728263Y-79846666D01*
X240777187Y-79838284D01*
X240789890Y-79818833D01*
X240763039Y-79796855D01*
X240749613Y-79791921D01*
X240682853Y-79791358D01*
X240620451Y-79824723D01*
X240570838Y-79881686D01*
X240542445Y-79951917D01*
X240512235Y-79951917D01*
X240512189Y-79941620D01*
X240554123Y-79858557D01*
X240593646Y-79816476D01*
X240648662Y-79774895D01*
X240698470Y-79761736D01*
X240740955Y-79765397D01*
X240790819Y-79770865D01*
X240806603Y-79761960D01*
X240800012Y-79740032D01*
X240788375Y-79693391D01*
X240786691Y-79673969D01*
X240813330Y-79673969D01*
X240825907Y-79717590D01*
X240828610Y-79720740D01*
X240856187Y-79735307D01*
X240868015Y-79708912D01*
X240864641Y-79648899D01*
X240863596Y-79630645D01*
X240907381Y-79630645D01*
X240921406Y-79652524D01*
X240956542Y-79645050D01*
X240971682Y-79633559D01*
X241003783Y-79597940D01*
X241013958Y-79576555D01*
X240998488Y-79558917D01*
X240964060Y-79563285D01*
X240928648Y-79586891D01*
X240925799Y-79590137D01*
X240907381Y-79630645D01*
X240863596Y-79630645D01*
X240861175Y-79588358D01*
X240876444Y-79551780D01*
X240908886Y-79525663D01*
X240982931Y-79499990D01*
X241022723Y-79503617D01*
X241068530Y-79505270D01*
X241080098Y-79487929D01*
X241053623Y-79464528D01*
X241036199Y-79457777D01*
X240962229Y-79455093D01*
X240884327Y-79485155D01*
X240852705Y-79508294D01*
X240828965Y-79549609D01*
X240815095Y-79611405D01*
X240813330Y-79673969D01*
X240786691Y-79673969D01*
X240782674Y-79627639D01*
X240782552Y-79615945D01*
X240801419Y-79526961D01*
X240853640Y-79463958D01*
X240933483Y-79431693D01*
X241006183Y-79430312D01*
X241064372Y-79435149D01*
X241087534Y-79429564D01*
X241084595Y-79409997D01*
X241079959Y-79400871D01*
X241056283Y-79316626D01*
X241058731Y-79301633D01*
X241083465Y-79301633D01*
X241102374Y-79367442D01*
X241124440Y-79404532D01*
X241150422Y-79426160D01*
X241167858Y-79423629D01*
X241169649Y-79414378D01*
X241161416Y-79388920D01*
X241144253Y-79348622D01*
X241138016Y-79304943D01*
X241191891Y-79304943D01*
X241201702Y-79333109D01*
X241226675Y-79324265D01*
X241254807Y-79288947D01*
X241272674Y-79249291D01*
X241271815Y-79230224D01*
X241247479Y-79231225D01*
X241216573Y-79256219D01*
X241194667Y-79290652D01*
X241191891Y-79304943D01*
X241138016Y-79304943D01*
X241134804Y-79282448D01*
X241161285Y-79224592D01*
X241215321Y-79187348D01*
X241259129Y-79180000D01*
X241305756Y-79173517D01*
X241325340Y-79157914D01*
X241325341Y-79157777D01*
X241305818Y-79142966D01*
X241257939Y-79135704D01*
X241249109Y-79135555D01*
X241177946Y-79149581D01*
X241126780Y-79194107D01*
X241090355Y-79250522D01*
X241083465Y-79301633D01*
X241058731Y-79301633D01*
X241069484Y-79235767D01*
X241113006Y-79168003D01*
X241180292Y-79123040D01*
X241264786Y-79110585D01*
X241275297Y-79111674D01*
X241299288Y-79108130D01*
X241294766Y-79084867D01*
X241260044Y-79037606D01*
X241234236Y-79007504D01*
X241190612Y-78950207D01*
X241175140Y-78902916D01*
X241175244Y-78901636D01*
X241215746Y-78901636D01*
X241236291Y-78971796D01*
X241258616Y-79002222D01*
X241300830Y-79036275D01*
X241328367Y-79045639D01*
X241333069Y-79031494D01*
X241306976Y-78995234D01*
X241272145Y-78941961D01*
X241259510Y-78894470D01*
X241308848Y-78894470D01*
X241327396Y-78927169D01*
X241351686Y-78951474D01*
X241362327Y-78936966D01*
X241366061Y-78915092D01*
X241366689Y-78870279D01*
X241360130Y-78851795D01*
X241335687Y-78853125D01*
X241321465Y-78863873D01*
X241308848Y-78894470D01*
X241259510Y-78894470D01*
X241258616Y-78891111D01*
X241273512Y-78837318D01*
X241306976Y-78786987D01*
X241332026Y-78750317D01*
X241325183Y-78734972D01*
X241294772Y-78743290D01*
X241254807Y-78772333D01*
X241221813Y-78828855D01*
X241215746Y-78901636D01*
X241175244Y-78901636D01*
X241178608Y-78860126D01*
X241205289Y-78795370D01*
X241247657Y-78742017D01*
X241303470Y-78692924D01*
X241214259Y-78668922D01*
X241126850Y-78629264D01*
X241077558Y-78566865D01*
X241065537Y-78480428D01*
X241067646Y-78462678D01*
X241098130Y-78462678D01*
X241098840Y-78530693D01*
X241125340Y-78581116D01*
X241139169Y-78596011D01*
X241184028Y-78626699D01*
X241235909Y-78644149D01*
X241280266Y-78645837D01*
X241302552Y-78629240D01*
X241303099Y-78624444D01*
X241284081Y-78607683D01*
X241248008Y-78602222D01*
X241190203Y-78582623D01*
X241149018Y-78533134D01*
X241135647Y-78475555D01*
X241191891Y-78475555D01*
X241205247Y-78514196D01*
X241234507Y-78542170D01*
X241262237Y-78544430D01*
X241268087Y-78518643D01*
X241257894Y-78489762D01*
X241228829Y-78454475D01*
X241202765Y-78449302D01*
X241191891Y-78475555D01*
X241135647Y-78475555D01*
X241133826Y-78467714D01*
X241137683Y-78437908D01*
X241141527Y-78394542D01*
X241130010Y-78380000D01*
X241113386Y-78399621D01*
X241100161Y-78448228D01*
X241098130Y-78462678D01*
X241067646Y-78462678D01*
X241069514Y-78446950D01*
X241084744Y-78356882D01*
X241010428Y-78400162D01*
X240926781Y-78431495D01*
X240874447Y-78431256D01*
X240814732Y-78403308D01*
X240761224Y-78352723D01*
X240728503Y-78295040D01*
X240724450Y-78271447D01*
X240715016Y-78267044D01*
X240691354Y-78295581D01*
X240673899Y-78324087D01*
X240610528Y-78403629D01*
X240535310Y-78441264D01*
X240450178Y-78436128D01*
X240434875Y-78430945D01*
X240389305Y-78416934D01*
X240371531Y-78424980D01*
X240368949Y-78447551D01*
X240348555Y-78535199D01*
X240293607Y-78607032D01*
X240213459Y-78654374D01*
X240130344Y-78668888D01*
X240065945Y-78656741D01*
X240008586Y-78626506D01*
X239973291Y-78587498D01*
X239968599Y-78568638D01*
X239980718Y-78558755D01*
X240016046Y-78585137D01*
X240023192Y-78592121D01*
X240096685Y-78638253D01*
X240176735Y-78643341D01*
X240252834Y-78607385D01*
X240269872Y-78592121D01*
X240301132Y-78546369D01*
X240320710Y-78490989D01*
X240326223Y-78439972D01*
X240315287Y-78407309D01*
X240302224Y-78402222D01*
X240286561Y-78421520D01*
X240279982Y-78467969D01*
X240279982Y-78468376D01*
X240262102Y-78533273D01*
X240216941Y-78576469D01*
X240157217Y-78595132D01*
X240095648Y-78586429D01*
X240044951Y-78547527D01*
X240030997Y-78523831D01*
X240024363Y-78480132D01*
X240080484Y-78480132D01*
X240090494Y-78515543D01*
X240094635Y-78520740D01*
X240132317Y-78534732D01*
X240178313Y-78529599D01*
X240202136Y-78513333D01*
X240196965Y-78494414D01*
X240180509Y-78491111D01*
X240142214Y-78473111D01*
X240132333Y-78457777D01*
X240110502Y-78428371D01*
X240101321Y-78425043D01*
X240149746Y-78425043D01*
X240161285Y-78448739D01*
X240197411Y-78439023D01*
X240255788Y-78392989D01*
X240276669Y-78372303D01*
X240301919Y-78351455D01*
X240372308Y-78351455D01*
X240388166Y-78377416D01*
X240403935Y-78390633D01*
X240476304Y-78421173D01*
X240552389Y-78408012D01*
X240596753Y-78380536D01*
X240641240Y-78333401D01*
X240665904Y-78283583D01*
X240665332Y-78244457D01*
X240661232Y-78239987D01*
X240748063Y-78239987D01*
X240754908Y-78279664D01*
X240785126Y-78333047D01*
X240793155Y-78343669D01*
X240853661Y-78389894D01*
X240926427Y-78402960D01*
X240995920Y-78381922D01*
X241025078Y-78357777D01*
X241051263Y-78324149D01*
X241044259Y-78315302D01*
X241001754Y-78330161D01*
X240983282Y-78338375D01*
X240911336Y-78354100D01*
X240848035Y-78338693D01*
X240806628Y-78296413D01*
X240800589Y-78279661D01*
X240787312Y-78247618D01*
X240858450Y-78247618D01*
X240865941Y-78279041D01*
X240888633Y-78309539D01*
X240925769Y-78303814D01*
X240946697Y-78291911D01*
X240963342Y-78274087D01*
X240942715Y-78257802D01*
X240924455Y-78250398D01*
X240875052Y-78236470D01*
X240858450Y-78247618D01*
X240787312Y-78247618D01*
X240783418Y-78238220D01*
X240766888Y-78224444D01*
X240748063Y-78239987D01*
X240661232Y-78239987D01*
X240655961Y-78234240D01*
X240634545Y-78242757D01*
X240614630Y-78277311D01*
X240571767Y-78341006D01*
X240510462Y-78369878D01*
X240441107Y-78359232D01*
X240391782Y-78343850D01*
X240372308Y-78351455D01*
X240301919Y-78351455D01*
X240381734Y-78285555D01*
X240463365Y-78285555D01*
X240468566Y-78308948D01*
X240496853Y-78310960D01*
X240533095Y-78292955D01*
X240548655Y-78277865D01*
X240564832Y-78252466D01*
X240546301Y-78247542D01*
X240525318Y-78250087D01*
X240480835Y-78266437D01*
X240463365Y-78285555D01*
X240381734Y-78285555D01*
X240393747Y-78275636D01*
X240523885Y-78217113D01*
X240675573Y-78193326D01*
X240724816Y-78192438D01*
X240902952Y-78212545D01*
X241055961Y-78268701D01*
X241182190Y-78359205D01*
X241279984Y-78482353D01*
X241347691Y-78636443D01*
X241383655Y-78819772D01*
X241387759Y-78875059D01*
X241391431Y-78972631D01*
X241388820Y-79041698D01*
X241377152Y-79098063D01*
X241353649Y-79157529D01*
X241329197Y-79208393D01*
X241280403Y-79290136D01*
X241204683Y-79395019D01*
X241107543Y-79515760D01*
X241023060Y-79613333D01*
X240928490Y-79723174D01*
X240845123Y-79827221D01*
X240779139Y-79917357D01*
X240736724Y-79985467D01*
X240731419Y-79996147D01*
X240669131Y-80179277D01*
X240645318Y-80369654D01*
X240657890Y-80560571D01*
X240704759Y-80745317D01*
X240783834Y-80917184D01*
X240893026Y-81069465D01*
X241030245Y-81195449D01*
X241123424Y-81254685D01*
X241289738Y-81322369D01*
X241477904Y-81360047D01*
X241676055Y-81366703D01*
X241872325Y-81341318D01*
X241926530Y-81327651D01*
X242041060Y-81327651D01*
X242049417Y-81353223D01*
X242081044Y-81384002D01*
X242151439Y-81415134D01*
X242231981Y-81413605D01*
X242304950Y-81381396D01*
X242331777Y-81355991D01*
X242355978Y-81310381D01*
X242368825Y-81255733D01*
X242368849Y-81207544D01*
X242354582Y-81181312D01*
X242348458Y-81180000D01*
X242330138Y-81198530D01*
X242326217Y-81222626D01*
X242309398Y-81302685D01*
X242263968Y-81352314D01*
X242197471Y-81366979D01*
X242122725Y-81344952D01*
X242067003Y-81323482D01*
X242041060Y-81327651D01*
X241926530Y-81327651D01*
X241938746Y-81324571D01*
X241999260Y-81301065D01*
X242150812Y-81301065D01*
X242176947Y-81310873D01*
X242198100Y-81309323D01*
X242240496Y-81288352D01*
X242255391Y-81263041D01*
X242255611Y-81237480D01*
X242234093Y-81237970D01*
X242205575Y-81249942D01*
X242160682Y-81278153D01*
X242150812Y-81301065D01*
X241999260Y-81301065D01*
X242102279Y-81261048D01*
X242270137Y-81166503D01*
X242336188Y-81117588D01*
X242437212Y-81117588D01*
X242452253Y-81142962D01*
X242482872Y-81153244D01*
X242536585Y-81157767D01*
X242539242Y-81157777D01*
X242604321Y-81144457D01*
X242661156Y-81098438D01*
X242668986Y-81089406D01*
X242716389Y-81013232D01*
X242722706Y-80941552D01*
X242703209Y-80889027D01*
X242676195Y-80857169D01*
X242656884Y-80862204D01*
X242652989Y-80896583D01*
X242661792Y-80929569D01*
X242668230Y-80998347D01*
X242638128Y-81054999D01*
X242579327Y-81090399D01*
X242517648Y-81097331D01*
X242457460Y-81100134D01*
X242437212Y-81117588D01*
X242336188Y-81117588D01*
X242427443Y-81050007D01*
X242431094Y-81046666D01*
X242496396Y-81046666D01*
X242545455Y-81046666D01*
X242589734Y-81033567D01*
X242607034Y-81014066D01*
X242615574Y-80968234D01*
X242598072Y-80955627D01*
X242560773Y-80978897D01*
X242549876Y-80989789D01*
X242496396Y-81046666D01*
X242431094Y-81046666D01*
X242503936Y-80980000D01*
X242657646Y-80796283D01*
X242667002Y-80780000D01*
X242726567Y-80780000D01*
X242744320Y-80798676D01*
X242787440Y-80800471D01*
X242840718Y-80786720D01*
X242878714Y-80766646D01*
X242938877Y-80702130D01*
X242957146Y-80623292D01*
X242938852Y-80545603D01*
X242911752Y-80495705D01*
X242885551Y-80469877D01*
X242881014Y-80468888D01*
X242866044Y-80484445D01*
X242872148Y-80507777D01*
X242899247Y-80601408D01*
X242892541Y-80675544D01*
X242857181Y-80721705D01*
X242804967Y-80748796D01*
X242766101Y-80757777D01*
X242732738Y-80768115D01*
X242726567Y-80780000D01*
X242667002Y-80780000D01*
X242721062Y-80685911D01*
X242778805Y-80685911D01*
X242802363Y-80687039D01*
X242833327Y-80664444D01*
X242857539Y-80623937D01*
X242852511Y-80590902D01*
X242826655Y-80580000D01*
X242797042Y-80591034D01*
X242793292Y-80600404D01*
X242785955Y-80637646D01*
X242779792Y-80655960D01*
X242778805Y-80685911D01*
X242721062Y-80685911D01*
X242779016Y-80585046D01*
X242864542Y-80357777D01*
X242904500Y-80357777D01*
X242920704Y-80379273D01*
X242959974Y-80379516D01*
X243008301Y-80361808D01*
X243051676Y-80329454D01*
X243058578Y-80321447D01*
X243099208Y-80239598D01*
X243096597Y-80156959D01*
X243051111Y-80080226D01*
X243045154Y-80074065D01*
X243003464Y-80040173D01*
X242979258Y-80036591D01*
X242977039Y-80040353D01*
X242985013Y-80073085D01*
X243014319Y-80111944D01*
X243048106Y-80158554D01*
X243060192Y-80197277D01*
X243044672Y-80254385D01*
X243007026Y-80305393D01*
X242960626Y-80333862D01*
X242947723Y-80335555D01*
X242912271Y-80345104D01*
X242904500Y-80357777D01*
X242864542Y-80357777D01*
X242867541Y-80349809D01*
X242890994Y-80241111D01*
X242928305Y-80241111D01*
X242939263Y-80266242D01*
X242964687Y-80262672D01*
X242985424Y-80235555D01*
X242988545Y-80187198D01*
X242982339Y-80163333D01*
X242968384Y-80137844D01*
X242955520Y-80151808D01*
X242948160Y-80168888D01*
X242932329Y-80217923D01*
X242928305Y-80241111D01*
X242890994Y-80241111D01*
X242922714Y-80094096D01*
X242934608Y-79941945D01*
X242971225Y-79941945D01*
X242985316Y-79957596D01*
X243022919Y-79943332D01*
X243070097Y-79907777D01*
X243125803Y-79835327D01*
X243141524Y-79756134D01*
X243116034Y-79678840D01*
X243104800Y-79662982D01*
X243059787Y-79621432D01*
X243014854Y-79602356D01*
X243011742Y-79602222D01*
X242987642Y-79605767D01*
X242991032Y-79621379D01*
X243024800Y-79656525D01*
X243037292Y-79668274D01*
X243086537Y-79731320D01*
X243092563Y-79791265D01*
X243055116Y-79852472D01*
X243024913Y-79880834D01*
X242987461Y-79916936D01*
X242971244Y-79941518D01*
X242971225Y-79941945D01*
X242934608Y-79941945D01*
X242944029Y-79821428D01*
X242942357Y-79784761D01*
X242971225Y-79784761D01*
X242973292Y-79831359D01*
X242983994Y-79840056D01*
X243007629Y-79819818D01*
X243031144Y-79777505D01*
X243030569Y-79748389D01*
X243007700Y-79715595D01*
X242985721Y-79721946D01*
X242972403Y-79762679D01*
X242971225Y-79784761D01*
X242942357Y-79784761D01*
X242930981Y-79535328D01*
X242892431Y-79297183D01*
X242936462Y-79297183D01*
X242942370Y-79340852D01*
X242960021Y-79382762D01*
X242980927Y-79384152D01*
X242993121Y-79346263D01*
X242993467Y-79335555D01*
X242982746Y-79297267D01*
X242959531Y-79271420D01*
X242938347Y-79272219D01*
X242936462Y-79297183D01*
X242892431Y-79297183D01*
X242883064Y-79239318D01*
X242799771Y-78936919D01*
X242798122Y-78931971D01*
X242778030Y-78885555D01*
X242815534Y-78885555D01*
X242828542Y-78939034D01*
X242865271Y-78957777D01*
X242878306Y-78939393D01*
X242878245Y-78909518D01*
X242862371Y-78868633D01*
X242838430Y-78851682D01*
X242819321Y-78863593D01*
X242815534Y-78885555D01*
X242778030Y-78885555D01*
X242702616Y-78711331D01*
X242566708Y-78496244D01*
X242556032Y-78483648D01*
X242610054Y-78483648D01*
X242629285Y-78525603D01*
X242658769Y-78567784D01*
X242674758Y-78575945D01*
X242687388Y-78553716D01*
X242689880Y-78547309D01*
X242686655Y-78510679D01*
X242661977Y-78474823D01*
X242629768Y-78455953D01*
X242613813Y-78458732D01*
X242610054Y-78483648D01*
X242556032Y-78483648D01*
X242468183Y-78380000D01*
X242537513Y-78380000D01*
X242546701Y-78395302D01*
X242591425Y-78402120D01*
X242599478Y-78402222D01*
X242679846Y-78417643D01*
X242727609Y-78461758D01*
X242741121Y-78531343D01*
X242718732Y-78623175D01*
X242715927Y-78630000D01*
X242711752Y-78662123D01*
X242729585Y-78667148D01*
X242756925Y-78646016D01*
X242770268Y-78625905D01*
X242793098Y-78544538D01*
X242780281Y-78466686D01*
X242737677Y-78403088D01*
X242671148Y-78364484D01*
X242623915Y-78357777D01*
X242569897Y-78363968D01*
X242538225Y-78378972D01*
X242537513Y-78380000D01*
X242468183Y-78380000D01*
X242394474Y-78293034D01*
X242370700Y-78268888D01*
X242216608Y-78128978D01*
X242317972Y-78128978D01*
X242320426Y-78152709D01*
X242344304Y-78187338D01*
X242376025Y-78216333D01*
X242396389Y-78224444D01*
X242413187Y-78206449D01*
X242415183Y-78191892D01*
X242399397Y-78159294D01*
X242364488Y-78132557D01*
X242329135Y-78123770D01*
X242317972Y-78128978D01*
X242216608Y-78128978D01*
X242202411Y-78116088D01*
X242139285Y-78071529D01*
X242215008Y-78071529D01*
X242234311Y-78081157D01*
X242282402Y-78080426D01*
X242300155Y-78078032D01*
X242382232Y-78080078D01*
X242435855Y-78115366D01*
X242458580Y-78181852D01*
X242458856Y-78210806D01*
X242457780Y-78283334D01*
X242465454Y-78313618D01*
X242483137Y-78303222D01*
X242504733Y-78267800D01*
X242515466Y-78208178D01*
X242501354Y-78137006D01*
X242468593Y-78074567D01*
X242437106Y-78046496D01*
X242380720Y-78028896D01*
X242316180Y-78025732D01*
X242258099Y-78035356D01*
X242221089Y-78056120D01*
X242215008Y-78071529D01*
X242139285Y-78071529D01*
X242035789Y-77998474D01*
X241859304Y-77908789D01*
X241772584Y-77877047D01*
X241954770Y-77877047D01*
X241956421Y-77901476D01*
X241980196Y-77926261D01*
X242027658Y-77953402D01*
X242053753Y-77952941D01*
X242054286Y-77931587D01*
X242028891Y-77897069D01*
X241990258Y-77874591D01*
X241957663Y-77874717D01*
X241954770Y-77877047D01*
X241772584Y-77877047D01*
X241722673Y-77858778D01*
X241841868Y-77858778D01*
X241842831Y-77859938D01*
X241870373Y-77861747D01*
X241886202Y-77850740D01*
X241939495Y-77825187D01*
X242006493Y-77826588D01*
X242067724Y-77852294D01*
X242094083Y-77879022D01*
X242115408Y-77925349D01*
X242115525Y-77956800D01*
X242110623Y-77990224D01*
X242127722Y-78013750D01*
X242149820Y-78012384D01*
X242165966Y-77982497D01*
X242170525Y-77946594D01*
X242151416Y-77874073D01*
X242102025Y-77816143D01*
X242034257Y-77778883D01*
X241960014Y-77768375D01*
X241891201Y-77790698D01*
X241880552Y-77798476D01*
X241847685Y-77833542D01*
X241841868Y-77858778D01*
X241722673Y-77858778D01*
X241714635Y-77855836D01*
X241509719Y-77809463D01*
X241296541Y-77794824D01*
X241081940Y-77809950D01*
X240872759Y-77852872D01*
X240675840Y-77921619D01*
X240498023Y-78014223D01*
X240346151Y-78128714D01*
X240227065Y-78263122D01*
X240209781Y-78289054D01*
X240165133Y-78370846D01*
X240149746Y-78425043D01*
X240101321Y-78425043D01*
X240099669Y-78424444D01*
X240083939Y-78442166D01*
X240080484Y-78480132D01*
X240024363Y-78480132D01*
X240020137Y-78452298D01*
X240047611Y-78385610D01*
X240107882Y-78335968D01*
X240118456Y-78331142D01*
X240179894Y-78305398D01*
X240125017Y-78296076D01*
X240070008Y-78303162D01*
X240019369Y-78345727D01*
X239983764Y-78380009D01*
X239968963Y-78376481D01*
X239968599Y-78371740D01*
X239987326Y-78331308D01*
X240033204Y-78289455D01*
X240090776Y-78257532D01*
X240138923Y-78246666D01*
X240174518Y-78244049D01*
X240177879Y-78228097D01*
X240155714Y-78191273D01*
X240132414Y-78119789D01*
X240135118Y-78102708D01*
X240168774Y-78102708D01*
X240173079Y-78156128D01*
X240183449Y-78187251D01*
X240183601Y-78187407D01*
X240211818Y-78202287D01*
X240224159Y-78177923D01*
X240220930Y-78129741D01*
X240223408Y-78094526D01*
X240279982Y-78094526D01*
X240282497Y-78122764D01*
X240297808Y-78122948D01*
X240334887Y-78097704D01*
X240373924Y-78064555D01*
X240390492Y-78041111D01*
X240373987Y-78025365D01*
X240326335Y-78033888D01*
X240315164Y-78037933D01*
X240285719Y-78068806D01*
X240279982Y-78094526D01*
X240223408Y-78094526D01*
X240226180Y-78055142D01*
X240265126Y-78003826D01*
X240331241Y-77980098D01*
X240417997Y-77988263D01*
X240430113Y-77991786D01*
X240470240Y-77995388D01*
X240479371Y-77978372D01*
X240458200Y-77951309D01*
X240426193Y-77932258D01*
X240347688Y-77918175D01*
X240271847Y-77940113D01*
X240210079Y-77990518D01*
X240173794Y-78061835D01*
X240168774Y-78102708D01*
X240135118Y-78102708D01*
X240144432Y-78043880D01*
X240185115Y-77973850D01*
X240247811Y-77919998D01*
X240325866Y-77892626D01*
X240349556Y-77891111D01*
X240407372Y-77896525D01*
X240443659Y-77909891D01*
X240446795Y-77913333D01*
X240472134Y-77934578D01*
X240495465Y-77912259D01*
X240515157Y-77854659D01*
X240546644Y-77785248D01*
X240591366Y-77739006D01*
X240646970Y-77704251D01*
X240596926Y-77760224D01*
X240566953Y-77808103D01*
X240549730Y-77862605D01*
X240547519Y-77909465D01*
X240562582Y-77934413D01*
X240569124Y-77935555D01*
X240586233Y-77916648D01*
X240591366Y-77883444D01*
X240597737Y-77861867D01*
X240658091Y-77861867D01*
X240670808Y-77883493D01*
X240708134Y-77878736D01*
X240750136Y-77864149D01*
X240765966Y-77856495D01*
X240764046Y-77834836D01*
X240760383Y-77828009D01*
X240730671Y-77814298D01*
X240690383Y-77823575D01*
X240661517Y-77848560D01*
X240658091Y-77861867D01*
X240597737Y-77861867D01*
X240610064Y-77820120D01*
X240657475Y-77777271D01*
X240720571Y-77760005D01*
X240786323Y-77773431D01*
X240817728Y-77794678D01*
X240853485Y-77817661D01*
X240872692Y-77817437D01*
X240872323Y-77791336D01*
X240844854Y-77755320D01*
X240801420Y-77722191D01*
X240781192Y-77712256D01*
X240749739Y-77698083D01*
X240760760Y-77693438D01*
X240784366Y-77692519D01*
X240831809Y-77708067D01*
X240876494Y-77746616D01*
X240920193Y-77802122D01*
X240935501Y-77741185D01*
X240963190Y-77670081D01*
X240999933Y-77630047D01*
X241020128Y-77624444D01*
X241024660Y-77637875D01*
X241004497Y-77667056D01*
X240977326Y-77720710D01*
X240974837Y-77761500D01*
X240982188Y-77795848D01*
X240991383Y-77792741D01*
X241008922Y-77753573D01*
X241015512Y-77743850D01*
X241081520Y-77743850D01*
X241086327Y-77763384D01*
X241121957Y-77769482D01*
X241141847Y-77766186D01*
X241147162Y-77764721D01*
X241527585Y-77764721D01*
X241556884Y-77784693D01*
X241564439Y-77786903D01*
X241613497Y-77797661D01*
X241633195Y-77792163D01*
X241636725Y-77768888D01*
X241617390Y-77742079D01*
X241581120Y-77735555D01*
X241536854Y-77744678D01*
X241527585Y-77764721D01*
X241147162Y-77764721D01*
X241189210Y-77753131D01*
X241211756Y-77744063D01*
X241207191Y-77731387D01*
X241176256Y-77721157D01*
X241137030Y-77717572D01*
X241114045Y-77721369D01*
X241081520Y-77743850D01*
X241015512Y-77743850D01*
X241056403Y-77683520D01*
X241118587Y-77652006D01*
X241187147Y-77660692D01*
X241248778Y-77705705D01*
X241287549Y-77741092D01*
X241313573Y-77753313D01*
X241316243Y-77752052D01*
X241318124Y-77725704D01*
X241414308Y-77725704D01*
X241420152Y-77753632D01*
X241441683Y-77748586D01*
X241481033Y-77713333D01*
X241544897Y-77674474D01*
X241610534Y-77675906D01*
X241669032Y-77714776D01*
X241711033Y-77786964D01*
X241734535Y-77812026D01*
X241761123Y-77805683D01*
X241770175Y-77780393D01*
X241757003Y-77752562D01*
X241724221Y-77707019D01*
X241712593Y-77692816D01*
X241654832Y-77641421D01*
X241591207Y-77624564D01*
X241584092Y-77624444D01*
X241514805Y-77636287D01*
X241455112Y-77666227D01*
X241419075Y-77705875D01*
X241414308Y-77725704D01*
X241318124Y-77725704D01*
X241318347Y-77722584D01*
X241293783Y-77679820D01*
X241251742Y-77636765D01*
X241219134Y-77614640D01*
X241183197Y-77591764D01*
X241186561Y-77581925D01*
X241198462Y-77580889D01*
X241241343Y-77596057D01*
G37*
G36*
X241387243Y-77881285D02*
G01*
X241551459Y-77897790D01*
X241691363Y-77928982D01*
X241692329Y-77929287D01*
X241907367Y-78017659D01*
X242108677Y-78143423D01*
X242301777Y-78310038D01*
X242305111Y-78313333D01*
X242488431Y-78525665D01*
X242635191Y-78763237D01*
X242745326Y-79025879D01*
X242818774Y-79313423D01*
X242855470Y-79625702D01*
X242860017Y-79790011D01*
X242851341Y-80009004D01*
X242823049Y-80201838D01*
X242771747Y-80383734D01*
X242694041Y-80569916D01*
X242679325Y-80600319D01*
X242566512Y-80785679D01*
X242425461Y-80946352D01*
X242261794Y-81079651D01*
X242081136Y-81182893D01*
X241889108Y-81253392D01*
X241691334Y-81288464D01*
X241493439Y-81285424D01*
X241321702Y-81248470D01*
X241296931Y-81238743D01*
X241508978Y-81238743D01*
X241531829Y-81246305D01*
X241570000Y-81246666D01*
X241616884Y-81243122D01*
X241628513Y-81238117D01*
X241705040Y-81238117D01*
X241722119Y-81243599D01*
X241735056Y-81239303D01*
X241786354Y-81226239D01*
X241806614Y-81224444D01*
X241825130Y-81218364D01*
X241819613Y-81193413D01*
X241799999Y-81157777D01*
X241763930Y-81107665D01*
X241737641Y-81092035D01*
X241796447Y-81092035D01*
X241817049Y-81140018D01*
X241838903Y-81169931D01*
X241857211Y-81161090D01*
X241861192Y-81155224D01*
X241871679Y-81125941D01*
X241903625Y-81125941D01*
X241906530Y-81177702D01*
X241920662Y-81195498D01*
X241953669Y-81189847D01*
X241995651Y-81175277D01*
X242011459Y-81167648D01*
X242006073Y-81147140D01*
X241981984Y-81110073D01*
X241951087Y-81072145D01*
X241925279Y-81049052D01*
X241920306Y-81047364D01*
X241909369Y-81066448D01*
X241903803Y-81114386D01*
X241903625Y-81125941D01*
X241871679Y-81125941D01*
X241878897Y-81105787D01*
X241881043Y-81085555D01*
X241863445Y-81052797D01*
X241836900Y-81046666D01*
X241800063Y-81057346D01*
X241796447Y-81092035D01*
X241737641Y-81092035D01*
X241737540Y-81091975D01*
X241725624Y-81113206D01*
X241725388Y-81118888D01*
X241719673Y-81161109D01*
X241710692Y-81200414D01*
X241705040Y-81238117D01*
X241628513Y-81238117D01*
X241636721Y-81234584D01*
X241636725Y-81234452D01*
X241627458Y-81208384D01*
X241604752Y-81160537D01*
X241600771Y-81152772D01*
X241590532Y-81132988D01*
X241617724Y-81132988D01*
X241627983Y-81167071D01*
X241650900Y-81199337D01*
X241674304Y-81188835D01*
X241688662Y-81153921D01*
X241692337Y-81096915D01*
X241664778Y-81070905D01*
X241646533Y-81068888D01*
X241619067Y-81086135D01*
X241617724Y-81132988D01*
X241590532Y-81132988D01*
X241564818Y-81083306D01*
X241534046Y-81156426D01*
X241511237Y-81212599D01*
X241508978Y-81238743D01*
X241296931Y-81238743D01*
X241181660Y-81193479D01*
X241160450Y-81180294D01*
X241317006Y-81180294D01*
X241327390Y-81203683D01*
X241331244Y-81206337D01*
X241379790Y-81223804D01*
X241407561Y-81202024D01*
X241414308Y-81157777D01*
X241410090Y-81129924D01*
X241439251Y-81129924D01*
X241451247Y-81170189D01*
X241464975Y-81195796D01*
X241482286Y-81185382D01*
X241495731Y-81167759D01*
X241519815Y-81122827D01*
X241525516Y-81097974D01*
X241506961Y-81074377D01*
X241481033Y-81068888D01*
X241444004Y-81084179D01*
X241439251Y-81129924D01*
X241410090Y-81129924D01*
X241406381Y-81105434D01*
X241383770Y-81094797D01*
X241348230Y-81126277D01*
X241338066Y-81140011D01*
X241317006Y-81180294D01*
X241160450Y-81180294D01*
X241066808Y-81122083D01*
X241044816Y-81101771D01*
X241139081Y-81101771D01*
X241151489Y-81130738D01*
X241152160Y-81131414D01*
X241194456Y-81156538D01*
X241216774Y-81144256D01*
X241267211Y-81144256D01*
X241282115Y-81153260D01*
X241314911Y-81123506D01*
X241332115Y-81101291D01*
X241357561Y-81061730D01*
X241355429Y-81042262D01*
X241336716Y-81032578D01*
X241306697Y-81024518D01*
X241289813Y-81037677D01*
X241275979Y-81082108D01*
X241272442Y-81096666D01*
X241267211Y-81144256D01*
X241216774Y-81144256D01*
X241225602Y-81139398D01*
X241241119Y-81091111D01*
X241239377Y-81039401D01*
X241216260Y-81025505D01*
X241175848Y-81050784D01*
X241162279Y-81064747D01*
X241139081Y-81101771D01*
X241044816Y-81101771D01*
X240959046Y-81022551D01*
X240938275Y-80999932D01*
X240930825Y-80990368D01*
X240973836Y-80990368D01*
X240996164Y-81020000D01*
X241033294Y-81044456D01*
X241057837Y-81031037D01*
X241103265Y-81031037D01*
X241105684Y-81056945D01*
X241121300Y-81056020D01*
X241157830Y-81031037D01*
X241196886Y-80997662D01*
X241213434Y-80973747D01*
X241196370Y-80951990D01*
X241178525Y-80942731D01*
X241138908Y-80946853D01*
X241111105Y-80985026D01*
X241103265Y-81031037D01*
X241057837Y-81031037D01*
X241061718Y-81028915D01*
X241081855Y-80988029D01*
X241096594Y-80937154D01*
X241084324Y-80919693D01*
X241039558Y-80930161D01*
X241028163Y-80934383D01*
X240980035Y-80960562D01*
X240973836Y-80990368D01*
X240930825Y-80990368D01*
X240850763Y-80887585D01*
X240814740Y-80817627D01*
X240861493Y-80817627D01*
X240890115Y-80862661D01*
X240908066Y-80880676D01*
X240962206Y-80911352D01*
X241020651Y-80916565D01*
X241065572Y-80895583D01*
X241071861Y-80887393D01*
X241075936Y-80850781D01*
X241070952Y-80831162D01*
X241057195Y-80811231D01*
X241033875Y-80819689D01*
X241002256Y-80847211D01*
X240966140Y-80874986D01*
X240947805Y-80877103D01*
X240947232Y-80874074D01*
X240963584Y-80840080D01*
X240969474Y-80835555D01*
X240991987Y-80809108D01*
X240975354Y-80788372D01*
X240924991Y-80780000D01*
X240873193Y-80789629D01*
X240861493Y-80817627D01*
X240814740Y-80817627D01*
X240790736Y-80771010D01*
X240779894Y-80731587D01*
X240885538Y-80731587D01*
X240893148Y-80752521D01*
X240923876Y-80757247D01*
X240960020Y-80747223D01*
X240983877Y-80723904D01*
X240984041Y-80723486D01*
X240987811Y-80685640D01*
X240982276Y-80674272D01*
X240954015Y-80672278D01*
X240916280Y-80693056D01*
X240888154Y-80725301D01*
X240885538Y-80731587D01*
X240779894Y-80731587D01*
X240754494Y-80639231D01*
X240754007Y-80634472D01*
X240793117Y-80634472D01*
X240805041Y-80678182D01*
X240822977Y-80708374D01*
X240848531Y-80705186D01*
X240884317Y-80676555D01*
X240919774Y-80635312D01*
X240914328Y-80611154D01*
X240867364Y-80602333D01*
X240858266Y-80602222D01*
X240807280Y-80608728D01*
X240793117Y-80634472D01*
X240754007Y-80634472D01*
X240745277Y-80549117D01*
X240826594Y-80549117D01*
X240840236Y-80564821D01*
X240840406Y-80564890D01*
X240902554Y-80578532D01*
X240939547Y-80562367D01*
X240947232Y-80535555D01*
X240933908Y-80498720D01*
X240897158Y-80496846D01*
X240851526Y-80522906D01*
X240826594Y-80549117D01*
X240745277Y-80549117D01*
X240738338Y-80481274D01*
X240737625Y-80447822D01*
X240769299Y-80447822D01*
X240771601Y-80494173D01*
X240777101Y-80513333D01*
X240801231Y-80506777D01*
X240849552Y-80490808D01*
X240854920Y-80488946D01*
X240903085Y-80465780D01*
X240908355Y-80443125D01*
X240870213Y-80418692D01*
X240865413Y-80416847D01*
X240986773Y-80416847D01*
X241005543Y-80583757D01*
X241059875Y-80730501D01*
X241146801Y-80852502D01*
X241263354Y-80945187D01*
X241357876Y-80989081D01*
X241465819Y-81013157D01*
X241597089Y-81021387D01*
X241602351Y-81021093D01*
X241952122Y-81021093D01*
X241963628Y-81048082D01*
X241980242Y-81067532D01*
X242020905Y-81103277D01*
X242048414Y-81111479D01*
X242054460Y-81090879D01*
X242050575Y-81078182D01*
X242039475Y-81032752D01*
X242066465Y-81032752D01*
X242071263Y-81075373D01*
X242086538Y-81115046D01*
X242113267Y-81118779D01*
X242139219Y-81108353D01*
X242179075Y-81084401D01*
X242192767Y-81066581D01*
X242175935Y-81039131D01*
X242137949Y-81012065D01*
X242097568Y-80996176D01*
X242075672Y-80999213D01*
X242066465Y-81032752D01*
X242039475Y-81032752D01*
X242038344Y-81028122D01*
X242037075Y-81011515D01*
X242026020Y-80983195D01*
X241990886Y-80989941D01*
X241971234Y-81001205D01*
X241952122Y-81021093D01*
X241602351Y-81021093D01*
X241733454Y-81013768D01*
X241856681Y-80990297D01*
X241860665Y-80989149D01*
X241993034Y-80933983D01*
X242107795Y-80933983D01*
X242120639Y-80958254D01*
X242145874Y-80981007D01*
X242190499Y-81012626D01*
X242209684Y-81008450D01*
X242206636Y-80966682D01*
X242202559Y-80949288D01*
X242187890Y-80909084D01*
X242228728Y-80909084D01*
X242240471Y-80957456D01*
X242260750Y-81001584D01*
X242284517Y-81010094D01*
X242306039Y-81001118D01*
X242340155Y-80974457D01*
X242348458Y-80957777D01*
X242330499Y-80932280D01*
X242289920Y-80906125D01*
X242246666Y-80891558D01*
X242239869Y-80891111D01*
X242228728Y-80909084D01*
X242187890Y-80909084D01*
X242185609Y-80902832D01*
X242160818Y-80895158D01*
X242126042Y-80914125D01*
X242107795Y-80933983D01*
X241993034Y-80933983D01*
X242042098Y-80913535D01*
X242162949Y-80828044D01*
X242264153Y-80828044D01*
X242276536Y-80856636D01*
X242310890Y-80885585D01*
X242348889Y-80902400D01*
X242368880Y-80899426D01*
X242366371Y-80876243D01*
X242348168Y-80835012D01*
X242314674Y-80794501D01*
X242283664Y-80791961D01*
X242264153Y-80828044D01*
X242162949Y-80828044D01*
X242202780Y-80799867D01*
X242213124Y-80788662D01*
X242355687Y-80788662D01*
X242374270Y-80834509D01*
X242400787Y-80880103D01*
X242427580Y-80885315D01*
X242466215Y-80851678D01*
X242470276Y-80847231D01*
X242495519Y-80814930D01*
X242487492Y-80796769D01*
X242450033Y-80780565D01*
X242385441Y-80759021D01*
X242355722Y-80760489D01*
X242355687Y-80788662D01*
X242213124Y-80788662D01*
X242296395Y-80698461D01*
X242380188Y-80698461D01*
X242386167Y-80730942D01*
X242407990Y-80742145D01*
X242466909Y-80754494D01*
X242489198Y-80748427D01*
X242480113Y-80720491D01*
X242468742Y-80702222D01*
X242436248Y-80663571D01*
X242407185Y-80644917D01*
X242393085Y-80653297D01*
X242392942Y-80655960D01*
X242386046Y-80682162D01*
X242380188Y-80698461D01*
X242296395Y-80698461D01*
X242340810Y-80650350D01*
X242354684Y-80627957D01*
X242462476Y-80627957D01*
X242484423Y-80671679D01*
X242494291Y-80686166D01*
X242533119Y-80728192D01*
X242562276Y-80727517D01*
X242582528Y-80689436D01*
X242591723Y-80652953D01*
X242581146Y-80634128D01*
X242540595Y-80620821D01*
X242520831Y-80616036D01*
X242474144Y-80610647D01*
X242462476Y-80627957D01*
X242354684Y-80627957D01*
X242404299Y-80547875D01*
X242461541Y-80547875D01*
X242464412Y-80567943D01*
X242500220Y-80583272D01*
X242574524Y-80598848D01*
X242576436Y-80599195D01*
X242592946Y-80586097D01*
X242593117Y-80583444D01*
X242578302Y-80555534D01*
X242552778Y-80528192D01*
X242515722Y-80505013D01*
X242486730Y-80517411D01*
X242486053Y-80518081D01*
X242461541Y-80547875D01*
X242404299Y-80547875D01*
X242451965Y-80470939D01*
X242552353Y-80470939D01*
X242579415Y-80510385D01*
X242585443Y-80517139D01*
X242626416Y-80552582D01*
X242653781Y-80548861D01*
X242668583Y-80522626D01*
X242680462Y-80473321D01*
X242661051Y-80451150D01*
X242615359Y-80446666D01*
X242563476Y-80451723D01*
X242552353Y-80470939D01*
X242451965Y-80470939D01*
X242454288Y-80467189D01*
X242489645Y-80380000D01*
X242548634Y-80380000D01*
X242561666Y-80414851D01*
X242604238Y-80424444D01*
X242646058Y-80418350D01*
X242659842Y-80406666D01*
X242642233Y-80371973D01*
X242603873Y-80342745D01*
X242577548Y-80335555D01*
X242554088Y-80354097D01*
X242548634Y-80380000D01*
X242489645Y-80380000D01*
X242534702Y-80268888D01*
X242585363Y-80268888D01*
X242638002Y-80324871D01*
X242688710Y-80366108D01*
X242724036Y-80365870D01*
X242743628Y-80324183D01*
X242744795Y-80317148D01*
X242743751Y-80285355D01*
X242720311Y-80271670D01*
X242668633Y-80268888D01*
X242585363Y-80268888D01*
X242534702Y-80268888D01*
X242541313Y-80252586D01*
X242549830Y-80223357D01*
X242595285Y-80223357D01*
X242612490Y-80242382D01*
X242659842Y-80246666D01*
X242706695Y-80240455D01*
X242726562Y-80225489D01*
X242726567Y-80225226D01*
X242709156Y-80199332D01*
X242679255Y-80178487D01*
X242638225Y-80164651D01*
X242613489Y-80182299D01*
X242612871Y-80183261D01*
X242595285Y-80223357D01*
X242549830Y-80223357D01*
X242564435Y-80173234D01*
X242574484Y-80117802D01*
X242651640Y-80117802D01*
X242670285Y-80141645D01*
X242696653Y-80160247D01*
X242752246Y-80193147D01*
X242781342Y-80196121D01*
X242792157Y-80167033D01*
X242793292Y-80135132D01*
X242789344Y-80089096D01*
X242768930Y-80076328D01*
X242732127Y-80082649D01*
X242671298Y-80100227D01*
X242651640Y-80117802D01*
X242574484Y-80117802D01*
X242584328Y-80063499D01*
X242587644Y-80024444D01*
X242637600Y-80024444D01*
X242650982Y-80059591D01*
X242691892Y-80068888D01*
X242738683Y-80061124D01*
X242759240Y-80047781D01*
X242752446Y-80024049D01*
X242719450Y-79998239D01*
X242676488Y-79981588D01*
X242661304Y-79980000D01*
X242642050Y-79998598D01*
X242637600Y-80024444D01*
X242587644Y-80024444D01*
X242595000Y-79937823D01*
X242682718Y-79937823D01*
X242704143Y-79963100D01*
X242714172Y-79970705D01*
X242769716Y-79999537D01*
X242803992Y-79990307D01*
X242815534Y-79944257D01*
X242810611Y-79904078D01*
X242786672Y-79895179D01*
X242754415Y-79901619D01*
X242698282Y-79919377D01*
X242682718Y-79937823D01*
X242595000Y-79937823D01*
X242596196Y-79923734D01*
X242598052Y-79848164D01*
X242659842Y-79848164D01*
X242667592Y-79880676D01*
X242698993Y-79881826D01*
X242709886Y-79878736D01*
X242753158Y-79863025D01*
X242770406Y-79853808D01*
X242764981Y-79836868D01*
X242734751Y-79816496D01*
X242697075Y-79803442D01*
X242687644Y-79802562D01*
X242665341Y-79820883D01*
X242659842Y-79848164D01*
X242598052Y-79848164D01*
X242600031Y-79767623D01*
X242599999Y-79766415D01*
X242685887Y-79766415D01*
X242719941Y-79786621D01*
X242721007Y-79786903D01*
X242779869Y-79797771D01*
X242807974Y-79786939D01*
X242815513Y-79750069D01*
X242815534Y-79746666D01*
X242813561Y-79705956D01*
X242799275Y-79693878D01*
X242760123Y-79704865D01*
X242739136Y-79712783D01*
X242692802Y-79739692D01*
X242685887Y-79766415D01*
X242599999Y-79766415D01*
X242597416Y-79668888D01*
X242659842Y-79668888D01*
X242664580Y-79704774D01*
X242685907Y-79709672D01*
X242728652Y-79689996D01*
X242758496Y-79660895D01*
X242748670Y-79635440D01*
X242703403Y-79624444D01*
X242703013Y-79624444D01*
X242666775Y-79640793D01*
X242659842Y-79668888D01*
X242597416Y-79668888D01*
X242595826Y-79608854D01*
X242592202Y-79565151D01*
X242648721Y-79565151D01*
X242715446Y-79593795D01*
X242774844Y-79616928D01*
X242804443Y-79617115D01*
X242814544Y-79590652D01*
X242815534Y-79557777D01*
X242813396Y-79511499D01*
X242800167Y-79495009D01*
X242765625Y-79505138D01*
X242719902Y-79528131D01*
X242648721Y-79565151D01*
X242592202Y-79565151D01*
X242583573Y-79461111D01*
X242581693Y-79449459D01*
X242626446Y-79449459D01*
X242629830Y-79480711D01*
X242652304Y-79509157D01*
X242691807Y-79506317D01*
X242733590Y-79486477D01*
X242764606Y-79467201D01*
X242759551Y-79456497D01*
X242715446Y-79445997D01*
X242653044Y-79438128D01*
X242626446Y-79449459D01*
X242581693Y-79449459D01*
X242572003Y-79389408D01*
X242627757Y-79389408D01*
X242682722Y-79404711D01*
X242747629Y-79419349D01*
X242780981Y-79414408D01*
X242792563Y-79386717D01*
X242793292Y-79368888D01*
X242782078Y-79324517D01*
X242747758Y-79317081D01*
X242689318Y-79346421D01*
X242682111Y-79351370D01*
X242627757Y-79389408D01*
X242572003Y-79389408D01*
X242564899Y-79345383D01*
X242544631Y-79275352D01*
X242603874Y-79275352D01*
X242605567Y-79319893D01*
X242619025Y-79342870D01*
X242641747Y-79339890D01*
X242675957Y-79319131D01*
X242732438Y-79282155D01*
X242684294Y-79260691D01*
X242633492Y-79252752D01*
X242603874Y-79275352D01*
X242544631Y-79275352D01*
X242519040Y-79186931D01*
X242622391Y-79186931D01*
X242623624Y-79212612D01*
X242666706Y-79224031D01*
X242682084Y-79224444D01*
X242731169Y-79217268D01*
X242748263Y-79191071D01*
X242748809Y-79181311D01*
X242737613Y-79135211D01*
X242704463Y-79127636D01*
X242663467Y-79148853D01*
X242622391Y-79186931D01*
X242519040Y-79186931D01*
X242498178Y-79114849D01*
X242548634Y-79114849D01*
X242562455Y-79150834D01*
X242600039Y-79153038D01*
X242650030Y-79125151D01*
X242678677Y-79099861D01*
X242682084Y-79090286D01*
X242606293Y-79078678D01*
X242564639Y-79083236D01*
X242549286Y-79105403D01*
X242548634Y-79114849D01*
X242498178Y-79114849D01*
X242487268Y-79077153D01*
X242468253Y-79035078D01*
X242556030Y-79035078D01*
X242593421Y-79045498D01*
X242627978Y-79046666D01*
X242679784Y-79043763D01*
X242697596Y-79029644D01*
X242691940Y-78996666D01*
X242675400Y-78951012D01*
X242655970Y-78941263D01*
X242618940Y-78963219D01*
X242606458Y-78972260D01*
X242560641Y-79011583D01*
X242556030Y-79035078D01*
X242468253Y-79035078D01*
X242421284Y-78931151D01*
X242486212Y-78931151D01*
X242490730Y-78954822D01*
X242494885Y-78965708D01*
X242513023Y-78996890D01*
X242538366Y-78994398D01*
X242574684Y-78965444D01*
X242610167Y-78924359D01*
X242606817Y-78902541D01*
X242565475Y-78902468D01*
X242554194Y-78904924D01*
X242503874Y-78918097D01*
X242486212Y-78931151D01*
X242421284Y-78931151D01*
X242393145Y-78868888D01*
X242480883Y-78868888D01*
X242558525Y-78868888D01*
X242609333Y-78866030D01*
X242625703Y-78852016D01*
X242618078Y-78820033D01*
X242590324Y-78772879D01*
X242557653Y-78769779D01*
X242519079Y-78810660D01*
X242517854Y-78812512D01*
X242480883Y-78868888D01*
X242393145Y-78868888D01*
X242378510Y-78836505D01*
X242335413Y-78770851D01*
X242402732Y-78770851D01*
X242407975Y-78793283D01*
X242436872Y-78821821D01*
X242479194Y-78813917D01*
X242499702Y-78797777D01*
X242524726Y-78760298D01*
X242508601Y-78739638D01*
X242474495Y-78735555D01*
X242419518Y-78743882D01*
X242402732Y-78770851D01*
X242335413Y-78770851D01*
X242289016Y-78700171D01*
X242392942Y-78700171D01*
X242411274Y-78710924D01*
X242453088Y-78712073D01*
X242498611Y-78704384D01*
X242520489Y-78695226D01*
X242535019Y-78673144D01*
X242518420Y-78635873D01*
X242513150Y-78628162D01*
X242478352Y-78578524D01*
X242435647Y-78632767D01*
X242405643Y-78674695D01*
X242392944Y-78700022D01*
X242392942Y-78700171D01*
X242289016Y-78700171D01*
X242240120Y-78625683D01*
X242219170Y-78603195D01*
X242314494Y-78603195D01*
X242314794Y-78637430D01*
X242327230Y-78658997D01*
X242351948Y-78679163D01*
X242375618Y-78663123D01*
X242384042Y-78652468D01*
X242408229Y-78614220D01*
X242414476Y-78596666D01*
X242398049Y-78582251D01*
X242361217Y-78581520D01*
X242325417Y-78593074D01*
X242314494Y-78603195D01*
X242219170Y-78603195D01*
X242193630Y-78575780D01*
X242284253Y-78575780D01*
X242309889Y-78574520D01*
X242358533Y-78554210D01*
X242405950Y-78519574D01*
X242409772Y-78479954D01*
X242383206Y-78447815D01*
X242357472Y-78436849D01*
X242333757Y-78458089D01*
X242316481Y-78488435D01*
X242287526Y-78548767D01*
X242284253Y-78575780D01*
X242193630Y-78575780D01*
X242124050Y-78501091D01*
X242194756Y-78501091D01*
X242207594Y-78520740D01*
X242241137Y-78533995D01*
X242274090Y-78504035D01*
X242282753Y-78489207D01*
X242299844Y-78446070D01*
X242284740Y-78431847D01*
X242241839Y-78439028D01*
X242200794Y-78464186D01*
X242194756Y-78501091D01*
X242124050Y-78501091D01*
X242073594Y-78446931D01*
X242030595Y-78414779D01*
X242170525Y-78414779D01*
X242187193Y-78424913D01*
X242225304Y-78417659D01*
X242267016Y-78396481D01*
X242267835Y-78395887D01*
X242293181Y-78372674D01*
X242286870Y-78350955D01*
X242261531Y-78326288D01*
X242228215Y-78299856D01*
X242209932Y-78306909D01*
X242193332Y-78345180D01*
X242176862Y-78391457D01*
X242170525Y-78414779D01*
X242030595Y-78414779D01*
X241949245Y-78353950D01*
X242067536Y-78353950D01*
X242068352Y-78376628D01*
X242096713Y-78397737D01*
X242130529Y-78400518D01*
X242148207Y-78383571D01*
X242148283Y-78381817D01*
X242155620Y-78344576D01*
X242161784Y-78326261D01*
X242163153Y-78296271D01*
X242136442Y-78296044D01*
X242093532Y-78321073D01*
X242067536Y-78353950D01*
X241949245Y-78353950D01*
X241880427Y-78302492D01*
X241862665Y-78291773D01*
X241793578Y-78255202D01*
X241913227Y-78255202D01*
X241919436Y-78274140D01*
X241940666Y-78287391D01*
X241983118Y-78294561D01*
X241984147Y-78293274D01*
X242027268Y-78293274D01*
X242028628Y-78313318D01*
X242028760Y-78313333D01*
X242051159Y-78305196D01*
X242091633Y-78287544D01*
X242137155Y-78254921D01*
X242145290Y-78220764D01*
X242114035Y-78193851D01*
X242113102Y-78193488D01*
X242066600Y-78181824D01*
X242043278Y-78199702D01*
X242032331Y-78246666D01*
X242027268Y-78293274D01*
X241984147Y-78293274D01*
X242008624Y-78262645D01*
X242014493Y-78218888D01*
X242004627Y-78184636D01*
X241975674Y-78189201D01*
X241938810Y-78222431D01*
X241913227Y-78255202D01*
X241793578Y-78255202D01*
X241789001Y-78252779D01*
X241741031Y-78231332D01*
X241881383Y-78231332D01*
X241931427Y-78189236D01*
X241970928Y-78156538D01*
X241992557Y-78139531D01*
X241986314Y-78123591D01*
X241957359Y-78098391D01*
X241921887Y-78076211D01*
X241899374Y-78068888D01*
X241887684Y-78088495D01*
X241881620Y-78136958D01*
X241881383Y-78150110D01*
X241881383Y-78231332D01*
X241741031Y-78231332D01*
X241703943Y-78214750D01*
X241620588Y-78182490D01*
X241760613Y-78182490D01*
X241760891Y-78182969D01*
X241792303Y-78202273D01*
X241828182Y-78188326D01*
X241848553Y-78156103D01*
X241855041Y-78113924D01*
X241850188Y-78096980D01*
X241826546Y-78099176D01*
X241793624Y-78123898D01*
X241766590Y-78156537D01*
X241760613Y-78182490D01*
X241620588Y-78182490D01*
X241618077Y-78181518D01*
X241541991Y-78156913D01*
X241486271Y-78144766D01*
X241462830Y-78147097D01*
X241471272Y-78166530D01*
X241500420Y-78210340D01*
X241533231Y-78254830D01*
X241627132Y-78411731D01*
X241692188Y-78592789D01*
X241727225Y-78787362D01*
X241731069Y-78984811D01*
X241702546Y-79174492D01*
X241651114Y-79323555D01*
X241604535Y-79417003D01*
X241551210Y-79505402D01*
X241484921Y-79597262D01*
X241399455Y-79701095D01*
X241288595Y-79825410D01*
X241269101Y-79846666D01*
X241163714Y-79965603D01*
X241087511Y-80064232D01*
X241036107Y-80151408D01*
X241005118Y-80235986D01*
X240990160Y-80326819D01*
X240986773Y-80416847D01*
X240865413Y-80416847D01*
X240836065Y-80405566D01*
X240790084Y-80392521D01*
X240772270Y-80403939D01*
X240769299Y-80447822D01*
X240737625Y-80447822D01*
X240736642Y-80401754D01*
X240736822Y-80368380D01*
X240819513Y-80368380D01*
X240858283Y-80388459D01*
X240906997Y-80399644D01*
X240931112Y-80386343D01*
X240937309Y-80378063D01*
X240940405Y-80344940D01*
X240910977Y-80325818D01*
X240863443Y-80327764D01*
X240820510Y-80346956D01*
X240819513Y-80368380D01*
X240736822Y-80368380D01*
X240737222Y-80294068D01*
X240738158Y-80277036D01*
X240769640Y-80277036D01*
X240778852Y-80306473D01*
X240814434Y-80306378D01*
X240819343Y-80305117D01*
X240874053Y-80293797D01*
X240902749Y-80290712D01*
X240912900Y-80278770D01*
X240884869Y-80245084D01*
X240871743Y-80233165D01*
X240819687Y-80199345D01*
X240786155Y-80205921D01*
X240770784Y-80253049D01*
X240769640Y-80277036D01*
X240738158Y-80277036D01*
X240741442Y-80217310D01*
X240749648Y-80170609D01*
X240849053Y-80170609D01*
X240873879Y-80196768D01*
X240911670Y-80218244D01*
X240940363Y-80224444D01*
X240966692Y-80206778D01*
X240969474Y-80193702D01*
X240950748Y-80165803D01*
X240908550Y-80147370D01*
X240863850Y-80145940D01*
X240851036Y-80151130D01*
X240849053Y-80170609D01*
X240749648Y-80170609D01*
X240751868Y-80157976D01*
X240771064Y-80102562D01*
X240781238Y-80080904D01*
X240817950Y-80080904D01*
X240826129Y-80104975D01*
X240873397Y-80113067D01*
X240891628Y-80113333D01*
X240943094Y-80108614D01*
X240968806Y-80097011D01*
X240969474Y-80094555D01*
X240954577Y-80067340D01*
X240922982Y-80033739D01*
X240888148Y-80005617D01*
X240866879Y-80008047D01*
X240845136Y-80034542D01*
X240817950Y-80080904D01*
X240781238Y-80080904D01*
X240801597Y-80037564D01*
X240808408Y-80023977D01*
X240833181Y-79983124D01*
X240938076Y-79983124D01*
X240938688Y-79999937D01*
X240961959Y-80037934D01*
X240989901Y-80075875D01*
X241008792Y-80079241D01*
X241029195Y-80055911D01*
X241046914Y-80020798D01*
X241031489Y-79998864D01*
X241030637Y-79998317D01*
X240984465Y-79982448D01*
X240963401Y-79980340D01*
X240938076Y-79983124D01*
X240833181Y-79983124D01*
X240866575Y-79928054D01*
X240886818Y-79900921D01*
X240930924Y-79900921D01*
X240935743Y-79928404D01*
X240982799Y-79951717D01*
X240986155Y-79952883D01*
X241037542Y-79966975D01*
X241055888Y-79957064D01*
X241046406Y-79916713D01*
X241036192Y-79891093D01*
X241015049Y-79846602D01*
X240996355Y-79838102D01*
X240967131Y-79859896D01*
X240966473Y-79860491D01*
X240930924Y-79900921D01*
X240886818Y-79900921D01*
X240936629Y-79834157D01*
X241050956Y-79834157D01*
X241060015Y-79874421D01*
X241062488Y-79880000D01*
X241094828Y-79924587D01*
X241128964Y-79932854D01*
X241155321Y-79902561D01*
X241148635Y-79866311D01*
X241125800Y-79847005D01*
X241072578Y-79825178D01*
X241050956Y-79834157D01*
X240936629Y-79834157D01*
X240954280Y-79810499D01*
X240996796Y-79760257D01*
X241060080Y-79760257D01*
X241078512Y-79795096D01*
X241119606Y-79816274D01*
X241164904Y-79831316D01*
X241186431Y-79835278D01*
X241183793Y-79814330D01*
X241169840Y-79767962D01*
X241167574Y-79761381D01*
X241143886Y-79707735D01*
X241142217Y-79706765D01*
X241179606Y-79706765D01*
X241194759Y-79744081D01*
X241222605Y-79791217D01*
X241249492Y-79797379D01*
X241281304Y-79768351D01*
X241300465Y-79739010D01*
X241290627Y-79720892D01*
X241245129Y-79705299D01*
X241230066Y-79701443D01*
X241187522Y-79693297D01*
X241179606Y-79706765D01*
X241142217Y-79706765D01*
X241119844Y-79693762D01*
X241087619Y-79715321D01*
X241085131Y-79717777D01*
X241060080Y-79760257D01*
X240996796Y-79760257D01*
X241066595Y-79677773D01*
X241104138Y-79636196D01*
X241105773Y-79634316D01*
X241177585Y-79634316D01*
X241184247Y-79652372D01*
X241216625Y-79667062D01*
X241281267Y-79686980D01*
X241318546Y-79685672D01*
X241324846Y-79674444D01*
X241312177Y-79646388D01*
X241284911Y-79606562D01*
X241253676Y-79566005D01*
X241304058Y-79566005D01*
X241322164Y-79610592D01*
X241330691Y-79624745D01*
X241359801Y-79662346D01*
X241383269Y-79659676D01*
X241407997Y-79626283D01*
X241421152Y-79594787D01*
X241403793Y-79574825D01*
X241368863Y-79560772D01*
X241319238Y-79550047D01*
X241304058Y-79566005D01*
X241253676Y-79566005D01*
X241245469Y-79555348D01*
X241204491Y-79600589D01*
X241177585Y-79634316D01*
X241105773Y-79634316D01*
X241234469Y-79486357D01*
X241241225Y-79477459D01*
X241309072Y-79477459D01*
X241313270Y-79503377D01*
X241353614Y-79528368D01*
X241430989Y-79556023D01*
X241435709Y-79540118D01*
X241435842Y-79530000D01*
X241422738Y-79491417D01*
X241403175Y-79460035D01*
X241373420Y-79431952D01*
X241344355Y-79440432D01*
X241337157Y-79446090D01*
X241309072Y-79477459D01*
X241241225Y-79477459D01*
X241283224Y-79422141D01*
X241420377Y-79422141D01*
X241438385Y-79463535D01*
X241440359Y-79466724D01*
X241473371Y-79506693D01*
X241500761Y-79504503D01*
X241524286Y-79471185D01*
X241533895Y-79438611D01*
X241510237Y-79420639D01*
X241489081Y-79414548D01*
X241436292Y-79406865D01*
X241420377Y-79422141D01*
X241283224Y-79422141D01*
X241333119Y-79356422D01*
X241352181Y-79324890D01*
X241417570Y-79324890D01*
X241437050Y-79362483D01*
X241485073Y-79383823D01*
X241485233Y-79383846D01*
X241532760Y-79381418D01*
X241542465Y-79357211D01*
X241513596Y-79314017D01*
X241506147Y-79306327D01*
X241466420Y-79276115D01*
X241437929Y-79281210D01*
X241433843Y-79284926D01*
X241417570Y-79324890D01*
X241352181Y-79324890D01*
X241392556Y-79258104D01*
X241506195Y-79258104D01*
X241533724Y-79296064D01*
X241538226Y-79300634D01*
X241581394Y-79332166D01*
X241610767Y-79323391D01*
X241623224Y-79300404D01*
X241634126Y-79267202D01*
X241624364Y-79252214D01*
X241583424Y-79243891D01*
X241570000Y-79241926D01*
X241518063Y-79240471D01*
X241506195Y-79258104D01*
X241392556Y-79258104D01*
X241397855Y-79249338D01*
X241398654Y-79247723D01*
X241433489Y-79172886D01*
X241436124Y-79165174D01*
X241484962Y-79165174D01*
X241489304Y-79189829D01*
X241521661Y-79200236D01*
X241562808Y-79201482D01*
X241647845Y-79200743D01*
X241594435Y-79156307D01*
X241539229Y-79123393D01*
X241501545Y-79129890D01*
X241484962Y-79165174D01*
X241436124Y-79165174D01*
X241454449Y-79111536D01*
X241458598Y-79085736D01*
X241558963Y-79085736D01*
X241580421Y-79111019D01*
X241593601Y-79120672D01*
X241644687Y-79144762D01*
X241673810Y-79130257D01*
X241681208Y-79089799D01*
X241664494Y-79055488D01*
X241623042Y-79047481D01*
X241573295Y-79066383D01*
X241558963Y-79085736D01*
X241458598Y-79085736D01*
X241464754Y-79047455D01*
X241466620Y-78993488D01*
X241525516Y-78993488D01*
X241532129Y-79034476D01*
X241555744Y-79039647D01*
X241560698Y-79037933D01*
X241613890Y-79026090D01*
X241638544Y-79024444D01*
X241675576Y-79015842D01*
X241674011Y-78994363D01*
X241635288Y-78966502D01*
X241624557Y-78961344D01*
X241565817Y-78939298D01*
X241535797Y-78944196D01*
X241525871Y-78978840D01*
X241525516Y-78993488D01*
X241466620Y-78993488D01*
X241467625Y-78964424D01*
X241467174Y-78902708D01*
X241573703Y-78902708D01*
X241581527Y-78917716D01*
X241614483Y-78931702D01*
X241669049Y-78940832D01*
X241698300Y-78921454D01*
X241695980Y-78881493D01*
X241673771Y-78850889D01*
X241638367Y-78855359D01*
X241602053Y-78878468D01*
X241573703Y-78902708D01*
X241467174Y-78902708D01*
X241467173Y-78902637D01*
X241455581Y-78775142D01*
X241507641Y-78775142D01*
X241511737Y-78815804D01*
X241513863Y-78822769D01*
X241526774Y-78857341D01*
X241544755Y-78865838D01*
X241583172Y-78851790D01*
X241602316Y-78843099D01*
X241648970Y-78814993D01*
X241651681Y-78792184D01*
X241610235Y-78773312D01*
X241590651Y-78768539D01*
X241531847Y-78760869D01*
X241507641Y-78775142D01*
X241455581Y-78775142D01*
X241449280Y-78705841D01*
X241553800Y-78705841D01*
X241557476Y-78728060D01*
X241597802Y-78740705D01*
X241654228Y-78742882D01*
X241678562Y-78722188D01*
X241681208Y-78702222D01*
X241666279Y-78663819D01*
X241627148Y-78658331D01*
X241593146Y-78673481D01*
X241553800Y-78705841D01*
X241449280Y-78705841D01*
X241449184Y-78704782D01*
X241424547Y-78620740D01*
X241481033Y-78620740D01*
X241491092Y-78673810D01*
X241520388Y-78686988D01*
X241567596Y-78659794D01*
X241573809Y-78654333D01*
X241609266Y-78613090D01*
X241603820Y-78588932D01*
X241556856Y-78580111D01*
X241547758Y-78580000D01*
X241498119Y-78587594D01*
X241481317Y-78614297D01*
X241481033Y-78620740D01*
X241424547Y-78620740D01*
X241399786Y-78536275D01*
X241392497Y-78523667D01*
X241509201Y-78523667D01*
X241513058Y-78548324D01*
X241558195Y-78557588D01*
X241570000Y-78557777D01*
X241616883Y-78554129D01*
X241636721Y-78545343D01*
X241636725Y-78545205D01*
X241627366Y-78517793D01*
X241612713Y-78487806D01*
X241592297Y-78457374D01*
X241570433Y-78460988D01*
X241545988Y-78481600D01*
X241509201Y-78523667D01*
X241392497Y-78523667D01*
X241357675Y-78463436D01*
X241411967Y-78463436D01*
X241429136Y-78498518D01*
X241456907Y-78512039D01*
X241490581Y-78493147D01*
X241514395Y-78468888D01*
X241539349Y-78438221D01*
X241532118Y-78426402D01*
X241486653Y-78424444D01*
X241484480Y-78424444D01*
X241431898Y-78435538D01*
X241411967Y-78463436D01*
X241357675Y-78463436D01*
X241317067Y-78393198D01*
X241274603Y-78349432D01*
X241340602Y-78349432D01*
X241364244Y-78377750D01*
X241397362Y-78363099D01*
X241406671Y-78351855D01*
X241439173Y-78351855D01*
X241443624Y-78379864D01*
X241482439Y-78386942D01*
X241492154Y-78385438D01*
X241533739Y-78372684D01*
X241547417Y-78360742D01*
X241536600Y-78331791D01*
X241526871Y-78314762D01*
X241504552Y-78294447D01*
X241474077Y-78309901D01*
X241471607Y-78311927D01*
X241439173Y-78351855D01*
X241406671Y-78351855D01*
X241423656Y-78331340D01*
X241448374Y-78288538D01*
X241440208Y-78274636D01*
X241397358Y-78287823D01*
X241385580Y-78293044D01*
X241346077Y-78322453D01*
X241340602Y-78349432D01*
X241274603Y-78349432D01*
X241199118Y-78271633D01*
X241144410Y-78230538D01*
X241248518Y-78230538D01*
X241251307Y-78252222D01*
X241266774Y-78266996D01*
X241285181Y-78252678D01*
X241290628Y-78243236D01*
X241326406Y-78243236D01*
X241330020Y-78269776D01*
X241364786Y-78267810D01*
X241380772Y-78261242D01*
X241421696Y-78233671D01*
X241436376Y-78209089D01*
X241421600Y-78173459D01*
X241388074Y-78167672D01*
X241355329Y-78191963D01*
X241326406Y-78243236D01*
X241290628Y-78243236D01*
X241313542Y-78203520D01*
X241315617Y-78199522D01*
X241333035Y-78144918D01*
X241337791Y-78093406D01*
X241593885Y-78093406D01*
X241603779Y-78125469D01*
X241636725Y-78135555D01*
X241671607Y-78122534D01*
X241681208Y-78080000D01*
X241679427Y-78070200D01*
X241703450Y-78070200D01*
X241710194Y-78121290D01*
X241732007Y-78131610D01*
X241771262Y-78101723D01*
X241783113Y-78089104D01*
X241811274Y-78054311D01*
X241809047Y-78033208D01*
X241783284Y-78012038D01*
X241738211Y-77991420D01*
X241711994Y-78010355D01*
X241703450Y-78069702D01*
X241703450Y-78070200D01*
X241679427Y-78070200D01*
X241672820Y-78033849D01*
X241647688Y-78028869D01*
X241618931Y-78051111D01*
X241593885Y-78093406D01*
X241337791Y-78093406D01*
X241338901Y-78081386D01*
X241337733Y-78067978D01*
X241417221Y-78067978D01*
X241424814Y-78087334D01*
X241458791Y-78091111D01*
X241496130Y-78075244D01*
X241503275Y-78047978D01*
X241492396Y-78002540D01*
X241466976Y-77992484D01*
X241437839Y-78022039D01*
X241437665Y-78022361D01*
X241417221Y-78067978D01*
X241337733Y-78067978D01*
X241333873Y-78023643D01*
X241318609Y-77986408D01*
X241305810Y-77980000D01*
X241293270Y-77999657D01*
X241278377Y-78048995D01*
X241264024Y-78113557D01*
X241253106Y-78178890D01*
X241248518Y-78230538D01*
X241144410Y-78230538D01*
X241136419Y-78224535D01*
X241020080Y-78163295D01*
X240879512Y-78117812D01*
X240733775Y-78093605D01*
X240675659Y-78091111D01*
X240613764Y-78087460D01*
X240575335Y-78078166D01*
X240569124Y-78071625D01*
X240589123Y-78051122D01*
X240618034Y-78035555D01*
X240747057Y-78035555D01*
X240758178Y-78046666D01*
X240769299Y-78035555D01*
X240758178Y-78024444D01*
X240813782Y-78024444D01*
X240830708Y-78046020D01*
X240836024Y-78046666D01*
X240838152Y-78045000D01*
X240884770Y-78045000D01*
X240895507Y-78065263D01*
X240913870Y-78068888D01*
X240939936Y-78058271D01*
X241052903Y-78058271D01*
X241054504Y-78105951D01*
X241088828Y-78139175D01*
X241100291Y-78145532D01*
X241144335Y-78164571D01*
X241167569Y-78167158D01*
X241164810Y-78143480D01*
X241147254Y-78094300D01*
X241136662Y-78069721D01*
X241104674Y-78010835D01*
X241080278Y-77995167D01*
X241061733Y-78022477D01*
X241052903Y-78058271D01*
X240939936Y-78058271D01*
X240941551Y-78057613D01*
X240942969Y-78045000D01*
X240920008Y-78022040D01*
X240913870Y-78021111D01*
X240887791Y-78038411D01*
X240884770Y-78045000D01*
X240838152Y-78045000D01*
X240857619Y-78029756D01*
X240858266Y-78024444D01*
X240841340Y-78002867D01*
X240836024Y-78002222D01*
X240814429Y-78019132D01*
X240813782Y-78024444D01*
X240758178Y-78024444D01*
X240747057Y-78035555D01*
X240618034Y-78035555D01*
X240643696Y-78021737D01*
X240724707Y-77987011D01*
X240761214Y-77973585D01*
X240949069Y-77973585D01*
X240952688Y-78008839D01*
X240973922Y-78042222D01*
X241003350Y-78056817D01*
X241028112Y-78032584D01*
X241047387Y-77982193D01*
X241054455Y-77944767D01*
X241039597Y-77939591D01*
X241140016Y-77939591D01*
X241141276Y-77984734D01*
X241162672Y-78062173D01*
X241163674Y-78065311D01*
X241189588Y-78133483D01*
X241212972Y-78173320D01*
X241229881Y-78180239D01*
X241236374Y-78149768D01*
X241239257Y-78110517D01*
X241246530Y-78046741D01*
X241250518Y-78016434D01*
X241255287Y-77974172D01*
X241350031Y-77974172D01*
X241361083Y-78011515D01*
X241383893Y-78043768D01*
X241407323Y-78033211D01*
X241422531Y-77996666D01*
X241427117Y-77975598D01*
X241513113Y-77975598D01*
X241515367Y-77991822D01*
X241535952Y-78056395D01*
X241550081Y-78084208D01*
X241565413Y-78080651D01*
X241589607Y-78051110D01*
X241593127Y-78046521D01*
X241623132Y-78003312D01*
X241636216Y-77976196D01*
X241636230Y-77975941D01*
X241618329Y-77957107D01*
X241578153Y-77943765D01*
X241537909Y-77941998D01*
X241526687Y-77945943D01*
X241513113Y-77975598D01*
X241427117Y-77975598D01*
X241434253Y-77942811D01*
X241427376Y-77919052D01*
X241397506Y-77913371D01*
X241392066Y-77913333D01*
X241355042Y-77928755D01*
X241350031Y-77974172D01*
X241255287Y-77974172D01*
X241257564Y-77953989D01*
X241252818Y-77923775D01*
X241231392Y-77914118D01*
X241207348Y-77913333D01*
X241161253Y-77918528D01*
X241140016Y-77939591D01*
X241039597Y-77939591D01*
X241038348Y-77939156D01*
X241025826Y-77943305D01*
X240982681Y-77955880D01*
X240967655Y-77957777D01*
X240949069Y-77973585D01*
X240761214Y-77973585D01*
X240824020Y-77950487D01*
X240913870Y-77921541D01*
X241051933Y-77892996D01*
X241215229Y-77879633D01*
X241387243Y-77881285D01*
G37*
%TO.C,D43*%
X183140000Y-103412500D02*
X184610000Y-103412500D01*
X184610000Y-103412500D02*
X184610000Y-101127500D01*
X183140000Y-101127500D02*
X183140000Y-103412500D01*
%TO.C,D59*%
X183130000Y-111502500D02*
X184600000Y-111502500D01*
X184600000Y-111502500D02*
X184600000Y-109217500D01*
X183130000Y-109217500D02*
X183130000Y-111502500D01*
%TO.C,D51*%
X183135000Y-107457500D02*
X184605000Y-107457500D01*
X184605000Y-107457500D02*
X184605000Y-105172500D01*
X183135000Y-105172500D02*
X183135000Y-107457500D01*
%TO.C,D1*%
X261400000Y-97958400D02*
X259930000Y-97958400D01*
X259930000Y-97958400D02*
X259930000Y-100243400D01*
X261400000Y-100243400D02*
X261400000Y-97958400D01*
%TO.C,D26*%
X179105000Y-95317500D02*
X180575000Y-95317500D01*
X180575000Y-95317500D02*
X180575000Y-93032500D01*
X179105000Y-93032500D02*
X179105000Y-95317500D01*
%TO.C,D22*%
X195290000Y-91272500D02*
X196760000Y-91272500D01*
X196760000Y-91272500D02*
X196760000Y-88987500D01*
X195290000Y-88987500D02*
X195290000Y-91272500D01*
%TO.C,D47*%
X199320000Y-103407500D02*
X200790000Y-103407500D01*
X200790000Y-103407500D02*
X200790000Y-101122500D01*
X199320000Y-101122500D02*
X199320000Y-103407500D01*
%TO.C,D27*%
X183150000Y-95317500D02*
X184620000Y-95317500D01*
X184620000Y-95317500D02*
X184620000Y-93032500D01*
X183150000Y-93032500D02*
X183150000Y-95317500D01*
%TO.C,C13*%
X260106252Y-104898400D02*
X259583748Y-104898400D01*
X260106252Y-103428400D02*
X259583748Y-103428400D01*
%TO.C,R1*%
X253945600Y-100342041D02*
X253945600Y-100034759D01*
X254705600Y-100342041D02*
X254705600Y-100034759D01*
%TO.C,D25*%
X207425000Y-91267500D02*
X208895000Y-91267500D01*
X208895000Y-91267500D02*
X208895000Y-88982500D01*
X207425000Y-88982500D02*
X207425000Y-91267500D01*
%TO.C,C5*%
X254734000Y-97507820D02*
X254734000Y-97788980D01*
X253714000Y-97507820D02*
X253714000Y-97788980D01*
%TO.C,D42*%
X179095000Y-103412500D02*
X180565000Y-103412500D01*
X180565000Y-103412500D02*
X180565000Y-101127500D01*
X179095000Y-101127500D02*
X179095000Y-103412500D01*
%TO.C,D14*%
X195295000Y-87222500D02*
X196765000Y-87222500D01*
X196765000Y-87222500D02*
X196765000Y-84937500D01*
X195295000Y-84937500D02*
X195295000Y-87222500D01*
%TO.C,D39*%
X199325000Y-99362500D02*
X200795000Y-99362500D01*
X200795000Y-99362500D02*
X200795000Y-97077500D01*
X199325000Y-97077500D02*
X199325000Y-99362500D01*
%TO.C,D49*%
X207410000Y-103407500D02*
X208880000Y-103407500D01*
X208880000Y-103407500D02*
X208880000Y-101122500D01*
X207410000Y-101122500D02*
X207410000Y-103407500D01*
%TO.C,D46*%
X195275000Y-103407500D02*
X196745000Y-103407500D01*
X196745000Y-103407500D02*
X196745000Y-101122500D01*
X195275000Y-101122500D02*
X195275000Y-103407500D01*
%TO.C,U6*%
X250722000Y-96832400D02*
X250272000Y-96832400D01*
X250272000Y-96832400D02*
X250272000Y-95542400D01*
X243502000Y-96832400D02*
X243952000Y-96832400D01*
X250722000Y-97282400D02*
X250722000Y-96832400D01*
X243502000Y-97282400D02*
X243502000Y-96832400D01*
X250722000Y-103602400D02*
X250722000Y-104052400D01*
X243502000Y-103602400D02*
X243502000Y-104052400D01*
X250722000Y-104052400D02*
X250272000Y-104052400D01*
X243502000Y-104052400D02*
X243952000Y-104052400D01*
%TO.C,D16*%
X203385000Y-87222500D02*
X204855000Y-87222500D01*
X204855000Y-87222500D02*
X204855000Y-84937500D01*
X203385000Y-84937500D02*
X203385000Y-87222500D01*
%TO.C,SW1*%
X263080000Y-93220000D02*
X263870000Y-93220000D01*
X264880000Y-92620000D02*
X264880000Y-86920000D01*
X262030000Y-91370000D02*
X262030000Y-89670000D01*
X262030000Y-88370000D02*
X262030000Y-88170000D01*
X263870000Y-86320000D02*
X263080000Y-86320000D01*
%TO.C,D2*%
X179120000Y-83177500D02*
X180590000Y-83177500D01*
X180590000Y-83177500D02*
X180590000Y-80892500D01*
X179120000Y-80892500D02*
X179120000Y-83177500D01*
%TO.C,D4*%
X187210000Y-83177500D02*
X188680000Y-83177500D01*
X188680000Y-83177500D02*
X188680000Y-80892500D01*
X187210000Y-80892500D02*
X187210000Y-83177500D01*
%TO.C,D12*%
X187205000Y-87222500D02*
X188675000Y-87222500D01*
X188675000Y-87222500D02*
X188675000Y-84937500D01*
X187205000Y-84937500D02*
X187205000Y-87222500D01*
%TO.C,C10*%
X249017164Y-94363400D02*
X249232836Y-94363400D01*
X249017164Y-95083400D02*
X249232836Y-95083400D01*
%TO.C,D20*%
X187200000Y-91272500D02*
X188670000Y-91272500D01*
X188670000Y-91272500D02*
X188670000Y-88987500D01*
X187200000Y-88987500D02*
X187200000Y-91272500D01*
%TO.C,C17*%
X222167436Y-98680400D02*
X221951764Y-98680400D01*
X222167436Y-97960400D02*
X221951764Y-97960400D01*
%TO.C,D11*%
X183160000Y-87227500D02*
X184630000Y-87227500D01*
X184630000Y-87227500D02*
X184630000Y-84942500D01*
X183160000Y-84942500D02*
X183160000Y-87227500D01*
%TO.C,D58*%
X179085000Y-111502500D02*
X180555000Y-111502500D01*
X180555000Y-111502500D02*
X180555000Y-109217500D01*
X179085000Y-109217500D02*
X179085000Y-111502500D01*
%TO.C,D37*%
X191235000Y-99362500D02*
X192705000Y-99362500D01*
X192705000Y-99362500D02*
X192705000Y-97077500D01*
X191235000Y-97077500D02*
X191235000Y-99362500D01*
%TO.C,D38*%
X195280000Y-99362500D02*
X196750000Y-99362500D01*
X196750000Y-99362500D02*
X196750000Y-97077500D01*
X195280000Y-97077500D02*
X195280000Y-99362500D01*
%TO.C,D13*%
X191250000Y-87222500D02*
X192720000Y-87222500D01*
X192720000Y-87222500D02*
X192720000Y-84937500D01*
X191250000Y-84937500D02*
X191250000Y-87222500D01*
%TO.C,C6*%
X244821600Y-94352636D02*
X244821600Y-94136964D01*
X245541600Y-94352636D02*
X245541600Y-94136964D01*
%TO.C,D7*%
X199345000Y-83177500D02*
X200815000Y-83177500D01*
X200815000Y-83177500D02*
X200815000Y-80892500D01*
X199345000Y-80892500D02*
X199345000Y-83177500D01*
%TO.C,C4*%
X242362836Y-104493400D02*
X242147164Y-104493400D01*
X242362836Y-103773400D02*
X242147164Y-103773400D01*
%TD*%
M02*
