%TF.GenerationSoftware,KiCad,Pcbnew,7.0.7*%
%TF.CreationDate,2026-01-29T00:22:59-05:00*%
%TF.ProjectId,sobc,736f6263-2e6b-4696-9361-645f70636258,rev?*%
%TF.SameCoordinates,Original*%
%TF.FileFunction,Copper,L2,Bot*%
%TF.FilePolarity,Positive*%
%FSLAX46Y46*%
G04 Gerber Fmt 4.6, Leading zero omitted, Abs format (unit mm)*
G04 Created by KiCad (PCBNEW 7.0.7) date 2026-01-29 00:22:59*
%MOMM*%
%LPD*%
G01*
G04 APERTURE LIST*
%TA.AperFunction,ComponentPad*%
%ADD10O,1.000000X2.100000*%
%TD*%
%TA.AperFunction,ComponentPad*%
%ADD11O,1.000000X1.600000*%
%TD*%
%TA.AperFunction,ViaPad*%
%ADD12C,0.800000*%
%TD*%
%TA.AperFunction,ViaPad*%
%ADD13C,0.700000*%
%TD*%
%TA.AperFunction,Conductor*%
%ADD14C,0.500000*%
%TD*%
%TA.AperFunction,Conductor*%
%ADD15C,0.250000*%
%TD*%
%TA.AperFunction,Conductor*%
%ADD16C,0.300000*%
%TD*%
%TA.AperFunction,Conductor*%
%ADD17C,0.200000*%
%TD*%
G04 APERTURE END LIST*
D10*
%TO.P,J3,S1,SHIELD*%
%TO.N,GND*%
X243300000Y-112400000D03*
D11*
X243300000Y-116580000D03*
D10*
X251940000Y-112400000D03*
D11*
X251940000Y-116580000D03*
%TD*%
D12*
%TO.N,+3.3V*%
X237195000Y-96123400D03*
X236115000Y-94733400D03*
X244325000Y-100733400D03*
X241195000Y-100553400D03*
%TO.N,GND*%
X219529600Y-107890400D03*
D13*
X247985000Y-93873400D03*
D12*
X249875000Y-98173400D03*
X221210000Y-94940000D03*
X244765000Y-102173400D03*
D13*
X258005000Y-106963400D03*
D12*
X246755000Y-89163400D03*
X234885000Y-105763400D03*
X238080000Y-109010000D03*
X231745000Y-103963400D03*
D13*
X254785000Y-106713400D03*
X253755000Y-106713400D03*
D12*
X250865000Y-92833400D03*
D13*
X258005000Y-106023400D03*
D12*
X246325000Y-97713400D03*
X241770000Y-96900000D03*
X240385000Y-103403400D03*
X242655000Y-107213400D03*
X252745000Y-95593400D03*
X260715000Y-95173400D03*
X238470000Y-98260000D03*
X234899600Y-100770400D03*
X237425000Y-105723400D03*
X225889600Y-107890400D03*
X243485000Y-110643400D03*
X243080000Y-91360000D03*
X250445000Y-91843400D03*
X260110000Y-92030000D03*
X244090000Y-92790000D03*
X239865000Y-94353400D03*
X249185000Y-107593400D03*
X250865000Y-110253400D03*
X249345000Y-103173400D03*
X245165000Y-92823400D03*
X246465000Y-107513400D03*
D13*
X258925000Y-102953400D03*
D12*
%TO.N,VBUS*%
X232079600Y-110280400D03*
X229799600Y-107730400D03*
%TO.N,/SEGB*%
X182780000Y-89700000D03*
X182780000Y-93750000D03*
X182780000Y-85650000D03*
X182770000Y-103670000D03*
X182770000Y-95570000D03*
X182780000Y-81599500D03*
X182770000Y-91520000D03*
X182770000Y-87470000D03*
X182780000Y-101850000D03*
X182770000Y-83419500D03*
X182770000Y-107720000D03*
X182770000Y-99620000D03*
X182780000Y-97800000D03*
X182780000Y-105900000D03*
%TO.N,/SEGC*%
X186825000Y-101850500D03*
X186825000Y-97800500D03*
X186815000Y-91520500D03*
X186815000Y-107720500D03*
X186825000Y-93750500D03*
X186815000Y-99620500D03*
X186820000Y-85649500D03*
X186825000Y-105900500D03*
X186815000Y-83420500D03*
X186815000Y-103670500D03*
X186825000Y-81600500D03*
X186825000Y-89700500D03*
X186815000Y-95570500D03*
X186810000Y-87469500D03*
%TO.N,/SEGD*%
X190855000Y-107725000D03*
X190860000Y-85654000D03*
X190865000Y-105905000D03*
X190865000Y-101855000D03*
X190865000Y-97805000D03*
X190850000Y-87474000D03*
X190865000Y-89705000D03*
X190855000Y-83425000D03*
X190855000Y-91525000D03*
X190865000Y-93755000D03*
X190855000Y-103675000D03*
X190855000Y-99625000D03*
X190855000Y-95575000D03*
X190865000Y-81605000D03*
%TO.N,/SEGDP*%
X194915000Y-101855000D03*
X194905000Y-99625000D03*
X194910000Y-85654000D03*
X194915000Y-93755000D03*
X194915000Y-89705000D03*
X194905000Y-107725000D03*
X194905000Y-91525000D03*
X194915000Y-105905000D03*
X194915000Y-97805000D03*
X194905000Y-95575000D03*
X194900000Y-87474000D03*
X194905000Y-83425000D03*
X217305688Y-77984312D03*
X194915000Y-81605000D03*
X194905000Y-103675000D03*
X214950000Y-78039500D03*
%TO.N,/SEGE*%
X215930000Y-80210000D03*
X198955000Y-101855000D03*
X198940000Y-87474000D03*
X198945000Y-99625000D03*
X198945000Y-91525000D03*
X198955000Y-81605000D03*
X198955000Y-105905000D03*
X219114100Y-80420000D03*
X198945000Y-107725000D03*
X198955000Y-89705000D03*
X198945000Y-103675000D03*
X198955000Y-97805000D03*
X198945000Y-95575000D03*
X198955000Y-93755000D03*
X198945000Y-83425000D03*
X198950000Y-85654000D03*
%TO.N,/SEGF*%
X202990000Y-85654000D03*
X202995000Y-89705000D03*
X202995000Y-101855000D03*
X202995000Y-97805000D03*
X202985000Y-99625000D03*
X226734100Y-84620000D03*
X202985000Y-91525000D03*
X202985000Y-83425000D03*
X216060000Y-82210000D03*
X202985000Y-95575000D03*
X202995000Y-93755000D03*
X202995000Y-81605000D03*
X225035100Y-84620000D03*
X202985000Y-107725000D03*
X202995000Y-105905000D03*
X202985000Y-103675000D03*
X202980000Y-87474000D03*
X220980000Y-82210000D03*
%TO.N,/SEGG*%
X207030000Y-85654000D03*
X207025000Y-95575000D03*
X207020000Y-87474000D03*
X207025000Y-99625000D03*
X207025000Y-91525000D03*
X216020000Y-83980000D03*
X220950000Y-83980000D03*
X207035000Y-105905000D03*
X207035000Y-89705000D03*
X207035000Y-93755000D03*
X207035000Y-81605000D03*
X207035000Y-101855000D03*
X207035000Y-97805000D03*
X207025000Y-107725000D03*
X207025000Y-83425000D03*
X207025000Y-103675000D03*
%TO.N,/DIG1*%
X215860000Y-101970000D03*
X214130100Y-100650000D03*
%TO.N,/DIG2*%
X214030000Y-103370000D03*
X215829100Y-103640000D03*
%TO.N,/DIG3*%
X222650000Y-111649900D03*
X222924100Y-107850000D03*
%TO.N,/DIG4*%
X217430000Y-112499400D03*
X217880000Y-107930000D03*
%TO.N,/DIG5*%
X226920000Y-107870000D03*
X226940000Y-111649900D03*
%TO.N,/DIG7*%
X225170000Y-114270000D03*
X224730000Y-107820000D03*
%TO.N,/SW_BOOT0*%
X258052219Y-99500243D03*
X256848757Y-100699533D03*
%TO.N,/SPI2_!CS*%
X236395000Y-104853400D03*
X240695000Y-104863400D03*
%TO.N,/DIG6*%
X220650000Y-107880000D03*
X220220000Y-114198900D03*
%TD*%
D14*
%TO.N,+3.3V*%
X236115000Y-94733400D02*
X236115000Y-95043400D01*
D15*
X244325000Y-100733400D02*
X241375000Y-100733400D01*
D14*
X236115000Y-95043400D02*
X237195000Y-96123400D01*
D15*
X241375000Y-100733400D02*
X241195000Y-100553400D01*
D14*
%TO.N,VBUS*%
X232079600Y-110280400D02*
X232079600Y-110010400D01*
X232079600Y-110010400D02*
X229799600Y-107730400D01*
%TO.N,/SEGB*%
X182780000Y-97800500D02*
X182780000Y-99610500D01*
X182780000Y-95560500D02*
X182770000Y-95570500D01*
X182780000Y-83340000D02*
X182770000Y-83350000D01*
X182780000Y-87460000D02*
X182770000Y-87470000D01*
X182780000Y-81599500D02*
X182780000Y-83409500D01*
X182780000Y-103590500D02*
X182770000Y-103600500D01*
X182780000Y-105900500D02*
X182780000Y-107710500D01*
X182780000Y-93750000D02*
X182780000Y-95560000D01*
X182780000Y-101850500D02*
X182780000Y-103660500D01*
X182780000Y-97800000D02*
X182780000Y-99610000D01*
X182780000Y-103660500D02*
X182770000Y-103670500D01*
X182780000Y-85650000D02*
X182780000Y-87460000D01*
X182780000Y-95490000D02*
X182770000Y-95500000D01*
X182780000Y-87460500D02*
X182770000Y-87470500D01*
X182780000Y-87390000D02*
X182770000Y-87400000D01*
X182780000Y-105900000D02*
X182780000Y-107710000D01*
X182780000Y-93750500D02*
X182780000Y-95560500D01*
X182780000Y-81600000D02*
X182780000Y-83410000D01*
X182780000Y-83409500D02*
X182770000Y-83419500D01*
X182780000Y-89700500D02*
X182780000Y-91510500D01*
X182780000Y-83339500D02*
X182770000Y-83349500D01*
X182780000Y-103660000D02*
X182770000Y-103670000D01*
X182780000Y-101850000D02*
X182780000Y-103660000D01*
X182780000Y-95490500D02*
X182770000Y-95500500D01*
X182780000Y-103590000D02*
X182770000Y-103600000D01*
X182780000Y-83410000D02*
X182770000Y-83420000D01*
X182780000Y-95560000D02*
X182770000Y-95570000D01*
X182780000Y-89700000D02*
X182780000Y-91510000D01*
X182780000Y-85650500D02*
X182780000Y-87460500D01*
X182780000Y-87390500D02*
X182770000Y-87400500D01*
%TO.N,/SEGC*%
X186825000Y-95561000D02*
X186815000Y-95571000D01*
X186820000Y-87389500D02*
X186810000Y-87399500D01*
X186820000Y-85650000D02*
X186820000Y-87460000D01*
X186820000Y-87390000D02*
X186810000Y-87400000D01*
X186825000Y-81600500D02*
X186825000Y-83410500D01*
X186825000Y-83340500D02*
X186815000Y-83350500D01*
X186825000Y-83341000D02*
X186815000Y-83351000D01*
X186825000Y-103590500D02*
X186815000Y-103600500D01*
X186825000Y-95560500D02*
X186815000Y-95570500D01*
X186825000Y-93751000D02*
X186825000Y-95561000D01*
X186825000Y-105900500D02*
X186825000Y-107710500D01*
X186825000Y-93750500D02*
X186825000Y-95560500D01*
X186825000Y-101851000D02*
X186825000Y-103661000D01*
X186825000Y-83411000D02*
X186815000Y-83421000D01*
X186825000Y-103661000D02*
X186815000Y-103671000D01*
X186825000Y-89700500D02*
X186825000Y-91510500D01*
X186825000Y-81601000D02*
X186825000Y-83411000D01*
X186820000Y-87460000D02*
X186810000Y-87470000D01*
X186825000Y-95491000D02*
X186815000Y-95501000D01*
X186825000Y-83410500D02*
X186815000Y-83420500D01*
X186825000Y-89701000D02*
X186825000Y-91511000D01*
X186825000Y-103660500D02*
X186815000Y-103670500D01*
X186825000Y-95490500D02*
X186815000Y-95500500D01*
X186825000Y-105901000D02*
X186825000Y-107711000D01*
X186825000Y-97800500D02*
X186825000Y-99610500D01*
X186820000Y-85649500D02*
X186820000Y-87459500D01*
X186825000Y-97801000D02*
X186825000Y-99611000D01*
X186825000Y-103591000D02*
X186815000Y-103601000D01*
X186820000Y-87459500D02*
X186810000Y-87469500D01*
X186825000Y-101850500D02*
X186825000Y-103660500D01*
%TO.N,/SEGD*%
X190865000Y-97805000D02*
X190865000Y-99615000D01*
X190865000Y-89705000D02*
X190865000Y-91515000D01*
X190865000Y-101855500D02*
X190865000Y-103665500D01*
X190865000Y-97805500D02*
X190865000Y-99615500D01*
X190865000Y-105905000D02*
X190865000Y-107715000D01*
X190865000Y-81605000D02*
X190865000Y-83415000D01*
X190865000Y-95565500D02*
X190855000Y-95575500D01*
X190865000Y-101855000D02*
X190865000Y-103665000D01*
X190865000Y-103665000D02*
X190855000Y-103675000D01*
X190865000Y-95495000D02*
X190855000Y-95505000D01*
X190860000Y-85654000D02*
X190860000Y-87464000D01*
X190865000Y-105905500D02*
X190865000Y-107715500D01*
X190865000Y-93755000D02*
X190865000Y-95565000D01*
X190865000Y-81605500D02*
X190865000Y-83415500D01*
X190865000Y-93755500D02*
X190865000Y-95565500D01*
X190860000Y-85654500D02*
X190860000Y-87464500D01*
X190865000Y-83345000D02*
X190855000Y-83355000D01*
X190860000Y-87394000D02*
X190850000Y-87404000D01*
X190865000Y-95495500D02*
X190855000Y-95505500D01*
X190865000Y-95565000D02*
X190855000Y-95575000D01*
X190860000Y-87464000D02*
X190850000Y-87474000D01*
X190860000Y-87394500D02*
X190850000Y-87404500D01*
X190865000Y-83345500D02*
X190855000Y-83355500D01*
X190865000Y-103595000D02*
X190855000Y-103605000D01*
X190865000Y-83415500D02*
X190855000Y-83425500D01*
X190865000Y-89705500D02*
X190865000Y-91515500D01*
X190865000Y-83415000D02*
X190855000Y-83425000D01*
X190860000Y-87464500D02*
X190850000Y-87474500D01*
X190865000Y-103595500D02*
X190855000Y-103605500D01*
X190865000Y-103665500D02*
X190855000Y-103675500D01*
%TO.N,/SEGDP*%
X194915000Y-81605000D02*
X194915000Y-83415000D01*
X194915000Y-97805000D02*
X194915000Y-99615000D01*
X194915000Y-105905000D02*
X194915000Y-107715000D01*
X194915000Y-101855000D02*
X194915000Y-103665000D01*
X194915000Y-93755500D02*
X194915000Y-95565500D01*
X194915000Y-81605500D02*
X194915000Y-83415500D01*
X194915000Y-105905500D02*
X194915000Y-107715500D01*
X194915000Y-83415000D02*
X194905000Y-83425000D01*
X217250500Y-78039500D02*
X217305688Y-77984312D01*
X194915000Y-89705000D02*
X194915000Y-91515000D01*
X194915000Y-83345000D02*
X194905000Y-83355000D01*
X194915000Y-101855500D02*
X194915000Y-103665500D01*
X194915000Y-103665500D02*
X194905000Y-103675500D01*
X194910000Y-85654500D02*
X194910000Y-87464500D01*
X194915000Y-83415500D02*
X194905000Y-83425500D01*
X194915000Y-93755000D02*
X194915000Y-95565000D01*
X194915000Y-103595000D02*
X194905000Y-103605000D01*
X194910000Y-87464000D02*
X194900000Y-87474000D01*
X194910000Y-85654000D02*
X194910000Y-87464000D01*
X194915000Y-103665000D02*
X194905000Y-103675000D01*
X194915000Y-83345500D02*
X194905000Y-83355500D01*
X194910000Y-87394500D02*
X194900000Y-87404500D01*
X194915000Y-89705500D02*
X194915000Y-91515500D01*
X194915000Y-97805500D02*
X194915000Y-99615500D01*
X194910000Y-87394000D02*
X194900000Y-87404000D01*
X194915000Y-103595500D02*
X194905000Y-103605500D01*
X214950000Y-78039500D02*
X217250500Y-78039500D01*
X194915000Y-95565500D02*
X194905000Y-95575500D01*
X194915000Y-95495000D02*
X194905000Y-95505000D01*
X194915000Y-95495500D02*
X194905000Y-95505500D01*
X194910000Y-87464500D02*
X194900000Y-87474500D01*
X194915000Y-95565000D02*
X194905000Y-95575000D01*
%TO.N,/SEGE*%
X198950000Y-85654000D02*
X198950000Y-87464000D01*
X198955000Y-81605500D02*
X198955000Y-83415500D01*
X198950000Y-87464500D02*
X198940000Y-87474500D01*
X198955000Y-103595000D02*
X198945000Y-103605000D01*
X198955000Y-103665500D02*
X198945000Y-103675500D01*
X198955000Y-89705000D02*
X198955000Y-91515000D01*
X198955000Y-81605000D02*
X198955000Y-83415000D01*
X198955000Y-89705500D02*
X198955000Y-91515500D01*
X198955000Y-95565000D02*
X198945000Y-95575000D01*
X198950000Y-87464000D02*
X198940000Y-87474000D01*
X219114100Y-80420000D02*
X216140000Y-80420000D01*
X198955000Y-83345500D02*
X198945000Y-83355500D01*
X198955000Y-97805500D02*
X198955000Y-99615500D01*
X198955000Y-105905000D02*
X198955000Y-107715000D01*
X198955000Y-95565500D02*
X198945000Y-95575500D01*
X198955000Y-83415000D02*
X198945000Y-83425000D01*
X198955000Y-103665000D02*
X198945000Y-103675000D01*
X198955000Y-97805000D02*
X198955000Y-99615000D01*
X198955000Y-95495000D02*
X198945000Y-95505000D01*
X198955000Y-83345000D02*
X198945000Y-83355000D01*
X198955000Y-105905500D02*
X198955000Y-107715500D01*
X198955000Y-83415500D02*
X198945000Y-83425500D01*
X198955000Y-101855500D02*
X198955000Y-103665500D01*
X198955000Y-95495500D02*
X198945000Y-95505500D01*
X198955000Y-93755500D02*
X198955000Y-95565500D01*
X198950000Y-87394000D02*
X198940000Y-87404000D01*
X216140000Y-80420000D02*
X215930000Y-80210000D01*
X198950000Y-85654500D02*
X198950000Y-87464500D01*
X198955000Y-101855000D02*
X198955000Y-103665000D01*
X198955000Y-93755000D02*
X198955000Y-95565000D01*
X198955000Y-103595500D02*
X198945000Y-103605500D01*
X198950000Y-87394500D02*
X198940000Y-87404500D01*
%TO.N,/SEGF*%
X202990000Y-87464000D02*
X202980000Y-87474000D01*
X202990000Y-85654000D02*
X202990000Y-87464000D01*
X202990000Y-87464500D02*
X202980000Y-87474500D01*
X202995000Y-103665000D02*
X202985000Y-103675000D01*
X202995000Y-93755000D02*
X202995000Y-95565000D01*
X216060000Y-82210000D02*
X220980000Y-82210000D01*
X202995000Y-89705000D02*
X202995000Y-91515000D01*
X202995000Y-83415500D02*
X202985000Y-83425500D01*
X202995000Y-89705500D02*
X202995000Y-91515500D01*
X202995000Y-95565000D02*
X202985000Y-95575000D01*
X202995000Y-83415000D02*
X202985000Y-83425000D01*
X202995000Y-81605000D02*
X202995000Y-83415000D01*
X202995000Y-95565500D02*
X202985000Y-95575500D01*
X202995000Y-83345500D02*
X202985000Y-83355500D01*
X202995000Y-81605500D02*
X202995000Y-83415500D01*
X202995000Y-103595500D02*
X202985000Y-103605500D01*
X202995000Y-103595000D02*
X202985000Y-103605000D01*
X202995000Y-105905500D02*
X202995000Y-107715500D01*
X202990000Y-85654500D02*
X202990000Y-87464500D01*
X202995000Y-97805500D02*
X202995000Y-99615500D01*
X202995000Y-105905000D02*
X202995000Y-107715000D01*
X202990000Y-87394000D02*
X202980000Y-87404000D01*
X202995000Y-101855500D02*
X202995000Y-103665500D01*
X202995000Y-93755500D02*
X202995000Y-95565500D01*
X202995000Y-95495000D02*
X202985000Y-95505000D01*
X202995000Y-103665500D02*
X202985000Y-103675500D01*
X225035100Y-84620000D02*
X226734100Y-84620000D01*
X202990000Y-87394500D02*
X202980000Y-87404500D01*
X202995000Y-97805000D02*
X202995000Y-99615000D01*
X202995000Y-101855000D02*
X202995000Y-103665000D01*
X202995000Y-95495500D02*
X202985000Y-95505500D01*
X202995000Y-83345000D02*
X202985000Y-83355000D01*
%TO.N,/SEGG*%
X207035000Y-103595000D02*
X207025000Y-103605000D01*
X207035000Y-101855000D02*
X207035000Y-103665000D01*
X207035000Y-95565000D02*
X207025000Y-95575000D01*
X207035000Y-103595500D02*
X207025000Y-103605500D01*
X207035000Y-103665500D02*
X207025000Y-103675500D01*
X207035000Y-89705500D02*
X207035000Y-91515500D01*
X207035000Y-83415500D02*
X207025000Y-83425500D01*
X207035000Y-95495500D02*
X207025000Y-95505500D01*
X207035000Y-101855500D02*
X207035000Y-103665500D01*
X207035000Y-81605500D02*
X207035000Y-83415500D01*
X207035000Y-105905000D02*
X207035000Y-107715000D01*
X207035000Y-83415000D02*
X207025000Y-83425000D01*
X207035000Y-95565500D02*
X207025000Y-95575500D01*
X207035000Y-93755000D02*
X207035000Y-95565000D01*
X207035000Y-105905500D02*
X207035000Y-107715500D01*
X207035000Y-93755500D02*
X207035000Y-95565500D01*
X207035000Y-103665000D02*
X207025000Y-103675000D01*
X207035000Y-81605000D02*
X207035000Y-83415000D01*
X207035000Y-89705000D02*
X207035000Y-91515000D01*
X207030000Y-87464500D02*
X207020000Y-87474500D01*
X207035000Y-83345000D02*
X207025000Y-83355000D01*
X207030000Y-87394500D02*
X207020000Y-87404500D01*
X207030000Y-85654000D02*
X207030000Y-87464000D01*
X207035000Y-97805500D02*
X207035000Y-99615500D01*
X207030000Y-87394000D02*
X207020000Y-87404000D01*
X207030000Y-87464000D02*
X207020000Y-87474000D01*
X207035000Y-97805000D02*
X207035000Y-99615000D01*
X207035000Y-83345500D02*
X207025000Y-83355500D01*
X216020000Y-83980000D02*
X220950000Y-83980000D01*
X207030000Y-85654500D02*
X207030000Y-87464500D01*
X207035000Y-95495000D02*
X207025000Y-95505000D01*
%TO.N,/DIG1*%
X215860000Y-101970000D02*
X215450100Y-101970000D01*
X215450100Y-101970000D02*
X214130100Y-100650000D01*
%TO.N,/DIG2*%
X215829100Y-103640000D02*
X214300000Y-103640000D01*
X214300000Y-103640000D02*
X214030000Y-103370000D01*
%TO.N,/DIG3*%
X222630000Y-108144100D02*
X222630000Y-108740000D01*
X222630000Y-111629900D02*
X222650000Y-111649900D01*
X222924100Y-107850000D02*
X222630000Y-108144100D01*
X222630000Y-108740000D02*
X222630000Y-111629900D01*
%TO.N,/DIG4*%
X217430000Y-108640000D02*
X217430000Y-112499400D01*
X217880000Y-107930000D02*
X217430000Y-108380000D01*
X217430000Y-108380000D02*
X217430000Y-108640000D01*
%TO.N,/DIG5*%
X226920000Y-111629900D02*
X226940000Y-111649900D01*
X226920000Y-107870000D02*
X226920000Y-111629900D01*
%TO.N,/DIG7*%
X225190000Y-111620000D02*
X225190000Y-114250000D01*
X224730000Y-107820000D02*
X224730000Y-107932882D01*
X225190000Y-114250000D02*
X225170000Y-114270000D01*
X224730000Y-107932882D02*
X225190000Y-108392882D01*
X225190000Y-108392882D02*
X225190000Y-111620000D01*
D16*
%TO.N,/SW_BOOT0*%
X256848757Y-100699533D02*
X256852929Y-100699533D01*
X256852929Y-100699533D02*
X258052219Y-99500243D01*
%TO.N,/SPI2_!CS*%
X236395984Y-104852416D02*
X236395000Y-104853400D01*
X240634127Y-104852527D02*
X240655000Y-104873400D01*
D17*
X236395873Y-104852527D02*
X240684127Y-104852527D01*
D16*
X236395000Y-104853400D02*
X236395873Y-104852527D01*
X240684127Y-104852527D02*
X240695000Y-104863400D01*
D14*
%TO.N,/DIG6*%
X220650000Y-107972082D02*
X220220000Y-108402082D01*
X220650000Y-107880000D02*
X220650000Y-107972082D01*
X220220000Y-108402082D02*
X220220000Y-114198900D01*
%TD*%
%TA.AperFunction,Conductor*%
%TO.N,GND*%
G36*
X265820517Y-68939984D02*
G01*
X265887551Y-68959676D01*
X265933300Y-69012485D01*
X265944500Y-69063984D01*
X265944500Y-119600500D01*
X265924815Y-119667539D01*
X265872011Y-119713294D01*
X265820500Y-119724500D01*
X217060500Y-119724500D01*
X177183961Y-119720013D01*
X177116924Y-119700321D01*
X177071175Y-119647512D01*
X177059975Y-119596039D01*
X177059450Y-116930713D01*
X242300000Y-116930713D01*
X242315418Y-117082338D01*
X242376299Y-117276381D01*
X242376304Y-117276391D01*
X242475005Y-117454215D01*
X242475005Y-117454216D01*
X242607478Y-117608530D01*
X242607479Y-117608531D01*
X242768304Y-117733018D01*
X242950902Y-117822586D01*
X242950903Y-117822587D01*
X243049998Y-117848244D01*
X243049999Y-117284978D01*
X243069684Y-117217939D01*
X243122488Y-117172184D01*
X243191646Y-117162240D01*
X243207932Y-117165711D01*
X243271840Y-117183895D01*
X243383521Y-117173546D01*
X243383526Y-117173543D01*
X243392063Y-117171115D01*
X243461930Y-117171701D01*
X243520390Y-117209966D01*
X243548881Y-117273763D01*
X243550000Y-117290381D01*
X243550000Y-117853366D01*
X243551944Y-117853069D01*
X243551945Y-117853069D01*
X243742660Y-117782436D01*
X243742664Y-117782434D01*
X243915267Y-117674850D01*
X244062668Y-117534735D01*
X244062669Y-117534733D01*
X244178856Y-117367804D01*
X244259059Y-117180907D01*
X244300000Y-116981690D01*
X244300000Y-116930713D01*
X250940000Y-116930713D01*
X250955418Y-117082338D01*
X251016299Y-117276381D01*
X251016304Y-117276391D01*
X251115005Y-117454215D01*
X251115005Y-117454216D01*
X251247478Y-117608530D01*
X251247479Y-117608531D01*
X251408304Y-117733018D01*
X251590907Y-117822589D01*
X251690000Y-117848244D01*
X251690000Y-117284978D01*
X251709685Y-117217939D01*
X251762489Y-117172184D01*
X251831647Y-117162240D01*
X251847926Y-117165709D01*
X251911840Y-117183895D01*
X252023521Y-117173546D01*
X252023522Y-117173545D01*
X252032061Y-117171116D01*
X252101928Y-117171700D01*
X252160388Y-117209965D01*
X252188880Y-117273761D01*
X252189999Y-117290381D01*
X252189999Y-117853364D01*
X252191943Y-117853068D01*
X252191952Y-117853066D01*
X252382657Y-117782437D01*
X252382664Y-117782434D01*
X252555267Y-117674850D01*
X252702668Y-117534735D01*
X252702669Y-117534733D01*
X252818856Y-117367804D01*
X252899059Y-117180907D01*
X252940000Y-116981690D01*
X252940000Y-116830000D01*
X252364000Y-116830000D01*
X252296961Y-116810315D01*
X252251206Y-116757511D01*
X252240000Y-116706000D01*
X252240000Y-116454000D01*
X252259685Y-116386961D01*
X252312489Y-116341206D01*
X252364000Y-116330000D01*
X252940000Y-116330000D01*
X252940000Y-116229286D01*
X252924581Y-116077661D01*
X252863700Y-115883618D01*
X252863695Y-115883608D01*
X252764994Y-115705784D01*
X252764994Y-115705783D01*
X252632521Y-115551469D01*
X252632520Y-115551468D01*
X252471695Y-115426981D01*
X252289093Y-115337411D01*
X252189999Y-115311753D01*
X252189999Y-115875021D01*
X252170314Y-115942061D01*
X252117510Y-115987815D01*
X252048352Y-115997759D01*
X252032065Y-115994287D01*
X251968162Y-115976104D01*
X251856475Y-115986454D01*
X251847931Y-115988885D01*
X251778064Y-115988297D01*
X251719606Y-115950028D01*
X251691118Y-115886230D01*
X251690000Y-115869618D01*
X251690000Y-115306633D01*
X251688053Y-115306931D01*
X251688047Y-115306933D01*
X251497342Y-115377562D01*
X251497335Y-115377565D01*
X251324732Y-115485149D01*
X251177331Y-115625264D01*
X251177330Y-115625266D01*
X251061143Y-115792195D01*
X250980940Y-115979092D01*
X250940000Y-116178309D01*
X250940000Y-116330000D01*
X251516000Y-116330000D01*
X251583039Y-116349685D01*
X251628794Y-116402489D01*
X251640000Y-116454000D01*
X251640000Y-116706000D01*
X251620315Y-116773039D01*
X251567511Y-116818794D01*
X251516000Y-116830000D01*
X250940000Y-116830000D01*
X250940000Y-116930713D01*
X244300000Y-116930713D01*
X244300000Y-116830000D01*
X243724000Y-116830000D01*
X243656961Y-116810315D01*
X243611206Y-116757511D01*
X243600000Y-116706000D01*
X243600000Y-116454000D01*
X243619685Y-116386961D01*
X243672489Y-116341206D01*
X243724000Y-116330000D01*
X244300000Y-116330000D01*
X244300000Y-116229286D01*
X244284581Y-116077661D01*
X244223700Y-115883618D01*
X244223695Y-115883608D01*
X244124994Y-115705784D01*
X244124994Y-115705783D01*
X243992521Y-115551469D01*
X243992520Y-115551468D01*
X243831695Y-115426981D01*
X243649097Y-115337412D01*
X243549999Y-115311754D01*
X243549999Y-115875021D01*
X243530314Y-115942060D01*
X243477510Y-115987815D01*
X243408352Y-115997759D01*
X243392065Y-115994287D01*
X243328162Y-115976104D01*
X243216475Y-115986454D01*
X243207931Y-115988885D01*
X243138064Y-115988297D01*
X243079606Y-115950028D01*
X243051118Y-115886230D01*
X243050000Y-115869618D01*
X243050000Y-115306633D01*
X243048053Y-115306931D01*
X243048047Y-115306933D01*
X242857342Y-115377562D01*
X242857335Y-115377565D01*
X242684732Y-115485149D01*
X242537331Y-115625264D01*
X242537330Y-115625266D01*
X242421143Y-115792195D01*
X242340940Y-115979092D01*
X242300000Y-116178309D01*
X242300000Y-116330000D01*
X242876000Y-116330000D01*
X242943039Y-116349685D01*
X242988794Y-116402489D01*
X243000000Y-116454000D01*
X243000000Y-116706000D01*
X242980315Y-116773039D01*
X242927511Y-116818794D01*
X242876000Y-116830000D01*
X242300000Y-116830000D01*
X242300000Y-116930713D01*
X177059450Y-116930713D01*
X177058912Y-114198899D01*
X219514355Y-114198899D01*
X219534859Y-114367769D01*
X219534860Y-114367774D01*
X219595182Y-114526831D01*
X219644259Y-114597930D01*
X219691817Y-114666829D01*
X219772073Y-114737929D01*
X219819150Y-114779636D01*
X219954616Y-114850734D01*
X219969775Y-114858690D01*
X220134944Y-114899400D01*
X220305056Y-114899400D01*
X220470225Y-114858690D01*
X220549692Y-114816981D01*
X220620849Y-114779636D01*
X220620850Y-114779634D01*
X220620852Y-114779634D01*
X220748183Y-114666829D01*
X220844818Y-114526830D01*
X220905140Y-114367772D01*
X220925645Y-114198900D01*
X220905140Y-114030028D01*
X220844818Y-113870970D01*
X220832025Y-113852436D01*
X220792450Y-113795101D01*
X220770567Y-113728746D01*
X220770500Y-113724661D01*
X220770500Y-111649900D01*
X221944355Y-111649900D01*
X221964859Y-111818769D01*
X221964860Y-111818774D01*
X222025182Y-111977831D01*
X222057852Y-112025161D01*
X222121817Y-112117829D01*
X222222427Y-112206961D01*
X222249150Y-112230636D01*
X222380579Y-112299615D01*
X222399775Y-112309690D01*
X222564944Y-112350400D01*
X222735056Y-112350400D01*
X222900225Y-112309690D01*
X222979692Y-112267981D01*
X223050849Y-112230636D01*
X223050850Y-112230634D01*
X223050852Y-112230634D01*
X223178183Y-112117829D01*
X223274818Y-111977830D01*
X223335140Y-111818772D01*
X223355645Y-111649900D01*
X223335140Y-111481028D01*
X223325735Y-111456230D01*
X223274817Y-111321968D01*
X223202450Y-111217126D01*
X223180567Y-111150771D01*
X223180500Y-111146686D01*
X223180500Y-108677680D01*
X223180499Y-108677674D01*
X223180499Y-108611047D01*
X223180499Y-108581506D01*
X223200184Y-108514470D01*
X223246871Y-108471714D01*
X223324952Y-108430734D01*
X223452283Y-108317929D01*
X223548918Y-108177930D01*
X223609240Y-108018872D01*
X223629745Y-107850000D01*
X223626102Y-107820000D01*
X224024355Y-107820000D01*
X224044859Y-107988869D01*
X224044860Y-107988874D01*
X224105182Y-108147931D01*
X224144093Y-108204302D01*
X224201817Y-108287929D01*
X224305506Y-108379789D01*
X224329150Y-108400736D01*
X224479774Y-108479790D01*
X224484862Y-108481720D01*
X224528576Y-108509982D01*
X224603181Y-108584587D01*
X224636666Y-108645910D01*
X224639500Y-108672268D01*
X224639500Y-113766786D01*
X224619815Y-113833825D01*
X224617550Y-113837226D01*
X224545183Y-113942068D01*
X224545182Y-113942068D01*
X224484860Y-114101125D01*
X224484859Y-114101130D01*
X224464355Y-114270000D01*
X224484859Y-114438869D01*
X224484860Y-114438874D01*
X224545182Y-114597931D01*
X224592738Y-114666827D01*
X224641817Y-114737929D01*
X224688895Y-114779636D01*
X224769150Y-114850736D01*
X224861872Y-114899400D01*
X224919775Y-114929790D01*
X225084944Y-114970500D01*
X225255056Y-114970500D01*
X225420225Y-114929790D01*
X225499692Y-114888081D01*
X225570849Y-114850736D01*
X225570850Y-114850734D01*
X225570852Y-114850734D01*
X225698183Y-114737929D01*
X225794818Y-114597930D01*
X225855140Y-114438872D01*
X225875645Y-114270000D01*
X225855140Y-114101128D01*
X225794818Y-113942070D01*
X225794817Y-113942068D01*
X225794814Y-113942063D01*
X225762450Y-113895175D01*
X225740567Y-113828821D01*
X225740500Y-113824736D01*
X225740500Y-113000713D01*
X242300000Y-113000713D01*
X242315418Y-113152338D01*
X242376299Y-113346381D01*
X242376304Y-113346391D01*
X242475005Y-113524215D01*
X242475005Y-113524216D01*
X242607478Y-113678530D01*
X242607479Y-113678531D01*
X242768304Y-113803018D01*
X242950907Y-113892589D01*
X243050000Y-113918244D01*
X243050000Y-113354978D01*
X243069685Y-113287939D01*
X243122489Y-113242184D01*
X243191647Y-113232240D01*
X243207926Y-113235709D01*
X243271840Y-113253895D01*
X243383521Y-113243546D01*
X243383526Y-113243543D01*
X243392063Y-113241115D01*
X243461930Y-113241701D01*
X243520390Y-113279966D01*
X243548881Y-113343763D01*
X243550000Y-113360381D01*
X243550000Y-113923366D01*
X243551944Y-113923069D01*
X243551945Y-113923069D01*
X243742660Y-113852436D01*
X243742664Y-113852434D01*
X243915267Y-113744850D01*
X244062668Y-113604735D01*
X244062669Y-113604733D01*
X244178855Y-113437806D01*
X244182234Y-113429931D01*
X244226758Y-113376084D01*
X244293325Y-113354857D01*
X244360801Y-113372988D01*
X244371663Y-113380440D01*
X244439767Y-113432698D01*
X244579764Y-113490687D01*
X244692280Y-113505500D01*
X244692287Y-113505500D01*
X244767713Y-113505500D01*
X244767720Y-113505500D01*
X244880236Y-113490687D01*
X245020233Y-113432698D01*
X245140451Y-113340451D01*
X245232698Y-113220233D01*
X245290687Y-113080236D01*
X245310466Y-112930000D01*
X249929534Y-112930000D01*
X249949312Y-113080234D01*
X249949313Y-113080236D01*
X249998879Y-113199900D01*
X250007302Y-113220233D01*
X250099549Y-113340451D01*
X250219767Y-113432698D01*
X250359764Y-113490687D01*
X250472280Y-113505500D01*
X250472287Y-113505500D01*
X250547713Y-113505500D01*
X250547720Y-113505500D01*
X250660236Y-113490687D01*
X250800233Y-113432698D01*
X250871256Y-113378199D01*
X250936425Y-113353006D01*
X251004869Y-113367044D01*
X251054859Y-113415858D01*
X251055161Y-113416398D01*
X251115005Y-113524215D01*
X251115005Y-113524216D01*
X251247478Y-113678530D01*
X251247479Y-113678531D01*
X251408304Y-113803018D01*
X251590907Y-113892589D01*
X251690000Y-113918244D01*
X251690000Y-113354978D01*
X251709685Y-113287939D01*
X251762489Y-113242184D01*
X251831647Y-113232240D01*
X251847926Y-113235709D01*
X251911840Y-113253895D01*
X252023521Y-113243546D01*
X252023526Y-113243543D01*
X252032063Y-113241115D01*
X252101930Y-113241701D01*
X252160390Y-113279966D01*
X252188881Y-113343763D01*
X252190000Y-113360381D01*
X252190000Y-113923366D01*
X252191944Y-113923069D01*
X252191945Y-113923069D01*
X252382660Y-113852436D01*
X252382664Y-113852434D01*
X252555267Y-113744850D01*
X252702668Y-113604735D01*
X252702669Y-113604733D01*
X252818856Y-113437804D01*
X252899059Y-113250907D01*
X252940000Y-113051690D01*
X252940000Y-112650000D01*
X252364000Y-112650000D01*
X252296961Y-112630315D01*
X252251206Y-112577511D01*
X252240000Y-112526000D01*
X252240000Y-112274000D01*
X252259685Y-112206961D01*
X252312489Y-112161206D01*
X252364000Y-112150000D01*
X252940000Y-112150000D01*
X252940000Y-111799286D01*
X252924581Y-111647661D01*
X252863700Y-111453618D01*
X252863695Y-111453608D01*
X252764994Y-111275784D01*
X252764994Y-111275783D01*
X252632521Y-111121469D01*
X252632520Y-111121468D01*
X252471695Y-110996981D01*
X252289097Y-110907412D01*
X252189999Y-110881754D01*
X252189999Y-111445020D01*
X252170314Y-111512059D01*
X252117510Y-111557814D01*
X252048352Y-111567758D01*
X252032066Y-111564287D01*
X251968160Y-111546105D01*
X251856475Y-111556454D01*
X251847931Y-111558885D01*
X251778064Y-111558297D01*
X251719606Y-111520028D01*
X251691118Y-111456230D01*
X251690000Y-111439618D01*
X251690000Y-110876633D01*
X251688053Y-110876931D01*
X251688047Y-110876933D01*
X251497342Y-110947562D01*
X251497335Y-110947565D01*
X251324732Y-111055149D01*
X251177331Y-111195264D01*
X251177330Y-111195266D01*
X251061143Y-111362195D01*
X250980940Y-111549092D01*
X250940000Y-111748309D01*
X250940000Y-112299615D01*
X250920315Y-112366654D01*
X250867511Y-112412409D01*
X250798353Y-112422353D01*
X250768548Y-112414176D01*
X250660239Y-112369314D01*
X250660237Y-112369313D01*
X250660236Y-112369313D01*
X250640039Y-112366654D01*
X250547727Y-112354500D01*
X250547720Y-112354500D01*
X250472280Y-112354500D01*
X250472272Y-112354500D01*
X250359764Y-112369313D01*
X250359763Y-112369313D01*
X250219770Y-112427300D01*
X250099549Y-112519549D01*
X250007300Y-112639770D01*
X249949313Y-112779763D01*
X249949312Y-112779765D01*
X249929534Y-112929999D01*
X249929534Y-112930000D01*
X245310466Y-112930000D01*
X245290687Y-112779764D01*
X245232698Y-112639767D01*
X245140451Y-112519549D01*
X245020233Y-112427302D01*
X245020229Y-112427300D01*
X244931069Y-112390369D01*
X244880236Y-112369313D01*
X244860039Y-112366654D01*
X244767727Y-112354500D01*
X244767720Y-112354500D01*
X244692280Y-112354500D01*
X244692272Y-112354500D01*
X244579764Y-112369313D01*
X244579760Y-112369314D01*
X244471452Y-112414176D01*
X244401982Y-112421645D01*
X244339503Y-112390369D01*
X244303852Y-112330280D01*
X244300000Y-112299615D01*
X244300000Y-111799286D01*
X244284581Y-111647661D01*
X244223700Y-111453618D01*
X244223695Y-111453608D01*
X244124994Y-111275784D01*
X244124994Y-111275783D01*
X243992521Y-111121469D01*
X243992520Y-111121468D01*
X243831695Y-110996981D01*
X243649097Y-110907412D01*
X243549999Y-110881754D01*
X243549998Y-110881755D01*
X243549999Y-111445020D01*
X243530314Y-111512059D01*
X243477510Y-111557814D01*
X243408352Y-111567758D01*
X243392066Y-111564287D01*
X243328160Y-111546105D01*
X243216475Y-111556454D01*
X243207931Y-111558885D01*
X243138064Y-111558297D01*
X243079606Y-111520028D01*
X243051118Y-111456230D01*
X243050000Y-111439618D01*
X243050000Y-110876633D01*
X243048053Y-110876931D01*
X243048047Y-110876933D01*
X242857342Y-110947562D01*
X242857335Y-110947565D01*
X242684732Y-111055149D01*
X242537331Y-111195264D01*
X242537330Y-111195266D01*
X242421143Y-111362195D01*
X242340940Y-111549092D01*
X242300000Y-111748309D01*
X242300000Y-112150000D01*
X242876000Y-112150000D01*
X242943039Y-112169685D01*
X242988794Y-112222489D01*
X243000000Y-112274000D01*
X243000000Y-112526000D01*
X242980315Y-112593039D01*
X242927511Y-112638794D01*
X242876000Y-112650000D01*
X242300000Y-112650000D01*
X242300000Y-113000713D01*
X225740500Y-113000713D01*
X225740500Y-108402279D01*
X225741268Y-108379789D01*
X225742762Y-108336056D01*
X225736689Y-108311136D01*
X225732283Y-108293056D01*
X225731096Y-108286813D01*
X225729725Y-108276839D01*
X225725070Y-108242962D01*
X225725067Y-108242955D01*
X225717921Y-108226504D01*
X225711180Y-108206460D01*
X225706933Y-108189030D01*
X225693627Y-108165365D01*
X225685239Y-108150446D01*
X225682414Y-108144758D01*
X225668486Y-108112694D01*
X225664780Y-108104162D01*
X225653454Y-108090241D01*
X225641556Y-108072759D01*
X225632765Y-108057123D01*
X225601471Y-108025830D01*
X225597215Y-108021113D01*
X225569278Y-107986774D01*
X225554613Y-107976422D01*
X225538441Y-107962799D01*
X225471430Y-107895788D01*
X225457349Y-107870000D01*
X226214355Y-107870000D01*
X226214569Y-107871763D01*
X226234859Y-108038869D01*
X226234860Y-108038874D01*
X226295182Y-108197931D01*
X226347550Y-108273798D01*
X226369433Y-108340152D01*
X226369500Y-108344238D01*
X226369500Y-111204636D01*
X226349815Y-111271675D01*
X226347550Y-111275075D01*
X226315185Y-111321963D01*
X226315182Y-111321968D01*
X226254860Y-111481025D01*
X226254859Y-111481030D01*
X226234355Y-111649900D01*
X226254859Y-111818769D01*
X226254860Y-111818774D01*
X226315182Y-111977831D01*
X226347852Y-112025161D01*
X226411817Y-112117829D01*
X226512427Y-112206961D01*
X226539150Y-112230636D01*
X226670579Y-112299615D01*
X226689775Y-112309690D01*
X226854944Y-112350400D01*
X227025056Y-112350400D01*
X227190225Y-112309690D01*
X227269692Y-112267981D01*
X227340849Y-112230636D01*
X227340850Y-112230634D01*
X227340852Y-112230634D01*
X227468183Y-112117829D01*
X227564818Y-111977830D01*
X227625140Y-111818772D01*
X227645645Y-111649900D01*
X227625140Y-111481028D01*
X227615735Y-111456230D01*
X227564817Y-111321968D01*
X227492450Y-111217126D01*
X227470567Y-111150771D01*
X227470500Y-111146686D01*
X227470500Y-108344238D01*
X227490185Y-108277199D01*
X227492450Y-108273798D01*
X227523139Y-108229337D01*
X227544818Y-108197930D01*
X227605140Y-108038872D01*
X227625645Y-107870000D01*
X227608694Y-107730399D01*
X229093955Y-107730399D01*
X229114459Y-107899269D01*
X229114460Y-107899274D01*
X229174782Y-108058331D01*
X229227166Y-108134221D01*
X229271417Y-108198329D01*
X229356604Y-108273798D01*
X229398750Y-108311136D01*
X229549374Y-108390190D01*
X229549373Y-108390190D01*
X229653289Y-108415802D01*
X229690311Y-108424927D01*
X229748318Y-108457643D01*
X231352605Y-110061930D01*
X231386090Y-110123253D01*
X231388020Y-110164557D01*
X231373955Y-110280399D01*
X231394459Y-110449269D01*
X231394460Y-110449274D01*
X231454782Y-110608331D01*
X231517075Y-110698577D01*
X231551417Y-110748329D01*
X231657105Y-110841960D01*
X231678750Y-110861136D01*
X231766922Y-110907412D01*
X231829375Y-110940190D01*
X231994544Y-110980900D01*
X232164656Y-110980900D01*
X232329825Y-110940190D01*
X232409292Y-110898481D01*
X232480449Y-110861136D01*
X232480450Y-110861134D01*
X232480452Y-110861134D01*
X232607783Y-110748329D01*
X232704418Y-110608330D01*
X232764740Y-110449272D01*
X232785245Y-110280400D01*
X232764740Y-110111528D01*
X232704418Y-109952470D01*
X232607783Y-109812471D01*
X232607782Y-109812469D01*
X232607628Y-109812333D01*
X232607289Y-109811913D01*
X232602812Y-109806860D01*
X232603044Y-109806653D01*
X232581767Y-109780288D01*
X232574840Y-109767967D01*
X232572015Y-109762279D01*
X232554380Y-109721679D01*
X232543058Y-109707763D01*
X232531157Y-109690276D01*
X232522368Y-109674644D01*
X232522367Y-109674643D01*
X232522366Y-109674641D01*
X232491056Y-109643331D01*
X232486810Y-109638625D01*
X232479412Y-109629532D01*
X232458878Y-109604292D01*
X232444212Y-109593939D01*
X232428045Y-109580320D01*
X230525429Y-107677704D01*
X230491944Y-107616381D01*
X230490014Y-107604968D01*
X230484740Y-107561531D01*
X230484739Y-107561525D01*
X230447021Y-107462071D01*
X230424418Y-107402470D01*
X230424143Y-107402072D01*
X230355974Y-107303313D01*
X230327783Y-107262471D01*
X230200452Y-107149666D01*
X230200449Y-107149663D01*
X230049826Y-107070610D01*
X229884656Y-107029900D01*
X229714544Y-107029900D01*
X229549373Y-107070610D01*
X229398750Y-107149663D01*
X229271416Y-107262472D01*
X229174782Y-107402468D01*
X229114460Y-107561525D01*
X229114459Y-107561530D01*
X229093955Y-107730399D01*
X227608694Y-107730399D01*
X227605140Y-107701128D01*
X227586178Y-107651130D01*
X227548610Y-107552070D01*
X227544818Y-107542070D01*
X227448183Y-107402071D01*
X227336708Y-107303313D01*
X227320849Y-107289263D01*
X227170226Y-107210210D01*
X227005056Y-107169500D01*
X226834944Y-107169500D01*
X226669773Y-107210210D01*
X226519150Y-107289263D01*
X226391816Y-107402072D01*
X226295182Y-107542068D01*
X226234860Y-107701125D01*
X226234859Y-107701130D01*
X226222299Y-107804572D01*
X226214355Y-107870000D01*
X225457349Y-107870000D01*
X225437945Y-107834465D01*
X225436015Y-107823053D01*
X225435644Y-107820002D01*
X225435645Y-107820000D01*
X225415140Y-107651128D01*
X225354818Y-107492070D01*
X225258183Y-107352071D01*
X225130852Y-107239266D01*
X225130849Y-107239263D01*
X224980226Y-107160210D01*
X224815056Y-107119500D01*
X224644944Y-107119500D01*
X224479773Y-107160210D01*
X224329150Y-107239263D01*
X224201816Y-107352072D01*
X224105182Y-107492068D01*
X224044860Y-107651125D01*
X224044859Y-107651130D01*
X224024355Y-107820000D01*
X223626102Y-107820000D01*
X223609240Y-107681128D01*
X223607941Y-107677704D01*
X223560295Y-107552070D01*
X223548918Y-107522070D01*
X223528210Y-107492070D01*
X223472991Y-107412072D01*
X223452283Y-107382071D01*
X223357416Y-107298026D01*
X223324949Y-107269263D01*
X223174326Y-107190210D01*
X223009156Y-107149500D01*
X222839044Y-107149500D01*
X222673873Y-107190210D01*
X222523250Y-107269263D01*
X222395916Y-107382072D01*
X222299282Y-107522068D01*
X222299282Y-107522069D01*
X222238959Y-107681127D01*
X222234142Y-107720802D01*
X222206519Y-107784980D01*
X222201419Y-107790390D01*
X222198957Y-107793416D01*
X222175956Y-107831239D01*
X222172383Y-107836489D01*
X222145639Y-107871757D01*
X222145636Y-107871763D01*
X222139055Y-107888452D01*
X222129653Y-107907383D01*
X222120327Y-107922719D01*
X222108385Y-107965337D01*
X222106362Y-107971355D01*
X222090122Y-108012540D01*
X222088288Y-108030384D01*
X222084342Y-108051148D01*
X222079501Y-108068428D01*
X222079500Y-108068437D01*
X222079500Y-108112694D01*
X222079175Y-108119039D01*
X222074648Y-108163070D01*
X222074648Y-108163075D01*
X222077697Y-108180756D01*
X222079500Y-108201824D01*
X222079500Y-111204636D01*
X222059815Y-111271675D01*
X222057550Y-111275075D01*
X222025185Y-111321963D01*
X222025182Y-111321968D01*
X221964860Y-111481025D01*
X221964859Y-111481030D01*
X221944355Y-111649900D01*
X220770500Y-111649900D01*
X220770500Y-108681467D01*
X220790185Y-108614428D01*
X220806814Y-108593791D01*
X220823484Y-108577121D01*
X220881490Y-108544407D01*
X220900225Y-108539790D01*
X221050852Y-108460734D01*
X221178183Y-108347929D01*
X221274818Y-108207930D01*
X221335140Y-108048872D01*
X221355645Y-107880000D01*
X221335140Y-107711128D01*
X221331346Y-107701125D01*
X221293780Y-107602069D01*
X221274818Y-107552070D01*
X221274514Y-107551630D01*
X221212696Y-107462072D01*
X221178183Y-107412071D01*
X221059259Y-107306714D01*
X221050849Y-107299263D01*
X220900226Y-107220210D01*
X220735056Y-107179500D01*
X220564944Y-107179500D01*
X220399773Y-107220210D01*
X220249150Y-107299263D01*
X220121816Y-107412072D01*
X220025182Y-107552068D01*
X219964860Y-107711125D01*
X219964859Y-107711130D01*
X219946859Y-107859377D01*
X219919237Y-107923555D01*
X219911444Y-107932111D01*
X219837381Y-108006175D01*
X219788957Y-108051399D01*
X219765956Y-108089221D01*
X219762384Y-108094470D01*
X219735639Y-108129740D01*
X219735636Y-108129745D01*
X219729055Y-108146434D01*
X219719653Y-108165365D01*
X219710327Y-108180701D01*
X219698385Y-108223319D01*
X219696362Y-108229337D01*
X219680122Y-108270522D01*
X219678288Y-108288366D01*
X219674342Y-108309130D01*
X219669501Y-108326410D01*
X219669500Y-108326419D01*
X219669500Y-108370676D01*
X219669175Y-108377021D01*
X219664648Y-108421052D01*
X219664648Y-108421057D01*
X219667697Y-108438738D01*
X219669500Y-108459806D01*
X219669500Y-113724661D01*
X219649815Y-113791700D01*
X219647550Y-113795101D01*
X219595183Y-113870968D01*
X219595182Y-113870968D01*
X219534860Y-114030025D01*
X219534859Y-114030030D01*
X219514355Y-114198899D01*
X177058912Y-114198899D01*
X177058577Y-112499399D01*
X216724355Y-112499399D01*
X216744859Y-112668269D01*
X216744860Y-112668274D01*
X216805182Y-112827331D01*
X216867475Y-112917577D01*
X216901817Y-112967329D01*
X216997041Y-113051690D01*
X217029150Y-113080136D01*
X217166720Y-113152338D01*
X217179775Y-113159190D01*
X217344944Y-113199900D01*
X217515056Y-113199900D01*
X217680225Y-113159190D01*
X217830658Y-113080236D01*
X217830849Y-113080136D01*
X217830850Y-113080134D01*
X217830852Y-113080134D01*
X217958183Y-112967329D01*
X218054818Y-112827330D01*
X218115140Y-112668272D01*
X218135645Y-112499400D01*
X218115140Y-112330528D01*
X218054818Y-112171470D01*
X218053586Y-112169685D01*
X218002450Y-112095601D01*
X217980567Y-112029246D01*
X217980500Y-112025161D01*
X217980500Y-108723841D01*
X218000185Y-108656802D01*
X218052989Y-108611047D01*
X218074823Y-108603445D01*
X218130225Y-108589790D01*
X218280852Y-108510734D01*
X218408183Y-108397929D01*
X218504818Y-108257930D01*
X218565140Y-108098872D01*
X218585645Y-107930000D01*
X218565140Y-107761128D01*
X218565138Y-107761124D01*
X218504817Y-107602068D01*
X218463401Y-107542068D01*
X218408183Y-107462071D01*
X218313316Y-107378026D01*
X218280849Y-107349263D01*
X218130226Y-107270210D01*
X217965056Y-107229500D01*
X217794944Y-107229500D01*
X217629773Y-107270210D01*
X217479150Y-107349263D01*
X217351816Y-107462072D01*
X217255182Y-107602068D01*
X217255182Y-107602069D01*
X217194860Y-107761124D01*
X217194859Y-107761129D01*
X217189584Y-107804572D01*
X217161960Y-107868749D01*
X217154170Y-107877304D01*
X217108756Y-107922718D01*
X217047382Y-107984092D01*
X217024769Y-108005211D01*
X216998957Y-108029318D01*
X216975956Y-108067139D01*
X216972384Y-108072388D01*
X216945639Y-108107658D01*
X216945636Y-108107663D01*
X216939055Y-108124352D01*
X216929653Y-108143283D01*
X216920327Y-108158619D01*
X216908385Y-108201237D01*
X216906362Y-108207255D01*
X216890122Y-108248440D01*
X216888288Y-108266284D01*
X216884342Y-108287048D01*
X216879501Y-108304328D01*
X216879500Y-108304337D01*
X216879500Y-108348594D01*
X216879175Y-108354939D01*
X216874648Y-108398970D01*
X216874648Y-108398975D01*
X216877697Y-108416656D01*
X216879500Y-108437724D01*
X216879500Y-112025161D01*
X216859815Y-112092200D01*
X216857550Y-112095601D01*
X216805183Y-112171468D01*
X216805182Y-112171468D01*
X216744860Y-112330525D01*
X216744859Y-112330530D01*
X216724355Y-112499399D01*
X177058577Y-112499399D01*
X177057636Y-107720000D01*
X182064355Y-107720000D01*
X182084859Y-107888869D01*
X182084860Y-107888874D01*
X182145182Y-108047931D01*
X182192082Y-108115876D01*
X182241817Y-108187929D01*
X182342176Y-108276839D01*
X182369150Y-108300736D01*
X182514499Y-108377021D01*
X182519775Y-108379790D01*
X182684944Y-108420500D01*
X182855056Y-108420500D01*
X183020225Y-108379790D01*
X183151037Y-108311134D01*
X183170849Y-108300736D01*
X183170850Y-108300734D01*
X183170852Y-108300734D01*
X183298183Y-108187929D01*
X183394818Y-108047930D01*
X183455140Y-107888872D01*
X183475584Y-107720500D01*
X186109355Y-107720500D01*
X186110557Y-107730399D01*
X186129859Y-107889369D01*
X186129860Y-107889374D01*
X186190182Y-108048431D01*
X186246307Y-108129740D01*
X186286817Y-108188429D01*
X186379477Y-108270518D01*
X186414150Y-108301236D01*
X186563820Y-108379789D01*
X186564775Y-108380290D01*
X186729944Y-108421000D01*
X186900056Y-108421000D01*
X187065225Y-108380290D01*
X187167867Y-108326419D01*
X187215849Y-108301236D01*
X187215850Y-108301234D01*
X187215852Y-108301234D01*
X187343183Y-108188429D01*
X187439818Y-108048430D01*
X187500140Y-107889372D01*
X187520099Y-107725000D01*
X190149355Y-107725000D01*
X190169859Y-107893869D01*
X190169860Y-107893874D01*
X190230182Y-108052931D01*
X190292475Y-108143177D01*
X190326817Y-108192929D01*
X190409618Y-108266284D01*
X190454150Y-108305736D01*
X190595246Y-108379789D01*
X190604775Y-108384790D01*
X190769944Y-108425500D01*
X190940056Y-108425500D01*
X191105225Y-108384790D01*
X191198079Y-108336056D01*
X191255849Y-108305736D01*
X191255850Y-108305734D01*
X191255852Y-108305734D01*
X191383183Y-108192929D01*
X191479818Y-108052930D01*
X191540140Y-107893872D01*
X191560645Y-107725000D01*
X191560645Y-107724999D01*
X194199355Y-107724999D01*
X194219859Y-107893869D01*
X194219860Y-107893874D01*
X194280182Y-108052931D01*
X194342475Y-108143177D01*
X194376817Y-108192929D01*
X194459618Y-108266284D01*
X194504150Y-108305736D01*
X194645246Y-108379789D01*
X194654775Y-108384790D01*
X194819944Y-108425500D01*
X194990056Y-108425500D01*
X195155225Y-108384790D01*
X195248079Y-108336056D01*
X195305849Y-108305736D01*
X195305850Y-108305734D01*
X195305852Y-108305734D01*
X195433183Y-108192929D01*
X195529818Y-108052930D01*
X195590140Y-107893872D01*
X195610645Y-107725000D01*
X195610645Y-107724999D01*
X198239355Y-107724999D01*
X198259859Y-107893869D01*
X198259860Y-107893874D01*
X198320182Y-108052931D01*
X198382475Y-108143177D01*
X198416817Y-108192929D01*
X198499618Y-108266284D01*
X198544150Y-108305736D01*
X198685246Y-108379789D01*
X198694775Y-108384790D01*
X198859944Y-108425500D01*
X199030056Y-108425500D01*
X199195225Y-108384790D01*
X199288079Y-108336056D01*
X199345849Y-108305736D01*
X199345850Y-108305734D01*
X199345852Y-108305734D01*
X199473183Y-108192929D01*
X199569818Y-108052930D01*
X199630140Y-107893872D01*
X199650645Y-107725000D01*
X202279355Y-107725000D01*
X202299859Y-107893869D01*
X202299860Y-107893874D01*
X202360182Y-108052931D01*
X202422475Y-108143177D01*
X202456817Y-108192929D01*
X202539618Y-108266284D01*
X202584150Y-108305736D01*
X202725246Y-108379789D01*
X202734775Y-108384790D01*
X202899944Y-108425500D01*
X203070056Y-108425500D01*
X203235225Y-108384790D01*
X203328079Y-108336056D01*
X203385849Y-108305736D01*
X203385850Y-108305734D01*
X203385852Y-108305734D01*
X203513183Y-108192929D01*
X203609818Y-108052930D01*
X203670140Y-107893872D01*
X203690645Y-107725000D01*
X203690645Y-107724999D01*
X206319355Y-107724999D01*
X206339859Y-107893869D01*
X206339860Y-107893874D01*
X206400182Y-108052931D01*
X206462475Y-108143177D01*
X206496817Y-108192929D01*
X206579618Y-108266284D01*
X206624150Y-108305736D01*
X206765246Y-108379789D01*
X206774775Y-108384790D01*
X206939944Y-108425500D01*
X207110056Y-108425500D01*
X207275225Y-108384790D01*
X207368079Y-108336056D01*
X207425849Y-108305736D01*
X207425850Y-108305734D01*
X207425852Y-108305734D01*
X207553183Y-108192929D01*
X207649818Y-108052930D01*
X207710140Y-107893872D01*
X207730645Y-107725000D01*
X207710140Y-107556128D01*
X207708433Y-107551628D01*
X207651715Y-107402072D01*
X207649818Y-107397070D01*
X207646365Y-107392068D01*
X207607450Y-107335689D01*
X207585567Y-107269334D01*
X207585500Y-107265249D01*
X207585500Y-106379238D01*
X207605185Y-106312199D01*
X207607450Y-106308798D01*
X207621670Y-106288196D01*
X207659818Y-106232930D01*
X207720140Y-106073872D01*
X207740645Y-105905000D01*
X207720140Y-105736128D01*
X207718433Y-105731628D01*
X207659817Y-105577068D01*
X207622626Y-105523189D01*
X207563183Y-105437071D01*
X207443825Y-105331329D01*
X207435849Y-105324263D01*
X207285226Y-105245210D01*
X207120056Y-105204500D01*
X206949944Y-105204500D01*
X206784773Y-105245210D01*
X206634150Y-105324263D01*
X206517638Y-105427484D01*
X206511897Y-105432571D01*
X206506816Y-105437072D01*
X206410182Y-105577068D01*
X206349860Y-105736125D01*
X206349859Y-105736130D01*
X206329355Y-105905000D01*
X206349859Y-106073869D01*
X206349860Y-106073874D01*
X206410182Y-106232931D01*
X206462550Y-106308798D01*
X206484433Y-106375152D01*
X206484500Y-106379238D01*
X206484500Y-107236274D01*
X206464815Y-107303313D01*
X206462550Y-107306714D01*
X206400183Y-107397068D01*
X206400182Y-107397068D01*
X206339860Y-107556125D01*
X206339859Y-107556130D01*
X206319355Y-107724999D01*
X203690645Y-107724999D01*
X203670140Y-107556128D01*
X203668433Y-107551628D01*
X203611715Y-107402072D01*
X203609818Y-107397070D01*
X203606365Y-107392068D01*
X203567450Y-107335689D01*
X203545567Y-107269334D01*
X203545500Y-107265249D01*
X203545500Y-106379238D01*
X203565185Y-106312199D01*
X203567450Y-106308798D01*
X203581670Y-106288196D01*
X203619818Y-106232930D01*
X203680140Y-106073872D01*
X203700645Y-105905000D01*
X203680140Y-105736128D01*
X203678433Y-105731628D01*
X203619817Y-105577068D01*
X203582626Y-105523189D01*
X203523183Y-105437071D01*
X203403825Y-105331329D01*
X203395849Y-105324263D01*
X203245226Y-105245210D01*
X203080056Y-105204500D01*
X202909944Y-105204500D01*
X202744773Y-105245210D01*
X202594150Y-105324263D01*
X202477638Y-105427484D01*
X202471897Y-105432571D01*
X202466816Y-105437072D01*
X202370182Y-105577068D01*
X202309860Y-105736125D01*
X202309859Y-105736130D01*
X202289355Y-105905000D01*
X202309859Y-106073869D01*
X202309860Y-106073874D01*
X202370182Y-106232931D01*
X202422550Y-106308798D01*
X202444433Y-106375152D01*
X202444500Y-106379238D01*
X202444500Y-107236274D01*
X202424815Y-107303313D01*
X202422550Y-107306714D01*
X202360183Y-107397068D01*
X202360182Y-107397068D01*
X202299860Y-107556125D01*
X202299859Y-107556130D01*
X202279355Y-107725000D01*
X199650645Y-107725000D01*
X199630140Y-107556128D01*
X199628433Y-107551628D01*
X199571715Y-107402072D01*
X199569818Y-107397070D01*
X199566365Y-107392068D01*
X199527450Y-107335689D01*
X199505567Y-107269334D01*
X199505500Y-107265249D01*
X199505500Y-106379238D01*
X199525185Y-106312199D01*
X199527450Y-106308798D01*
X199541670Y-106288196D01*
X199579818Y-106232930D01*
X199640140Y-106073872D01*
X199660645Y-105905000D01*
X199640140Y-105736128D01*
X199638433Y-105731628D01*
X199579817Y-105577068D01*
X199542626Y-105523189D01*
X199483183Y-105437071D01*
X199363825Y-105331329D01*
X199355849Y-105324263D01*
X199205226Y-105245210D01*
X199040056Y-105204500D01*
X198869944Y-105204500D01*
X198704773Y-105245210D01*
X198554150Y-105324263D01*
X198437638Y-105427484D01*
X198431897Y-105432571D01*
X198426816Y-105437072D01*
X198330182Y-105577068D01*
X198269860Y-105736125D01*
X198269859Y-105736130D01*
X198249355Y-105904999D01*
X198269859Y-106073869D01*
X198269860Y-106073874D01*
X198330182Y-106232931D01*
X198382550Y-106308798D01*
X198404433Y-106375152D01*
X198404500Y-106379238D01*
X198404500Y-107236274D01*
X198384815Y-107303313D01*
X198382550Y-107306714D01*
X198320183Y-107397068D01*
X198320182Y-107397068D01*
X198259860Y-107556125D01*
X198259859Y-107556130D01*
X198239355Y-107724999D01*
X195610645Y-107724999D01*
X195590140Y-107556128D01*
X195588433Y-107551628D01*
X195531715Y-107402072D01*
X195529818Y-107397070D01*
X195526365Y-107392068D01*
X195487450Y-107335689D01*
X195465567Y-107269334D01*
X195465500Y-107265249D01*
X195465500Y-106379238D01*
X195485185Y-106312199D01*
X195487450Y-106308798D01*
X195501670Y-106288196D01*
X195539818Y-106232930D01*
X195600140Y-106073872D01*
X195620645Y-105905000D01*
X195600140Y-105736128D01*
X195598433Y-105731628D01*
X195539817Y-105577068D01*
X195502626Y-105523189D01*
X195443183Y-105437071D01*
X195323825Y-105331329D01*
X195315849Y-105324263D01*
X195165226Y-105245210D01*
X195000056Y-105204500D01*
X194829944Y-105204500D01*
X194664773Y-105245210D01*
X194514150Y-105324263D01*
X194397638Y-105427484D01*
X194391897Y-105432571D01*
X194386816Y-105437072D01*
X194290182Y-105577068D01*
X194229860Y-105736125D01*
X194229859Y-105736130D01*
X194209355Y-105905000D01*
X194229859Y-106073869D01*
X194229860Y-106073874D01*
X194290182Y-106232931D01*
X194342550Y-106308798D01*
X194364433Y-106375152D01*
X194364500Y-106379238D01*
X194364500Y-107236274D01*
X194344815Y-107303313D01*
X194342550Y-107306714D01*
X194280183Y-107397068D01*
X194280182Y-107397068D01*
X194219860Y-107556125D01*
X194219859Y-107556130D01*
X194199355Y-107724999D01*
X191560645Y-107724999D01*
X191540140Y-107556128D01*
X191538433Y-107551628D01*
X191481715Y-107402072D01*
X191479818Y-107397070D01*
X191476365Y-107392068D01*
X191437450Y-107335689D01*
X191415567Y-107269334D01*
X191415500Y-107265249D01*
X191415500Y-106379238D01*
X191435185Y-106312199D01*
X191437450Y-106308798D01*
X191451670Y-106288196D01*
X191489818Y-106232930D01*
X191550140Y-106073872D01*
X191570645Y-105905000D01*
X191550140Y-105736128D01*
X191548433Y-105731628D01*
X191489817Y-105577068D01*
X191452626Y-105523189D01*
X191393183Y-105437071D01*
X191273825Y-105331329D01*
X191265849Y-105324263D01*
X191115226Y-105245210D01*
X190950056Y-105204500D01*
X190779944Y-105204500D01*
X190614773Y-105245210D01*
X190464150Y-105324263D01*
X190347638Y-105427484D01*
X190341897Y-105432571D01*
X190336816Y-105437072D01*
X190240182Y-105577068D01*
X190179860Y-105736125D01*
X190179859Y-105736130D01*
X190159355Y-105904999D01*
X190179859Y-106073869D01*
X190179860Y-106073874D01*
X190240182Y-106232931D01*
X190292550Y-106308798D01*
X190314433Y-106375152D01*
X190314500Y-106379238D01*
X190314500Y-107236274D01*
X190294815Y-107303313D01*
X190292550Y-107306714D01*
X190230183Y-107397068D01*
X190230182Y-107397068D01*
X190169860Y-107556125D01*
X190169859Y-107556130D01*
X190149355Y-107725000D01*
X187520099Y-107725000D01*
X187520645Y-107720500D01*
X187500140Y-107551628D01*
X187499950Y-107551128D01*
X187447214Y-107412072D01*
X187439818Y-107392570D01*
X187439471Y-107392068D01*
X187397450Y-107331189D01*
X187375567Y-107264834D01*
X187375500Y-107260749D01*
X187375500Y-106374738D01*
X187395185Y-106307699D01*
X187397450Y-106304298D01*
X187411670Y-106283696D01*
X187449818Y-106228430D01*
X187510140Y-106069372D01*
X187530645Y-105900500D01*
X187510140Y-105731628D01*
X187509950Y-105731128D01*
X187488230Y-105673858D01*
X187449818Y-105572570D01*
X187449471Y-105572068D01*
X187408830Y-105513189D01*
X187353183Y-105432571D01*
X187238902Y-105331327D01*
X187225849Y-105319763D01*
X187075226Y-105240710D01*
X186910056Y-105200000D01*
X186739944Y-105200000D01*
X186574773Y-105240710D01*
X186424150Y-105319763D01*
X186307638Y-105422984D01*
X186297382Y-105432071D01*
X186296816Y-105432572D01*
X186200182Y-105572568D01*
X186139860Y-105731625D01*
X186139859Y-105731630D01*
X186139313Y-105736130D01*
X186119355Y-105900500D01*
X186122643Y-105927580D01*
X186139859Y-106069369D01*
X186139860Y-106069374D01*
X186200182Y-106228431D01*
X186252550Y-106304298D01*
X186274433Y-106370652D01*
X186274500Y-106374738D01*
X186274500Y-107231774D01*
X186254815Y-107298813D01*
X186252550Y-107302214D01*
X186190183Y-107392568D01*
X186190182Y-107392568D01*
X186129860Y-107551625D01*
X186129859Y-107551630D01*
X186111707Y-107701128D01*
X186109355Y-107720500D01*
X183475584Y-107720500D01*
X183475645Y-107720000D01*
X183455140Y-107551128D01*
X183394818Y-107392070D01*
X183387916Y-107382071D01*
X183352450Y-107330689D01*
X183330567Y-107264334D01*
X183330500Y-107260249D01*
X183330500Y-106374238D01*
X183350185Y-106307199D01*
X183352450Y-106303798D01*
X183366670Y-106283196D01*
X183404818Y-106227930D01*
X183465140Y-106068872D01*
X183485645Y-105900000D01*
X183465140Y-105731128D01*
X183404818Y-105572070D01*
X183308183Y-105432071D01*
X183213316Y-105348026D01*
X183180849Y-105319263D01*
X183030226Y-105240210D01*
X182865056Y-105199500D01*
X182694944Y-105199500D01*
X182529773Y-105240210D01*
X182379150Y-105319263D01*
X182251816Y-105432072D01*
X182155182Y-105572068D01*
X182094860Y-105731125D01*
X182094859Y-105731130D01*
X182074355Y-105899999D01*
X182094859Y-106068869D01*
X182094860Y-106068874D01*
X182155182Y-106227931D01*
X182207550Y-106303798D01*
X182229433Y-106370152D01*
X182229500Y-106374238D01*
X182229500Y-107231274D01*
X182209815Y-107298313D01*
X182207550Y-107301714D01*
X182145183Y-107392068D01*
X182145182Y-107392068D01*
X182084860Y-107551125D01*
X182084859Y-107551130D01*
X182064355Y-107720000D01*
X177057636Y-107720000D01*
X177057072Y-104853399D01*
X235689355Y-104853399D01*
X235709859Y-105022269D01*
X235709860Y-105022274D01*
X235770182Y-105181331D01*
X235783069Y-105200000D01*
X235866817Y-105321329D01*
X235972505Y-105414960D01*
X235994150Y-105434136D01*
X236144773Y-105513189D01*
X236144775Y-105513190D01*
X236309944Y-105553900D01*
X236480056Y-105553900D01*
X236645225Y-105513190D01*
X236724692Y-105471481D01*
X236795849Y-105434136D01*
X236795850Y-105434134D01*
X236795852Y-105434134D01*
X236923183Y-105321329D01*
X236933359Y-105306587D01*
X236933360Y-105306586D01*
X236987643Y-105262596D01*
X237035409Y-105253027D01*
X240047689Y-105253027D01*
X240114728Y-105272712D01*
X240149739Y-105306587D01*
X240166816Y-105331328D01*
X240294150Y-105444136D01*
X240444773Y-105523189D01*
X240444775Y-105523190D01*
X240609944Y-105563900D01*
X240780056Y-105563900D01*
X240945225Y-105523190D01*
X241024692Y-105481481D01*
X241095849Y-105444136D01*
X241095850Y-105444134D01*
X241095852Y-105444134D01*
X241223183Y-105331329D01*
X241319818Y-105191330D01*
X241380140Y-105032272D01*
X241400645Y-104863400D01*
X241380140Y-104694528D01*
X241376346Y-104684525D01*
X241319817Y-104535468D01*
X241248633Y-104432342D01*
X241223183Y-104395471D01*
X241095852Y-104282666D01*
X241095849Y-104282663D01*
X240945226Y-104203610D01*
X240780056Y-104162900D01*
X240609944Y-104162900D01*
X240444773Y-104203610D01*
X240294150Y-104282663D01*
X240166815Y-104395472D01*
X240164748Y-104398468D01*
X240162668Y-104400153D01*
X240161843Y-104401085D01*
X240161688Y-104400947D01*
X240110465Y-104442458D01*
X240062699Y-104452027D01*
X237034204Y-104452027D01*
X236967165Y-104432342D01*
X236932155Y-104398469D01*
X236923183Y-104385471D01*
X236795849Y-104272663D01*
X236645226Y-104193610D01*
X236480056Y-104152900D01*
X236309944Y-104152900D01*
X236144773Y-104193610D01*
X235994150Y-104272663D01*
X235866816Y-104385472D01*
X235770182Y-104525468D01*
X235709860Y-104684525D01*
X235709859Y-104684530D01*
X235689355Y-104853399D01*
X177057072Y-104853399D01*
X177056839Y-103669999D01*
X182064355Y-103669999D01*
X182084859Y-103838869D01*
X182084860Y-103838874D01*
X182145182Y-103997931D01*
X182193124Y-104067386D01*
X182241817Y-104137929D01*
X182347505Y-104231560D01*
X182369150Y-104250736D01*
X182462613Y-104299789D01*
X182519775Y-104329790D01*
X182684944Y-104370500D01*
X182855056Y-104370500D01*
X183020225Y-104329790D01*
X183129065Y-104272666D01*
X183170849Y-104250736D01*
X183170850Y-104250734D01*
X183170852Y-104250734D01*
X183298183Y-104137929D01*
X183394818Y-103997930D01*
X183455140Y-103838872D01*
X183475584Y-103670500D01*
X186109355Y-103670500D01*
X186112643Y-103697580D01*
X186129859Y-103839369D01*
X186129860Y-103839374D01*
X186190182Y-103998431D01*
X186211828Y-104029790D01*
X186286817Y-104138429D01*
X186379723Y-104220736D01*
X186414150Y-104251236D01*
X186563820Y-104329789D01*
X186564775Y-104330290D01*
X186729944Y-104371000D01*
X186900056Y-104371000D01*
X187065225Y-104330290D01*
X187155970Y-104282663D01*
X187215849Y-104251236D01*
X187215850Y-104251234D01*
X187215852Y-104251234D01*
X187343183Y-104138429D01*
X187439818Y-103998430D01*
X187500140Y-103839372D01*
X187520099Y-103675000D01*
X190149355Y-103675000D01*
X190169859Y-103843869D01*
X190169860Y-103843874D01*
X190230182Y-104002931D01*
X190277198Y-104071044D01*
X190326817Y-104142929D01*
X190385991Y-104195352D01*
X190454150Y-104255736D01*
X190595246Y-104329789D01*
X190604775Y-104334790D01*
X190769944Y-104375500D01*
X190940056Y-104375500D01*
X191105225Y-104334790D01*
X191204544Y-104282663D01*
X191255849Y-104255736D01*
X191255850Y-104255734D01*
X191255852Y-104255734D01*
X191383183Y-104142929D01*
X191479818Y-104002930D01*
X191540140Y-103843872D01*
X191560645Y-103675000D01*
X191560645Y-103674999D01*
X194199355Y-103674999D01*
X194219859Y-103843869D01*
X194219860Y-103843874D01*
X194280182Y-104002931D01*
X194327198Y-104071044D01*
X194376817Y-104142929D01*
X194435991Y-104195352D01*
X194504150Y-104255736D01*
X194645246Y-104329789D01*
X194654775Y-104334790D01*
X194819944Y-104375500D01*
X194990056Y-104375500D01*
X195155225Y-104334790D01*
X195254544Y-104282663D01*
X195305849Y-104255736D01*
X195305850Y-104255734D01*
X195305852Y-104255734D01*
X195433183Y-104142929D01*
X195529818Y-104002930D01*
X195590140Y-103843872D01*
X195610645Y-103675000D01*
X198239355Y-103675000D01*
X198259859Y-103843869D01*
X198259860Y-103843874D01*
X198320182Y-104002931D01*
X198367198Y-104071044D01*
X198416817Y-104142929D01*
X198475991Y-104195352D01*
X198544150Y-104255736D01*
X198685246Y-104329789D01*
X198694775Y-104334790D01*
X198859944Y-104375500D01*
X199030056Y-104375500D01*
X199195225Y-104334790D01*
X199294544Y-104282663D01*
X199345849Y-104255736D01*
X199345850Y-104255734D01*
X199345852Y-104255734D01*
X199473183Y-104142929D01*
X199569818Y-104002930D01*
X199630140Y-103843872D01*
X199650645Y-103675000D01*
X202279355Y-103675000D01*
X202299859Y-103843869D01*
X202299860Y-103843874D01*
X202360182Y-104002931D01*
X202407198Y-104071044D01*
X202456817Y-104142929D01*
X202515991Y-104195352D01*
X202584150Y-104255736D01*
X202725246Y-104329789D01*
X202734775Y-104334790D01*
X202899944Y-104375500D01*
X203070056Y-104375500D01*
X203235225Y-104334790D01*
X203334544Y-104282663D01*
X203385849Y-104255736D01*
X203385850Y-104255734D01*
X203385852Y-104255734D01*
X203513183Y-104142929D01*
X203609818Y-104002930D01*
X203670140Y-103843872D01*
X203690645Y-103675000D01*
X206319355Y-103675000D01*
X206339859Y-103843869D01*
X206339860Y-103843874D01*
X206400182Y-104002931D01*
X206447198Y-104071044D01*
X206496817Y-104142929D01*
X206555991Y-104195352D01*
X206624150Y-104255736D01*
X206765246Y-104329789D01*
X206774775Y-104334790D01*
X206939944Y-104375500D01*
X207110056Y-104375500D01*
X207275225Y-104334790D01*
X207374544Y-104282663D01*
X207425849Y-104255736D01*
X207425850Y-104255734D01*
X207425852Y-104255734D01*
X207553183Y-104142929D01*
X207649818Y-104002930D01*
X207710140Y-103843872D01*
X207730645Y-103675000D01*
X207710140Y-103506128D01*
X207708433Y-103501628D01*
X207658514Y-103370000D01*
X213324355Y-103370000D01*
X213344859Y-103538869D01*
X213344860Y-103538874D01*
X213405182Y-103697931D01*
X213467475Y-103788177D01*
X213501817Y-103837929D01*
X213607505Y-103931560D01*
X213629150Y-103950736D01*
X213779774Y-104029790D01*
X213779773Y-104029790D01*
X213853277Y-104047906D01*
X213932315Y-104067387D01*
X213967067Y-104081836D01*
X213987141Y-104094043D01*
X213992385Y-104097613D01*
X214027656Y-104124360D01*
X214027657Y-104124360D01*
X214027658Y-104124361D01*
X214035930Y-104127623D01*
X214044353Y-104130945D01*
X214063290Y-104140351D01*
X214067770Y-104143075D01*
X214078618Y-104149672D01*
X214121247Y-104161616D01*
X214127263Y-104163639D01*
X214168436Y-104179876D01*
X214186287Y-104181711D01*
X214207052Y-104185657D01*
X214224335Y-104190500D01*
X214268594Y-104190500D01*
X214274935Y-104190824D01*
X214318972Y-104195352D01*
X214336655Y-104192303D01*
X214357724Y-104190500D01*
X215347094Y-104190500D01*
X215414133Y-104210185D01*
X215426174Y-104219302D01*
X215428254Y-104220738D01*
X215546248Y-104282666D01*
X215578875Y-104299790D01*
X215744044Y-104340500D01*
X215914156Y-104340500D01*
X216079325Y-104299790D01*
X216172789Y-104250736D01*
X216229949Y-104220736D01*
X216229950Y-104220734D01*
X216229952Y-104220734D01*
X216357283Y-104107929D01*
X216453918Y-103967930D01*
X216514240Y-103808872D01*
X216534745Y-103640000D01*
X216514240Y-103471128D01*
X216453918Y-103312070D01*
X216435708Y-103285689D01*
X216410307Y-103248889D01*
X216357283Y-103172071D01*
X216262416Y-103088026D01*
X216229949Y-103059263D01*
X216079326Y-102980210D01*
X215914156Y-102939500D01*
X215744044Y-102939500D01*
X215578873Y-102980210D01*
X215428254Y-103059261D01*
X215422080Y-103063524D01*
X215421139Y-103062160D01*
X215366089Y-103088037D01*
X215347094Y-103089500D01*
X214752637Y-103089500D01*
X214685598Y-103069815D01*
X214650587Y-103035941D01*
X214558183Y-102902071D01*
X214430852Y-102789266D01*
X214430849Y-102789263D01*
X214280226Y-102710210D01*
X214115056Y-102669500D01*
X213944944Y-102669500D01*
X213779773Y-102710210D01*
X213629150Y-102789263D01*
X213501816Y-102902072D01*
X213405182Y-103042068D01*
X213344860Y-103201125D01*
X213344859Y-103201130D01*
X213324355Y-103370000D01*
X207658514Y-103370000D01*
X207649817Y-103347068D01*
X207607450Y-103285689D01*
X207585567Y-103219334D01*
X207585500Y-103215249D01*
X207585500Y-102329238D01*
X207605185Y-102262199D01*
X207607450Y-102258798D01*
X207621670Y-102238196D01*
X207659818Y-102182930D01*
X207720140Y-102023872D01*
X207740645Y-101855000D01*
X207720140Y-101686128D01*
X207718433Y-101681628D01*
X207659817Y-101527068D01*
X207595507Y-101433900D01*
X207563183Y-101387071D01*
X207435852Y-101274266D01*
X207435849Y-101274263D01*
X207285226Y-101195210D01*
X207120056Y-101154500D01*
X206949944Y-101154500D01*
X206784773Y-101195210D01*
X206634150Y-101274263D01*
X206554839Y-101344527D01*
X206511897Y-101382571D01*
X206506816Y-101387072D01*
X206410182Y-101527068D01*
X206349860Y-101686125D01*
X206349859Y-101686130D01*
X206329355Y-101855000D01*
X206349859Y-102023869D01*
X206349860Y-102023874D01*
X206410182Y-102182931D01*
X206462550Y-102258798D01*
X206484433Y-102325152D01*
X206484500Y-102329238D01*
X206484500Y-103186274D01*
X206464815Y-103253313D01*
X206462550Y-103256714D01*
X206400183Y-103347068D01*
X206400182Y-103347068D01*
X206339860Y-103506125D01*
X206339859Y-103506130D01*
X206319355Y-103675000D01*
X203690645Y-103675000D01*
X203670140Y-103506128D01*
X203668433Y-103501628D01*
X203609817Y-103347068D01*
X203567450Y-103285689D01*
X203545567Y-103219334D01*
X203545500Y-103215249D01*
X203545500Y-102329238D01*
X203565185Y-102262199D01*
X203567450Y-102258798D01*
X203581670Y-102238196D01*
X203619818Y-102182930D01*
X203680140Y-102023872D01*
X203700645Y-101855000D01*
X203680140Y-101686128D01*
X203678433Y-101681628D01*
X203619817Y-101527068D01*
X203555507Y-101433900D01*
X203523183Y-101387071D01*
X203395852Y-101274266D01*
X203395849Y-101274263D01*
X203245226Y-101195210D01*
X203080056Y-101154500D01*
X202909944Y-101154500D01*
X202744773Y-101195210D01*
X202594150Y-101274263D01*
X202514839Y-101344527D01*
X202471897Y-101382571D01*
X202466816Y-101387072D01*
X202370182Y-101527068D01*
X202309860Y-101686125D01*
X202309859Y-101686130D01*
X202289355Y-101855000D01*
X202309859Y-102023869D01*
X202309860Y-102023874D01*
X202370182Y-102182931D01*
X202422550Y-102258798D01*
X202444433Y-102325152D01*
X202444500Y-102329238D01*
X202444500Y-103186274D01*
X202424815Y-103253313D01*
X202422550Y-103256714D01*
X202360183Y-103347068D01*
X202360182Y-103347068D01*
X202299860Y-103506125D01*
X202299859Y-103506130D01*
X202279355Y-103675000D01*
X199650645Y-103675000D01*
X199630140Y-103506128D01*
X199628433Y-103501628D01*
X199569817Y-103347068D01*
X199527450Y-103285689D01*
X199505567Y-103219334D01*
X199505500Y-103215249D01*
X199505500Y-102329238D01*
X199525185Y-102262199D01*
X199527450Y-102258798D01*
X199541670Y-102238196D01*
X199579818Y-102182930D01*
X199640140Y-102023872D01*
X199660645Y-101855000D01*
X199640140Y-101686128D01*
X199638433Y-101681628D01*
X199579817Y-101527068D01*
X199515507Y-101433900D01*
X199483183Y-101387071D01*
X199355852Y-101274266D01*
X199355849Y-101274263D01*
X199205226Y-101195210D01*
X199040056Y-101154500D01*
X198869944Y-101154500D01*
X198704773Y-101195210D01*
X198554150Y-101274263D01*
X198474839Y-101344527D01*
X198431897Y-101382571D01*
X198426816Y-101387072D01*
X198330182Y-101527068D01*
X198269860Y-101686125D01*
X198269859Y-101686130D01*
X198249355Y-101855000D01*
X198269859Y-102023869D01*
X198269860Y-102023874D01*
X198330182Y-102182931D01*
X198382550Y-102258798D01*
X198404433Y-102325152D01*
X198404500Y-102329238D01*
X198404500Y-103186274D01*
X198384815Y-103253313D01*
X198382550Y-103256714D01*
X198320183Y-103347068D01*
X198320182Y-103347068D01*
X198259860Y-103506125D01*
X198259859Y-103506130D01*
X198239355Y-103675000D01*
X195610645Y-103675000D01*
X195590140Y-103506128D01*
X195588433Y-103501628D01*
X195529817Y-103347068D01*
X195487450Y-103285689D01*
X195465567Y-103219334D01*
X195465500Y-103215249D01*
X195465500Y-102329238D01*
X195485185Y-102262199D01*
X195487450Y-102258798D01*
X195501670Y-102238196D01*
X195539818Y-102182930D01*
X195600140Y-102023872D01*
X195620645Y-101855000D01*
X195600140Y-101686128D01*
X195598433Y-101681628D01*
X195539817Y-101527068D01*
X195475507Y-101433900D01*
X195443183Y-101387071D01*
X195315852Y-101274266D01*
X195315849Y-101274263D01*
X195165226Y-101195210D01*
X195000056Y-101154500D01*
X194829944Y-101154500D01*
X194664773Y-101195210D01*
X194514150Y-101274263D01*
X194434839Y-101344527D01*
X194391897Y-101382571D01*
X194386816Y-101387072D01*
X194290182Y-101527068D01*
X194229860Y-101686125D01*
X194229859Y-101686130D01*
X194209355Y-101855000D01*
X194229859Y-102023869D01*
X194229860Y-102023874D01*
X194290182Y-102182931D01*
X194342550Y-102258798D01*
X194364433Y-102325152D01*
X194364500Y-102329238D01*
X194364500Y-103186274D01*
X194344815Y-103253313D01*
X194342550Y-103256714D01*
X194280183Y-103347068D01*
X194280182Y-103347068D01*
X194219860Y-103506125D01*
X194219859Y-103506130D01*
X194199355Y-103674999D01*
X191560645Y-103674999D01*
X191540140Y-103506128D01*
X191538433Y-103501628D01*
X191479817Y-103347068D01*
X191437450Y-103285689D01*
X191415567Y-103219334D01*
X191415500Y-103215249D01*
X191415500Y-102329238D01*
X191435185Y-102262199D01*
X191437450Y-102258798D01*
X191451670Y-102238196D01*
X191489818Y-102182930D01*
X191550140Y-102023872D01*
X191570645Y-101855000D01*
X191550140Y-101686128D01*
X191548433Y-101681628D01*
X191489817Y-101527068D01*
X191425507Y-101433900D01*
X191393183Y-101387071D01*
X191265852Y-101274266D01*
X191265849Y-101274263D01*
X191115226Y-101195210D01*
X190950056Y-101154500D01*
X190779944Y-101154500D01*
X190614773Y-101195210D01*
X190464150Y-101274263D01*
X190384839Y-101344527D01*
X190341897Y-101382571D01*
X190336816Y-101387072D01*
X190240182Y-101527068D01*
X190179860Y-101686125D01*
X190179859Y-101686130D01*
X190159355Y-101855000D01*
X190179859Y-102023869D01*
X190179860Y-102023874D01*
X190240182Y-102182931D01*
X190292550Y-102258798D01*
X190314433Y-102325152D01*
X190314500Y-102329238D01*
X190314500Y-103186274D01*
X190294815Y-103253313D01*
X190292550Y-103256714D01*
X190230183Y-103347068D01*
X190230182Y-103347068D01*
X190169860Y-103506125D01*
X190169859Y-103506130D01*
X190149355Y-103675000D01*
X187520099Y-103675000D01*
X187520645Y-103670500D01*
X187500140Y-103501628D01*
X187499950Y-103501128D01*
X187450221Y-103370000D01*
X187439818Y-103342570D01*
X187439471Y-103342068D01*
X187397450Y-103281189D01*
X187375567Y-103214834D01*
X187375500Y-103210749D01*
X187375500Y-102324738D01*
X187395185Y-102257699D01*
X187397450Y-102254298D01*
X187411670Y-102233696D01*
X187449818Y-102178430D01*
X187510140Y-102019372D01*
X187530645Y-101850500D01*
X187510140Y-101681628D01*
X187509950Y-101681128D01*
X187488230Y-101623858D01*
X187449818Y-101522570D01*
X187449471Y-101522068D01*
X187365236Y-101400033D01*
X187353183Y-101382571D01*
X187258284Y-101298498D01*
X187225849Y-101269763D01*
X187075226Y-101190710D01*
X186910056Y-101150000D01*
X186739944Y-101150000D01*
X186574773Y-101190710D01*
X186424150Y-101269763D01*
X186307638Y-101372984D01*
X186297382Y-101382071D01*
X186296816Y-101382572D01*
X186200182Y-101522568D01*
X186139860Y-101681625D01*
X186139859Y-101681630D01*
X186119355Y-101850500D01*
X186139859Y-102019369D01*
X186139860Y-102019374D01*
X186200182Y-102178431D01*
X186252550Y-102254298D01*
X186274433Y-102320652D01*
X186274500Y-102324738D01*
X186274500Y-103181774D01*
X186254815Y-103248813D01*
X186252550Y-103252214D01*
X186190183Y-103342568D01*
X186190182Y-103342568D01*
X186129860Y-103501625D01*
X186129859Y-103501630D01*
X186125337Y-103538874D01*
X186109355Y-103670500D01*
X183475584Y-103670500D01*
X183475645Y-103670000D01*
X183455140Y-103501128D01*
X183394818Y-103342070D01*
X183352450Y-103280689D01*
X183330567Y-103214334D01*
X183330500Y-103210249D01*
X183330500Y-102324238D01*
X183350185Y-102257199D01*
X183352450Y-102253798D01*
X183366670Y-102233196D01*
X183404818Y-102177930D01*
X183465140Y-102018872D01*
X183485645Y-101850000D01*
X183465140Y-101681128D01*
X183404818Y-101522070D01*
X183391014Y-101502072D01*
X183320581Y-101400033D01*
X183308183Y-101382071D01*
X183186496Y-101274266D01*
X183180849Y-101269263D01*
X183030226Y-101190210D01*
X182865056Y-101149500D01*
X182694944Y-101149500D01*
X182529773Y-101190210D01*
X182379150Y-101269263D01*
X182251816Y-101382072D01*
X182155182Y-101522068D01*
X182094860Y-101681125D01*
X182094859Y-101681130D01*
X182074355Y-101850000D01*
X182094859Y-102018869D01*
X182094860Y-102018874D01*
X182155182Y-102177931D01*
X182207550Y-102253798D01*
X182229433Y-102320152D01*
X182229500Y-102324238D01*
X182229500Y-103181274D01*
X182209815Y-103248313D01*
X182207550Y-103251714D01*
X182145183Y-103342068D01*
X182145182Y-103342068D01*
X182084860Y-103501125D01*
X182084859Y-103501130D01*
X182064355Y-103669999D01*
X177056839Y-103669999D01*
X177056244Y-100650000D01*
X213424455Y-100650000D01*
X213444959Y-100818869D01*
X213444960Y-100818874D01*
X213505282Y-100977931D01*
X213535237Y-101021327D01*
X213601917Y-101117929D01*
X213707605Y-101211560D01*
X213729250Y-101230736D01*
X213879874Y-101309790D01*
X213879873Y-101309790D01*
X213983789Y-101335402D01*
X214020811Y-101344527D01*
X214078818Y-101377243D01*
X215054193Y-102352618D01*
X215099420Y-102401044D01*
X215137244Y-102424045D01*
X215142474Y-102427604D01*
X215177758Y-102454361D01*
X215186030Y-102457623D01*
X215194453Y-102460945D01*
X215213390Y-102470351D01*
X215228718Y-102479672D01*
X215271347Y-102491616D01*
X215277363Y-102493639D01*
X215318536Y-102509876D01*
X215336387Y-102511711D01*
X215357152Y-102515657D01*
X215374435Y-102520500D01*
X215377994Y-102520500D01*
X215381125Y-102521419D01*
X215382839Y-102521655D01*
X215382803Y-102521912D01*
X215445033Y-102540185D01*
X215457074Y-102549302D01*
X215459154Y-102550738D01*
X215609773Y-102629789D01*
X215609775Y-102629790D01*
X215774944Y-102670500D01*
X215945056Y-102670500D01*
X216110225Y-102629790D01*
X216189692Y-102588081D01*
X216260849Y-102550736D01*
X216260850Y-102550734D01*
X216260852Y-102550734D01*
X216388183Y-102437929D01*
X216484818Y-102297930D01*
X216545140Y-102138872D01*
X216565645Y-101970000D01*
X216545140Y-101801128D01*
X216484818Y-101642070D01*
X216388183Y-101502071D01*
X216293316Y-101418026D01*
X216260849Y-101389263D01*
X216110226Y-101310210D01*
X215945056Y-101269500D01*
X215774944Y-101269500D01*
X215774942Y-101269500D01*
X215644832Y-101301568D01*
X215575030Y-101298498D01*
X215527477Y-101268852D01*
X214855929Y-100597304D01*
X214831956Y-100553400D01*
X240489355Y-100553400D01*
X240509859Y-100722269D01*
X240509860Y-100722274D01*
X240570182Y-100881331D01*
X240632475Y-100971577D01*
X240666817Y-101021329D01*
X240772505Y-101114960D01*
X240794150Y-101134136D01*
X240920920Y-101200670D01*
X240944775Y-101213190D01*
X241109944Y-101253900D01*
X241280056Y-101253900D01*
X241445225Y-101213190D01*
X241521601Y-101173104D01*
X241579228Y-101158900D01*
X243703420Y-101158900D01*
X243770459Y-101178585D01*
X243791200Y-101196357D01*
X243791203Y-101196355D01*
X243791372Y-101196505D01*
X243796233Y-101200670D01*
X243796814Y-101201326D01*
X243796816Y-101201328D01*
X243796817Y-101201329D01*
X243830009Y-101230734D01*
X243924150Y-101314136D01*
X244074773Y-101393189D01*
X244074775Y-101393190D01*
X244239944Y-101433900D01*
X244410056Y-101433900D01*
X244575225Y-101393190D01*
X244706481Y-101324301D01*
X244725849Y-101314136D01*
X244725850Y-101314134D01*
X244725852Y-101314134D01*
X244853183Y-101201329D01*
X244949818Y-101061330D01*
X245010140Y-100902272D01*
X245030645Y-100733400D01*
X245026533Y-100699533D01*
X256143112Y-100699533D01*
X256163616Y-100868402D01*
X256163617Y-100868407D01*
X256223939Y-101027464D01*
X256286232Y-101117710D01*
X256320574Y-101167462D01*
X256391994Y-101230734D01*
X256447907Y-101280269D01*
X256581721Y-101350500D01*
X256598532Y-101359323D01*
X256763701Y-101400033D01*
X256933813Y-101400033D01*
X257098982Y-101359323D01*
X257209024Y-101301568D01*
X257249606Y-101280269D01*
X257249607Y-101280267D01*
X257249609Y-101280267D01*
X257376940Y-101167462D01*
X257473575Y-101027463D01*
X257533897Y-100868405D01*
X257554402Y-100699533D01*
X257554402Y-100699532D01*
X257554402Y-100692032D01*
X257556381Y-100692032D01*
X257566162Y-100633160D01*
X257590121Y-100599443D01*
X257952502Y-100237062D01*
X258013826Y-100203577D01*
X258040184Y-100200743D01*
X258137275Y-100200743D01*
X258302444Y-100160033D01*
X258430299Y-100092929D01*
X258453068Y-100080979D01*
X258453069Y-100080977D01*
X258453071Y-100080977D01*
X258580402Y-99968172D01*
X258677037Y-99828173D01*
X258737359Y-99669115D01*
X258757864Y-99500243D01*
X258737359Y-99331371D01*
X258677037Y-99172313D01*
X258671529Y-99164334D01*
X258642695Y-99122561D01*
X258580402Y-99032314D01*
X258453071Y-98919509D01*
X258453068Y-98919506D01*
X258302445Y-98840453D01*
X258137275Y-98799743D01*
X257967163Y-98799743D01*
X257801992Y-98840453D01*
X257651369Y-98919506D01*
X257524035Y-99032315D01*
X257427401Y-99172311D01*
X257367079Y-99331368D01*
X257367078Y-99331373D01*
X257346574Y-99500243D01*
X257346574Y-99500245D01*
X257346719Y-99501441D01*
X257346574Y-99502312D01*
X257346574Y-99507743D01*
X257345670Y-99507743D01*
X257335250Y-99570363D01*
X257311302Y-99604055D01*
X256952645Y-99962714D01*
X256891322Y-99996199D01*
X256864964Y-99999033D01*
X256763701Y-99999033D01*
X256598530Y-100039743D01*
X256447907Y-100118796D01*
X256320573Y-100231605D01*
X256223939Y-100371601D01*
X256163617Y-100530658D01*
X256163616Y-100530663D01*
X256143112Y-100699533D01*
X245026533Y-100699533D01*
X245010140Y-100564528D01*
X244949818Y-100405470D01*
X244853183Y-100265471D01*
X244725852Y-100152666D01*
X244725849Y-100152663D01*
X244575226Y-100073610D01*
X244410056Y-100032900D01*
X244239944Y-100032900D01*
X244074773Y-100073610D01*
X243924150Y-100152663D01*
X243796814Y-100265473D01*
X243796233Y-100266130D01*
X243795687Y-100266472D01*
X243791203Y-100270445D01*
X243790542Y-100269699D01*
X243737042Y-100303255D01*
X243703420Y-100307900D01*
X241936670Y-100307900D01*
X241869631Y-100288215D01*
X241823876Y-100235411D01*
X241820727Y-100227868D01*
X241819817Y-100225468D01*
X241769565Y-100152666D01*
X241723183Y-100085471D01*
X241595852Y-99972666D01*
X241595849Y-99972663D01*
X241445226Y-99893610D01*
X241280056Y-99852900D01*
X241109944Y-99852900D01*
X240944773Y-99893610D01*
X240794150Y-99972663D01*
X240718433Y-100039743D01*
X240671888Y-100080979D01*
X240666816Y-100085472D01*
X240570182Y-100225468D01*
X240509860Y-100384525D01*
X240509859Y-100384530D01*
X240489355Y-100553400D01*
X214831956Y-100553400D01*
X214822444Y-100535981D01*
X214820514Y-100524568D01*
X214815240Y-100481131D01*
X214815239Y-100481125D01*
X214754917Y-100322068D01*
X214692473Y-100231604D01*
X214658283Y-100182071D01*
X214552583Y-100088429D01*
X214530949Y-100069263D01*
X214380326Y-99990210D01*
X214215156Y-99949500D01*
X214045044Y-99949500D01*
X213879873Y-99990210D01*
X213729250Y-100069263D01*
X213601916Y-100182072D01*
X213505282Y-100322068D01*
X213444960Y-100481125D01*
X213444959Y-100481130D01*
X213424455Y-100650000D01*
X177056244Y-100650000D01*
X177056041Y-99620000D01*
X182064355Y-99620000D01*
X182084859Y-99788869D01*
X182084860Y-99788874D01*
X182145182Y-99947931D01*
X182159154Y-99968172D01*
X182241817Y-100087929D01*
X182323205Y-100160032D01*
X182369150Y-100200736D01*
X182519773Y-100279789D01*
X182519775Y-100279790D01*
X182684944Y-100320500D01*
X182855056Y-100320500D01*
X183020225Y-100279790D01*
X183161322Y-100205736D01*
X183170849Y-100200736D01*
X183170850Y-100200734D01*
X183170852Y-100200734D01*
X183298183Y-100087929D01*
X183394818Y-99947930D01*
X183455140Y-99788872D01*
X183475584Y-99620500D01*
X186109355Y-99620500D01*
X186129859Y-99789369D01*
X186129860Y-99789374D01*
X186190182Y-99948431D01*
X186225111Y-99999033D01*
X186286817Y-100088429D01*
X186367642Y-100160033D01*
X186414150Y-100201236D01*
X186546017Y-100270445D01*
X186564775Y-100280290D01*
X186729944Y-100321000D01*
X186900056Y-100321000D01*
X187065225Y-100280290D01*
X187157986Y-100231605D01*
X187215849Y-100201236D01*
X187215850Y-100201234D01*
X187215852Y-100201234D01*
X187343183Y-100088429D01*
X187439818Y-99948430D01*
X187500140Y-99789372D01*
X187520099Y-99625000D01*
X190149355Y-99625000D01*
X190169859Y-99793869D01*
X190169860Y-99793874D01*
X190230182Y-99952931D01*
X190285382Y-100032900D01*
X190326817Y-100092929D01*
X190402561Y-100160032D01*
X190454150Y-100205736D01*
X190577443Y-100270445D01*
X190604775Y-100284790D01*
X190769944Y-100325500D01*
X190940056Y-100325500D01*
X191105225Y-100284790D01*
X191199308Y-100235411D01*
X191255849Y-100205736D01*
X191255850Y-100205734D01*
X191255852Y-100205734D01*
X191383183Y-100092929D01*
X191479818Y-99952930D01*
X191540140Y-99793872D01*
X191560645Y-99625000D01*
X194199355Y-99625000D01*
X194219859Y-99793869D01*
X194219860Y-99793874D01*
X194280182Y-99952931D01*
X194335382Y-100032900D01*
X194376817Y-100092929D01*
X194452561Y-100160032D01*
X194504150Y-100205736D01*
X194627443Y-100270445D01*
X194654775Y-100284790D01*
X194819944Y-100325500D01*
X194990056Y-100325500D01*
X195155225Y-100284790D01*
X195249308Y-100235411D01*
X195305849Y-100205736D01*
X195305850Y-100205734D01*
X195305852Y-100205734D01*
X195433183Y-100092929D01*
X195529818Y-99952930D01*
X195590140Y-99793872D01*
X195610645Y-99625000D01*
X198239355Y-99625000D01*
X198259859Y-99793869D01*
X198259860Y-99793874D01*
X198320182Y-99952931D01*
X198375382Y-100032900D01*
X198416817Y-100092929D01*
X198492561Y-100160032D01*
X198544150Y-100205736D01*
X198667443Y-100270445D01*
X198694775Y-100284790D01*
X198859944Y-100325500D01*
X199030056Y-100325500D01*
X199195225Y-100284790D01*
X199289308Y-100235411D01*
X199345849Y-100205736D01*
X199345850Y-100205734D01*
X199345852Y-100205734D01*
X199473183Y-100092929D01*
X199569818Y-99952930D01*
X199630140Y-99793872D01*
X199650645Y-99625000D01*
X202279355Y-99625000D01*
X202299859Y-99793869D01*
X202299860Y-99793874D01*
X202360182Y-99952931D01*
X202415382Y-100032900D01*
X202456817Y-100092929D01*
X202532561Y-100160032D01*
X202584150Y-100205736D01*
X202707443Y-100270445D01*
X202734775Y-100284790D01*
X202899944Y-100325500D01*
X203070056Y-100325500D01*
X203235225Y-100284790D01*
X203329308Y-100235411D01*
X203385849Y-100205736D01*
X203385850Y-100205734D01*
X203385852Y-100205734D01*
X203513183Y-100092929D01*
X203609818Y-99952930D01*
X203670140Y-99793872D01*
X203690645Y-99625000D01*
X206319355Y-99625000D01*
X206339859Y-99793869D01*
X206339860Y-99793874D01*
X206400182Y-99952931D01*
X206455382Y-100032900D01*
X206496817Y-100092929D01*
X206572561Y-100160032D01*
X206624150Y-100205736D01*
X206747443Y-100270445D01*
X206774775Y-100284790D01*
X206939944Y-100325500D01*
X207110056Y-100325500D01*
X207275225Y-100284790D01*
X207369308Y-100235411D01*
X207425849Y-100205736D01*
X207425850Y-100205734D01*
X207425852Y-100205734D01*
X207553183Y-100092929D01*
X207649818Y-99952930D01*
X207710140Y-99793872D01*
X207730645Y-99625000D01*
X207710140Y-99456128D01*
X207708433Y-99451628D01*
X207649817Y-99297068D01*
X207607450Y-99235689D01*
X207585567Y-99169334D01*
X207585500Y-99165249D01*
X207585500Y-98279238D01*
X207605185Y-98212199D01*
X207607450Y-98208798D01*
X207621670Y-98188196D01*
X207659818Y-98132930D01*
X207720140Y-97973872D01*
X207740645Y-97805000D01*
X207720140Y-97636128D01*
X207718433Y-97631628D01*
X207659817Y-97477068D01*
X207625476Y-97427318D01*
X207563183Y-97337071D01*
X207435852Y-97224266D01*
X207435849Y-97224263D01*
X207285226Y-97145210D01*
X207120056Y-97104500D01*
X206949944Y-97104500D01*
X206784773Y-97145210D01*
X206634150Y-97224263D01*
X206517638Y-97327484D01*
X206511897Y-97332571D01*
X206506816Y-97337072D01*
X206410182Y-97477068D01*
X206349860Y-97636125D01*
X206349859Y-97636130D01*
X206329355Y-97804999D01*
X206349859Y-97973869D01*
X206349860Y-97973874D01*
X206410182Y-98132931D01*
X206462550Y-98208798D01*
X206484433Y-98275152D01*
X206484500Y-98279238D01*
X206484500Y-99136274D01*
X206464815Y-99203313D01*
X206462550Y-99206714D01*
X206400183Y-99297068D01*
X206400182Y-99297068D01*
X206339860Y-99456125D01*
X206339859Y-99456130D01*
X206319355Y-99625000D01*
X203690645Y-99625000D01*
X203670140Y-99456128D01*
X203668433Y-99451628D01*
X203609817Y-99297068D01*
X203567450Y-99235689D01*
X203545567Y-99169334D01*
X203545500Y-99165249D01*
X203545500Y-98279238D01*
X203565185Y-98212199D01*
X203567450Y-98208798D01*
X203581670Y-98188196D01*
X203619818Y-98132930D01*
X203680140Y-97973872D01*
X203700645Y-97805000D01*
X203680140Y-97636128D01*
X203678433Y-97631628D01*
X203619817Y-97477068D01*
X203585476Y-97427318D01*
X203523183Y-97337071D01*
X203395852Y-97224266D01*
X203395849Y-97224263D01*
X203245226Y-97145210D01*
X203080056Y-97104500D01*
X202909944Y-97104500D01*
X202744773Y-97145210D01*
X202594150Y-97224263D01*
X202477638Y-97327484D01*
X202471897Y-97332571D01*
X202466816Y-97337072D01*
X202370182Y-97477068D01*
X202309860Y-97636125D01*
X202309859Y-97636130D01*
X202289355Y-97805000D01*
X202309859Y-97973869D01*
X202309860Y-97973874D01*
X202370182Y-98132931D01*
X202422550Y-98208798D01*
X202444433Y-98275152D01*
X202444500Y-98279238D01*
X202444500Y-99136274D01*
X202424815Y-99203313D01*
X202422550Y-99206714D01*
X202360183Y-99297068D01*
X202360182Y-99297068D01*
X202299860Y-99456125D01*
X202299859Y-99456130D01*
X202279355Y-99625000D01*
X199650645Y-99625000D01*
X199630140Y-99456128D01*
X199628433Y-99451628D01*
X199569817Y-99297068D01*
X199527450Y-99235689D01*
X199505567Y-99169334D01*
X199505500Y-99165249D01*
X199505500Y-98279238D01*
X199525185Y-98212199D01*
X199527450Y-98208798D01*
X199541670Y-98188196D01*
X199579818Y-98132930D01*
X199640140Y-97973872D01*
X199660645Y-97805000D01*
X199640140Y-97636128D01*
X199638433Y-97631628D01*
X199579817Y-97477068D01*
X199545476Y-97427318D01*
X199483183Y-97337071D01*
X199355852Y-97224266D01*
X199355849Y-97224263D01*
X199205226Y-97145210D01*
X199040056Y-97104500D01*
X198869944Y-97104500D01*
X198704773Y-97145210D01*
X198554150Y-97224263D01*
X198437638Y-97327484D01*
X198431897Y-97332571D01*
X198426816Y-97337072D01*
X198330182Y-97477068D01*
X198269860Y-97636125D01*
X198269859Y-97636130D01*
X198249355Y-97805000D01*
X198269859Y-97973869D01*
X198269860Y-97973874D01*
X198330182Y-98132931D01*
X198382550Y-98208798D01*
X198404433Y-98275152D01*
X198404500Y-98279238D01*
X198404500Y-99136274D01*
X198384815Y-99203313D01*
X198382550Y-99206714D01*
X198320183Y-99297068D01*
X198320182Y-99297068D01*
X198259860Y-99456125D01*
X198259859Y-99456130D01*
X198239355Y-99625000D01*
X195610645Y-99625000D01*
X195590140Y-99456128D01*
X195588433Y-99451628D01*
X195529817Y-99297068D01*
X195487450Y-99235689D01*
X195465567Y-99169334D01*
X195465500Y-99165249D01*
X195465500Y-98279238D01*
X195485185Y-98212199D01*
X195487450Y-98208798D01*
X195501670Y-98188196D01*
X195539818Y-98132930D01*
X195600140Y-97973872D01*
X195620645Y-97805000D01*
X195600140Y-97636128D01*
X195598433Y-97631628D01*
X195539817Y-97477068D01*
X195505476Y-97427318D01*
X195443183Y-97337071D01*
X195315852Y-97224266D01*
X195315849Y-97224263D01*
X195165226Y-97145210D01*
X195000056Y-97104500D01*
X194829944Y-97104500D01*
X194664773Y-97145210D01*
X194514150Y-97224263D01*
X194397638Y-97327484D01*
X194391897Y-97332571D01*
X194386816Y-97337072D01*
X194290182Y-97477068D01*
X194229860Y-97636125D01*
X194229859Y-97636130D01*
X194209355Y-97804999D01*
X194229859Y-97973869D01*
X194229860Y-97973874D01*
X194290182Y-98132931D01*
X194342550Y-98208798D01*
X194364433Y-98275152D01*
X194364500Y-98279238D01*
X194364500Y-99136274D01*
X194344815Y-99203313D01*
X194342550Y-99206714D01*
X194280183Y-99297068D01*
X194280182Y-99297068D01*
X194219860Y-99456125D01*
X194219859Y-99456130D01*
X194199355Y-99625000D01*
X191560645Y-99625000D01*
X191540140Y-99456128D01*
X191538433Y-99451628D01*
X191479817Y-99297068D01*
X191437450Y-99235689D01*
X191415567Y-99169334D01*
X191415500Y-99165249D01*
X191415500Y-98279238D01*
X191435185Y-98212199D01*
X191437450Y-98208798D01*
X191451670Y-98188196D01*
X191489818Y-98132930D01*
X191550140Y-97973872D01*
X191570645Y-97805000D01*
X191550140Y-97636128D01*
X191548433Y-97631628D01*
X191489817Y-97477068D01*
X191455476Y-97427318D01*
X191393183Y-97337071D01*
X191265852Y-97224266D01*
X191265849Y-97224263D01*
X191115226Y-97145210D01*
X190950056Y-97104500D01*
X190779944Y-97104500D01*
X190614773Y-97145210D01*
X190464150Y-97224263D01*
X190347638Y-97327484D01*
X190341897Y-97332571D01*
X190336816Y-97337072D01*
X190240182Y-97477068D01*
X190179860Y-97636125D01*
X190179859Y-97636130D01*
X190159355Y-97805000D01*
X190179859Y-97973869D01*
X190179860Y-97973874D01*
X190240182Y-98132931D01*
X190292550Y-98208798D01*
X190314433Y-98275152D01*
X190314500Y-98279238D01*
X190314500Y-99136274D01*
X190294815Y-99203313D01*
X190292550Y-99206714D01*
X190230183Y-99297068D01*
X190230182Y-99297068D01*
X190169860Y-99456125D01*
X190169859Y-99456130D01*
X190149355Y-99625000D01*
X187520099Y-99625000D01*
X187520645Y-99620500D01*
X187500140Y-99451628D01*
X187499950Y-99451128D01*
X187454532Y-99331368D01*
X187439818Y-99292570D01*
X187439471Y-99292068D01*
X187397450Y-99231189D01*
X187375567Y-99164834D01*
X187375500Y-99160749D01*
X187375500Y-98274738D01*
X187395185Y-98207699D01*
X187397450Y-98204298D01*
X187411670Y-98183696D01*
X187449818Y-98128430D01*
X187510140Y-97969372D01*
X187530645Y-97800500D01*
X187510140Y-97631628D01*
X187509950Y-97631128D01*
X187488230Y-97573858D01*
X187449818Y-97472570D01*
X187449471Y-97472068D01*
X187415476Y-97422818D01*
X187353183Y-97332571D01*
X187258316Y-97248526D01*
X187225849Y-97219763D01*
X187075226Y-97140710D01*
X186910056Y-97100000D01*
X186739944Y-97100000D01*
X186574773Y-97140710D01*
X186424150Y-97219763D01*
X186307638Y-97322984D01*
X186297382Y-97332071D01*
X186296816Y-97332572D01*
X186200182Y-97472568D01*
X186139860Y-97631625D01*
X186139859Y-97631630D01*
X186139313Y-97636130D01*
X186119355Y-97800500D01*
X186122643Y-97827580D01*
X186139859Y-97969369D01*
X186139860Y-97969374D01*
X186200182Y-98128431D01*
X186252550Y-98204298D01*
X186274433Y-98270652D01*
X186274500Y-98274738D01*
X186274500Y-99131774D01*
X186254815Y-99198813D01*
X186252550Y-99202214D01*
X186190183Y-99292568D01*
X186190182Y-99292568D01*
X186129860Y-99451625D01*
X186129859Y-99451630D01*
X186109355Y-99620500D01*
X183475584Y-99620500D01*
X183475645Y-99620000D01*
X183455140Y-99451128D01*
X183394818Y-99292070D01*
X183352450Y-99230689D01*
X183330567Y-99164334D01*
X183330500Y-99160249D01*
X183330500Y-98274238D01*
X183350185Y-98207199D01*
X183352450Y-98203798D01*
X183366670Y-98183196D01*
X183404818Y-98127930D01*
X183465140Y-97968872D01*
X183485645Y-97800000D01*
X183465140Y-97631128D01*
X183404818Y-97472070D01*
X183308183Y-97332071D01*
X183186496Y-97224266D01*
X183180849Y-97219263D01*
X183030226Y-97140210D01*
X182865056Y-97099500D01*
X182694944Y-97099500D01*
X182529773Y-97140210D01*
X182379150Y-97219263D01*
X182251816Y-97332072D01*
X182155182Y-97472068D01*
X182094860Y-97631125D01*
X182094859Y-97631130D01*
X182074355Y-97800000D01*
X182094859Y-97968869D01*
X182094860Y-97968874D01*
X182155182Y-98127931D01*
X182207550Y-98203798D01*
X182229433Y-98270152D01*
X182229500Y-98274238D01*
X182229500Y-99131274D01*
X182209815Y-99198313D01*
X182207550Y-99201714D01*
X182145183Y-99292068D01*
X182145182Y-99292068D01*
X182084860Y-99451125D01*
X182084859Y-99451130D01*
X182064355Y-99620000D01*
X177056041Y-99620000D01*
X177055244Y-95570000D01*
X182064355Y-95570000D01*
X182084859Y-95738869D01*
X182084860Y-95738874D01*
X182145182Y-95897931D01*
X182184247Y-95954525D01*
X182241817Y-96037929D01*
X182338294Y-96123400D01*
X182369150Y-96150736D01*
X182519773Y-96229789D01*
X182519775Y-96229790D01*
X182684944Y-96270500D01*
X182855056Y-96270500D01*
X183020225Y-96229790D01*
X183161322Y-96155736D01*
X183170849Y-96150736D01*
X183170850Y-96150734D01*
X183170852Y-96150734D01*
X183298183Y-96037929D01*
X183394818Y-95897930D01*
X183455140Y-95738872D01*
X183475584Y-95570500D01*
X186109355Y-95570500D01*
X186129859Y-95739369D01*
X186129860Y-95739374D01*
X186190182Y-95898431D01*
X186228902Y-95954525D01*
X186286817Y-96038429D01*
X186382730Y-96123400D01*
X186414150Y-96151236D01*
X186519165Y-96206352D01*
X186564775Y-96230290D01*
X186729944Y-96271000D01*
X186900056Y-96271000D01*
X187065225Y-96230290D01*
X187168486Y-96176094D01*
X187215849Y-96151236D01*
X187215850Y-96151234D01*
X187215852Y-96151234D01*
X187343183Y-96038429D01*
X187439818Y-95898430D01*
X187500140Y-95739372D01*
X187520099Y-95574999D01*
X190149355Y-95574999D01*
X190169859Y-95743869D01*
X190169860Y-95743874D01*
X190230182Y-95902931D01*
X190265799Y-95954530D01*
X190326817Y-96042929D01*
X190417650Y-96123400D01*
X190454150Y-96155736D01*
X190595246Y-96229789D01*
X190604775Y-96234790D01*
X190769944Y-96275500D01*
X190940056Y-96275500D01*
X191105225Y-96234790D01*
X191217060Y-96176094D01*
X191255849Y-96155736D01*
X191255850Y-96155734D01*
X191255852Y-96155734D01*
X191383183Y-96042929D01*
X191479818Y-95902930D01*
X191540140Y-95743872D01*
X191560645Y-95575000D01*
X191560645Y-95574999D01*
X194199355Y-95574999D01*
X194219859Y-95743869D01*
X194219860Y-95743874D01*
X194280182Y-95902931D01*
X194315799Y-95954530D01*
X194376817Y-96042929D01*
X194467650Y-96123400D01*
X194504150Y-96155736D01*
X194645246Y-96229789D01*
X194654775Y-96234790D01*
X194819944Y-96275500D01*
X194990056Y-96275500D01*
X195155225Y-96234790D01*
X195267060Y-96176094D01*
X195305849Y-96155736D01*
X195305850Y-96155734D01*
X195305852Y-96155734D01*
X195433183Y-96042929D01*
X195529818Y-95902930D01*
X195590140Y-95743872D01*
X195610645Y-95575000D01*
X195610645Y-95574999D01*
X198239355Y-95574999D01*
X198259859Y-95743869D01*
X198259860Y-95743874D01*
X198320182Y-95902931D01*
X198355799Y-95954530D01*
X198416817Y-96042929D01*
X198507650Y-96123400D01*
X198544150Y-96155736D01*
X198685246Y-96229789D01*
X198694775Y-96234790D01*
X198859944Y-96275500D01*
X199030056Y-96275500D01*
X199195225Y-96234790D01*
X199307060Y-96176094D01*
X199345849Y-96155736D01*
X199345850Y-96155734D01*
X199345852Y-96155734D01*
X199473183Y-96042929D01*
X199569818Y-95902930D01*
X199630140Y-95743872D01*
X199650645Y-95575000D01*
X199650645Y-95574999D01*
X202279355Y-95574999D01*
X202299859Y-95743869D01*
X202299860Y-95743874D01*
X202360182Y-95902931D01*
X202395799Y-95954530D01*
X202456817Y-96042929D01*
X202547650Y-96123400D01*
X202584150Y-96155736D01*
X202725246Y-96229789D01*
X202734775Y-96234790D01*
X202899944Y-96275500D01*
X203070056Y-96275500D01*
X203235225Y-96234790D01*
X203347060Y-96176094D01*
X203385849Y-96155736D01*
X203385850Y-96155734D01*
X203385852Y-96155734D01*
X203513183Y-96042929D01*
X203609818Y-95902930D01*
X203670140Y-95743872D01*
X203690645Y-95575000D01*
X203690645Y-95574999D01*
X206319355Y-95574999D01*
X206339859Y-95743869D01*
X206339860Y-95743874D01*
X206400182Y-95902931D01*
X206435799Y-95954530D01*
X206496817Y-96042929D01*
X206587650Y-96123400D01*
X206624150Y-96155736D01*
X206765246Y-96229789D01*
X206774775Y-96234790D01*
X206939944Y-96275500D01*
X207110056Y-96275500D01*
X207275225Y-96234790D01*
X207387060Y-96176094D01*
X207425849Y-96155736D01*
X207425850Y-96155734D01*
X207425852Y-96155734D01*
X207553183Y-96042929D01*
X207649818Y-95902930D01*
X207710140Y-95743872D01*
X207730645Y-95575000D01*
X207710140Y-95406128D01*
X207708433Y-95401628D01*
X207649817Y-95247068D01*
X207607450Y-95185689D01*
X207585567Y-95119334D01*
X207585500Y-95115249D01*
X207585500Y-94733400D01*
X235409355Y-94733400D01*
X235429859Y-94902269D01*
X235429860Y-94902274D01*
X235490182Y-95061331D01*
X235570757Y-95178062D01*
X235582443Y-95199105D01*
X235587081Y-95209784D01*
X235593819Y-95229820D01*
X235598067Y-95247252D01*
X235619763Y-95285839D01*
X235622582Y-95291515D01*
X235640220Y-95332120D01*
X235640221Y-95332122D01*
X235651541Y-95346036D01*
X235663439Y-95363517D01*
X235672234Y-95379160D01*
X235672236Y-95379161D01*
X235703532Y-95410457D01*
X235707783Y-95415166D01*
X235735722Y-95449508D01*
X235750381Y-95459855D01*
X235766552Y-95473477D01*
X236469169Y-96176094D01*
X236502654Y-96237417D01*
X236504584Y-96248826D01*
X236509859Y-96292271D01*
X236509860Y-96292275D01*
X236570182Y-96451330D01*
X236570182Y-96451331D01*
X236632475Y-96541577D01*
X236666817Y-96591329D01*
X236772505Y-96684960D01*
X236794150Y-96704136D01*
X236944773Y-96783189D01*
X236944775Y-96783190D01*
X237109944Y-96823900D01*
X237280056Y-96823900D01*
X237445225Y-96783190D01*
X237524692Y-96741481D01*
X237595849Y-96704136D01*
X237595850Y-96704134D01*
X237595852Y-96704134D01*
X237723183Y-96591329D01*
X237819818Y-96451330D01*
X237880140Y-96292272D01*
X237900645Y-96123400D01*
X237880140Y-95954528D01*
X237819818Y-95795470D01*
X237723183Y-95655471D01*
X237595852Y-95542666D01*
X237595849Y-95542663D01*
X237445226Y-95463610D01*
X237304287Y-95428872D01*
X237246281Y-95396156D01*
X236837663Y-94987538D01*
X236804178Y-94926215D01*
X236802248Y-94884910D01*
X236820645Y-94733400D01*
X236800140Y-94564528D01*
X236739818Y-94405470D01*
X236643183Y-94265471D01*
X236520969Y-94157199D01*
X236515849Y-94152663D01*
X236365226Y-94073610D01*
X236200056Y-94032900D01*
X236029944Y-94032900D01*
X235864773Y-94073610D01*
X235714150Y-94152663D01*
X235586816Y-94265472D01*
X235490182Y-94405468D01*
X235429860Y-94564525D01*
X235429859Y-94564530D01*
X235409355Y-94733400D01*
X207585500Y-94733400D01*
X207585500Y-94229238D01*
X207605185Y-94162199D01*
X207607450Y-94158798D01*
X207621670Y-94138196D01*
X207659818Y-94082930D01*
X207720140Y-93923872D01*
X207740645Y-93755000D01*
X207720140Y-93586128D01*
X207718433Y-93581628D01*
X207659817Y-93427068D01*
X207625476Y-93377318D01*
X207563183Y-93287071D01*
X207435852Y-93174266D01*
X207435849Y-93174263D01*
X207285226Y-93095210D01*
X207120056Y-93054500D01*
X206949944Y-93054500D01*
X206784773Y-93095210D01*
X206634150Y-93174263D01*
X206517638Y-93277484D01*
X206511897Y-93282571D01*
X206506816Y-93287072D01*
X206410182Y-93427068D01*
X206349860Y-93586125D01*
X206349859Y-93586130D01*
X206329355Y-93754999D01*
X206349859Y-93923869D01*
X206349860Y-93923874D01*
X206410182Y-94082931D01*
X206462550Y-94158798D01*
X206484433Y-94225152D01*
X206484500Y-94229238D01*
X206484500Y-95086274D01*
X206464815Y-95153313D01*
X206462550Y-95156714D01*
X206400183Y-95247068D01*
X206400182Y-95247068D01*
X206339860Y-95406125D01*
X206339859Y-95406130D01*
X206319355Y-95574999D01*
X203690645Y-95574999D01*
X203670140Y-95406128D01*
X203668433Y-95401628D01*
X203609817Y-95247068D01*
X203567450Y-95185689D01*
X203545567Y-95119334D01*
X203545500Y-95115249D01*
X203545500Y-94229238D01*
X203565185Y-94162199D01*
X203567450Y-94158798D01*
X203581670Y-94138196D01*
X203619818Y-94082930D01*
X203680140Y-93923872D01*
X203700645Y-93755000D01*
X203680140Y-93586128D01*
X203678433Y-93581628D01*
X203619817Y-93427068D01*
X203585476Y-93377318D01*
X203523183Y-93287071D01*
X203395852Y-93174266D01*
X203395849Y-93174263D01*
X203245226Y-93095210D01*
X203080056Y-93054500D01*
X202909944Y-93054500D01*
X202744773Y-93095210D01*
X202594150Y-93174263D01*
X202477638Y-93277484D01*
X202471897Y-93282571D01*
X202466816Y-93287072D01*
X202370182Y-93427068D01*
X202309860Y-93586125D01*
X202309859Y-93586130D01*
X202289355Y-93755000D01*
X202309859Y-93923869D01*
X202309860Y-93923874D01*
X202370182Y-94082931D01*
X202422550Y-94158798D01*
X202444433Y-94225152D01*
X202444500Y-94229238D01*
X202444500Y-95086274D01*
X202424815Y-95153313D01*
X202422550Y-95156714D01*
X202360183Y-95247068D01*
X202360182Y-95247068D01*
X202299860Y-95406125D01*
X202299859Y-95406130D01*
X202279355Y-95574999D01*
X199650645Y-95574999D01*
X199630140Y-95406128D01*
X199628433Y-95401628D01*
X199569817Y-95247068D01*
X199527450Y-95185689D01*
X199505567Y-95119334D01*
X199505500Y-95115249D01*
X199505500Y-94229238D01*
X199525185Y-94162199D01*
X199527450Y-94158798D01*
X199541670Y-94138196D01*
X199579818Y-94082930D01*
X199640140Y-93923872D01*
X199660645Y-93755000D01*
X199640140Y-93586128D01*
X199638433Y-93581628D01*
X199579817Y-93427068D01*
X199545476Y-93377318D01*
X199483183Y-93287071D01*
X199355852Y-93174266D01*
X199355849Y-93174263D01*
X199205226Y-93095210D01*
X199040056Y-93054500D01*
X198869944Y-93054500D01*
X198704773Y-93095210D01*
X198554150Y-93174263D01*
X198437638Y-93277484D01*
X198431897Y-93282571D01*
X198426816Y-93287072D01*
X198330182Y-93427068D01*
X198269860Y-93586125D01*
X198269859Y-93586130D01*
X198249355Y-93755000D01*
X198269859Y-93923869D01*
X198269860Y-93923874D01*
X198330182Y-94082931D01*
X198382550Y-94158798D01*
X198404433Y-94225152D01*
X198404500Y-94229238D01*
X198404500Y-95086274D01*
X198384815Y-95153313D01*
X198382550Y-95156714D01*
X198320183Y-95247068D01*
X198320182Y-95247068D01*
X198259860Y-95406125D01*
X198259859Y-95406130D01*
X198239355Y-95574999D01*
X195610645Y-95574999D01*
X195590140Y-95406128D01*
X195588433Y-95401628D01*
X195529817Y-95247068D01*
X195487450Y-95185689D01*
X195465567Y-95119334D01*
X195465500Y-95115249D01*
X195465500Y-94229238D01*
X195485185Y-94162199D01*
X195487450Y-94158798D01*
X195501670Y-94138196D01*
X195539818Y-94082930D01*
X195600140Y-93923872D01*
X195620645Y-93755000D01*
X195600140Y-93586128D01*
X195598433Y-93581628D01*
X195539817Y-93427068D01*
X195505476Y-93377318D01*
X195443183Y-93287071D01*
X195315852Y-93174266D01*
X195315849Y-93174263D01*
X195165226Y-93095210D01*
X195000056Y-93054500D01*
X194829944Y-93054500D01*
X194664773Y-93095210D01*
X194514150Y-93174263D01*
X194397638Y-93277484D01*
X194391897Y-93282571D01*
X194386816Y-93287072D01*
X194290182Y-93427068D01*
X194229860Y-93586125D01*
X194229859Y-93586130D01*
X194209355Y-93755000D01*
X194229859Y-93923869D01*
X194229860Y-93923874D01*
X194290182Y-94082931D01*
X194342550Y-94158798D01*
X194364433Y-94225152D01*
X194364500Y-94229238D01*
X194364500Y-95086274D01*
X194344815Y-95153313D01*
X194342550Y-95156714D01*
X194280183Y-95247068D01*
X194280182Y-95247068D01*
X194219860Y-95406125D01*
X194219859Y-95406130D01*
X194199355Y-95574999D01*
X191560645Y-95574999D01*
X191540140Y-95406128D01*
X191538433Y-95401628D01*
X191479817Y-95247068D01*
X191437450Y-95185689D01*
X191415567Y-95119334D01*
X191415500Y-95115249D01*
X191415500Y-94229238D01*
X191435185Y-94162199D01*
X191437450Y-94158798D01*
X191451670Y-94138196D01*
X191489818Y-94082930D01*
X191550140Y-93923872D01*
X191570645Y-93755000D01*
X191550140Y-93586128D01*
X191548433Y-93581628D01*
X191489817Y-93427068D01*
X191455476Y-93377318D01*
X191393183Y-93287071D01*
X191265852Y-93174266D01*
X191265849Y-93174263D01*
X191115226Y-93095210D01*
X190950056Y-93054500D01*
X190779944Y-93054500D01*
X190614773Y-93095210D01*
X190464150Y-93174263D01*
X190347638Y-93277484D01*
X190341897Y-93282571D01*
X190336816Y-93287072D01*
X190240182Y-93427068D01*
X190179860Y-93586125D01*
X190179859Y-93586130D01*
X190159355Y-93755000D01*
X190179859Y-93923869D01*
X190179860Y-93923874D01*
X190240182Y-94082931D01*
X190292550Y-94158798D01*
X190314433Y-94225152D01*
X190314500Y-94229238D01*
X190314500Y-95086274D01*
X190294815Y-95153313D01*
X190292550Y-95156714D01*
X190230183Y-95247068D01*
X190230182Y-95247068D01*
X190169860Y-95406125D01*
X190169859Y-95406130D01*
X190149355Y-95574999D01*
X187520099Y-95574999D01*
X187520645Y-95570500D01*
X187500140Y-95401628D01*
X187499950Y-95401128D01*
X187458385Y-95291527D01*
X187439818Y-95242570D01*
X187439471Y-95242068D01*
X187397450Y-95181189D01*
X187375567Y-95114834D01*
X187375500Y-95110749D01*
X187375500Y-94224738D01*
X187395185Y-94157699D01*
X187397450Y-94154298D01*
X187411670Y-94133696D01*
X187449818Y-94078430D01*
X187510140Y-93919372D01*
X187530645Y-93750500D01*
X187510140Y-93581628D01*
X187509950Y-93581128D01*
X187488231Y-93523858D01*
X187449818Y-93422570D01*
X187449471Y-93422068D01*
X187415476Y-93372818D01*
X187353183Y-93282571D01*
X187258316Y-93198526D01*
X187225849Y-93169763D01*
X187075226Y-93090710D01*
X186910056Y-93050000D01*
X186739944Y-93050000D01*
X186574773Y-93090710D01*
X186424150Y-93169763D01*
X186307638Y-93272984D01*
X186297382Y-93282071D01*
X186296816Y-93282572D01*
X186200182Y-93422568D01*
X186139860Y-93581625D01*
X186139859Y-93581630D01*
X186139313Y-93586130D01*
X186119355Y-93750500D01*
X186122643Y-93777580D01*
X186139859Y-93919369D01*
X186139860Y-93919374D01*
X186200182Y-94078431D01*
X186252550Y-94154298D01*
X186274433Y-94220652D01*
X186274500Y-94224738D01*
X186274500Y-95081774D01*
X186254815Y-95148813D01*
X186252550Y-95152214D01*
X186190183Y-95242568D01*
X186190182Y-95242568D01*
X186129860Y-95401625D01*
X186129859Y-95401630D01*
X186109355Y-95570500D01*
X183475584Y-95570500D01*
X183475645Y-95570000D01*
X183455140Y-95401128D01*
X183453254Y-95396156D01*
X183396713Y-95247068D01*
X183394818Y-95242070D01*
X183386362Y-95229820D01*
X183352450Y-95180689D01*
X183330567Y-95114334D01*
X183330500Y-95110249D01*
X183330500Y-94224238D01*
X183350185Y-94157199D01*
X183352450Y-94153798D01*
X183366670Y-94133196D01*
X183404818Y-94077930D01*
X183465140Y-93918872D01*
X183485645Y-93750000D01*
X183465140Y-93581128D01*
X183404818Y-93422070D01*
X183308183Y-93282071D01*
X183186496Y-93174266D01*
X183180849Y-93169263D01*
X183030226Y-93090210D01*
X182865056Y-93049500D01*
X182694944Y-93049500D01*
X182529773Y-93090210D01*
X182379150Y-93169263D01*
X182251816Y-93282072D01*
X182155182Y-93422068D01*
X182094860Y-93581125D01*
X182094859Y-93581130D01*
X182074355Y-93749999D01*
X182094859Y-93918869D01*
X182094860Y-93918874D01*
X182155182Y-94077931D01*
X182207550Y-94153798D01*
X182229433Y-94220152D01*
X182229500Y-94224238D01*
X182229500Y-95081274D01*
X182209815Y-95148313D01*
X182207550Y-95151714D01*
X182145183Y-95242068D01*
X182145182Y-95242068D01*
X182084860Y-95401125D01*
X182084859Y-95401130D01*
X182064355Y-95570000D01*
X177055244Y-95570000D01*
X177054447Y-91520000D01*
X182064355Y-91520000D01*
X182084859Y-91688869D01*
X182084860Y-91688874D01*
X182145182Y-91847931D01*
X182207475Y-91938177D01*
X182241817Y-91987929D01*
X182347505Y-92081560D01*
X182369150Y-92100736D01*
X182519773Y-92179789D01*
X182519775Y-92179790D01*
X182684944Y-92220500D01*
X182855056Y-92220500D01*
X183020225Y-92179790D01*
X183161322Y-92105736D01*
X183170849Y-92100736D01*
X183170850Y-92100734D01*
X183170852Y-92100734D01*
X183298183Y-91987929D01*
X183394818Y-91847930D01*
X183455140Y-91688872D01*
X183475584Y-91520500D01*
X186109355Y-91520500D01*
X186112643Y-91547580D01*
X186129859Y-91689369D01*
X186129860Y-91689374D01*
X186190182Y-91848431D01*
X186252475Y-91938677D01*
X186286817Y-91988429D01*
X186392505Y-92082060D01*
X186414150Y-92101236D01*
X186563820Y-92179789D01*
X186564775Y-92180290D01*
X186729944Y-92221000D01*
X186900056Y-92221000D01*
X187065225Y-92180290D01*
X187144692Y-92138581D01*
X187215849Y-92101236D01*
X187215850Y-92101234D01*
X187215852Y-92101234D01*
X187343183Y-91988429D01*
X187439818Y-91848430D01*
X187500140Y-91689372D01*
X187520099Y-91524999D01*
X190149355Y-91524999D01*
X190169859Y-91693869D01*
X190169860Y-91693874D01*
X190230182Y-91852931D01*
X190259095Y-91894818D01*
X190326817Y-91992929D01*
X190432505Y-92086560D01*
X190454150Y-92105736D01*
X190595246Y-92179789D01*
X190604775Y-92184790D01*
X190769944Y-92225500D01*
X190940056Y-92225500D01*
X191105225Y-92184790D01*
X191184692Y-92143081D01*
X191255849Y-92105736D01*
X191255850Y-92105734D01*
X191255852Y-92105734D01*
X191383183Y-91992929D01*
X191479818Y-91852930D01*
X191540140Y-91693872D01*
X191560645Y-91525000D01*
X194199355Y-91525000D01*
X194219859Y-91693869D01*
X194219860Y-91693874D01*
X194280182Y-91852931D01*
X194309095Y-91894818D01*
X194376817Y-91992929D01*
X194482505Y-92086560D01*
X194504150Y-92105736D01*
X194645246Y-92179789D01*
X194654775Y-92184790D01*
X194819944Y-92225500D01*
X194990056Y-92225500D01*
X195155225Y-92184790D01*
X195234692Y-92143081D01*
X195305849Y-92105736D01*
X195305850Y-92105734D01*
X195305852Y-92105734D01*
X195433183Y-91992929D01*
X195529818Y-91852930D01*
X195590140Y-91693872D01*
X195610645Y-91525000D01*
X195610645Y-91524999D01*
X198239355Y-91524999D01*
X198259859Y-91693869D01*
X198259860Y-91693874D01*
X198320182Y-91852931D01*
X198349095Y-91894818D01*
X198416817Y-91992929D01*
X198522505Y-92086560D01*
X198544150Y-92105736D01*
X198685246Y-92179789D01*
X198694775Y-92184790D01*
X198859944Y-92225500D01*
X199030056Y-92225500D01*
X199195225Y-92184790D01*
X199274692Y-92143081D01*
X199345849Y-92105736D01*
X199345850Y-92105734D01*
X199345852Y-92105734D01*
X199473183Y-91992929D01*
X199569818Y-91852930D01*
X199630140Y-91693872D01*
X199650645Y-91525000D01*
X199650645Y-91524999D01*
X202279355Y-91524999D01*
X202299859Y-91693869D01*
X202299860Y-91693874D01*
X202360182Y-91852931D01*
X202389095Y-91894818D01*
X202456817Y-91992929D01*
X202562505Y-92086560D01*
X202584150Y-92105736D01*
X202725246Y-92179789D01*
X202734775Y-92184790D01*
X202899944Y-92225500D01*
X203070056Y-92225500D01*
X203235225Y-92184790D01*
X203314692Y-92143081D01*
X203385849Y-92105736D01*
X203385850Y-92105734D01*
X203385852Y-92105734D01*
X203513183Y-91992929D01*
X203609818Y-91852930D01*
X203670140Y-91693872D01*
X203690645Y-91525000D01*
X203690645Y-91524999D01*
X206319355Y-91524999D01*
X206339859Y-91693869D01*
X206339860Y-91693874D01*
X206400182Y-91852931D01*
X206429095Y-91894818D01*
X206496817Y-91992929D01*
X206602505Y-92086560D01*
X206624150Y-92105736D01*
X206765246Y-92179789D01*
X206774775Y-92184790D01*
X206939944Y-92225500D01*
X207110056Y-92225500D01*
X207275225Y-92184790D01*
X207354692Y-92143081D01*
X207425849Y-92105736D01*
X207425850Y-92105734D01*
X207425852Y-92105734D01*
X207553183Y-91992929D01*
X207649818Y-91852930D01*
X207710140Y-91693872D01*
X207730645Y-91525000D01*
X207710140Y-91356128D01*
X207709733Y-91355056D01*
X262779500Y-91355056D01*
X262779764Y-91356128D01*
X262820210Y-91520226D01*
X262899263Y-91670849D01*
X262915673Y-91689372D01*
X263012071Y-91798183D01*
X263084143Y-91847931D01*
X263152068Y-91894817D01*
X263152069Y-91894817D01*
X263152070Y-91894818D01*
X263311128Y-91955140D01*
X263387028Y-91964356D01*
X263437626Y-91970500D01*
X263437628Y-91970500D01*
X263522374Y-91970500D01*
X263564538Y-91965380D01*
X263648872Y-91955140D01*
X263807930Y-91894818D01*
X263947929Y-91798183D01*
X264060734Y-91670852D01*
X264139790Y-91520225D01*
X264180500Y-91355056D01*
X264180500Y-91184944D01*
X264139790Y-91019775D01*
X264139789Y-91019773D01*
X264060736Y-90869150D01*
X264041560Y-90847505D01*
X263947929Y-90741817D01*
X263898177Y-90707475D01*
X263807931Y-90645182D01*
X263648874Y-90584860D01*
X263648868Y-90584859D01*
X263522374Y-90569500D01*
X263522372Y-90569500D01*
X263437628Y-90569500D01*
X263437626Y-90569500D01*
X263311131Y-90584859D01*
X263311125Y-90584860D01*
X263152068Y-90645182D01*
X263012072Y-90741816D01*
X262899263Y-90869150D01*
X262820210Y-91019773D01*
X262792872Y-91130689D01*
X262779500Y-91184944D01*
X262779500Y-91355056D01*
X207709733Y-91355056D01*
X207649817Y-91197068D01*
X207607450Y-91135689D01*
X207585567Y-91069334D01*
X207585500Y-91065249D01*
X207585500Y-90179238D01*
X207605185Y-90112199D01*
X207607450Y-90108798D01*
X207621670Y-90088196D01*
X207659818Y-90032930D01*
X207720140Y-89873872D01*
X207740645Y-89705000D01*
X207720140Y-89536128D01*
X207718433Y-89531628D01*
X207659817Y-89377068D01*
X207625476Y-89327318D01*
X207563183Y-89237071D01*
X207435852Y-89124266D01*
X207435849Y-89124263D01*
X207285226Y-89045210D01*
X207120056Y-89004500D01*
X206949944Y-89004500D01*
X206784773Y-89045210D01*
X206634150Y-89124263D01*
X206517638Y-89227484D01*
X206511897Y-89232571D01*
X206506816Y-89237072D01*
X206410182Y-89377068D01*
X206349860Y-89536125D01*
X206349859Y-89536130D01*
X206329355Y-89705000D01*
X206349859Y-89873869D01*
X206349860Y-89873874D01*
X206410182Y-90032931D01*
X206462550Y-90108798D01*
X206484433Y-90175152D01*
X206484500Y-90179238D01*
X206484500Y-91036274D01*
X206464815Y-91103313D01*
X206462550Y-91106714D01*
X206400183Y-91197068D01*
X206400182Y-91197068D01*
X206339860Y-91356125D01*
X206339859Y-91356130D01*
X206319355Y-91524999D01*
X203690645Y-91524999D01*
X203670140Y-91356128D01*
X203669733Y-91355056D01*
X203609817Y-91197068D01*
X203567450Y-91135689D01*
X203545567Y-91069334D01*
X203545500Y-91065249D01*
X203545500Y-90179238D01*
X203565185Y-90112199D01*
X203567450Y-90108798D01*
X203581670Y-90088196D01*
X203619818Y-90032930D01*
X203680140Y-89873872D01*
X203700645Y-89705000D01*
X203680140Y-89536128D01*
X203678433Y-89531628D01*
X203619817Y-89377068D01*
X203585476Y-89327318D01*
X203523183Y-89237071D01*
X203395852Y-89124266D01*
X203395849Y-89124263D01*
X203245226Y-89045210D01*
X203080056Y-89004500D01*
X202909944Y-89004500D01*
X202744773Y-89045210D01*
X202594150Y-89124263D01*
X202477638Y-89227484D01*
X202471897Y-89232571D01*
X202466816Y-89237072D01*
X202370182Y-89377068D01*
X202309860Y-89536125D01*
X202309859Y-89536130D01*
X202289355Y-89705000D01*
X202309859Y-89873869D01*
X202309860Y-89873874D01*
X202370182Y-90032931D01*
X202422550Y-90108798D01*
X202444433Y-90175152D01*
X202444500Y-90179238D01*
X202444500Y-91036274D01*
X202424815Y-91103313D01*
X202422550Y-91106714D01*
X202360183Y-91197068D01*
X202360182Y-91197068D01*
X202299860Y-91356125D01*
X202299859Y-91356130D01*
X202279355Y-91524999D01*
X199650645Y-91524999D01*
X199630140Y-91356128D01*
X199629733Y-91355056D01*
X199569817Y-91197068D01*
X199527450Y-91135689D01*
X199505567Y-91069334D01*
X199505500Y-91065249D01*
X199505500Y-90179238D01*
X199525185Y-90112199D01*
X199527450Y-90108798D01*
X199541670Y-90088196D01*
X199579818Y-90032930D01*
X199640140Y-89873872D01*
X199660645Y-89705000D01*
X199640140Y-89536128D01*
X199638433Y-89531628D01*
X199579817Y-89377068D01*
X199545476Y-89327318D01*
X199483183Y-89237071D01*
X199355852Y-89124266D01*
X199355849Y-89124263D01*
X199205226Y-89045210D01*
X199040056Y-89004500D01*
X198869944Y-89004500D01*
X198704773Y-89045210D01*
X198554150Y-89124263D01*
X198437638Y-89227484D01*
X198431897Y-89232571D01*
X198426816Y-89237072D01*
X198330182Y-89377068D01*
X198269860Y-89536125D01*
X198269859Y-89536130D01*
X198249355Y-89705000D01*
X198269859Y-89873869D01*
X198269860Y-89873874D01*
X198330182Y-90032931D01*
X198382550Y-90108798D01*
X198404433Y-90175152D01*
X198404500Y-90179238D01*
X198404500Y-91036274D01*
X198384815Y-91103313D01*
X198382550Y-91106714D01*
X198320183Y-91197068D01*
X198320182Y-91197068D01*
X198259860Y-91356125D01*
X198259859Y-91356130D01*
X198239355Y-91524999D01*
X195610645Y-91524999D01*
X195590140Y-91356128D01*
X195589733Y-91355056D01*
X195529817Y-91197068D01*
X195487450Y-91135689D01*
X195465567Y-91069334D01*
X195465500Y-91065249D01*
X195465500Y-90179238D01*
X195485185Y-90112199D01*
X195487450Y-90108798D01*
X195501670Y-90088196D01*
X195539818Y-90032930D01*
X195600140Y-89873872D01*
X195620645Y-89705000D01*
X195600140Y-89536128D01*
X195598433Y-89531628D01*
X195539817Y-89377068D01*
X195505476Y-89327318D01*
X195443183Y-89237071D01*
X195315852Y-89124266D01*
X195315849Y-89124263D01*
X195165226Y-89045210D01*
X195000056Y-89004500D01*
X194829944Y-89004500D01*
X194664773Y-89045210D01*
X194514150Y-89124263D01*
X194397638Y-89227484D01*
X194391897Y-89232571D01*
X194386816Y-89237072D01*
X194290182Y-89377068D01*
X194229860Y-89536125D01*
X194229859Y-89536130D01*
X194209355Y-89705000D01*
X194229859Y-89873869D01*
X194229860Y-89873874D01*
X194290182Y-90032931D01*
X194342550Y-90108798D01*
X194364433Y-90175152D01*
X194364500Y-90179238D01*
X194364500Y-91036274D01*
X194344815Y-91103313D01*
X194342550Y-91106714D01*
X194280183Y-91197068D01*
X194280182Y-91197068D01*
X194219860Y-91356125D01*
X194219859Y-91356130D01*
X194199355Y-91525000D01*
X191560645Y-91525000D01*
X191540140Y-91356128D01*
X191539733Y-91355056D01*
X191479817Y-91197068D01*
X191437450Y-91135689D01*
X191415567Y-91069334D01*
X191415500Y-91065249D01*
X191415500Y-90179238D01*
X191435185Y-90112199D01*
X191437450Y-90108798D01*
X191451670Y-90088196D01*
X191489818Y-90032930D01*
X191550140Y-89873872D01*
X191570645Y-89705000D01*
X191550140Y-89536128D01*
X191548433Y-89531628D01*
X191489817Y-89377068D01*
X191455476Y-89327318D01*
X191393183Y-89237071D01*
X191265852Y-89124266D01*
X191265849Y-89124263D01*
X191115226Y-89045210D01*
X190950056Y-89004500D01*
X190779944Y-89004500D01*
X190614773Y-89045210D01*
X190464150Y-89124263D01*
X190347638Y-89227484D01*
X190341897Y-89232571D01*
X190336816Y-89237072D01*
X190240182Y-89377068D01*
X190179860Y-89536125D01*
X190179859Y-89536130D01*
X190159355Y-89705000D01*
X190179859Y-89873869D01*
X190179860Y-89873874D01*
X190240182Y-90032931D01*
X190292550Y-90108798D01*
X190314433Y-90175152D01*
X190314500Y-90179238D01*
X190314500Y-91036274D01*
X190294815Y-91103313D01*
X190292550Y-91106714D01*
X190230183Y-91197068D01*
X190230182Y-91197068D01*
X190169860Y-91356125D01*
X190169859Y-91356130D01*
X190149355Y-91524999D01*
X187520099Y-91524999D01*
X187520645Y-91520500D01*
X187500140Y-91351628D01*
X187499950Y-91351128D01*
X187478230Y-91293857D01*
X187439818Y-91192570D01*
X187439471Y-91192068D01*
X187397450Y-91131189D01*
X187375567Y-91064834D01*
X187375500Y-91060749D01*
X187375500Y-90174738D01*
X187395185Y-90107699D01*
X187397450Y-90104298D01*
X187411670Y-90083696D01*
X187449818Y-90028430D01*
X187510140Y-89869372D01*
X187530645Y-89700500D01*
X187510140Y-89531628D01*
X187509950Y-89531128D01*
X187488230Y-89473858D01*
X187449818Y-89372570D01*
X187449471Y-89372068D01*
X187415476Y-89322818D01*
X187353183Y-89232571D01*
X187258316Y-89148526D01*
X187225849Y-89119763D01*
X187075226Y-89040710D01*
X186910056Y-89000000D01*
X186739944Y-89000000D01*
X186574773Y-89040710D01*
X186424150Y-89119763D01*
X186307638Y-89222984D01*
X186297382Y-89232071D01*
X186296816Y-89232572D01*
X186200182Y-89372568D01*
X186139860Y-89531625D01*
X186139859Y-89531630D01*
X186119355Y-89700500D01*
X186139859Y-89869369D01*
X186139860Y-89869374D01*
X186200182Y-90028431D01*
X186252550Y-90104298D01*
X186274433Y-90170652D01*
X186274500Y-90174738D01*
X186274500Y-91031774D01*
X186254815Y-91098813D01*
X186252550Y-91102214D01*
X186190183Y-91192568D01*
X186190182Y-91192568D01*
X186129860Y-91351625D01*
X186129859Y-91351630D01*
X186129313Y-91356130D01*
X186109355Y-91520500D01*
X183475584Y-91520500D01*
X183475645Y-91520000D01*
X183455140Y-91351128D01*
X183394818Y-91192070D01*
X183389899Y-91184944D01*
X183352450Y-91130689D01*
X183330567Y-91064334D01*
X183330500Y-91060249D01*
X183330500Y-90174238D01*
X183350185Y-90107199D01*
X183352450Y-90103798D01*
X183366670Y-90083196D01*
X183404818Y-90027930D01*
X183465140Y-89868872D01*
X183485645Y-89700000D01*
X183465140Y-89531128D01*
X183404818Y-89372070D01*
X183308183Y-89232071D01*
X183186496Y-89124266D01*
X183180849Y-89119263D01*
X183030226Y-89040210D01*
X182865056Y-88999500D01*
X182694944Y-88999500D01*
X182529773Y-89040210D01*
X182379150Y-89119263D01*
X182251816Y-89232072D01*
X182155182Y-89372068D01*
X182094860Y-89531125D01*
X182094859Y-89531130D01*
X182074355Y-89699999D01*
X182094859Y-89868869D01*
X182094860Y-89868874D01*
X182155182Y-90027931D01*
X182207550Y-90103798D01*
X182229433Y-90170152D01*
X182229500Y-90174238D01*
X182229500Y-91031274D01*
X182209815Y-91098313D01*
X182207550Y-91101714D01*
X182145183Y-91192068D01*
X182145182Y-91192068D01*
X182084860Y-91351125D01*
X182084859Y-91351130D01*
X182064355Y-91520000D01*
X177054447Y-91520000D01*
X177053824Y-88355055D01*
X262779500Y-88355055D01*
X262820210Y-88520226D01*
X262899263Y-88670849D01*
X262899266Y-88670852D01*
X263012071Y-88798183D01*
X263102318Y-88860476D01*
X263152068Y-88894817D01*
X263152069Y-88894817D01*
X263152070Y-88894818D01*
X263311128Y-88955140D01*
X263387028Y-88964356D01*
X263437626Y-88970500D01*
X263437628Y-88970500D01*
X263522374Y-88970500D01*
X263564538Y-88965380D01*
X263648872Y-88955140D01*
X263807930Y-88894818D01*
X263947929Y-88798183D01*
X264060734Y-88670852D01*
X264139790Y-88520225D01*
X264180500Y-88355056D01*
X264180500Y-88184944D01*
X264139790Y-88019775D01*
X264098932Y-87941927D01*
X264060736Y-87869150D01*
X263997641Y-87797931D01*
X263947929Y-87741817D01*
X263898177Y-87707475D01*
X263807931Y-87645182D01*
X263648874Y-87584860D01*
X263648868Y-87584859D01*
X263522374Y-87569500D01*
X263522372Y-87569500D01*
X263437628Y-87569500D01*
X263437626Y-87569500D01*
X263311131Y-87584859D01*
X263311125Y-87584860D01*
X263152068Y-87645182D01*
X263012072Y-87741816D01*
X262899263Y-87869150D01*
X262820210Y-88019773D01*
X262779500Y-88184944D01*
X262779500Y-88355055D01*
X177053824Y-88355055D01*
X177053650Y-87469999D01*
X182064355Y-87469999D01*
X182084859Y-87638869D01*
X182084860Y-87638874D01*
X182145182Y-87797931D01*
X182194342Y-87869150D01*
X182241817Y-87937929D01*
X182347505Y-88031560D01*
X182369150Y-88050736D01*
X182518820Y-88129289D01*
X182519775Y-88129790D01*
X182684944Y-88170500D01*
X182855056Y-88170500D01*
X183020225Y-88129790D01*
X183099692Y-88088081D01*
X183170849Y-88050736D01*
X183170850Y-88050734D01*
X183170852Y-88050734D01*
X183298183Y-87937929D01*
X183394818Y-87797930D01*
X183455140Y-87638872D01*
X183475645Y-87470000D01*
X183475584Y-87469500D01*
X186104355Y-87469500D01*
X186124859Y-87638369D01*
X186124860Y-87638374D01*
X186185182Y-87797431D01*
X186234686Y-87869148D01*
X186281817Y-87937429D01*
X186374765Y-88019773D01*
X186409150Y-88050236D01*
X186559773Y-88129289D01*
X186559775Y-88129290D01*
X186724944Y-88170000D01*
X186895056Y-88170000D01*
X187060225Y-88129290D01*
X187139692Y-88087581D01*
X187210849Y-88050236D01*
X187210850Y-88050234D01*
X187210852Y-88050234D01*
X187338183Y-87937429D01*
X187434818Y-87797430D01*
X187495140Y-87638372D01*
X187515099Y-87474000D01*
X190144355Y-87474000D01*
X190164859Y-87642869D01*
X190164860Y-87642874D01*
X190225182Y-87801931D01*
X190271581Y-87869150D01*
X190321817Y-87941929D01*
X190427505Y-88035560D01*
X190449150Y-88054736D01*
X190591199Y-88129289D01*
X190599775Y-88133790D01*
X190764944Y-88174500D01*
X190935056Y-88174500D01*
X191100225Y-88133790D01*
X191179692Y-88092081D01*
X191250849Y-88054736D01*
X191250850Y-88054734D01*
X191250852Y-88054734D01*
X191378183Y-87941929D01*
X191474818Y-87801930D01*
X191535140Y-87642872D01*
X191555645Y-87474000D01*
X191555645Y-87473999D01*
X194194355Y-87473999D01*
X194214859Y-87642869D01*
X194214860Y-87642874D01*
X194275182Y-87801931D01*
X194321581Y-87869150D01*
X194371817Y-87941929D01*
X194477505Y-88035560D01*
X194499150Y-88054736D01*
X194641199Y-88129289D01*
X194649775Y-88133790D01*
X194814944Y-88174500D01*
X194985056Y-88174500D01*
X195150225Y-88133790D01*
X195229692Y-88092081D01*
X195300849Y-88054736D01*
X195300850Y-88054734D01*
X195300852Y-88054734D01*
X195428183Y-87941929D01*
X195524818Y-87801930D01*
X195585140Y-87642872D01*
X195605645Y-87474000D01*
X198234355Y-87474000D01*
X198254859Y-87642869D01*
X198254860Y-87642874D01*
X198315182Y-87801931D01*
X198361581Y-87869150D01*
X198411817Y-87941929D01*
X198517505Y-88035560D01*
X198539150Y-88054736D01*
X198681199Y-88129289D01*
X198689775Y-88133790D01*
X198854944Y-88174500D01*
X199025056Y-88174500D01*
X199190225Y-88133790D01*
X199269692Y-88092081D01*
X199340849Y-88054736D01*
X199340850Y-88054734D01*
X199340852Y-88054734D01*
X199468183Y-87941929D01*
X199564818Y-87801930D01*
X199625140Y-87642872D01*
X199645645Y-87474000D01*
X199645645Y-87473999D01*
X202274355Y-87473999D01*
X202294859Y-87642869D01*
X202294860Y-87642874D01*
X202355182Y-87801931D01*
X202401581Y-87869150D01*
X202451817Y-87941929D01*
X202557505Y-88035560D01*
X202579150Y-88054736D01*
X202721199Y-88129289D01*
X202729775Y-88133790D01*
X202894944Y-88174500D01*
X203065056Y-88174500D01*
X203230225Y-88133790D01*
X203309692Y-88092081D01*
X203380849Y-88054736D01*
X203380850Y-88054734D01*
X203380852Y-88054734D01*
X203508183Y-87941929D01*
X203604818Y-87801930D01*
X203665140Y-87642872D01*
X203685645Y-87474000D01*
X203685645Y-87473999D01*
X206314355Y-87473999D01*
X206334859Y-87642869D01*
X206334860Y-87642874D01*
X206395182Y-87801931D01*
X206441581Y-87869150D01*
X206491817Y-87941929D01*
X206597505Y-88035560D01*
X206619150Y-88054736D01*
X206761199Y-88129289D01*
X206769775Y-88133790D01*
X206934944Y-88174500D01*
X207105056Y-88174500D01*
X207270225Y-88133790D01*
X207349692Y-88092081D01*
X207420849Y-88054736D01*
X207420850Y-88054734D01*
X207420852Y-88054734D01*
X207548183Y-87941929D01*
X207644818Y-87801930D01*
X207705140Y-87642872D01*
X207725645Y-87474000D01*
X207705140Y-87305128D01*
X207703433Y-87300628D01*
X207644817Y-87146068D01*
X207602450Y-87084689D01*
X207580567Y-87018334D01*
X207580500Y-87014249D01*
X207580500Y-86128238D01*
X207600185Y-86061199D01*
X207602450Y-86057798D01*
X207616670Y-86037196D01*
X207654818Y-85981930D01*
X207715140Y-85822872D01*
X207735645Y-85654000D01*
X207715140Y-85485128D01*
X207713433Y-85480628D01*
X207654817Y-85326068D01*
X207620476Y-85276318D01*
X207558183Y-85186071D01*
X207430852Y-85073266D01*
X207430849Y-85073263D01*
X207280226Y-84994210D01*
X207115056Y-84953500D01*
X206944944Y-84953500D01*
X206779773Y-84994210D01*
X206629150Y-85073263D01*
X206519393Y-85170500D01*
X206506897Y-85181571D01*
X206501816Y-85186072D01*
X206405182Y-85326068D01*
X206344860Y-85485125D01*
X206344859Y-85485130D01*
X206324355Y-85654000D01*
X206344859Y-85822869D01*
X206344860Y-85822874D01*
X206405182Y-85981931D01*
X206457550Y-86057798D01*
X206479433Y-86124152D01*
X206479500Y-86128238D01*
X206479500Y-86985274D01*
X206459815Y-87052313D01*
X206457550Y-87055714D01*
X206395183Y-87146068D01*
X206395182Y-87146068D01*
X206334860Y-87305125D01*
X206334859Y-87305130D01*
X206314355Y-87473999D01*
X203685645Y-87473999D01*
X203665140Y-87305128D01*
X203663433Y-87300628D01*
X203604816Y-87146066D01*
X203562449Y-87084687D01*
X203540566Y-87018333D01*
X203540499Y-87014247D01*
X203540499Y-86128237D01*
X203560184Y-86061198D01*
X203562450Y-86057796D01*
X203565555Y-86053298D01*
X203614818Y-85981930D01*
X203675140Y-85822872D01*
X203695645Y-85654000D01*
X203675140Y-85485128D01*
X203673433Y-85480628D01*
X203614817Y-85326068D01*
X203580476Y-85276318D01*
X203518183Y-85186071D01*
X203390852Y-85073266D01*
X203390849Y-85073263D01*
X203240226Y-84994210D01*
X203075056Y-84953500D01*
X202904944Y-84953500D01*
X202739773Y-84994210D01*
X202589150Y-85073263D01*
X202479393Y-85170500D01*
X202466897Y-85181571D01*
X202461816Y-85186072D01*
X202365182Y-85326068D01*
X202304860Y-85485125D01*
X202304859Y-85485130D01*
X202284355Y-85654000D01*
X202304859Y-85822869D01*
X202304860Y-85822874D01*
X202365182Y-85981931D01*
X202417550Y-86057798D01*
X202439433Y-86124152D01*
X202439500Y-86128238D01*
X202439500Y-86985274D01*
X202419815Y-87052313D01*
X202417550Y-87055714D01*
X202355183Y-87146068D01*
X202355182Y-87146068D01*
X202294860Y-87305125D01*
X202294859Y-87305130D01*
X202274355Y-87473999D01*
X199645645Y-87473999D01*
X199625140Y-87305128D01*
X199623433Y-87300628D01*
X199564816Y-87146066D01*
X199522449Y-87084687D01*
X199500566Y-87018333D01*
X199500499Y-87014247D01*
X199500499Y-86128237D01*
X199520184Y-86061198D01*
X199522450Y-86057796D01*
X199525555Y-86053298D01*
X199574818Y-85981930D01*
X199635140Y-85822872D01*
X199655645Y-85654000D01*
X199635140Y-85485128D01*
X199633433Y-85480628D01*
X199574817Y-85326068D01*
X199540476Y-85276318D01*
X199478183Y-85186071D01*
X199350852Y-85073266D01*
X199350849Y-85073263D01*
X199200226Y-84994210D01*
X199035056Y-84953500D01*
X198864944Y-84953500D01*
X198699773Y-84994210D01*
X198549150Y-85073263D01*
X198439393Y-85170500D01*
X198426897Y-85181571D01*
X198421816Y-85186072D01*
X198325182Y-85326068D01*
X198264860Y-85485125D01*
X198264859Y-85485130D01*
X198244355Y-85653999D01*
X198264859Y-85822869D01*
X198264860Y-85822874D01*
X198325182Y-85981931D01*
X198377550Y-86057798D01*
X198399433Y-86124152D01*
X198399500Y-86128238D01*
X198399500Y-86985274D01*
X198379815Y-87052313D01*
X198377550Y-87055714D01*
X198315183Y-87146068D01*
X198315182Y-87146068D01*
X198254860Y-87305125D01*
X198254859Y-87305130D01*
X198234355Y-87474000D01*
X195605645Y-87474000D01*
X195585140Y-87305128D01*
X195583433Y-87300628D01*
X195524817Y-87146068D01*
X195482450Y-87084689D01*
X195460567Y-87018334D01*
X195460500Y-87014249D01*
X195460500Y-86128238D01*
X195480185Y-86061199D01*
X195482450Y-86057798D01*
X195496670Y-86037196D01*
X195534818Y-85981930D01*
X195595140Y-85822872D01*
X195615645Y-85654000D01*
X195595140Y-85485128D01*
X195593433Y-85480628D01*
X195534817Y-85326068D01*
X195500476Y-85276318D01*
X195438183Y-85186071D01*
X195310852Y-85073266D01*
X195310849Y-85073263D01*
X195160226Y-84994210D01*
X194995056Y-84953500D01*
X194824944Y-84953500D01*
X194659773Y-84994210D01*
X194509150Y-85073263D01*
X194399393Y-85170500D01*
X194386897Y-85181571D01*
X194381816Y-85186072D01*
X194285182Y-85326068D01*
X194224860Y-85485125D01*
X194224859Y-85485130D01*
X194204355Y-85653999D01*
X194224859Y-85822869D01*
X194224860Y-85822874D01*
X194285182Y-85981931D01*
X194337550Y-86057798D01*
X194359433Y-86124152D01*
X194359500Y-86128238D01*
X194359500Y-86985274D01*
X194339815Y-87052313D01*
X194337550Y-87055714D01*
X194275183Y-87146068D01*
X194275182Y-87146068D01*
X194214860Y-87305125D01*
X194214859Y-87305130D01*
X194194355Y-87473999D01*
X191555645Y-87473999D01*
X191535140Y-87305128D01*
X191533433Y-87300628D01*
X191474817Y-87146068D01*
X191432450Y-87084689D01*
X191410567Y-87018334D01*
X191410500Y-87014249D01*
X191410500Y-86128238D01*
X191430185Y-86061199D01*
X191432450Y-86057798D01*
X191446670Y-86037196D01*
X191484818Y-85981930D01*
X191545140Y-85822872D01*
X191565645Y-85654000D01*
X191545140Y-85485128D01*
X191543433Y-85480628D01*
X191484817Y-85326068D01*
X191450476Y-85276318D01*
X191388183Y-85186071D01*
X191260852Y-85073266D01*
X191260849Y-85073263D01*
X191110226Y-84994210D01*
X190945056Y-84953500D01*
X190774944Y-84953500D01*
X190609773Y-84994210D01*
X190459150Y-85073263D01*
X190349393Y-85170500D01*
X190336897Y-85181571D01*
X190331816Y-85186072D01*
X190235182Y-85326068D01*
X190174860Y-85485125D01*
X190174859Y-85485130D01*
X190154355Y-85653999D01*
X190174859Y-85822869D01*
X190174860Y-85822874D01*
X190235182Y-85981931D01*
X190287550Y-86057798D01*
X190309433Y-86124152D01*
X190309500Y-86128238D01*
X190309500Y-86985274D01*
X190289815Y-87052313D01*
X190287550Y-87055714D01*
X190225183Y-87146068D01*
X190225182Y-87146068D01*
X190164860Y-87305125D01*
X190164859Y-87305130D01*
X190144355Y-87474000D01*
X187515099Y-87474000D01*
X187515645Y-87469500D01*
X187495140Y-87300628D01*
X187434818Y-87141570D01*
X187392450Y-87080189D01*
X187370567Y-87013834D01*
X187370500Y-87009749D01*
X187370500Y-86123738D01*
X187390185Y-86056699D01*
X187392450Y-86053298D01*
X187406670Y-86032696D01*
X187444818Y-85977430D01*
X187505140Y-85818372D01*
X187525645Y-85649500D01*
X187505140Y-85480628D01*
X187444818Y-85321570D01*
X187444079Y-85320500D01*
X187361413Y-85200738D01*
X187348183Y-85181571D01*
X187242483Y-85087929D01*
X187220849Y-85068763D01*
X187070226Y-84989710D01*
X186905056Y-84949000D01*
X186734944Y-84949000D01*
X186569773Y-84989710D01*
X186419150Y-85068763D01*
X186291816Y-85181572D01*
X186195182Y-85321568D01*
X186134860Y-85480625D01*
X186134859Y-85480630D01*
X186134313Y-85485130D01*
X186114355Y-85649500D01*
X186117643Y-85676580D01*
X186134859Y-85818369D01*
X186134860Y-85818374D01*
X186195182Y-85977431D01*
X186247550Y-86053298D01*
X186269433Y-86119652D01*
X186269500Y-86123738D01*
X186269500Y-86980774D01*
X186249815Y-87047813D01*
X186247550Y-87051214D01*
X186185183Y-87141568D01*
X186185182Y-87141568D01*
X186124860Y-87300625D01*
X186124859Y-87300630D01*
X186104355Y-87469500D01*
X183475584Y-87469500D01*
X183455140Y-87301128D01*
X183454950Y-87300628D01*
X183394817Y-87142068D01*
X183352450Y-87080689D01*
X183330567Y-87014334D01*
X183330500Y-87010249D01*
X183330500Y-86124238D01*
X183350185Y-86057199D01*
X183352450Y-86053798D01*
X183366670Y-86033196D01*
X183404818Y-85977930D01*
X183465140Y-85818872D01*
X183485645Y-85650000D01*
X183465140Y-85481128D01*
X183464950Y-85480628D01*
X183404817Y-85322068D01*
X183370476Y-85272318D01*
X183308183Y-85182071D01*
X183180852Y-85069266D01*
X183180849Y-85069263D01*
X183030226Y-84990210D01*
X182865056Y-84949500D01*
X182694944Y-84949500D01*
X182529773Y-84990210D01*
X182379150Y-85069263D01*
X182264878Y-85170500D01*
X182252382Y-85181571D01*
X182251816Y-85182072D01*
X182155182Y-85322068D01*
X182094860Y-85481125D01*
X182094859Y-85481130D01*
X182074355Y-85650000D01*
X182094859Y-85818869D01*
X182094860Y-85818874D01*
X182155182Y-85977931D01*
X182207550Y-86053798D01*
X182229433Y-86120152D01*
X182229500Y-86124238D01*
X182229500Y-86981274D01*
X182209815Y-87048313D01*
X182207550Y-87051714D01*
X182145183Y-87142068D01*
X182145182Y-87142068D01*
X182084860Y-87301125D01*
X182084859Y-87301130D01*
X182064355Y-87469999D01*
X177053650Y-87469999D01*
X177052852Y-83419500D01*
X182064355Y-83419500D01*
X182065023Y-83425000D01*
X182084859Y-83588369D01*
X182084860Y-83588374D01*
X182145182Y-83747431D01*
X182189148Y-83811125D01*
X182241817Y-83887429D01*
X182323970Y-83960210D01*
X182369150Y-84000236D01*
X182498334Y-84068037D01*
X182519775Y-84079290D01*
X182684944Y-84120000D01*
X182855056Y-84120000D01*
X183020225Y-84079290D01*
X183099692Y-84037581D01*
X183170849Y-84000236D01*
X183170850Y-84000234D01*
X183170852Y-84000234D01*
X183298183Y-83887429D01*
X183394818Y-83747430D01*
X183455140Y-83588372D01*
X183475524Y-83420500D01*
X186109355Y-83420500D01*
X186129859Y-83589369D01*
X186129860Y-83589374D01*
X186190182Y-83748431D01*
X186233461Y-83811130D01*
X186286817Y-83888429D01*
X186390179Y-83979999D01*
X186414150Y-84001236D01*
X186562868Y-84079289D01*
X186564775Y-84080290D01*
X186729944Y-84121000D01*
X186900056Y-84121000D01*
X187065225Y-84080290D01*
X187144692Y-84038581D01*
X187215849Y-84001236D01*
X187215850Y-84001234D01*
X187215852Y-84001234D01*
X187343183Y-83888429D01*
X187439818Y-83748430D01*
X187500140Y-83589372D01*
X187520099Y-83425000D01*
X190149355Y-83425000D01*
X190169859Y-83593869D01*
X190169860Y-83593874D01*
X190230182Y-83752931D01*
X190270351Y-83811125D01*
X190326817Y-83892929D01*
X190356810Y-83919500D01*
X190454150Y-84005736D01*
X190594294Y-84079289D01*
X190604775Y-84084790D01*
X190769944Y-84125500D01*
X190940056Y-84125500D01*
X191105225Y-84084790D01*
X191191972Y-84039261D01*
X191255849Y-84005736D01*
X191255850Y-84005734D01*
X191255852Y-84005734D01*
X191383183Y-83892929D01*
X191479818Y-83752930D01*
X191540140Y-83593872D01*
X191560645Y-83425000D01*
X194199355Y-83425000D01*
X194219859Y-83593869D01*
X194219860Y-83593874D01*
X194280182Y-83752931D01*
X194320351Y-83811125D01*
X194376817Y-83892929D01*
X194406810Y-83919500D01*
X194504150Y-84005736D01*
X194644294Y-84079289D01*
X194654775Y-84084790D01*
X194819944Y-84125500D01*
X194990056Y-84125500D01*
X195155225Y-84084790D01*
X195241972Y-84039261D01*
X195305849Y-84005736D01*
X195305850Y-84005734D01*
X195305852Y-84005734D01*
X195433183Y-83892929D01*
X195529818Y-83752930D01*
X195590140Y-83593872D01*
X195610645Y-83425000D01*
X198239355Y-83425000D01*
X198259859Y-83593869D01*
X198259860Y-83593874D01*
X198320182Y-83752931D01*
X198360351Y-83811125D01*
X198416817Y-83892929D01*
X198446810Y-83919500D01*
X198544150Y-84005736D01*
X198684294Y-84079289D01*
X198694775Y-84084790D01*
X198859944Y-84125500D01*
X199030056Y-84125500D01*
X199195225Y-84084790D01*
X199281972Y-84039261D01*
X199345849Y-84005736D01*
X199345850Y-84005734D01*
X199345852Y-84005734D01*
X199473183Y-83892929D01*
X199569818Y-83752930D01*
X199630140Y-83593872D01*
X199650645Y-83425000D01*
X202279355Y-83425000D01*
X202299859Y-83593869D01*
X202299860Y-83593874D01*
X202360182Y-83752931D01*
X202400351Y-83811125D01*
X202456817Y-83892929D01*
X202486810Y-83919500D01*
X202584150Y-84005736D01*
X202724294Y-84079289D01*
X202734775Y-84084790D01*
X202899944Y-84125500D01*
X203070056Y-84125500D01*
X203235225Y-84084790D01*
X203321972Y-84039261D01*
X203385849Y-84005736D01*
X203385850Y-84005734D01*
X203385852Y-84005734D01*
X203513183Y-83892929D01*
X203609818Y-83752930D01*
X203670140Y-83593872D01*
X203690645Y-83425000D01*
X206319355Y-83425000D01*
X206339859Y-83593869D01*
X206339860Y-83593874D01*
X206400182Y-83752931D01*
X206440351Y-83811125D01*
X206496817Y-83892929D01*
X206526810Y-83919500D01*
X206624150Y-84005736D01*
X206764294Y-84079289D01*
X206774775Y-84084790D01*
X206939944Y-84125500D01*
X207110056Y-84125500D01*
X207275225Y-84084790D01*
X207361972Y-84039261D01*
X207425849Y-84005736D01*
X207425850Y-84005734D01*
X207425852Y-84005734D01*
X207454900Y-83980000D01*
X215314355Y-83980000D01*
X215334859Y-84148869D01*
X215334860Y-84148874D01*
X215395182Y-84307931D01*
X215457475Y-84398177D01*
X215491817Y-84447929D01*
X215585021Y-84530500D01*
X215619150Y-84560736D01*
X215769773Y-84639789D01*
X215769775Y-84639790D01*
X215934944Y-84680500D01*
X216105056Y-84680500D01*
X216270225Y-84639790D01*
X216359547Y-84592909D01*
X216420845Y-84560738D01*
X216420846Y-84560736D01*
X216420852Y-84560734D01*
X216420856Y-84560730D01*
X216427020Y-84556476D01*
X216427960Y-84557839D01*
X216483011Y-84531963D01*
X216502006Y-84530500D01*
X220467994Y-84530500D01*
X220535033Y-84550185D01*
X220547074Y-84559302D01*
X220549154Y-84560738D01*
X220699773Y-84639789D01*
X220699775Y-84639790D01*
X220864944Y-84680500D01*
X221035056Y-84680500D01*
X221200225Y-84639790D01*
X221237930Y-84620000D01*
X224329455Y-84620000D01*
X224349959Y-84788869D01*
X224349960Y-84788874D01*
X224410282Y-84947931D01*
X224439466Y-84990210D01*
X224506917Y-85087929D01*
X224600121Y-85170500D01*
X224634250Y-85200736D01*
X224784873Y-85279789D01*
X224784875Y-85279790D01*
X224950044Y-85320500D01*
X225120156Y-85320500D01*
X225285325Y-85279790D01*
X225374647Y-85232909D01*
X225435945Y-85200738D01*
X225435946Y-85200736D01*
X225435952Y-85200734D01*
X225435956Y-85200730D01*
X225442120Y-85196476D01*
X225443060Y-85197839D01*
X225498111Y-85171963D01*
X225517106Y-85170500D01*
X226252094Y-85170500D01*
X226319133Y-85190185D01*
X226331174Y-85199302D01*
X226333254Y-85200738D01*
X226483873Y-85279789D01*
X226483875Y-85279790D01*
X226649044Y-85320500D01*
X226819156Y-85320500D01*
X226984325Y-85279790D01*
X227063792Y-85238081D01*
X227134949Y-85200736D01*
X227134950Y-85200734D01*
X227134952Y-85200734D01*
X227262283Y-85087929D01*
X227358918Y-84947930D01*
X227419240Y-84788872D01*
X227439745Y-84620000D01*
X227419240Y-84451128D01*
X227358918Y-84292070D01*
X227262283Y-84152071D01*
X227167416Y-84068026D01*
X227134949Y-84039263D01*
X226984326Y-83960210D01*
X226819156Y-83919500D01*
X226649044Y-83919500D01*
X226483873Y-83960210D01*
X226333254Y-84039261D01*
X226327080Y-84043524D01*
X226326139Y-84042160D01*
X226271089Y-84068037D01*
X226252094Y-84069500D01*
X225517106Y-84069500D01*
X225450067Y-84049815D01*
X225438025Y-84040697D01*
X225435945Y-84039261D01*
X225285326Y-83960210D01*
X225120156Y-83919500D01*
X224950044Y-83919500D01*
X224784873Y-83960210D01*
X224634250Y-84039263D01*
X224506916Y-84152072D01*
X224410282Y-84292068D01*
X224349960Y-84451125D01*
X224349959Y-84451130D01*
X224329455Y-84620000D01*
X221237930Y-84620000D01*
X221279692Y-84598081D01*
X221350849Y-84560736D01*
X221350850Y-84560734D01*
X221350852Y-84560734D01*
X221478183Y-84447929D01*
X221574818Y-84307930D01*
X221635140Y-84148872D01*
X221655645Y-83980000D01*
X221635140Y-83811128D01*
X221574818Y-83652070D01*
X221478183Y-83512071D01*
X221373692Y-83419500D01*
X221350849Y-83399263D01*
X221200226Y-83320210D01*
X221035056Y-83279500D01*
X220864944Y-83279500D01*
X220699773Y-83320210D01*
X220549154Y-83399261D01*
X220542980Y-83403524D01*
X220542039Y-83402160D01*
X220486989Y-83428037D01*
X220467994Y-83429500D01*
X216502006Y-83429500D01*
X216434967Y-83409815D01*
X216422925Y-83400697D01*
X216420845Y-83399261D01*
X216270226Y-83320210D01*
X216105056Y-83279500D01*
X215934944Y-83279500D01*
X215769773Y-83320210D01*
X215619150Y-83399263D01*
X215491816Y-83512072D01*
X215395182Y-83652068D01*
X215334860Y-83811125D01*
X215334859Y-83811130D01*
X215314355Y-83980000D01*
X207454900Y-83980000D01*
X207553183Y-83892929D01*
X207649818Y-83752930D01*
X207710140Y-83593872D01*
X207730645Y-83425000D01*
X207710140Y-83256128D01*
X207708433Y-83251628D01*
X207649817Y-83097068D01*
X207607450Y-83035689D01*
X207585567Y-82969334D01*
X207585500Y-82965249D01*
X207585500Y-82209999D01*
X215354355Y-82209999D01*
X215374859Y-82378869D01*
X215374860Y-82378874D01*
X215435182Y-82537931D01*
X215497475Y-82628177D01*
X215531817Y-82677929D01*
X215625021Y-82760500D01*
X215659150Y-82790736D01*
X215809773Y-82869789D01*
X215809775Y-82869790D01*
X215974944Y-82910500D01*
X216145056Y-82910500D01*
X216310225Y-82869790D01*
X216399547Y-82822909D01*
X216460845Y-82790738D01*
X216460846Y-82790736D01*
X216460852Y-82790734D01*
X216460856Y-82790730D01*
X216467020Y-82786476D01*
X216467960Y-82787839D01*
X216523011Y-82761963D01*
X216542006Y-82760500D01*
X220497994Y-82760500D01*
X220565033Y-82780185D01*
X220577074Y-82789302D01*
X220579154Y-82790738D01*
X220729773Y-82869789D01*
X220729775Y-82869790D01*
X220894944Y-82910500D01*
X221065056Y-82910500D01*
X221230225Y-82869790D01*
X221309692Y-82828081D01*
X221380849Y-82790736D01*
X221380850Y-82790734D01*
X221380852Y-82790734D01*
X221508183Y-82677929D01*
X221604818Y-82537930D01*
X221665140Y-82378872D01*
X221685645Y-82210000D01*
X221665140Y-82041128D01*
X221604818Y-81882070D01*
X221508183Y-81742071D01*
X221413316Y-81658026D01*
X221380849Y-81629263D01*
X221230226Y-81550210D01*
X221065056Y-81509500D01*
X220894944Y-81509500D01*
X220729773Y-81550210D01*
X220579154Y-81629261D01*
X220572980Y-81633524D01*
X220572039Y-81632160D01*
X220516989Y-81658037D01*
X220497994Y-81659500D01*
X216542006Y-81659500D01*
X216474967Y-81639815D01*
X216462925Y-81630697D01*
X216460845Y-81629261D01*
X216310226Y-81550210D01*
X216145056Y-81509500D01*
X215974944Y-81509500D01*
X215809773Y-81550210D01*
X215659150Y-81629263D01*
X215531816Y-81742072D01*
X215435182Y-81882068D01*
X215374860Y-82041125D01*
X215374859Y-82041130D01*
X215354355Y-82209999D01*
X207585500Y-82209999D01*
X207585500Y-82079238D01*
X207605185Y-82012199D01*
X207607450Y-82008798D01*
X207621670Y-81988196D01*
X207659818Y-81932930D01*
X207720140Y-81773872D01*
X207740645Y-81605000D01*
X207720140Y-81436128D01*
X207718433Y-81431628D01*
X207659817Y-81277068D01*
X207625476Y-81227318D01*
X207563183Y-81137071D01*
X207435852Y-81024266D01*
X207435849Y-81024263D01*
X207285226Y-80945210D01*
X207120056Y-80904500D01*
X206949944Y-80904500D01*
X206784773Y-80945210D01*
X206634150Y-81024263D01*
X206525522Y-81120500D01*
X206511897Y-81132571D01*
X206506816Y-81137072D01*
X206410182Y-81277068D01*
X206349860Y-81436125D01*
X206349859Y-81436130D01*
X206329355Y-81605000D01*
X206349859Y-81773869D01*
X206349860Y-81773874D01*
X206410182Y-81932931D01*
X206462550Y-82008798D01*
X206484433Y-82075152D01*
X206484500Y-82079238D01*
X206484500Y-82936274D01*
X206464815Y-83003313D01*
X206462550Y-83006714D01*
X206400183Y-83097068D01*
X206400182Y-83097068D01*
X206339860Y-83256125D01*
X206339859Y-83256130D01*
X206319355Y-83425000D01*
X203690645Y-83425000D01*
X203670140Y-83256128D01*
X203668433Y-83251628D01*
X203609817Y-83097068D01*
X203567450Y-83035689D01*
X203545567Y-82969334D01*
X203545500Y-82965249D01*
X203545500Y-82079238D01*
X203565185Y-82012199D01*
X203567450Y-82008798D01*
X203581670Y-81988196D01*
X203619818Y-81932930D01*
X203680140Y-81773872D01*
X203700645Y-81605000D01*
X203680140Y-81436128D01*
X203678433Y-81431628D01*
X203619817Y-81277068D01*
X203585476Y-81227318D01*
X203523183Y-81137071D01*
X203395852Y-81024266D01*
X203395849Y-81024263D01*
X203245226Y-80945210D01*
X203080056Y-80904500D01*
X202909944Y-80904500D01*
X202744773Y-80945210D01*
X202594150Y-81024263D01*
X202485522Y-81120500D01*
X202471897Y-81132571D01*
X202466816Y-81137072D01*
X202370182Y-81277068D01*
X202309860Y-81436125D01*
X202309859Y-81436130D01*
X202289355Y-81604999D01*
X202309859Y-81773869D01*
X202309860Y-81773874D01*
X202370182Y-81932931D01*
X202422550Y-82008798D01*
X202444433Y-82075152D01*
X202444500Y-82079238D01*
X202444500Y-82936274D01*
X202424815Y-83003313D01*
X202422550Y-83006714D01*
X202360183Y-83097068D01*
X202360182Y-83097068D01*
X202299860Y-83256125D01*
X202299859Y-83256130D01*
X202279355Y-83425000D01*
X199650645Y-83425000D01*
X199630140Y-83256128D01*
X199628433Y-83251628D01*
X199569817Y-83097068D01*
X199527450Y-83035689D01*
X199505567Y-82969334D01*
X199505500Y-82965249D01*
X199505500Y-82079238D01*
X199525185Y-82012199D01*
X199527450Y-82008798D01*
X199541670Y-81988196D01*
X199579818Y-81932930D01*
X199640140Y-81773872D01*
X199660645Y-81605000D01*
X199640140Y-81436128D01*
X199638433Y-81431628D01*
X199579817Y-81277068D01*
X199545476Y-81227318D01*
X199483183Y-81137071D01*
X199355852Y-81024266D01*
X199355849Y-81024263D01*
X199205226Y-80945210D01*
X199040056Y-80904500D01*
X198869944Y-80904500D01*
X198704773Y-80945210D01*
X198554150Y-81024263D01*
X198445522Y-81120500D01*
X198431897Y-81132571D01*
X198426816Y-81137072D01*
X198330182Y-81277068D01*
X198269860Y-81436125D01*
X198269859Y-81436130D01*
X198249355Y-81604999D01*
X198269859Y-81773869D01*
X198269860Y-81773874D01*
X198330182Y-81932931D01*
X198382550Y-82008798D01*
X198404433Y-82075152D01*
X198404500Y-82079238D01*
X198404500Y-82936274D01*
X198384815Y-83003313D01*
X198382550Y-83006714D01*
X198320183Y-83097068D01*
X198320182Y-83097068D01*
X198259860Y-83256125D01*
X198259859Y-83256130D01*
X198239355Y-83425000D01*
X195610645Y-83425000D01*
X195590140Y-83256128D01*
X195588433Y-83251628D01*
X195529817Y-83097068D01*
X195487450Y-83035689D01*
X195465567Y-82969334D01*
X195465500Y-82965249D01*
X195465500Y-82079238D01*
X195485185Y-82012199D01*
X195487450Y-82008798D01*
X195501670Y-81988196D01*
X195539818Y-81932930D01*
X195600140Y-81773872D01*
X195620645Y-81605000D01*
X195600140Y-81436128D01*
X195598433Y-81431628D01*
X195539817Y-81277068D01*
X195505476Y-81227318D01*
X195443183Y-81137071D01*
X195315852Y-81024266D01*
X195315849Y-81024263D01*
X195165226Y-80945210D01*
X195000056Y-80904500D01*
X194829944Y-80904500D01*
X194664773Y-80945210D01*
X194514150Y-81024263D01*
X194405522Y-81120500D01*
X194391897Y-81132571D01*
X194386816Y-81137072D01*
X194290182Y-81277068D01*
X194229860Y-81436125D01*
X194229859Y-81436130D01*
X194209355Y-81604999D01*
X194229859Y-81773869D01*
X194229860Y-81773874D01*
X194290182Y-81932931D01*
X194342550Y-82008798D01*
X194364433Y-82075152D01*
X194364500Y-82079238D01*
X194364500Y-82936274D01*
X194344815Y-83003313D01*
X194342550Y-83006714D01*
X194280183Y-83097068D01*
X194280182Y-83097068D01*
X194219860Y-83256125D01*
X194219859Y-83256130D01*
X194199355Y-83425000D01*
X191560645Y-83425000D01*
X191540140Y-83256128D01*
X191538433Y-83251628D01*
X191479817Y-83097068D01*
X191437450Y-83035689D01*
X191415567Y-82969334D01*
X191415500Y-82965249D01*
X191415500Y-82079238D01*
X191435185Y-82012199D01*
X191437450Y-82008798D01*
X191451670Y-81988196D01*
X191489818Y-81932930D01*
X191550140Y-81773872D01*
X191570645Y-81605000D01*
X191550140Y-81436128D01*
X191548433Y-81431628D01*
X191489817Y-81277068D01*
X191455476Y-81227318D01*
X191393183Y-81137071D01*
X191265852Y-81024266D01*
X191265849Y-81024263D01*
X191115226Y-80945210D01*
X190950056Y-80904500D01*
X190779944Y-80904500D01*
X190614773Y-80945210D01*
X190464150Y-81024263D01*
X190355522Y-81120500D01*
X190341897Y-81132571D01*
X190336816Y-81137072D01*
X190240182Y-81277068D01*
X190179860Y-81436125D01*
X190179859Y-81436130D01*
X190159355Y-81604999D01*
X190179859Y-81773869D01*
X190179860Y-81773874D01*
X190240182Y-81932931D01*
X190292550Y-82008798D01*
X190314433Y-82075152D01*
X190314500Y-82079238D01*
X190314500Y-82936274D01*
X190294815Y-83003313D01*
X190292550Y-83006714D01*
X190230183Y-83097068D01*
X190230182Y-83097068D01*
X190169860Y-83256125D01*
X190169859Y-83256130D01*
X190149355Y-83425000D01*
X187520099Y-83425000D01*
X187520645Y-83420500D01*
X187500140Y-83251628D01*
X187439818Y-83092570D01*
X187439126Y-83091568D01*
X187397450Y-83031189D01*
X187375567Y-82964834D01*
X187375500Y-82960749D01*
X187375500Y-82074738D01*
X187395185Y-82007699D01*
X187397450Y-82004298D01*
X187411670Y-81983696D01*
X187449818Y-81928430D01*
X187510140Y-81769372D01*
X187530645Y-81600500D01*
X187510140Y-81431628D01*
X187449818Y-81272570D01*
X187449126Y-81271568D01*
X187415476Y-81222818D01*
X187353183Y-81132571D01*
X187258316Y-81048526D01*
X187225849Y-81019763D01*
X187075226Y-80940710D01*
X186910056Y-80900000D01*
X186739944Y-80900000D01*
X186574773Y-80940710D01*
X186424150Y-81019763D01*
X186296816Y-81132572D01*
X186200182Y-81272568D01*
X186139860Y-81431625D01*
X186139859Y-81431630D01*
X186125461Y-81550210D01*
X186119355Y-81600500D01*
X186122643Y-81627580D01*
X186139859Y-81769369D01*
X186139860Y-81769374D01*
X186200182Y-81928431D01*
X186252550Y-82004298D01*
X186274433Y-82070652D01*
X186274500Y-82074738D01*
X186274500Y-82931774D01*
X186254815Y-82998813D01*
X186252550Y-83002214D01*
X186190183Y-83092568D01*
X186190182Y-83092568D01*
X186129860Y-83251625D01*
X186129859Y-83251630D01*
X186109355Y-83420500D01*
X183475524Y-83420500D01*
X183475645Y-83419500D01*
X183455140Y-83250628D01*
X183394818Y-83091570D01*
X183352450Y-83030189D01*
X183330567Y-82963834D01*
X183330500Y-82959749D01*
X183330500Y-82073738D01*
X183350185Y-82006699D01*
X183352450Y-82003298D01*
X183366670Y-81982696D01*
X183404818Y-81927430D01*
X183465140Y-81768372D01*
X183485645Y-81599500D01*
X183465140Y-81430628D01*
X183404818Y-81271570D01*
X183308183Y-81131571D01*
X183213316Y-81047526D01*
X183180849Y-81018763D01*
X183030226Y-80939710D01*
X182865056Y-80899000D01*
X182694944Y-80899000D01*
X182529773Y-80939710D01*
X182379150Y-81018763D01*
X182251816Y-81131572D01*
X182155182Y-81271568D01*
X182094860Y-81430625D01*
X182094859Y-81430630D01*
X182074355Y-81599500D01*
X182094859Y-81768369D01*
X182094860Y-81768374D01*
X182155182Y-81927431D01*
X182207550Y-82003298D01*
X182229433Y-82069652D01*
X182229500Y-82073738D01*
X182229500Y-82930774D01*
X182209815Y-82997813D01*
X182207550Y-83001214D01*
X182145183Y-83091568D01*
X182145182Y-83091568D01*
X182084860Y-83250625D01*
X182084859Y-83250630D01*
X182081354Y-83279500D01*
X182064355Y-83419500D01*
X177052852Y-83419500D01*
X177052220Y-80210000D01*
X215224355Y-80210000D01*
X215244859Y-80378869D01*
X215244860Y-80378874D01*
X215305182Y-80537931D01*
X215340343Y-80588869D01*
X215401817Y-80677929D01*
X215507505Y-80771560D01*
X215529150Y-80790736D01*
X215679773Y-80869789D01*
X215679775Y-80869790D01*
X215844944Y-80910500D01*
X215852348Y-80910500D01*
X215910606Y-80926822D01*
X215910837Y-80926292D01*
X215914698Y-80927969D01*
X215916774Y-80928550D01*
X215918618Y-80929672D01*
X215961247Y-80941616D01*
X215967263Y-80943639D01*
X216008436Y-80959876D01*
X216026287Y-80961711D01*
X216047052Y-80965657D01*
X216064335Y-80970500D01*
X216108594Y-80970500D01*
X216114935Y-80970824D01*
X216158972Y-80975352D01*
X216176655Y-80972303D01*
X216197724Y-80970500D01*
X218632094Y-80970500D01*
X218699133Y-80990185D01*
X218711174Y-80999302D01*
X218713254Y-81000738D01*
X218863873Y-81079789D01*
X218863875Y-81079790D01*
X219029044Y-81120500D01*
X219199156Y-81120500D01*
X219364325Y-81079790D01*
X219478696Y-81019763D01*
X219514949Y-81000736D01*
X219514950Y-81000734D01*
X219514952Y-81000734D01*
X219642283Y-80887929D01*
X219738918Y-80747930D01*
X219799240Y-80588872D01*
X219819745Y-80420000D01*
X219799240Y-80251128D01*
X219738918Y-80092070D01*
X219642283Y-79952071D01*
X219547416Y-79868026D01*
X219514949Y-79839263D01*
X219364326Y-79760210D01*
X219199156Y-79719500D01*
X219029044Y-79719500D01*
X218863873Y-79760210D01*
X218713254Y-79839261D01*
X218707080Y-79843524D01*
X218706139Y-79842160D01*
X218651089Y-79868037D01*
X218632094Y-79869500D01*
X216611221Y-79869500D01*
X216544182Y-79849815D01*
X216509171Y-79815940D01*
X216458183Y-79742071D01*
X216330849Y-79629263D01*
X216180226Y-79550210D01*
X216015056Y-79509500D01*
X215844944Y-79509500D01*
X215679773Y-79550210D01*
X215529150Y-79629263D01*
X215401816Y-79742072D01*
X215305182Y-79882068D01*
X215244860Y-80041125D01*
X215244859Y-80041130D01*
X215224355Y-80210000D01*
X177052220Y-80210000D01*
X177051793Y-78039499D01*
X214244355Y-78039499D01*
X214264859Y-78208369D01*
X214264860Y-78208374D01*
X214325182Y-78367431D01*
X214383722Y-78452239D01*
X214421817Y-78507429D01*
X214486856Y-78565048D01*
X214549150Y-78620236D01*
X214699773Y-78699289D01*
X214699775Y-78699290D01*
X214864944Y-78740000D01*
X215035056Y-78740000D01*
X215200225Y-78699290D01*
X215305378Y-78644101D01*
X215350845Y-78620238D01*
X215350846Y-78620236D01*
X215350852Y-78620234D01*
X215350856Y-78620230D01*
X215357020Y-78615976D01*
X215357960Y-78617339D01*
X215413011Y-78591463D01*
X215432006Y-78590000D01*
X216921818Y-78590000D01*
X216979444Y-78604204D01*
X217055463Y-78644102D01*
X217055462Y-78644102D01*
X217220632Y-78684812D01*
X217390744Y-78684812D01*
X217555913Y-78644102D01*
X217658995Y-78590000D01*
X217706537Y-78565048D01*
X217706538Y-78565046D01*
X217706540Y-78565046D01*
X217833871Y-78452241D01*
X217930506Y-78312242D01*
X217990828Y-78153184D01*
X218011333Y-77984312D01*
X217990828Y-77815440D01*
X217930506Y-77656382D01*
X217833871Y-77516383D01*
X217706540Y-77403578D01*
X217706537Y-77403575D01*
X217555914Y-77324522D01*
X217390744Y-77283812D01*
X217220632Y-77283812D01*
X217055461Y-77324522D01*
X216904838Y-77403576D01*
X216843614Y-77457816D01*
X216780381Y-77487537D01*
X216761387Y-77489000D01*
X215432006Y-77489000D01*
X215364967Y-77469315D01*
X215352925Y-77460197D01*
X215350845Y-77458761D01*
X215200226Y-77379710D01*
X215035056Y-77339000D01*
X214864944Y-77339000D01*
X214699773Y-77379710D01*
X214549150Y-77458763D01*
X214421816Y-77571572D01*
X214325182Y-77711568D01*
X214264860Y-77870625D01*
X214264859Y-77870630D01*
X214244355Y-78039499D01*
X177051793Y-78039499D01*
X177050024Y-69054035D01*
X177069695Y-68986994D01*
X177122490Y-68941229D01*
X177174033Y-68930013D01*
X265820517Y-68939984D01*
G37*
%TD.AperFunction*%
%TD*%
M02*
