%TF.GenerationSoftware,KiCad,Pcbnew,7.0.7*%
%TF.CreationDate,2026-01-29T00:22:59-05:00*%
%TF.ProjectId,sobc,736f6263-2e6b-4696-9361-645f70636258,rev?*%
%TF.SameCoordinates,Original*%
%TF.FileFunction,Copper,L1,Top*%
%TF.FilePolarity,Positive*%
%FSLAX46Y46*%
G04 Gerber Fmt 4.6, Leading zero omitted, Abs format (unit mm)*
G04 Created by KiCad (PCBNEW 7.0.7) date 2026-01-29 00:22:59*
%MOMM*%
%LPD*%
G01*
G04 APERTURE LIST*
G04 Aperture macros list*
%AMRoundRect*
0 Rectangle with rounded corners*
0 $1 Rounding radius*
0 $2 $3 $4 $5 $6 $7 $8 $9 X,Y pos of 4 corners*
0 Add a 4 corners polygon primitive as box body*
4,1,4,$2,$3,$4,$5,$6,$7,$8,$9,$2,$3,0*
0 Add four circle primitives for the rounded corners*
1,1,$1+$1,$2,$3*
1,1,$1+$1,$4,$5*
1,1,$1+$1,$6,$7*
1,1,$1+$1,$8,$9*
0 Add four rect primitives between the rounded corners*
20,1,$1+$1,$2,$3,$4,$5,0*
20,1,$1+$1,$4,$5,$6,$7,0*
20,1,$1+$1,$6,$7,$8,$9,0*
20,1,$1+$1,$8,$9,$2,$3,0*%
G04 Aperture macros list end*
%TA.AperFunction,SMDPad,CuDef*%
%ADD10RoundRect,0.218750X0.256250X-0.218750X0.256250X0.218750X-0.256250X0.218750X-0.256250X-0.218750X0*%
%TD*%
%TA.AperFunction,SMDPad,CuDef*%
%ADD11RoundRect,0.140000X0.170000X-0.140000X0.170000X0.140000X-0.170000X0.140000X-0.170000X-0.140000X0*%
%TD*%
%TA.AperFunction,SMDPad,CuDef*%
%ADD12RoundRect,0.135000X-0.185000X0.135000X-0.185000X-0.135000X0.185000X-0.135000X0.185000X0.135000X0*%
%TD*%
%TA.AperFunction,SMDPad,CuDef*%
%ADD13RoundRect,0.150000X-0.150000X0.835000X-0.150000X-0.835000X0.150000X-0.835000X0.150000X0.835000X0*%
%TD*%
%TA.AperFunction,SMDPad,CuDef*%
%ADD14RoundRect,0.135000X0.185000X-0.135000X0.185000X0.135000X-0.185000X0.135000X-0.185000X-0.135000X0*%
%TD*%
%TA.AperFunction,SMDPad,CuDef*%
%ADD15RoundRect,0.250000X0.475000X-0.250000X0.475000X0.250000X-0.475000X0.250000X-0.475000X-0.250000X0*%
%TD*%
%TA.AperFunction,SMDPad,CuDef*%
%ADD16RoundRect,0.140000X-0.140000X-0.170000X0.140000X-0.170000X0.140000X0.170000X-0.140000X0.170000X0*%
%TD*%
%TA.AperFunction,SMDPad,CuDef*%
%ADD17RoundRect,0.073750X0.221250X-0.951250X0.221250X0.951250X-0.221250X0.951250X-0.221250X-0.951250X0*%
%TD*%
%TA.AperFunction,SMDPad,CuDef*%
%ADD18R,2.000000X1.500000*%
%TD*%
%TA.AperFunction,SMDPad,CuDef*%
%ADD19R,2.000000X3.800000*%
%TD*%
%TA.AperFunction,SMDPad,CuDef*%
%ADD20RoundRect,0.225000X0.225000X0.250000X-0.225000X0.250000X-0.225000X-0.250000X0.225000X-0.250000X0*%
%TD*%
%TA.AperFunction,SMDPad,CuDef*%
%ADD21RoundRect,0.140000X-0.170000X0.140000X-0.170000X-0.140000X0.170000X-0.140000X0.170000X0.140000X0*%
%TD*%
%TA.AperFunction,SMDPad,CuDef*%
%ADD22RoundRect,0.218750X0.218750X0.256250X-0.218750X0.256250X-0.218750X-0.256250X0.218750X-0.256250X0*%
%TD*%
%TA.AperFunction,SMDPad,CuDef*%
%ADD23R,1.400000X1.200000*%
%TD*%
%TA.AperFunction,SMDPad,CuDef*%
%ADD24R,0.600000X1.450000*%
%TD*%
%TA.AperFunction,SMDPad,CuDef*%
%ADD25R,0.300000X1.450000*%
%TD*%
%TA.AperFunction,ComponentPad*%
%ADD26O,1.000000X2.100000*%
%TD*%
%TA.AperFunction,ComponentPad*%
%ADD27O,1.000000X1.600000*%
%TD*%
%TA.AperFunction,SMDPad,CuDef*%
%ADD28RoundRect,0.140000X0.140000X0.170000X-0.140000X0.170000X-0.140000X-0.170000X0.140000X-0.170000X0*%
%TD*%
%TA.AperFunction,SMDPad,CuDef*%
%ADD29R,0.250000X0.475000*%
%TD*%
%TA.AperFunction,SMDPad,CuDef*%
%ADD30R,0.475000X0.250000*%
%TD*%
%TA.AperFunction,SMDPad,CuDef*%
%ADD31RoundRect,0.218750X-0.256250X0.218750X-0.256250X-0.218750X0.256250X-0.218750X0.256250X0.218750X0*%
%TD*%
%TA.AperFunction,SMDPad,CuDef*%
%ADD32RoundRect,0.250000X0.250000X0.475000X-0.250000X0.475000X-0.250000X-0.475000X0.250000X-0.475000X0*%
%TD*%
%TA.AperFunction,SMDPad,CuDef*%
%ADD33RoundRect,0.225000X-0.250000X0.225000X-0.250000X-0.225000X0.250000X-0.225000X0.250000X0.225000X0*%
%TD*%
%TA.AperFunction,SMDPad,CuDef*%
%ADD34RoundRect,0.075000X-0.075000X0.662500X-0.075000X-0.662500X0.075000X-0.662500X0.075000X0.662500X0*%
%TD*%
%TA.AperFunction,SMDPad,CuDef*%
%ADD35RoundRect,0.075000X-0.662500X0.075000X-0.662500X-0.075000X0.662500X-0.075000X0.662500X0.075000X0*%
%TD*%
%TA.AperFunction,SMDPad,CuDef*%
%ADD36R,0.800000X1.000000*%
%TD*%
%TA.AperFunction,SMDPad,CuDef*%
%ADD37R,1.500000X0.700000*%
%TD*%
%TA.AperFunction,ViaPad*%
%ADD38C,0.800000*%
%TD*%
%TA.AperFunction,ViaPad*%
%ADD39C,0.700000*%
%TD*%
%TA.AperFunction,Conductor*%
%ADD40C,0.300000*%
%TD*%
%TA.AperFunction,Conductor*%
%ADD41C,0.500000*%
%TD*%
%TA.AperFunction,Conductor*%
%ADD42C,0.250000*%
%TD*%
%TA.AperFunction,Conductor*%
%ADD43C,0.200000*%
%TD*%
G04 APERTURE END LIST*
D10*
%TO.P,D18,1,K*%
%TO.N,/DIG2*%
X179845000Y-90575000D03*
%TO.P,D18,2,A*%
%TO.N,/SEGA*%
X179845000Y-89000000D03*
%TD*%
%TO.P,D17,1,K*%
%TO.N,/DIG1*%
X208165000Y-86525000D03*
%TO.P,D17,2,A*%
%TO.N,/SEGG*%
X208165000Y-84950000D03*
%TD*%
D11*
%TO.P,C3,1*%
%TO.N,+3.3V*%
X250575000Y-94703400D03*
%TO.P,C3,2*%
%TO.N,GND*%
X250575000Y-93743400D03*
%TD*%
D12*
%TO.P,R7,1*%
%TO.N,+3.3V*%
X236220000Y-97940000D03*
%TO.P,R7,2*%
%TO.N,Net-(U3-CSB1)*%
X236220000Y-98960000D03*
%TD*%
D13*
%TO.P,Level Shifter,1,1~{OE}*%
%TO.N,GND*%
X239345000Y-102288400D03*
%TO.P,Level Shifter,2,1A*%
%TO.N,/SPI2_SCK*%
X238075000Y-102288400D03*
%TO.P,Level Shifter,3,1Y*%
%TO.N,/SPI2_SCK5*%
X236805000Y-102288400D03*
%TO.P,Level Shifter,4,2~{OE}*%
%TO.N,GND*%
X235535000Y-102288400D03*
%TO.P,Level Shifter,5,2A*%
%TO.N,/SPI2_MOSI*%
X234265000Y-102288400D03*
%TO.P,Level Shifter,6,2Y*%
%TO.N,/SPI2_MOSI5*%
X232995000Y-102288400D03*
%TO.P,Level Shifter,7,GND*%
%TO.N,GND*%
X231725000Y-102288400D03*
%TO.P,Level Shifter,8,3Y*%
%TO.N,/SPI2_!CS5*%
X231725000Y-107238400D03*
%TO.P,Level Shifter,9,3A*%
%TO.N,/SPI2_!CS*%
X232995000Y-107238400D03*
%TO.P,Level Shifter,10,3~{OE}*%
%TO.N,GND*%
X234265000Y-107238400D03*
%TO.P,Level Shifter,11,4Y*%
%TO.N,unconnected-(U5-4Y-Pad11)*%
X235535000Y-107238400D03*
%TO.P,Level Shifter,12,4A*%
%TO.N,GND*%
X236805000Y-107238400D03*
%TO.P,Level Shifter,13,4~{OE}*%
X238075000Y-107238400D03*
%TO.P,Level Shifter,14,VCC*%
%TO.N,VBUS*%
X239345000Y-107238400D03*
%TD*%
D10*
%TO.P,D21,1,K*%
%TO.N,/DIG2*%
X191980000Y-90575000D03*
%TO.P,D21,2,A*%
%TO.N,/SEGD*%
X191980000Y-89000000D03*
%TD*%
%TO.P,D24,1,K*%
%TO.N,/DIG2*%
X204115000Y-90570000D03*
%TO.P,D24,2,A*%
%TO.N,/SEGF*%
X204115000Y-88995000D03*
%TD*%
%TO.P,D57,1,K*%
%TO.N,/DIG6*%
X208140000Y-106755000D03*
%TO.P,D57,2,A*%
%TO.N,/SEGG*%
X208140000Y-105180000D03*
%TD*%
D11*
%TO.P,C14,1*%
%TO.N,+3.3V*%
X238831600Y-96096400D03*
%TO.P,C14,2*%
%TO.N,GND*%
X238831600Y-95136400D03*
%TD*%
D10*
%TO.P,D33,1,K*%
%TO.N,/DIG3*%
X208155000Y-94620000D03*
%TO.P,D33,2,A*%
%TO.N,/SEGG*%
X208155000Y-93045000D03*
%TD*%
%TO.P,D36,1,K*%
%TO.N,/DIG4*%
X187925000Y-98665000D03*
%TO.P,D36,2,A*%
%TO.N,/SEGC*%
X187925000Y-97090000D03*
%TD*%
%TO.P,D50,1,K*%
%TO.N,/DIG6*%
X179825000Y-106760000D03*
%TO.P,D50,2,A*%
%TO.N,/SEGA*%
X179825000Y-105185000D03*
%TD*%
D14*
%TO.P,R3,1*%
%TO.N,Net-(J3-CC1)*%
X246502400Y-109588400D03*
%TO.P,R3,2*%
%TO.N,GND*%
X246502400Y-108568400D03*
%TD*%
D10*
%TO.P,D23,1,K*%
%TO.N,/DIG2*%
X200070000Y-90570000D03*
%TO.P,D23,2,A*%
%TO.N,/SEGE*%
X200070000Y-88995000D03*
%TD*%
%TO.P,D3,1,K*%
%TO.N,/DIG0*%
X183900000Y-82480000D03*
%TO.P,D3,2,A*%
%TO.N,/SEGB*%
X183900000Y-80905000D03*
%TD*%
D15*
%TO.P,C12,1*%
%TO.N,VBUS*%
X254275000Y-109843400D03*
%TO.P,C12,2*%
%TO.N,GND*%
X254275000Y-107943400D03*
%TD*%
D10*
%TO.P,D6,1,K*%
%TO.N,/DIG0*%
X196035000Y-82480000D03*
%TO.P,D6,2,A*%
%TO.N,/SEGDP*%
X196035000Y-80905000D03*
%TD*%
%TO.P,D41,1,K*%
%TO.N,/DIG4*%
X208150000Y-98665000D03*
%TO.P,D41,2,A*%
%TO.N,/SEGG*%
X208150000Y-97090000D03*
%TD*%
D16*
%TO.P,C11,1*%
%TO.N,/HSE_OUT*%
X246185000Y-94483400D03*
%TO.P,C11,2*%
%TO.N,GND*%
X247145000Y-94483400D03*
%TD*%
D14*
%TO.P,R2,1*%
%TO.N,Net-(J3-CC2)*%
X249194800Y-109588400D03*
%TO.P,R2,2*%
%TO.N,GND*%
X249194800Y-108568400D03*
%TD*%
D17*
%TO.P,MAX7219,1,DIN*%
%TO.N,/SPI2_MOSI5*%
X215724600Y-109575400D03*
%TO.P,MAX7219,2,DIG_0*%
%TO.N,/DIG0*%
X216994600Y-109575400D03*
%TO.P,MAX7219,3,DIG_4*%
%TO.N,/DIG4*%
X218264600Y-109575400D03*
%TO.P,MAX7219,4,GND*%
%TO.N,GND*%
X219534600Y-109575400D03*
%TO.P,MAX7219,5,DIG_6*%
%TO.N,/DIG6*%
X220804600Y-109575400D03*
%TO.P,MAX7219,6,DIG_2*%
%TO.N,/DIG2*%
X222074600Y-109575400D03*
%TO.P,MAX7219,7,DIG_3*%
%TO.N,/DIG3*%
X223344600Y-109575400D03*
%TO.P,MAX7219,8,DIG_7*%
%TO.N,/DIG7*%
X224614600Y-109575400D03*
%TO.P,MAX7219,9,GND__1*%
%TO.N,GND*%
X225884600Y-109575400D03*
%TO.P,MAX7219,10,DIG_5*%
%TO.N,/DIG5*%
X227154600Y-109575400D03*
%TO.P,MAX7219,11,DIG_1*%
%TO.N,/DIG1*%
X228424600Y-109575400D03*
%TO.P,MAX7219,12,LOAD*%
%TO.N,/SPI2_!CS5*%
X229694600Y-109575400D03*
%TO.P,MAX7219,13,CLK*%
%TO.N,/SPI2_SCK5*%
X229694600Y-100265400D03*
%TO.P,MAX7219,14,SEG_A*%
%TO.N,/SEGA*%
X228424600Y-100265400D03*
%TO.P,MAX7219,15,SEG_F*%
%TO.N,/SEGF*%
X227154600Y-100265400D03*
%TO.P,MAX7219,16,SEG_B*%
%TO.N,/SEGB*%
X225884600Y-100265400D03*
%TO.P,MAX7219,17,SEG_G*%
%TO.N,/SEGG*%
X224614600Y-100265400D03*
%TO.P,MAX7219,18,ISET*%
%TO.N,Net-(U4-ISET)*%
X223344600Y-100265400D03*
%TO.P,MAX7219,19,V+*%
%TO.N,VBUS*%
X222074600Y-100265400D03*
%TO.P,MAX7219,20,SEG_C*%
%TO.N,/SEGC*%
X220804600Y-100265400D03*
%TO.P,MAX7219,21,SEG_E*%
%TO.N,/SEGE*%
X219534600Y-100265400D03*
%TO.P,MAX7219,22,SEG_DP*%
%TO.N,/SEGDP*%
X218264600Y-100265400D03*
%TO.P,MAX7219,23,SEG_D*%
%TO.N,/SEGD*%
X216994600Y-100265400D03*
%TO.P,MAX7219,24,DOUT*%
%TO.N,unconnected-(U4-DOUT-Pad24)*%
X215724600Y-100265400D03*
%TD*%
D10*
%TO.P,D34,1,K*%
%TO.N,/DIG4*%
X179835000Y-98665000D03*
%TO.P,D34,2,A*%
%TO.N,/SEGA*%
X179835000Y-97090000D03*
%TD*%
%TO.P,D55,1,K*%
%TO.N,/DIG6*%
X200050000Y-106760000D03*
%TO.P,D55,2,A*%
%TO.N,/SEGE*%
X200050000Y-105185000D03*
%TD*%
D18*
%TO.P,AMS1117,1,GND*%
%TO.N,GND*%
X256605000Y-106663400D03*
%TO.P,AMS1117,2,VO*%
%TO.N,+3.3V*%
X256605000Y-108963400D03*
D19*
X262905000Y-108963400D03*
D18*
%TO.P,AMS1117,3,VI*%
%TO.N,VBUS*%
X256605000Y-111263400D03*
%TD*%
D10*
%TO.P,D56,1,K*%
%TO.N,/DIG6*%
X204095000Y-106755000D03*
%TO.P,D56,2,A*%
%TO.N,/SEGF*%
X204095000Y-105180000D03*
%TD*%
%TO.P,D9,1,K*%
%TO.N,/DIG0*%
X208170000Y-82480000D03*
%TO.P,D9,2,A*%
%TO.N,/SEGG*%
X208170000Y-80905000D03*
%TD*%
%TO.P,D30,1,K*%
%TO.N,/DIG3*%
X196020000Y-94620000D03*
%TO.P,D30,2,A*%
%TO.N,/SEGDP*%
X196020000Y-93045000D03*
%TD*%
%TO.P,D52,1,K*%
%TO.N,/DIG6*%
X187915000Y-106760000D03*
%TO.P,D52,2,A*%
%TO.N,/SEGC*%
X187915000Y-105185000D03*
%TD*%
%TO.P,D28,1,K*%
%TO.N,/DIG3*%
X187930000Y-94620000D03*
%TO.P,D28,2,A*%
%TO.N,/SEGC*%
X187930000Y-93045000D03*
%TD*%
%TO.P,D35,1,K*%
%TO.N,/DIG4*%
X183880000Y-98665000D03*
%TO.P,D35,2,A*%
%TO.N,/SEGB*%
X183880000Y-97090000D03*
%TD*%
%TO.P,D5,1,K*%
%TO.N,/DIG0*%
X191990000Y-82480000D03*
%TO.P,D5,2,A*%
%TO.N,/SEGD*%
X191990000Y-80905000D03*
%TD*%
%TO.P,D63,1,K*%
%TO.N,/DIG7*%
X200045000Y-110805000D03*
%TO.P,D63,2,A*%
%TO.N,/SEGE*%
X200045000Y-109230000D03*
%TD*%
D11*
%TO.P,C7,1*%
%TO.N,+3.3VA*%
X244095000Y-94733400D03*
%TO.P,C7,2*%
%TO.N,GND*%
X244095000Y-93773400D03*
%TD*%
D10*
%TO.P,D62,1,K*%
%TO.N,/DIG7*%
X196000000Y-110805000D03*
%TO.P,D62,2,A*%
%TO.N,/SEGDP*%
X196000000Y-109230000D03*
%TD*%
D20*
%TO.P,C16,1*%
%TO.N,VBUS*%
X222744600Y-96280400D03*
%TO.P,C16,2*%
%TO.N,GND*%
X221194600Y-96280400D03*
%TD*%
D10*
%TO.P,D31,1,K*%
%TO.N,/DIG3*%
X200065000Y-94620000D03*
%TO.P,D31,2,A*%
%TO.N,/SEGE*%
X200065000Y-93045000D03*
%TD*%
%TO.P,D8,1,K*%
%TO.N,/DIG0*%
X204125000Y-82480000D03*
%TO.P,D8,2,A*%
%TO.N,/SEGF*%
X204125000Y-80905000D03*
%TD*%
D21*
%TO.P,C15,1*%
%TO.N,+3.3V*%
X240685000Y-101513400D03*
%TO.P,C15,2*%
%TO.N,GND*%
X240685000Y-102473400D03*
%TD*%
D10*
%TO.P,D65,1,K*%
%TO.N,/DIG7*%
X208135000Y-110805000D03*
%TO.P,D65,2,A*%
%TO.N,/SEGG*%
X208135000Y-109230000D03*
%TD*%
D16*
%TO.P,C9,1*%
%TO.N,/NRST*%
X250848400Y-96099000D03*
%TO.P,C9,2*%
%TO.N,GND*%
X251808400Y-96099000D03*
%TD*%
D10*
%TO.P,D44,1,K*%
%TO.N,/DIG5*%
X187920000Y-102715000D03*
%TO.P,D44,2,A*%
%TO.N,/SEGC*%
X187920000Y-101140000D03*
%TD*%
D11*
%TO.P,C8,1*%
%TO.N,+3.3V*%
X243085000Y-93283400D03*
%TO.P,C8,2*%
%TO.N,GND*%
X243085000Y-92323400D03*
%TD*%
D10*
%TO.P,D61,1,K*%
%TO.N,/DIG7*%
X191955000Y-110805000D03*
%TO.P,D61,2,A*%
%TO.N,/SEGD*%
X191955000Y-109230000D03*
%TD*%
%TO.P,D54,1,K*%
%TO.N,/DIG6*%
X196005000Y-106760000D03*
%TO.P,D54,2,A*%
%TO.N,/SEGDP*%
X196005000Y-105185000D03*
%TD*%
%TO.P,D60,1,K*%
%TO.N,/DIG7*%
X187910000Y-110805000D03*
%TO.P,D60,2,A*%
%TO.N,/SEGC*%
X187910000Y-109230000D03*
%TD*%
D22*
%TO.P,FB1,1*%
%TO.N,+3.3VA*%
X242862500Y-94553400D03*
%TO.P,FB1,2*%
%TO.N,+3.3V*%
X241287500Y-94553400D03*
%TD*%
D10*
%TO.P,D19,1,K*%
%TO.N,/DIG2*%
X183890000Y-90575000D03*
%TO.P,D19,2,A*%
%TO.N,/SEGB*%
X183890000Y-89000000D03*
%TD*%
%TO.P,D32,1,K*%
%TO.N,/DIG3*%
X204110000Y-94620000D03*
%TO.P,D32,2,A*%
%TO.N,/SEGF*%
X204110000Y-93045000D03*
%TD*%
D23*
%TO.P,Y1,1,1*%
%TO.N,/HSE_IN*%
X248975000Y-90503400D03*
%TO.P,Y1,2,2*%
%TO.N,GND*%
X246775000Y-90503400D03*
%TO.P,Y1,3,3*%
%TO.N,/HSE_OUT*%
X246775000Y-92203400D03*
%TO.P,Y1,4,4*%
%TO.N,GND*%
X248975000Y-92203400D03*
%TD*%
D10*
%TO.P,D40,1,K*%
%TO.N,/DIG4*%
X204105000Y-98665000D03*
%TO.P,D40,2,A*%
%TO.N,/SEGF*%
X204105000Y-97090000D03*
%TD*%
D14*
%TO.P,R5,1*%
%TO.N,/PWR_LED*%
X260695000Y-97303400D03*
%TO.P,R5,2*%
%TO.N,GND*%
X260695000Y-96283400D03*
%TD*%
D10*
%TO.P,D10,1,K*%
%TO.N,/DIG1*%
X179850000Y-86530000D03*
%TO.P,D10,2,A*%
%TO.N,/SEGA*%
X179850000Y-84955000D03*
%TD*%
D24*
%TO.P,J3,A1,GND*%
%TO.N,GND*%
X244370000Y-111485000D03*
%TO.P,J3,A4,VBUS*%
%TO.N,VBUS*%
X245170000Y-111485000D03*
D25*
%TO.P,J3,A5,CC1*%
%TO.N,Net-(J3-CC1)*%
X246370000Y-111485000D03*
%TO.P,J3,A6,D+*%
%TO.N,/USB_D+*%
X247370000Y-111485000D03*
%TO.P,J3,A7,D-*%
%TO.N,/USB_D-*%
X247870000Y-111485000D03*
%TO.P,J3,A8,SBU1*%
%TO.N,unconnected-(J3-SBU1-PadA8)*%
X248870000Y-111485000D03*
D24*
%TO.P,J3,A9,VBUS*%
%TO.N,VBUS*%
X250070000Y-111485000D03*
%TO.P,J3,A12,GND*%
%TO.N,GND*%
X250870000Y-111485000D03*
%TO.P,J3,B1,GND*%
X250870000Y-111485000D03*
%TO.P,J3,B4,VBUS*%
%TO.N,VBUS*%
X250070000Y-111485000D03*
D25*
%TO.P,J3,B5,CC2*%
%TO.N,Net-(J3-CC2)*%
X249370000Y-111485000D03*
%TO.P,J3,B6,D+*%
%TO.N,/USB_D+*%
X248370000Y-111485000D03*
%TO.P,J3,B7,D-*%
%TO.N,/USB_D-*%
X246870000Y-111485000D03*
%TO.P,J3,B8,SBU2*%
%TO.N,unconnected-(J3-SBU2-PadB8)*%
X245870000Y-111485000D03*
D24*
%TO.P,J3,B9,VBUS*%
%TO.N,VBUS*%
X245170000Y-111485000D03*
%TO.P,J3,B12,GND*%
%TO.N,GND*%
X244370000Y-111485000D03*
D26*
%TO.P,J3,S1,SHIELD*%
X243300000Y-112400000D03*
D27*
X243300000Y-116580000D03*
D26*
X251940000Y-112400000D03*
D27*
X251940000Y-116580000D03*
%TD*%
D10*
%TO.P,D53,1,K*%
%TO.N,/DIG6*%
X191960000Y-106760000D03*
%TO.P,D53,2,A*%
%TO.N,/SEGD*%
X191960000Y-105185000D03*
%TD*%
D16*
%TO.P,C18,1*%
%TO.N,VBUS*%
X240655000Y-107203400D03*
%TO.P,C18,2*%
%TO.N,GND*%
X241615000Y-107203400D03*
%TD*%
D21*
%TO.P,C1,1*%
%TO.N,+3.3V*%
X252903200Y-97473200D03*
%TO.P,C1,2*%
%TO.N,GND*%
X252903200Y-98433200D03*
%TD*%
D10*
%TO.P,D64,1,K*%
%TO.N,/DIG7*%
X204090000Y-110805000D03*
%TO.P,D64,2,A*%
%TO.N,/SEGF*%
X204090000Y-109230000D03*
%TD*%
D28*
%TO.P,C2,1*%
%TO.N,+3.3V*%
X250132000Y-106233600D03*
%TO.P,C2,2*%
%TO.N,GND*%
X249172000Y-106233600D03*
%TD*%
D29*
%TO.P,U3,1,INT2*%
%TO.N,unconnected-(U3-INT2-Pad1)*%
X237839600Y-97250400D03*
%TO.P,U3,2,NC*%
%TO.N,GND*%
X238339600Y-97250400D03*
%TO.P,U3,3,VDD*%
%TO.N,+3.3V*%
X238839600Y-97250400D03*
%TO.P,U3,4,GNDA*%
%TO.N,GND*%
X239339600Y-97250400D03*
%TO.P,U3,5,CSB2*%
%TO.N,/SPI1_!CS_GYR*%
X239839600Y-97250400D03*
%TO.P,U3,6,GNDIO*%
%TO.N,GND*%
X240339600Y-97250400D03*
%TO.P,U3,7,PS*%
X240839600Y-97250400D03*
D30*
%TO.P,U3,8,SCL/SCK*%
%TO.N,/SPI1_SCK*%
X241249600Y-98400400D03*
D29*
%TO.P,U3,9,SDA/SDI*%
%TO.N,/SPI1_MOSI*%
X240839600Y-99560400D03*
%TO.P,U3,10,SDO2*%
%TO.N,/SPI1_MISO*%
X240339600Y-99560400D03*
%TO.P,U3,11,VDDIO*%
%TO.N,+3.3V*%
X239839600Y-99560400D03*
%TO.P,U3,12,INT3*%
%TO.N,/INT_GYR*%
X239339600Y-99570400D03*
%TO.P,U3,13,INT4*%
%TO.N,unconnected-(U3-INT4-Pad13)*%
X238839600Y-99570400D03*
%TO.P,U3,14,CSB1*%
%TO.N,Net-(U3-CSB1)*%
X238339600Y-99570400D03*
%TO.P,U3,15,SDO1*%
%TO.N,unconnected-(U3-SDO1-Pad15)*%
X237839600Y-99570400D03*
D30*
%TO.P,U3,16,INT1*%
%TO.N,unconnected-(U3-INT1-Pad16)*%
X237429600Y-98410400D03*
%TD*%
D10*
%TO.P,D48,1,K*%
%TO.N,/DIG5*%
X204100000Y-102710000D03*
%TO.P,D48,2,A*%
%TO.N,/SEGF*%
X204100000Y-101135000D03*
%TD*%
%TO.P,D29,1,K*%
%TO.N,/DIG3*%
X191975000Y-94620000D03*
%TO.P,D29,2,A*%
%TO.N,/SEGD*%
X191975000Y-93045000D03*
%TD*%
%TO.P,D15,1,K*%
%TO.N,/DIG1*%
X200075000Y-86525000D03*
%TO.P,D15,2,A*%
%TO.N,/SEGE*%
X200075000Y-84950000D03*
%TD*%
%TO.P,D45,1,K*%
%TO.N,/DIG5*%
X191965000Y-102710000D03*
%TO.P,D45,2,A*%
%TO.N,/SEGD*%
X191965000Y-101135000D03*
%TD*%
D12*
%TO.P,R6,1*%
%TO.N,VBUS*%
X224109600Y-95705400D03*
%TO.P,R6,2*%
%TO.N,Net-(U4-ISET)*%
X224109600Y-96725400D03*
%TD*%
D10*
%TO.P,D43,1,K*%
%TO.N,/DIG5*%
X183875000Y-102715000D03*
%TO.P,D43,2,A*%
%TO.N,/SEGB*%
X183875000Y-101140000D03*
%TD*%
%TO.P,D59,1,K*%
%TO.N,/DIG7*%
X183865000Y-110805000D03*
%TO.P,D59,2,A*%
%TO.N,/SEGB*%
X183865000Y-109230000D03*
%TD*%
%TO.P,D51,1,K*%
%TO.N,/DIG6*%
X183870000Y-106760000D03*
%TO.P,D51,2,A*%
%TO.N,/SEGB*%
X183870000Y-105185000D03*
%TD*%
D31*
%TO.P,D1,1,K*%
%TO.N,/PWR_LED*%
X260665000Y-98655900D03*
%TO.P,D1,2,A*%
%TO.N,+3.3V*%
X260665000Y-100230900D03*
%TD*%
D10*
%TO.P,D26,1,K*%
%TO.N,/DIG3*%
X179840000Y-94620000D03*
%TO.P,D26,2,A*%
%TO.N,/SEGA*%
X179840000Y-93045000D03*
%TD*%
%TO.P,D22,1,K*%
%TO.N,/DIG2*%
X196025000Y-90575000D03*
%TO.P,D22,2,A*%
%TO.N,/SEGDP*%
X196025000Y-89000000D03*
%TD*%
%TO.P,D47,1,K*%
%TO.N,/DIG5*%
X200055000Y-102710000D03*
%TO.P,D47,2,A*%
%TO.N,/SEGE*%
X200055000Y-101135000D03*
%TD*%
%TO.P,D27,1,K*%
%TO.N,/DIG3*%
X183885000Y-94620000D03*
%TO.P,D27,2,A*%
%TO.N,/SEGB*%
X183885000Y-93045000D03*
%TD*%
D32*
%TO.P,C13,1*%
%TO.N,+3.3V*%
X260795000Y-104163400D03*
%TO.P,C13,2*%
%TO.N,GND*%
X258895000Y-104163400D03*
%TD*%
D14*
%TO.P,R1,1*%
%TO.N,/SW_BOOT0*%
X254325600Y-100698400D03*
%TO.P,R1,2*%
%TO.N,/BOOT0*%
X254325600Y-99678400D03*
%TD*%
D10*
%TO.P,D25,1,K*%
%TO.N,/DIG2*%
X208160000Y-90570000D03*
%TO.P,D25,2,A*%
%TO.N,/SEGG*%
X208160000Y-88995000D03*
%TD*%
D33*
%TO.P,C5,1*%
%TO.N,+3.3V*%
X254224000Y-96873400D03*
%TO.P,C5,2*%
%TO.N,GND*%
X254224000Y-98423400D03*
%TD*%
D10*
%TO.P,D42,1,K*%
%TO.N,/DIG5*%
X179830000Y-102715000D03*
%TO.P,D42,2,A*%
%TO.N,/SEGA*%
X179830000Y-101140000D03*
%TD*%
%TO.P,D14,1,K*%
%TO.N,/DIG1*%
X196030000Y-86525000D03*
%TO.P,D14,2,A*%
%TO.N,/SEGDP*%
X196030000Y-84950000D03*
%TD*%
%TO.P,D39,1,K*%
%TO.N,/DIG4*%
X200060000Y-98665000D03*
%TO.P,D39,2,A*%
%TO.N,/SEGE*%
X200060000Y-97090000D03*
%TD*%
%TO.P,D49,1,K*%
%TO.N,/DIG5*%
X208145000Y-102710000D03*
%TO.P,D49,2,A*%
%TO.N,/SEGG*%
X208145000Y-101135000D03*
%TD*%
%TO.P,D46,1,K*%
%TO.N,/DIG5*%
X196010000Y-102710000D03*
%TO.P,D46,2,A*%
%TO.N,/SEGDP*%
X196010000Y-101135000D03*
%TD*%
D34*
%TO.P,U6,1,VDD*%
%TO.N,+3.3V*%
X249862000Y-96279900D03*
%TO.P,U6,2,PC13*%
%TO.N,unconnected-(U6-PC13-Pad2)*%
X249362000Y-96279900D03*
%TO.P,U6,3,PC14*%
%TO.N,unconnected-(U6-PC14-Pad3)*%
X248862000Y-96279900D03*
%TO.P,U6,4,PC15*%
%TO.N,unconnected-(U6-PC15-Pad4)*%
X248362000Y-96279900D03*
%TO.P,U6,5,PF0*%
%TO.N,/HSE_IN*%
X247862000Y-96279900D03*
%TO.P,U6,6,PF1*%
%TO.N,/HSE_OUT*%
X247362000Y-96279900D03*
%TO.P,U6,7,NRST*%
%TO.N,/NRST*%
X246862000Y-96279900D03*
%TO.P,U6,8,VSSA*%
%TO.N,GND*%
X246362000Y-96279900D03*
%TO.P,U6,9,VDDA*%
%TO.N,+3.3VA*%
X245862000Y-96279900D03*
%TO.P,U6,10,PA0*%
%TO.N,unconnected-(U6-PA0-Pad10)*%
X245362000Y-96279900D03*
%TO.P,U6,11,PA1*%
%TO.N,unconnected-(U6-PA1-Pad11)*%
X244862000Y-96279900D03*
%TO.P,U6,12,PA2*%
%TO.N,unconnected-(U6-PA2-Pad12)*%
X244362000Y-96279900D03*
D35*
%TO.P,U6,13,PA3*%
%TO.N,unconnected-(U6-PA3-Pad13)*%
X242949500Y-97692400D03*
%TO.P,U6,14,PA4*%
%TO.N,/SPI1_!CS_GYR*%
X242949500Y-98192400D03*
%TO.P,U6,15,PA5*%
%TO.N,/SPI1_SCK*%
X242949500Y-98692400D03*
%TO.P,U6,16,PA6*%
%TO.N,/SPI1_MISO*%
X242949500Y-99192400D03*
%TO.P,U6,17,PA7*%
%TO.N,/SPI1_MOSI*%
X242949500Y-99692400D03*
%TO.P,U6,18,PB0*%
%TO.N,unconnected-(U6-PB0-Pad18)*%
X242949500Y-100192400D03*
%TO.P,U6,19,PB1*%
%TO.N,/INT_GYR*%
X242949500Y-100692400D03*
%TO.P,U6,20,PB2*%
%TO.N,unconnected-(U6-PB2-Pad20)*%
X242949500Y-101192400D03*
%TO.P,U6,21,PB10*%
%TO.N,unconnected-(U6-PB10-Pad21)*%
X242949500Y-101692400D03*
%TO.P,U6,22,PB11*%
%TO.N,unconnected-(U6-PB11-Pad22)*%
X242949500Y-102192400D03*
%TO.P,U6,23,VSS*%
%TO.N,GND*%
X242949500Y-102692400D03*
%TO.P,U6,24,VDD*%
%TO.N,+3.3V*%
X242949500Y-103192400D03*
D34*
%TO.P,U6,25,PB12*%
%TO.N,unconnected-(U6-PB12-Pad25)*%
X244362000Y-104604900D03*
%TO.P,U6,26,PB13*%
%TO.N,/SPI2_SCK*%
X244862000Y-104604900D03*
%TO.P,U6,27,PB14*%
%TO.N,/SPI2_!CS*%
X245362000Y-104604900D03*
%TO.P,U6,28,PB15*%
%TO.N,/SPI2_MOSI*%
X245862000Y-104604900D03*
%TO.P,U6,29,PA8*%
%TO.N,unconnected-(U6-PA8-Pad29)*%
X246362000Y-104604900D03*
%TO.P,U6,30,PA9*%
%TO.N,unconnected-(U6-PA9-Pad30)*%
X246862000Y-104604900D03*
%TO.P,U6,31,PA10*%
%TO.N,unconnected-(U6-PA10-Pad31)*%
X247362000Y-104604900D03*
%TO.P,U6,32,PA11*%
%TO.N,/USB_D-*%
X247862000Y-104604900D03*
%TO.P,U6,33,PA12*%
%TO.N,/USB_D+*%
X248362000Y-104604900D03*
%TO.P,U6,34,PA13*%
%TO.N,unconnected-(U6-PA13-Pad34)*%
X248862000Y-104604900D03*
%TO.P,U6,35,VSS*%
%TO.N,GND*%
X249362000Y-104604900D03*
%TO.P,U6,36,VDD*%
%TO.N,+3.3V*%
X249862000Y-104604900D03*
D35*
%TO.P,U6,37,PA14*%
%TO.N,unconnected-(U6-PA14-Pad37)*%
X251274500Y-103192400D03*
%TO.P,U6,38,PA15*%
%TO.N,unconnected-(U6-PA15-Pad38)*%
X251274500Y-102692400D03*
%TO.P,U6,39,PB3*%
%TO.N,unconnected-(U6-PB3-Pad39)*%
X251274500Y-102192400D03*
%TO.P,U6,40,PB4*%
%TO.N,unconnected-(U6-PB4-Pad40)*%
X251274500Y-101692400D03*
%TO.P,U6,41,PB5*%
%TO.N,unconnected-(U6-PB5-Pad41)*%
X251274500Y-101192400D03*
%TO.P,U6,42,PB6*%
%TO.N,unconnected-(U6-PB6-Pad42)*%
X251274500Y-100692400D03*
%TO.P,U6,43,PB7*%
%TO.N,unconnected-(U6-PB7-Pad43)*%
X251274500Y-100192400D03*
%TO.P,U6,44,BOOT0*%
%TO.N,/BOOT0*%
X251274500Y-99692400D03*
%TO.P,U6,45,PB8*%
%TO.N,unconnected-(U6-PB8-Pad45)*%
X251274500Y-99192400D03*
%TO.P,U6,46,PB9*%
%TO.N,unconnected-(U6-PB9-Pad46)*%
X251274500Y-98692400D03*
%TO.P,U6,47,VSS*%
%TO.N,GND*%
X251274500Y-98192400D03*
%TO.P,U6,48,VDD*%
%TO.N,+3.3V*%
X251274500Y-97692400D03*
%TD*%
D10*
%TO.P,D16,1,K*%
%TO.N,/DIG1*%
X204120000Y-86525000D03*
%TO.P,D16,2,A*%
%TO.N,/SEGF*%
X204120000Y-84950000D03*
%TD*%
D36*
%TO.P,SW1,*%
%TO.N,*%
X262370000Y-93420000D03*
X264580000Y-93420000D03*
X262370000Y-86120000D03*
X264580000Y-86120000D03*
D37*
%TO.P,SW1,1,A*%
%TO.N,GND*%
X261720000Y-92020000D03*
%TO.P,SW1,2,B*%
%TO.N,/SW_BOOT0*%
X261720000Y-89020000D03*
%TO.P,SW1,3,C*%
%TO.N,+3.3V*%
X261720000Y-87520000D03*
%TD*%
D10*
%TO.P,D2,1,K*%
%TO.N,/DIG0*%
X179855000Y-82480000D03*
%TO.P,D2,2,A*%
%TO.N,/SEGA*%
X179855000Y-80905000D03*
%TD*%
%TO.P,D4,1,K*%
%TO.N,/DIG0*%
X187945000Y-82480000D03*
%TO.P,D4,2,A*%
%TO.N,/SEGC*%
X187945000Y-80905000D03*
%TD*%
%TO.P,D12,1,K*%
%TO.N,/DIG1*%
X187940000Y-86525000D03*
%TO.P,D12,2,A*%
%TO.N,/SEGC*%
X187940000Y-84950000D03*
%TD*%
D16*
%TO.P,C10,1*%
%TO.N,/HSE_IN*%
X248645000Y-94723400D03*
%TO.P,C10,2*%
%TO.N,GND*%
X249605000Y-94723400D03*
%TD*%
D10*
%TO.P,D20,1,K*%
%TO.N,/DIG2*%
X187935000Y-90575000D03*
%TO.P,D20,2,A*%
%TO.N,/SEGC*%
X187935000Y-89000000D03*
%TD*%
D28*
%TO.P,C17,1*%
%TO.N,VBUS*%
X222539600Y-98320400D03*
%TO.P,C17,2*%
%TO.N,GND*%
X221579600Y-98320400D03*
%TD*%
D10*
%TO.P,D11,1,K*%
%TO.N,/DIG1*%
X183895000Y-86530000D03*
%TO.P,D11,2,A*%
%TO.N,/SEGB*%
X183895000Y-84955000D03*
%TD*%
%TO.P,D58,1,K*%
%TO.N,/DIG7*%
X179820000Y-110805000D03*
%TO.P,D58,2,A*%
%TO.N,/SEGA*%
X179820000Y-109230000D03*
%TD*%
%TO.P,D37,1,K*%
%TO.N,/DIG4*%
X191970000Y-98665000D03*
%TO.P,D37,2,A*%
%TO.N,/SEGD*%
X191970000Y-97090000D03*
%TD*%
%TO.P,D38,1,K*%
%TO.N,/DIG4*%
X196015000Y-98665000D03*
%TO.P,D38,2,A*%
%TO.N,/SEGDP*%
X196015000Y-97090000D03*
%TD*%
%TO.P,D13,1,K*%
%TO.N,/DIG1*%
X191985000Y-86525000D03*
%TO.P,D13,2,A*%
%TO.N,/SEGD*%
X191985000Y-84950000D03*
%TD*%
D11*
%TO.P,C6,1*%
%TO.N,+3.3VA*%
X245181600Y-94724800D03*
%TO.P,C6,2*%
%TO.N,GND*%
X245181600Y-93764800D03*
%TD*%
D10*
%TO.P,D7,1,K*%
%TO.N,/DIG0*%
X200080000Y-82480000D03*
%TO.P,D7,2,A*%
%TO.N,/SEGE*%
X200080000Y-80905000D03*
%TD*%
D28*
%TO.P,C4,1*%
%TO.N,+3.3V*%
X242735000Y-104133400D03*
%TO.P,C4,2*%
%TO.N,GND*%
X241775000Y-104133400D03*
%TD*%
D38*
%TO.N,+3.3V*%
X237195000Y-96123400D03*
X236115000Y-94733400D03*
X244325000Y-100733400D03*
X241195000Y-100553400D03*
%TO.N,GND*%
X219529600Y-107890400D03*
D39*
X247985000Y-93873400D03*
D38*
X249875000Y-98173400D03*
X221210000Y-94940000D03*
X244765000Y-102173400D03*
D39*
X258005000Y-106963400D03*
D38*
X246755000Y-89163400D03*
X234885000Y-105763400D03*
X238080000Y-109010000D03*
X231745000Y-103963400D03*
D39*
X254785000Y-106713400D03*
X253755000Y-106713400D03*
D38*
X250865000Y-92833400D03*
D39*
X258005000Y-106023400D03*
D38*
X246325000Y-97713400D03*
X241770000Y-96900000D03*
X240385000Y-103403400D03*
X242655000Y-107213400D03*
X252745000Y-95593400D03*
X260715000Y-95173400D03*
X238470000Y-98260000D03*
X234899600Y-100770400D03*
X237425000Y-105723400D03*
X225889600Y-107890400D03*
X243485000Y-110643400D03*
X243080000Y-91360000D03*
X250445000Y-91843400D03*
X260110000Y-92030000D03*
X244090000Y-92790000D03*
X239865000Y-94353400D03*
X249185000Y-107593400D03*
X250865000Y-110253400D03*
X249345000Y-103173400D03*
X245165000Y-92823400D03*
X246465000Y-107513400D03*
D39*
X258925000Y-102953400D03*
D38*
%TO.N,VBUS*%
X232079600Y-110280400D03*
X229799600Y-107730400D03*
%TO.N,/SEGB*%
X182780000Y-89700000D03*
X182780000Y-93750000D03*
X182780000Y-85650000D03*
X182770000Y-103670000D03*
X182770000Y-95570000D03*
X182780000Y-81599500D03*
X182770000Y-91520000D03*
X182770000Y-87470000D03*
X182780000Y-101850000D03*
X182770000Y-83419500D03*
X182770000Y-107720000D03*
X182770000Y-99620000D03*
X182780000Y-97800000D03*
X182780000Y-105900000D03*
%TO.N,/SEGC*%
X186825000Y-101850500D03*
X186825000Y-97800500D03*
X186815000Y-91520500D03*
X186815000Y-107720500D03*
X186825000Y-93750500D03*
X186815000Y-99620500D03*
X186820000Y-85649500D03*
X186825000Y-105900500D03*
X186815000Y-83420500D03*
X186815000Y-103670500D03*
X186825000Y-81600500D03*
X186825000Y-89700500D03*
X186815000Y-95570500D03*
X186810000Y-87469500D03*
%TO.N,/SEGD*%
X190855000Y-107725000D03*
X190860000Y-85654000D03*
X190865000Y-105905000D03*
X190865000Y-101855000D03*
X190865000Y-97805000D03*
X190850000Y-87474000D03*
X190865000Y-89705000D03*
X190855000Y-83425000D03*
X190855000Y-91525000D03*
X190865000Y-93755000D03*
X190855000Y-103675000D03*
X190855000Y-99625000D03*
X190855000Y-95575000D03*
X190865000Y-81605000D03*
%TO.N,/SEGDP*%
X194915000Y-101855000D03*
X194905000Y-99625000D03*
X194910000Y-85654000D03*
X194915000Y-93755000D03*
X194915000Y-89705000D03*
X194905000Y-107725000D03*
X194905000Y-91525000D03*
X194915000Y-105905000D03*
X194915000Y-97805000D03*
X194905000Y-95575000D03*
X194900000Y-87474000D03*
X194905000Y-83425000D03*
X217305688Y-77984312D03*
X194915000Y-81605000D03*
X194905000Y-103675000D03*
X214950000Y-78039500D03*
%TO.N,/SEGE*%
X215930000Y-80210000D03*
X198955000Y-101855000D03*
X198940000Y-87474000D03*
X198945000Y-99625000D03*
X198945000Y-91525000D03*
X198955000Y-81605000D03*
X198955000Y-105905000D03*
X219114100Y-80420000D03*
X198945000Y-107725000D03*
X198955000Y-89705000D03*
X198945000Y-103675000D03*
X198955000Y-97805000D03*
X198945000Y-95575000D03*
X198955000Y-93755000D03*
X198945000Y-83425000D03*
X198950000Y-85654000D03*
%TO.N,/SEGF*%
X202990000Y-85654000D03*
X202995000Y-89705000D03*
X202995000Y-101855000D03*
X202995000Y-97805000D03*
X202985000Y-99625000D03*
X226734100Y-84620000D03*
X202985000Y-91525000D03*
X202985000Y-83425000D03*
X216060000Y-82210000D03*
X202985000Y-95575000D03*
X202995000Y-93755000D03*
X202995000Y-81605000D03*
X225035100Y-84620000D03*
X202985000Y-107725000D03*
X202995000Y-105905000D03*
X202985000Y-103675000D03*
X202980000Y-87474000D03*
X220980000Y-82210000D03*
%TO.N,/SEGG*%
X207030000Y-85654000D03*
X207025000Y-95575000D03*
X207020000Y-87474000D03*
X207025000Y-99625000D03*
X207025000Y-91525000D03*
X216020000Y-83980000D03*
X220950000Y-83980000D03*
X207035000Y-105905000D03*
X207035000Y-89705000D03*
X207035000Y-93755000D03*
X207035000Y-81605000D03*
X207035000Y-101855000D03*
X207035000Y-97805000D03*
X207025000Y-107725000D03*
X207025000Y-83425000D03*
X207025000Y-103675000D03*
%TO.N,/DIG1*%
X215860000Y-101970000D03*
X214130100Y-100650000D03*
%TO.N,/DIG2*%
X214030000Y-103370000D03*
X215829100Y-103640000D03*
%TO.N,/DIG3*%
X222650000Y-111649900D03*
X222924100Y-107850000D03*
%TO.N,/DIG4*%
X217430000Y-112499400D03*
X217880000Y-107930000D03*
%TO.N,/DIG5*%
X226920000Y-107870000D03*
X226940000Y-111649900D03*
%TO.N,/DIG7*%
X225170000Y-114270000D03*
X224730000Y-107820000D03*
%TO.N,/SW_BOOT0*%
X258052219Y-99500243D03*
X256848757Y-100699533D03*
%TO.N,/SPI2_!CS*%
X236395000Y-104853400D03*
X240695000Y-104863400D03*
%TO.N,/DIG6*%
X220650000Y-107880000D03*
X220220000Y-114198900D03*
%TD*%
D40*
%TO.N,+3.3V*%
X252076000Y-97692400D02*
X252295200Y-97473200D01*
X250132000Y-106233600D02*
X250132000Y-104874900D01*
D41*
X254675000Y-94703400D02*
X254675000Y-94003400D01*
D42*
X240490000Y-100823400D02*
X240490000Y-101318400D01*
D40*
X261320000Y-87520000D02*
X256115000Y-92725000D01*
D42*
X243827685Y-103117400D02*
X245085000Y-103117400D01*
D40*
X251274500Y-97692400D02*
X252076000Y-97692400D01*
D41*
X242625000Y-88313400D02*
X241195000Y-89743400D01*
X260795000Y-104163400D02*
X261412500Y-103545900D01*
D40*
X249862000Y-96279900D02*
X249862000Y-95469365D01*
D41*
X260752500Y-102153400D02*
X260105000Y-102153400D01*
D42*
X250070000Y-102873095D02*
X249645305Y-102448400D01*
X241195000Y-100553400D02*
X241195000Y-101003400D01*
D41*
X254675000Y-94003400D02*
X248985000Y-88313400D01*
X254212200Y-102153400D02*
X250132000Y-106233600D01*
X236095000Y-94733400D02*
X236115000Y-94733400D01*
X241287500Y-94553400D02*
X242557500Y-93283400D01*
X261412500Y-103545900D02*
X262145000Y-103545900D01*
X254675000Y-94703400D02*
X250575000Y-94703400D01*
X238804600Y-96123400D02*
X238831600Y-96096400D01*
D42*
X250070000Y-104396900D02*
X250070000Y-102873095D01*
X245754000Y-102448400D02*
X245085000Y-103117400D01*
X249862000Y-104604900D02*
X250070000Y-104396900D01*
X247265000Y-102448400D02*
X247265000Y-101563400D01*
D40*
X250132000Y-104874900D02*
X249862000Y-104604900D01*
D42*
X243752685Y-103192400D02*
X243827685Y-103117400D01*
X249645305Y-102448400D02*
X247265000Y-102448400D01*
D40*
X242949500Y-103192400D02*
X242949500Y-103918900D01*
D41*
X248985000Y-88313400D02*
X242625000Y-88313400D01*
D40*
X256115000Y-92725000D02*
X256115000Y-94703400D01*
D41*
X260752500Y-102153400D02*
X260752500Y-100318400D01*
X256979500Y-99628900D02*
X254224000Y-96873400D01*
D42*
X241195000Y-101003400D02*
X240685000Y-101513400D01*
D41*
X241195000Y-89743400D02*
X241085000Y-89743400D01*
D40*
X242949500Y-103918900D02*
X242735000Y-104133400D01*
D41*
X254224000Y-96873400D02*
X253503000Y-96873400D01*
D42*
X239839600Y-99575400D02*
X239839600Y-100173000D01*
D41*
X262145000Y-103545900D02*
X260752500Y-102153400D01*
X242557500Y-93283400D02*
X243085000Y-93283400D01*
X237195000Y-96965000D02*
X236220000Y-97940000D01*
X241195000Y-89743400D02*
X241195000Y-94460900D01*
D42*
X247265000Y-101563400D02*
X246325000Y-100623400D01*
X246325000Y-100623400D02*
X244435000Y-100623400D01*
X238839600Y-96104400D02*
X238831600Y-96096400D01*
D41*
X256979500Y-95567900D02*
X256115000Y-94703400D01*
X256979500Y-99628900D02*
X256979500Y-95567900D01*
D42*
X247265000Y-102448400D02*
X245754000Y-102448400D01*
X238839600Y-97245400D02*
X238839600Y-96104400D01*
D41*
X241195000Y-94460900D02*
X241287500Y-94553400D01*
X256115000Y-94703400D02*
X254675000Y-94703400D01*
X259504000Y-102153400D02*
X256979500Y-99628900D01*
X237195000Y-96123400D02*
X237195000Y-96965000D01*
X241085000Y-89743400D02*
X236095000Y-94733400D01*
D42*
X244435000Y-100623400D02*
X244325000Y-100733400D01*
D40*
X249862000Y-95469365D02*
X250575000Y-94756365D01*
D41*
X260752500Y-100318400D02*
X260665000Y-100230900D01*
X237195000Y-96123400D02*
X238804600Y-96123400D01*
D42*
X239839600Y-100173000D02*
X240490000Y-100823400D01*
X240490000Y-101318400D02*
X240685000Y-101513400D01*
D41*
X260105000Y-102153400D02*
X254212200Y-102153400D01*
D40*
X252295200Y-97473200D02*
X252903200Y-97473200D01*
D41*
X260105000Y-102153400D02*
X259504000Y-102153400D01*
D40*
X250575000Y-94756365D02*
X250575000Y-94703400D01*
D41*
X253503000Y-96873400D02*
X252903200Y-97473200D01*
D40*
X261720000Y-87520000D02*
X261320000Y-87520000D01*
D42*
X242949500Y-103192400D02*
X243752685Y-103192400D01*
D41*
%TO.N,GND*%
X236805000Y-106343400D02*
X237425000Y-105723400D01*
X244095000Y-93773400D02*
X244095000Y-92783400D01*
D40*
X242105361Y-102692400D02*
X241764680Y-103033081D01*
D41*
X252913000Y-98423400D02*
X252903200Y-98433200D01*
X251808400Y-96099000D02*
X252239400Y-96099000D01*
D40*
X250532035Y-93743400D02*
X250575000Y-93743400D01*
D41*
X247375000Y-94483400D02*
X247985000Y-93873400D01*
D42*
X241419600Y-97250400D02*
X241770000Y-96900000D01*
X244271000Y-102667400D02*
X244765000Y-102173400D01*
X240339600Y-97250400D02*
X241419600Y-97250400D01*
D41*
X219534600Y-109575400D02*
X219534600Y-107895400D01*
D42*
X239865000Y-94353400D02*
X239614600Y-94353400D01*
D40*
X240385000Y-103403400D02*
X240385000Y-103328400D01*
D41*
X246775000Y-89183400D02*
X246755000Y-89163400D01*
D40*
X240685000Y-102473400D02*
X240685000Y-103103400D01*
D42*
X239345000Y-102288400D02*
X239345000Y-102363400D01*
X242974500Y-102667400D02*
X244271000Y-102667400D01*
D40*
X261720000Y-92020000D02*
X260120000Y-92020000D01*
X249362000Y-106043600D02*
X249362000Y-104604900D01*
D41*
X250870000Y-110258400D02*
X250865000Y-110253400D01*
X234265000Y-106383400D02*
X234885000Y-105763400D01*
D40*
X249194800Y-107603200D02*
X249185000Y-107593400D01*
X240385000Y-103328400D02*
X239345000Y-102288400D01*
D41*
X241615000Y-107203400D02*
X242645000Y-107203400D01*
D40*
X251274500Y-98192400D02*
X252174000Y-98192400D01*
X249875000Y-98173400D02*
X249894000Y-98192400D01*
X252174000Y-98192400D02*
X252414800Y-98433200D01*
D41*
X231725000Y-103943400D02*
X231745000Y-103963400D01*
D40*
X241764680Y-103033081D02*
X241775000Y-103043401D01*
D41*
X252239400Y-96099000D02*
X252745000Y-95593400D01*
X260695000Y-95193400D02*
X260715000Y-95173400D01*
D40*
X235535000Y-101405800D02*
X234899600Y-100770400D01*
X235535000Y-102288400D02*
X235535000Y-101405800D01*
D41*
X248975000Y-92203400D02*
X250085000Y-92203400D01*
D40*
X252414800Y-98433200D02*
X252903200Y-98433200D01*
X260120000Y-92020000D02*
X260110000Y-92030000D01*
D41*
X245181600Y-92840000D02*
X245165000Y-92823400D01*
D42*
X238339600Y-98129600D02*
X238470000Y-98260000D01*
D40*
X250865000Y-93453400D02*
X250575000Y-93743400D01*
D41*
X221194600Y-96280400D02*
X221194600Y-95450400D01*
X231725000Y-102288400D02*
X231725000Y-103943400D01*
D40*
X246325000Y-97713400D02*
X246362000Y-97676400D01*
D41*
X250085000Y-92203400D02*
X250445000Y-91843400D01*
X234265000Y-107238400D02*
X234265000Y-106383400D01*
D42*
X238842500Y-98260000D02*
X238470000Y-98260000D01*
D41*
X221579600Y-96665400D02*
X221194600Y-96280400D01*
X236805000Y-107238400D02*
X236805000Y-106343400D01*
X221194600Y-94955400D02*
X221210000Y-94940000D01*
D40*
X241775000Y-103043401D02*
X241775000Y-104133400D01*
D41*
X243085000Y-92323400D02*
X243085000Y-91365000D01*
D42*
X239339600Y-97762900D02*
X238842500Y-98260000D01*
D41*
X221579600Y-98320400D02*
X221579600Y-96665400D01*
X245181600Y-93764800D02*
X245181600Y-92840000D01*
D40*
X249194800Y-108568400D02*
X249194800Y-107603200D01*
X246502400Y-107550800D02*
X246465000Y-107513400D01*
D42*
X242949500Y-102692400D02*
X242974500Y-102667400D01*
X239614600Y-94353400D02*
X238831600Y-95136400D01*
D41*
X244370000Y-111485000D02*
X244326600Y-111485000D01*
D42*
X238339600Y-97250400D02*
X238339600Y-98129600D01*
D41*
X242645000Y-107203400D02*
X242655000Y-107213400D01*
X250870000Y-111485000D02*
X250870000Y-110258400D01*
X221194600Y-95450400D02*
X221194600Y-94955400D01*
D40*
X249605000Y-94723400D02*
X249605000Y-94670435D01*
X249172000Y-106233600D02*
X249362000Y-106043600D01*
D41*
X246775000Y-90503400D02*
X246775000Y-89183400D01*
X238075000Y-107238400D02*
X238075000Y-109005000D01*
X219534600Y-107895400D02*
X219529600Y-107890400D01*
D40*
X242949500Y-102692400D02*
X242105361Y-102692400D01*
X249605000Y-94670435D02*
X250532035Y-93743400D01*
D41*
X243085000Y-91365000D02*
X243080000Y-91360000D01*
X254224000Y-98423400D02*
X252913000Y-98423400D01*
X247145000Y-94483400D02*
X247375000Y-94483400D01*
D40*
X246502400Y-108568400D02*
X246502400Y-107550800D01*
D41*
X225884600Y-107895400D02*
X225889600Y-107890400D01*
D40*
X249894000Y-98192400D02*
X251274500Y-98192400D01*
X249362000Y-104604900D02*
X249362000Y-103190400D01*
X246362000Y-97676400D02*
X246362000Y-96279900D01*
D41*
X238075000Y-109005000D02*
X238080000Y-109010000D01*
X260695000Y-96283400D02*
X260695000Y-95193400D01*
X244095000Y-92783400D02*
X244095000Y-92785000D01*
X244095000Y-92785000D02*
X244090000Y-92790000D01*
D40*
X249362000Y-103190400D02*
X249345000Y-103173400D01*
X240685000Y-103103400D02*
X240385000Y-103403400D01*
D42*
X239339600Y-97250400D02*
X239339600Y-97762900D01*
D41*
X225884600Y-109575400D02*
X225884600Y-107895400D01*
X244326600Y-111485000D02*
X243485000Y-110643400D01*
D40*
X250865000Y-92833400D02*
X250865000Y-93453400D01*
X252895041Y-98441359D02*
X252903200Y-98433200D01*
D41*
%TO.N,+3.3VA*%
X243042500Y-94733400D02*
X242862500Y-94553400D01*
X244095000Y-94733400D02*
X243042500Y-94733400D01*
X245173000Y-94733400D02*
X245181600Y-94724800D01*
D40*
X245862000Y-95405200D02*
X245862000Y-96279900D01*
D41*
X244095000Y-94733400D02*
X245173000Y-94733400D01*
D40*
X245181600Y-94724800D02*
X245862000Y-95405200D01*
%TO.N,/NRST*%
X250848400Y-96632041D02*
X250848400Y-96099000D01*
X247110959Y-97367400D02*
X250113041Y-97367400D01*
X246862000Y-97118441D02*
X247110959Y-97367400D01*
X250113041Y-97367400D02*
X250848400Y-96632041D01*
X246862000Y-96279900D02*
X246862000Y-97118441D01*
%TO.N,/HSE_IN*%
X248685000Y-93563400D02*
X248275000Y-93153400D01*
X247862000Y-95441359D02*
X248579959Y-94723400D01*
X248579959Y-94723400D02*
X248645000Y-94723400D01*
X247925000Y-93153400D02*
X247925000Y-91403400D01*
X248685000Y-94683400D02*
X248685000Y-93563400D01*
X248825000Y-90503400D02*
X248975000Y-90503400D01*
X248645000Y-94723400D02*
X248685000Y-94683400D01*
X248275000Y-93153400D02*
X247925000Y-93153400D01*
X247862000Y-96279900D02*
X247862000Y-95441359D01*
X247925000Y-91403400D02*
X248825000Y-90503400D01*
%TO.N,/HSE_OUT*%
X246851036Y-95192400D02*
X247113041Y-95192400D01*
X246185000Y-94483400D02*
X246185000Y-92793400D01*
X246185000Y-94483400D02*
X246185000Y-94526364D01*
X246185000Y-94526364D02*
X246851036Y-95192400D01*
X247113041Y-95192400D02*
X247362000Y-95441359D01*
X247362000Y-95441359D02*
X247362000Y-96279900D01*
X246185000Y-92793400D02*
X246775000Y-92203400D01*
D41*
%TO.N,VBUS*%
X250015000Y-111430000D02*
X250015000Y-109901318D01*
X233589600Y-111790400D02*
X232079600Y-110280400D01*
X229739600Y-107670400D02*
X229739600Y-106200400D01*
X229799600Y-107730400D02*
X229739600Y-107670400D01*
X222074600Y-100908594D02*
X222074600Y-100265400D01*
X240620000Y-107238400D02*
X240655000Y-107203400D01*
X222744600Y-96280400D02*
X223319600Y-95705400D01*
X250512918Y-109403400D02*
X251245000Y-109403400D01*
X240655000Y-107387786D02*
X240655000Y-107203400D01*
X251695000Y-109843400D02*
X251690000Y-109848400D01*
X243132918Y-109793400D02*
X243060614Y-109793400D01*
X222906406Y-101740400D02*
X222074600Y-100908594D01*
X244388400Y-109793400D02*
X245170000Y-110575000D01*
X225279600Y-101740400D02*
X222906406Y-101740400D01*
X252333503Y-113900000D02*
X242906497Y-113900000D01*
X242350000Y-111790400D02*
X233589600Y-111790400D01*
X222539600Y-98320400D02*
X222539600Y-96485400D01*
X223319600Y-95705400D02*
X224109600Y-95705400D01*
X242350000Y-112213400D02*
X242350000Y-111790400D01*
X242350000Y-113343503D02*
X242350000Y-112213400D01*
X250070000Y-111485000D02*
X250015000Y-111430000D01*
X242350000Y-111790400D02*
X242350000Y-110576318D01*
X229739600Y-106200400D02*
X225279600Y-101740400D01*
X222074600Y-100265400D02*
X222539600Y-99800400D01*
X252890000Y-113343503D02*
X252333503Y-113900000D01*
X250015000Y-109901318D02*
X250512918Y-109403400D01*
X242906497Y-113900000D02*
X242350000Y-113343503D01*
X245170000Y-110575000D02*
X245170000Y-111485000D01*
X252890000Y-111048400D02*
X252890000Y-113343503D01*
X251690000Y-109848400D02*
X252890000Y-111048400D01*
X243060614Y-109793400D02*
X240655000Y-107387786D01*
X222539600Y-96485400D02*
X222744600Y-96280400D01*
X254275000Y-109843400D02*
X251695000Y-109843400D01*
X239345000Y-107238400D02*
X240620000Y-107238400D01*
X243132918Y-109793400D02*
X244388400Y-109793400D01*
X242350000Y-110576318D02*
X243132918Y-109793400D01*
X222539600Y-99800400D02*
X222539600Y-98320400D01*
X251245000Y-109403400D02*
X251690000Y-109848400D01*
%TO.N,/PWR_LED*%
X260695000Y-97303400D02*
X260695000Y-98625900D01*
X260695000Y-98625900D02*
X260665000Y-98655900D01*
%TO.N,/DIG0*%
X191990000Y-82480000D02*
X187945000Y-82480000D01*
X208170000Y-82480000D02*
X204125000Y-82480000D01*
X216994600Y-109575400D02*
X216994600Y-108932206D01*
X214979600Y-86999600D02*
X210460000Y-82480000D01*
X183900000Y-82480000D02*
X179855000Y-82480000D01*
X200080000Y-82480000D02*
X196035000Y-82480000D01*
X214979600Y-106917206D02*
X214979600Y-86999600D01*
X187945000Y-82480000D02*
X183900000Y-82480000D01*
X216994600Y-108932206D02*
X214979600Y-106917206D01*
X204125000Y-82480000D02*
X200080000Y-82480000D01*
X210460000Y-82480000D02*
X208170000Y-82480000D01*
X196035000Y-82480000D02*
X191990000Y-82480000D01*
%TO.N,/SEGA*%
X178900000Y-108310000D02*
X179820000Y-109230000D01*
X179855000Y-80905000D02*
X178930000Y-81830000D01*
X178920000Y-92125000D02*
X179840000Y-93045000D01*
X178910000Y-98015000D02*
X178910000Y-100220000D01*
X228440000Y-77930000D02*
X223060000Y-72550000D01*
X228424600Y-100265400D02*
X228424600Y-96494650D01*
X178925000Y-85880000D02*
X178925000Y-88080000D01*
X184270000Y-72550000D02*
X179860000Y-76960000D01*
X223060000Y-72550000D02*
X184270000Y-72550000D01*
X179860000Y-76960000D02*
X179860000Y-80900000D01*
X179830000Y-101140000D02*
X178905000Y-102065000D01*
X178930000Y-81830000D02*
X178930000Y-84035000D01*
X178905000Y-104265000D02*
X179825000Y-105185000D01*
X228424600Y-96494650D02*
X228440000Y-96479250D01*
X179850000Y-84955000D02*
X178925000Y-85880000D01*
X228440000Y-96479250D02*
X228440000Y-77930000D01*
X179840000Y-93045000D02*
X178915000Y-93970000D01*
X179860000Y-80900000D02*
X179855000Y-80905000D01*
X179835000Y-97090000D02*
X178910000Y-98015000D01*
X178900000Y-106110000D02*
X178900000Y-108310000D01*
X178910000Y-100220000D02*
X179830000Y-101140000D01*
X179825000Y-105185000D02*
X178900000Y-106110000D01*
X178920000Y-89925000D02*
X178920000Y-92125000D01*
X178925000Y-88080000D02*
X179845000Y-89000000D01*
X178930000Y-84035000D02*
X179850000Y-84955000D01*
X178915000Y-96170000D02*
X179835000Y-97090000D01*
X178915000Y-93970000D02*
X178915000Y-96170000D01*
X178905000Y-102065000D02*
X178905000Y-104265000D01*
X179845000Y-89000000D02*
X178920000Y-89925000D01*
%TO.N,/SEGB*%
X183480000Y-89000000D02*
X182780000Y-89700000D01*
X183485000Y-93045000D02*
X182780000Y-93750000D01*
X183895000Y-84955000D02*
X183475000Y-84955000D01*
X183880000Y-97090000D02*
X183880000Y-96680000D01*
X221200000Y-73820000D02*
X225884600Y-78504600D01*
X183474500Y-80905000D02*
X182780000Y-81599500D01*
X183890000Y-89000000D02*
X183890000Y-88590000D01*
X225884600Y-78504600D02*
X225884600Y-100265400D01*
X183875000Y-101140000D02*
X183490000Y-101140000D01*
X183895000Y-84544500D02*
X182770000Y-83419500D01*
X183885000Y-92635000D02*
X182770000Y-91520000D01*
X183910000Y-77500000D02*
X187590000Y-73820000D01*
X183475000Y-84955000D02*
X182780000Y-85650000D01*
X183495000Y-105185000D02*
X182780000Y-105900000D01*
X183875000Y-100725000D02*
X182770000Y-99620000D01*
X183890000Y-88590000D02*
X182770000Y-87470000D01*
X183900000Y-80905000D02*
X183474500Y-80905000D01*
X183870000Y-105185000D02*
X183495000Y-105185000D01*
X183880000Y-97090000D02*
X183490000Y-97090000D01*
X183885000Y-93045000D02*
X183885000Y-92635000D01*
X183890000Y-89000000D02*
X183480000Y-89000000D01*
X183490000Y-101140000D02*
X182780000Y-101850000D01*
X183895000Y-84955000D02*
X183895000Y-84544500D01*
X183885000Y-93045000D02*
X183485000Y-93045000D01*
X183865000Y-109230000D02*
X183865000Y-108815000D01*
X183880000Y-96680000D02*
X182770000Y-95570000D01*
X183870000Y-104770000D02*
X182770000Y-103670000D01*
X183910000Y-80895000D02*
X183910000Y-77500000D01*
X183875000Y-101140000D02*
X183875000Y-100725000D01*
X183870000Y-105185000D02*
X183870000Y-104770000D01*
X183865000Y-108815000D02*
X182770000Y-107720000D01*
X183490000Y-97090000D02*
X182780000Y-97800000D01*
X187590000Y-73820000D02*
X221200000Y-73820000D01*
%TO.N,/SEGC*%
X187240500Y-85649500D02*
X187940000Y-84950000D01*
X186825000Y-93750500D02*
X187224500Y-93750500D01*
X187224500Y-93750500D02*
X187930000Y-93045000D01*
X187910000Y-109230000D02*
X187910000Y-108815500D01*
X187234500Y-89700500D02*
X187935000Y-89000000D01*
X187940000Y-84545500D02*
X186815000Y-83420500D01*
X220090000Y-77960000D02*
X220090000Y-98580000D01*
X187920000Y-101140000D02*
X187920000Y-100725500D01*
X187945000Y-80905000D02*
X187945000Y-78315000D01*
X187945000Y-78315000D02*
X191170000Y-75090000D01*
X220804600Y-99294600D02*
X220804600Y-100265400D01*
X187249500Y-81600500D02*
X187945000Y-80905000D01*
X187915000Y-104770500D02*
X186815000Y-103670500D01*
X187209500Y-101850500D02*
X187920000Y-101140000D01*
X187920000Y-100725500D02*
X186815000Y-99620500D01*
X187935000Y-88594500D02*
X186810000Y-87469500D01*
X187940000Y-84950000D02*
X187940000Y-84545500D01*
X186825000Y-105900500D02*
X187199500Y-105900500D01*
X187915000Y-105185000D02*
X187915000Y-104770500D01*
X187199500Y-105900500D02*
X187915000Y-105185000D01*
X187935000Y-89000000D02*
X187935000Y-88594500D01*
X187925000Y-97090000D02*
X187925000Y-96680500D01*
X187930000Y-92635500D02*
X186815000Y-91520500D01*
X186820000Y-85649500D02*
X187240500Y-85649500D01*
X187214500Y-97800500D02*
X187925000Y-97090000D01*
X217220000Y-75090000D02*
X220090000Y-77960000D01*
X187930000Y-93045000D02*
X187930000Y-92635500D01*
X220090000Y-98580000D02*
X220804600Y-99294600D01*
X186825000Y-89700500D02*
X187234500Y-89700500D01*
X186825000Y-97800500D02*
X187214500Y-97800500D01*
X187925000Y-96680500D02*
X186815000Y-95570500D01*
X191170000Y-75090000D02*
X217220000Y-75090000D01*
X186825000Y-101850500D02*
X187209500Y-101850500D01*
X187910000Y-108815500D02*
X186815000Y-107720500D01*
X186825000Y-81600500D02*
X187249500Y-81600500D01*
%TO.N,/SEGD*%
X194190000Y-76340000D02*
X214452582Y-76340000D01*
X190855000Y-95575000D02*
X190855000Y-95975000D01*
X191990000Y-80905000D02*
X191565000Y-80905000D01*
X191975000Y-93045000D02*
X191575000Y-93045000D01*
X190855000Y-83425000D02*
X190855000Y-83820000D01*
X190855000Y-95975000D02*
X191970000Y-97090000D01*
X216992582Y-78880000D02*
X217000000Y-78880000D01*
X217000000Y-79969200D02*
X216994600Y-79974600D01*
X190850000Y-87474000D02*
X190850000Y-87870000D01*
X190855000Y-91925000D02*
X191975000Y-93045000D01*
X191990000Y-78540000D02*
X194190000Y-76340000D01*
X191970000Y-97090000D02*
X191580000Y-97090000D01*
X191960000Y-105185000D02*
X191585000Y-105185000D01*
X191565000Y-80905000D02*
X190865000Y-81605000D01*
X191564000Y-84950000D02*
X190860000Y-85654000D01*
X191965000Y-101135000D02*
X191585000Y-101135000D01*
X190850000Y-87870000D02*
X191980000Y-89000000D01*
X190855000Y-108130000D02*
X191955000Y-109230000D01*
X191985000Y-84950000D02*
X191564000Y-84950000D01*
X190855000Y-83820000D02*
X191985000Y-84950000D01*
X191570000Y-89000000D02*
X190865000Y-89705000D01*
X190855000Y-103675000D02*
X190855000Y-104080000D01*
X190855000Y-99625000D02*
X190855000Y-100025000D01*
X190855000Y-104080000D02*
X191960000Y-105185000D01*
X190855000Y-100025000D02*
X191965000Y-101135000D01*
X190855000Y-91525000D02*
X190855000Y-91925000D01*
X190855000Y-107725000D02*
X190855000Y-108130000D01*
X217000000Y-78880000D02*
X217000000Y-79969200D01*
X191575000Y-93045000D02*
X190865000Y-93755000D01*
X216994600Y-79974600D02*
X216994600Y-100265400D01*
X191585000Y-101135000D02*
X190865000Y-101855000D01*
X214452582Y-76340000D02*
X216992582Y-78880000D01*
X191580000Y-97090000D02*
X190865000Y-97805000D01*
X191980000Y-89000000D02*
X191570000Y-89000000D01*
X191990000Y-80905000D02*
X191990000Y-78540000D01*
X191585000Y-105185000D02*
X190865000Y-105905000D01*
%TO.N,/SEGDP*%
X196005000Y-104775000D02*
X194905000Y-103675000D01*
X194915000Y-93755000D02*
X195310000Y-93755000D01*
X194915000Y-89705000D02*
X195320000Y-89705000D01*
X195290000Y-101855000D02*
X196010000Y-101135000D01*
X196090000Y-80850000D02*
X196090000Y-79300000D01*
X196030000Y-84950000D02*
X196030000Y-84550000D01*
X194915000Y-105905000D02*
X195285000Y-105905000D01*
X218070000Y-78748624D02*
X217305688Y-77984312D01*
X194915000Y-97805000D02*
X195300000Y-97805000D01*
X194910000Y-85654000D02*
X195326000Y-85654000D01*
X196000000Y-108820000D02*
X194905000Y-107725000D01*
X196110000Y-79300000D02*
X197800000Y-77610000D01*
X196010000Y-101135000D02*
X196010000Y-100730000D01*
X195310000Y-93755000D02*
X196020000Y-93045000D01*
X196030000Y-84550000D02*
X194905000Y-83425000D01*
X195335000Y-81605000D02*
X196035000Y-80905000D01*
X196005000Y-105185000D02*
X196005000Y-104775000D01*
X218264600Y-100265400D02*
X218205400Y-100265400D01*
X196025000Y-88599000D02*
X194900000Y-87474000D01*
X196020000Y-92640000D02*
X194905000Y-91525000D01*
X194915000Y-81605000D02*
X195335000Y-81605000D01*
X195300000Y-97805000D02*
X196015000Y-97090000D01*
X218070000Y-100130000D02*
X218070000Y-78748624D01*
X197800000Y-77610000D02*
X214520500Y-77610000D01*
X195320000Y-89705000D02*
X196025000Y-89000000D01*
X196000000Y-109230000D02*
X196000000Y-108820000D01*
X196015000Y-96685000D02*
X194905000Y-95575000D01*
X195285000Y-105905000D02*
X196005000Y-105185000D01*
X218205400Y-100265400D02*
X218070000Y-100130000D01*
X196090000Y-79300000D02*
X196110000Y-79300000D01*
X196020000Y-93045000D02*
X196020000Y-92640000D01*
X214520500Y-77610000D02*
X214950000Y-78039500D01*
X196025000Y-89000000D02*
X196025000Y-88599000D01*
X194915000Y-101855000D02*
X195290000Y-101855000D01*
X195326000Y-85654000D02*
X196030000Y-84950000D01*
X196015000Y-97090000D02*
X196015000Y-96685000D01*
X196010000Y-100730000D02*
X194905000Y-99625000D01*
%TO.N,/SEGE*%
X198945000Y-107725000D02*
X198945000Y-108130000D01*
X198940000Y-87474000D02*
X198940000Y-87865000D01*
X198945000Y-108130000D02*
X200045000Y-109230000D01*
X215930000Y-80210000D02*
X214609500Y-78889500D01*
X198945000Y-95975000D02*
X200060000Y-97090000D01*
X199654000Y-84950000D02*
X198950000Y-85654000D01*
X198945000Y-83820000D02*
X200075000Y-84950000D01*
X200080000Y-80905000D02*
X199655000Y-80905000D01*
X214609500Y-78889500D02*
X200270500Y-78889500D01*
X199655000Y-80905000D02*
X198955000Y-81605000D01*
X199665000Y-88995000D02*
X198955000Y-89705000D01*
X219114100Y-99844900D02*
X219114100Y-80420000D01*
X198945000Y-91925000D02*
X200065000Y-93045000D01*
X200065000Y-93045000D02*
X199665000Y-93045000D01*
X198945000Y-91525000D02*
X198945000Y-91925000D01*
X200050000Y-105185000D02*
X199675000Y-105185000D01*
X199675000Y-105185000D02*
X198955000Y-105905000D01*
X199670000Y-97090000D02*
X198955000Y-97805000D01*
X198945000Y-99625000D02*
X198945000Y-100025000D01*
X200060000Y-97090000D02*
X199670000Y-97090000D01*
X200075000Y-84950000D02*
X199654000Y-84950000D01*
X200270500Y-78889500D02*
X200080000Y-79080000D01*
X199665000Y-93045000D02*
X198955000Y-93755000D01*
X198945000Y-95575000D02*
X198945000Y-95975000D01*
X198945000Y-104080000D02*
X200050000Y-105185000D01*
X200080000Y-79080000D02*
X200080000Y-80905000D01*
X200055000Y-101135000D02*
X199675000Y-101135000D01*
X198940000Y-87865000D02*
X200070000Y-88995000D01*
X198945000Y-100025000D02*
X200055000Y-101135000D01*
X198945000Y-83425000D02*
X198945000Y-83820000D01*
X198945000Y-103675000D02*
X198945000Y-104080000D01*
X199675000Y-101135000D02*
X198955000Y-101855000D01*
X219534600Y-100265400D02*
X219114100Y-99844900D01*
X200070000Y-88995000D02*
X199665000Y-88995000D01*
%TO.N,/SEGF*%
X202995000Y-93755000D02*
X203400000Y-93755000D01*
X204105000Y-97090000D02*
X204105000Y-96695000D01*
X203405000Y-89705000D02*
X204115000Y-88995000D01*
X202995000Y-105905000D02*
X203370000Y-105905000D01*
X204100000Y-101135000D02*
X204100000Y-100740000D01*
X204115000Y-88995000D02*
X204115000Y-88609000D01*
X203370000Y-105905000D02*
X204095000Y-105180000D01*
X220980000Y-82210000D02*
X222625100Y-82210000D01*
X202995000Y-89705000D02*
X203405000Y-89705000D01*
X202995000Y-81605000D02*
X203425000Y-81605000D01*
X204115000Y-88609000D02*
X202980000Y-87474000D01*
X204105000Y-96695000D02*
X202985000Y-95575000D01*
X204095000Y-105180000D02*
X204095000Y-104785000D01*
X204090000Y-109230000D02*
X204090000Y-108830000D01*
X204120000Y-84560000D02*
X202985000Y-83425000D01*
X204110000Y-93045000D02*
X204110000Y-92650000D01*
X204120000Y-84950000D02*
X204120000Y-84560000D01*
X205012500Y-80017500D02*
X213867500Y-80017500D01*
X204090000Y-108830000D02*
X202985000Y-107725000D01*
X216060000Y-82209500D02*
X216060000Y-82210000D01*
X204110000Y-92650000D02*
X202985000Y-91525000D01*
X204100000Y-100740000D02*
X202985000Y-99625000D01*
X203425000Y-81605000D02*
X204125000Y-80905000D01*
X227154600Y-85040500D02*
X227154600Y-100265400D01*
X202990000Y-85654000D02*
X203416000Y-85654000D01*
X203390000Y-97805000D02*
X204105000Y-97090000D01*
X203400000Y-93755000D02*
X204110000Y-93045000D01*
X213867500Y-80017500D02*
X216060000Y-82210000D01*
X222625100Y-82210000D02*
X225035100Y-84620000D01*
X202995000Y-97805000D02*
X203390000Y-97805000D01*
X204125000Y-80905000D02*
X205012500Y-80017500D01*
X204095000Y-104785000D02*
X202985000Y-103675000D01*
X202995000Y-101855000D02*
X203380000Y-101855000D01*
X203380000Y-101855000D02*
X204100000Y-101135000D01*
X226734100Y-84620000D02*
X227154600Y-85040500D01*
X203416000Y-85654000D02*
X204120000Y-84950000D01*
%TO.N,/SEGG*%
X207745000Y-88995000D02*
X207035000Y-89705000D01*
X222860000Y-85890000D02*
X220950000Y-83980000D01*
X207750000Y-97090000D02*
X207035000Y-97805000D01*
X207734000Y-84950000D02*
X207030000Y-85654000D01*
X208165000Y-84950000D02*
X207734000Y-84950000D01*
X207020000Y-87474000D02*
X207020000Y-87855000D01*
X208170000Y-80905000D02*
X207735000Y-80905000D01*
X207025000Y-91915000D02*
X208155000Y-93045000D01*
X216020000Y-83980000D02*
X213310000Y-81270000D01*
X208150000Y-97090000D02*
X207750000Y-97090000D01*
X224614600Y-100265400D02*
X224879600Y-100000400D01*
X207025000Y-95575000D02*
X207025000Y-95965000D01*
X213310000Y-81270000D02*
X208535000Y-81270000D01*
X207025000Y-83810000D02*
X208165000Y-84950000D01*
X207025000Y-100015000D02*
X208145000Y-101135000D01*
X208160000Y-88995000D02*
X207745000Y-88995000D01*
X207025000Y-91525000D02*
X207025000Y-91915000D01*
X208140000Y-105180000D02*
X207760000Y-105180000D01*
X208145000Y-101135000D02*
X207755000Y-101135000D01*
X208155000Y-93045000D02*
X207745000Y-93045000D01*
X208535000Y-81270000D02*
X208170000Y-80905000D01*
X207025000Y-107725000D02*
X207025000Y-108120000D01*
X224879600Y-94689600D02*
X222860000Y-92670000D01*
X207020000Y-87855000D02*
X208160000Y-88995000D01*
X207760000Y-105180000D02*
X207035000Y-105905000D01*
X222860000Y-92670000D02*
X222860000Y-85890000D01*
X207025000Y-95965000D02*
X208150000Y-97090000D01*
X207745000Y-93045000D02*
X207035000Y-93755000D01*
X207025000Y-108120000D02*
X208135000Y-109230000D01*
X207025000Y-99625000D02*
X207025000Y-100015000D01*
X207025000Y-103675000D02*
X207025000Y-104065000D01*
X207755000Y-101135000D02*
X207035000Y-101855000D01*
X224879600Y-100000400D02*
X224879600Y-94689600D01*
X207025000Y-104065000D02*
X208140000Y-105180000D01*
X207025000Y-83425000D02*
X207025000Y-83810000D01*
X207735000Y-80905000D02*
X207035000Y-81605000D01*
%TO.N,/DIG1*%
X214130100Y-100650000D02*
X214130100Y-88090100D01*
X191985000Y-86525000D02*
X187940000Y-86525000D01*
X217460000Y-101960000D02*
X217450000Y-101970000D01*
X228424600Y-109575400D02*
X228424600Y-105875350D01*
X225184625Y-102635375D02*
X218135375Y-102635375D01*
X218135375Y-102635375D02*
X217460000Y-101960000D01*
X204120000Y-86525000D02*
X200075000Y-86525000D01*
X212540000Y-86500000D02*
X208190000Y-86500000D01*
X217450000Y-101970000D02*
X215860000Y-101970000D01*
X208165000Y-86525000D02*
X204120000Y-86525000D01*
X183895000Y-86530000D02*
X179850000Y-86530000D01*
X214130100Y-88090100D02*
X212540000Y-86500000D01*
X200075000Y-86525000D02*
X196030000Y-86525000D01*
X228424600Y-105875350D02*
X225184625Y-102635375D01*
X196030000Y-86525000D02*
X191985000Y-86525000D01*
X187940000Y-86525000D02*
X183900000Y-86525000D01*
%TO.N,/DIG2*%
X204115000Y-90570000D02*
X200070000Y-90570000D01*
X222074600Y-109575400D02*
X222074600Y-103834600D01*
X200070000Y-90570000D02*
X196030000Y-90570000D01*
X208160000Y-90570000D02*
X204115000Y-90570000D01*
X183890000Y-90575000D02*
X179845000Y-90575000D01*
X214030000Y-103370000D02*
X213280100Y-102620100D01*
X222074600Y-103834600D02*
X221880000Y-103640000D01*
X191980000Y-90575000D02*
X187935000Y-90575000D01*
X196025000Y-90575000D02*
X191980000Y-90575000D01*
X213280100Y-102620100D02*
X213280100Y-91660100D01*
X213280100Y-91660100D02*
X212220000Y-90600000D01*
X187935000Y-90575000D02*
X183890000Y-90575000D01*
X221880000Y-103640000D02*
X215829100Y-103640000D01*
X212220000Y-90600000D02*
X208190000Y-90600000D01*
%TO.N,/DIG3*%
X212560000Y-108323994D02*
X212560000Y-95530000D01*
X200065000Y-94620000D02*
X196020000Y-94620000D01*
X204110000Y-94620000D02*
X200065000Y-94620000D01*
X183885000Y-94620000D02*
X179840000Y-94620000D01*
X196020000Y-94620000D02*
X191975000Y-94620000D01*
X212560000Y-95530000D02*
X211740000Y-94710000D01*
X191975000Y-94620000D02*
X187930000Y-94620000D01*
X215885906Y-111649900D02*
X212560000Y-108323994D01*
X211740000Y-94710000D02*
X208245000Y-94710000D01*
X187930000Y-94620000D02*
X183885000Y-94620000D01*
X222650000Y-111649900D02*
X215885906Y-111649900D01*
X223344600Y-108270500D02*
X222924100Y-107850000D01*
X208155000Y-94620000D02*
X204110000Y-94620000D01*
X223344600Y-109575400D02*
X223344600Y-108270500D01*
%TO.N,/DIG4*%
X218264600Y-109575400D02*
X218264600Y-108314600D01*
X218264600Y-108314600D02*
X217880000Y-107930000D01*
X204105000Y-98665000D02*
X200060000Y-98665000D01*
X215745456Y-112499400D02*
X211860000Y-108613943D01*
X191970000Y-98665000D02*
X187925000Y-98665000D01*
X217430000Y-112499400D02*
X215745456Y-112499400D01*
X187925000Y-98665000D02*
X183880000Y-98665000D01*
X211860000Y-108613943D02*
X211860000Y-99590000D01*
X208150000Y-98665000D02*
X204105000Y-98665000D01*
X210935000Y-98665000D02*
X208150000Y-98665000D01*
X200060000Y-98665000D02*
X196015000Y-98665000D01*
X183880000Y-98665000D02*
X179835000Y-98665000D01*
X211860000Y-99590000D02*
X210935000Y-98665000D01*
X196015000Y-98665000D02*
X191970000Y-98665000D01*
%TO.N,/DIG5*%
X210090000Y-102710000D02*
X208145000Y-102710000D01*
X227154600Y-109575400D02*
X227154600Y-108104600D01*
X200055000Y-102710000D02*
X196010000Y-102710000D01*
X211160000Y-108903892D02*
X211160000Y-103780000D01*
X196010000Y-102710000D02*
X191965000Y-102710000D01*
X227154600Y-108104600D02*
X226920000Y-107870000D01*
X191965000Y-102710000D02*
X187925000Y-102710000D01*
X204100000Y-102710000D02*
X200055000Y-102710000D01*
X225240500Y-113349400D02*
X215605507Y-113349400D01*
X183875000Y-102715000D02*
X179830000Y-102715000D01*
X226940000Y-111649900D02*
X225240500Y-113349400D01*
X208145000Y-102710000D02*
X204100000Y-102710000D01*
X211160000Y-103780000D02*
X210090000Y-102710000D01*
X187920000Y-102715000D02*
X183875000Y-102715000D01*
X215605507Y-113349400D02*
X211160000Y-108903892D01*
%TO.N,/DIG7*%
X187910000Y-110805000D02*
X183865000Y-110805000D01*
X224614600Y-107935400D02*
X224730000Y-107820000D01*
X208135000Y-110805000D02*
X204090000Y-110805000D01*
X200045000Y-110805000D02*
X196000000Y-110805000D01*
X191955000Y-110805000D02*
X187910000Y-110805000D01*
X204090000Y-110805000D02*
X200045000Y-110805000D01*
X224391100Y-115048900D02*
X215325109Y-115048900D01*
X215325109Y-115048900D02*
X211081210Y-110805000D01*
X196000000Y-110805000D02*
X191955000Y-110805000D01*
X224614600Y-109575400D02*
X224614600Y-107935400D01*
X211081210Y-110805000D02*
X208135000Y-110805000D01*
X225170000Y-114270000D02*
X224391100Y-115048900D01*
X183865000Y-110805000D02*
X179820000Y-110805000D01*
D40*
%TO.N,Net-(J3-CC1)*%
X246370000Y-109720800D02*
X246370000Y-111485000D01*
X246502400Y-109588400D02*
X246370000Y-109720800D01*
D43*
%TO.N,/USB_D+*%
X247370000Y-112460000D02*
X247370000Y-111485000D01*
X248362000Y-105192400D02*
X248337000Y-105217400D01*
X248345000Y-105582504D02*
X248345000Y-110372499D01*
X248370000Y-111485000D02*
X248370000Y-112460000D01*
X248362000Y-104604900D02*
X248362000Y-105192400D01*
X248370000Y-112460000D02*
X248320000Y-112510000D01*
X248345000Y-110372499D02*
X248370000Y-110397499D01*
X248337000Y-105574504D02*
X248345000Y-105582504D01*
X248370000Y-110397499D02*
X248370000Y-111485000D01*
X248337000Y-105217400D02*
X248337000Y-105574504D01*
X248320000Y-112510000D02*
X247420000Y-112510000D01*
X247420000Y-112510000D02*
X247370000Y-112460000D01*
%TO.N,/USB_D-*%
X246870000Y-110510000D02*
X246920000Y-110460000D01*
X246870000Y-111485000D02*
X246870000Y-110510000D01*
X247820000Y-110460000D02*
X247870000Y-110510000D01*
X246920000Y-110460000D02*
X247820000Y-110460000D01*
X247870000Y-110510000D02*
X247870000Y-111485000D01*
X247870000Y-110397499D02*
X247895000Y-110372499D01*
X247887000Y-105217400D02*
X247887000Y-105746710D01*
X247870000Y-111485000D02*
X247870000Y-110397499D01*
X247862000Y-105192400D02*
X247887000Y-105217400D01*
X247895000Y-110372499D02*
X247895000Y-105754710D01*
X247887000Y-105746710D02*
X247895000Y-105754710D01*
X247862000Y-104604900D02*
X247862000Y-105192400D01*
D40*
%TO.N,Net-(J3-CC2)*%
X249370000Y-111485000D02*
X249370000Y-109763600D01*
X249370000Y-109763600D02*
X249194800Y-109588400D01*
%TO.N,/SW_BOOT0*%
X258052219Y-92687781D02*
X261720000Y-89020000D01*
X256847624Y-100698400D02*
X256848757Y-100699533D01*
X258052219Y-99500243D02*
X258052219Y-92687781D01*
X254325600Y-100698400D02*
X256847624Y-100698400D01*
%TO.N,/BOOT0*%
X254311600Y-99692400D02*
X254325600Y-99678400D01*
X251274500Y-99692400D02*
X254311600Y-99692400D01*
%TO.N,Net-(U4-ISET)*%
X224109600Y-96725400D02*
X223344600Y-97490400D01*
X223344600Y-97490400D02*
X223344600Y-100265400D01*
D42*
%TO.N,/SPI1_!CS_GYR*%
X239946700Y-97870000D02*
X239839600Y-97762900D01*
X239839600Y-97762900D02*
X239839600Y-97250400D01*
X242949500Y-98192400D02*
X242054100Y-98192400D01*
X241731700Y-97870000D02*
X239946700Y-97870000D01*
X242054100Y-98192400D02*
X241731700Y-97870000D01*
%TO.N,/SPI1_SCK*%
X241541600Y-98692400D02*
X242949500Y-98692400D01*
X241249600Y-98400400D02*
X241541600Y-98692400D01*
%TO.N,/SPI1_MISO*%
X240381600Y-98913400D02*
X240339600Y-98955400D01*
X241121204Y-98913400D02*
X240381600Y-98913400D01*
X242949500Y-99192400D02*
X241400204Y-99192400D01*
X241400204Y-99192400D02*
X241121204Y-98913400D01*
X240339600Y-98955400D02*
X240339600Y-99575400D01*
%TO.N,/SPI1_MOSI*%
X242949500Y-99692400D02*
X240956600Y-99692400D01*
X240956600Y-99692400D02*
X240839600Y-99575400D01*
%TO.N,/INT_GYR*%
X240685305Y-104128400D02*
X239528249Y-104128400D01*
X242949500Y-100692400D02*
X242146315Y-100692400D01*
X241289680Y-102836329D02*
X241289680Y-103524025D01*
X242146315Y-100692400D02*
X241887000Y-100951715D01*
X238720000Y-100815000D02*
X239339600Y-100195400D01*
X239528249Y-104128400D02*
X238720000Y-103320151D01*
X241289680Y-103524025D02*
X240685305Y-104128400D01*
X238720000Y-103320151D02*
X238720000Y-100815000D01*
X241887000Y-100951715D02*
X241887000Y-102239009D01*
X239339600Y-100195400D02*
X239339600Y-99575400D01*
X241887000Y-102239009D02*
X241289680Y-102836329D01*
D40*
%TO.N,/SPI2_SCK*%
X244862000Y-105443441D02*
X244613041Y-105692400D01*
X244862000Y-104604900D02*
X244862000Y-105443441D01*
X244613041Y-105692400D02*
X240420498Y-105692400D01*
X238075000Y-103346902D02*
X238075000Y-102288400D01*
X240420498Y-105692400D02*
X238075000Y-103346902D01*
D43*
%TO.N,/SPI2_!CS*%
X232995000Y-106592739D02*
X232995000Y-107238400D01*
X244062000Y-103567400D02*
X243375000Y-104254400D01*
X243007965Y-104863400D02*
X240695000Y-104863400D01*
D40*
X240705000Y-104823400D02*
X240655000Y-104873400D01*
D43*
X245092330Y-103567400D02*
X244062000Y-103567400D01*
X236395000Y-104853400D02*
X234734339Y-104853400D01*
X243375000Y-104496365D02*
X243007965Y-104863400D01*
X243375000Y-104254400D02*
X243375000Y-104496365D01*
X234734339Y-104853400D02*
X232995000Y-106592739D01*
X245362000Y-103837070D02*
X245092330Y-103567400D01*
X245362000Y-104604900D02*
X245362000Y-103837070D01*
D40*
X240640579Y-104852527D02*
X240669706Y-104823400D01*
%TO.N,/SPI2_MOSI*%
X245862000Y-104604900D02*
X245862000Y-105443441D01*
X245112041Y-106193400D02*
X245095000Y-106193400D01*
X235177893Y-103623400D02*
X234265000Y-102710507D01*
X240262107Y-106463400D02*
X239592107Y-105793400D01*
X244825000Y-106463400D02*
X240262107Y-106463400D01*
X234265000Y-102410507D02*
X234265000Y-101988400D01*
X245095000Y-106193400D02*
X244825000Y-106463400D01*
X238555000Y-105793400D02*
X238432107Y-105670507D01*
X245862000Y-105443441D02*
X245112041Y-106193400D01*
X238432107Y-105669846D02*
X236385661Y-103623400D01*
X234265000Y-102710507D02*
X234265000Y-102288400D01*
X239592107Y-105793400D02*
X238555000Y-105793400D01*
X236385661Y-103623400D02*
X235177893Y-103623400D01*
X238432107Y-105670507D02*
X238432107Y-105669846D01*
D42*
%TO.N,/SPI2_MOSI5*%
X232995000Y-104583000D02*
X232350000Y-105228000D01*
X216608182Y-110925400D02*
X215724600Y-110041818D01*
X232995000Y-102288400D02*
X232995000Y-104583000D01*
X232350000Y-108711250D02*
X230135850Y-110925400D01*
X215724600Y-110041818D02*
X215724600Y-109575400D01*
X232350000Y-105228000D02*
X232350000Y-108711250D01*
X230135850Y-110925400D02*
X216608182Y-110925400D01*
D40*
%TO.N,/SPI2_!CS5*%
X231725000Y-107238400D02*
X231725000Y-107545000D01*
X231725000Y-107545000D02*
X229694600Y-109575400D01*
%TO.N,/SPI2_SCK5*%
X236805000Y-102288400D02*
X236805000Y-101615139D01*
X229939600Y-100020400D02*
X229694600Y-100265400D01*
X235210261Y-100020400D02*
X229939600Y-100020400D01*
X236805000Y-101615139D02*
X235210261Y-100020400D01*
D41*
%TO.N,/DIG6*%
X220804600Y-109575400D02*
X220804600Y-108034600D01*
X200055000Y-106755000D02*
X200050000Y-106760000D01*
X208140000Y-106873842D02*
X208140000Y-106755000D01*
X215465058Y-114198900D02*
X208140000Y-106873842D01*
X220220000Y-114198900D02*
X215465058Y-114198900D01*
X220804600Y-108034600D02*
X220650000Y-107880000D01*
X183870000Y-106760000D02*
X179825000Y-106760000D01*
X208140000Y-106755000D02*
X204095000Y-106755000D01*
X204095000Y-106755000D02*
X200055000Y-106755000D01*
X200050000Y-106760000D02*
X183870000Y-106760000D01*
D42*
%TO.N,Net-(U3-CSB1)*%
X238339600Y-99570400D02*
X238339600Y-99057900D01*
X238339600Y-99057900D02*
X238241700Y-98960000D01*
X238241700Y-98960000D02*
X236220000Y-98960000D01*
%TD*%
%TA.AperFunction,Conductor*%
%TO.N,+3.3V*%
G36*
X263516238Y-102993085D02*
G01*
X263529804Y-103003172D01*
X264281526Y-103646212D01*
X264319673Y-103704749D01*
X264324921Y-103740610D01*
X264315073Y-110939557D01*
X264295297Y-111006569D01*
X264275607Y-111030106D01*
X263910607Y-111370220D01*
X263848141Y-111401522D01*
X263826331Y-111403501D01*
X259135402Y-111413274D01*
X259068322Y-111393729D01*
X259037666Y-111365917D01*
X258702436Y-110939557D01*
X258045000Y-110103400D01*
X258044999Y-110103400D01*
X257740920Y-110103400D01*
X257690413Y-110091295D01*
X257690103Y-110092077D01*
X257684772Y-110089960D01*
X257617742Y-110070277D01*
X257617736Y-110070276D01*
X257531664Y-110057900D01*
X257531661Y-110057900D01*
X256046344Y-110057900D01*
X255979305Y-110038215D01*
X255976991Y-110036692D01*
X255658353Y-109821707D01*
X255624532Y-109787698D01*
X255575826Y-109714639D01*
X255555018Y-109647940D01*
X255555000Y-109645856D01*
X255555000Y-108281882D01*
X255574685Y-108214843D01*
X255587880Y-108197779D01*
X255638308Y-108143149D01*
X255698243Y-108107241D01*
X255729091Y-108103257D01*
X259475000Y-108093400D01*
X260005000Y-107473400D01*
X260014872Y-103267513D01*
X260034714Y-103200524D01*
X260054762Y-103176696D01*
X260133885Y-103103659D01*
X260239377Y-103006284D01*
X260301990Y-102975277D01*
X260323483Y-102973400D01*
X263449199Y-102973400D01*
X263516238Y-102993085D01*
G37*
%TD.AperFunction*%
%TD*%
%TA.AperFunction,Conductor*%
%TO.N,VBUS*%
G36*
X254922739Y-109253085D02*
G01*
X254940842Y-109267250D01*
X255046142Y-109366700D01*
X255081364Y-109427041D01*
X255085000Y-109456849D01*
X255085000Y-109803400D01*
X255914998Y-110363399D01*
X255914999Y-110363399D01*
X255915000Y-110363400D01*
X257531664Y-110363400D01*
X257598703Y-110383085D01*
X257621682Y-110402120D01*
X257731018Y-110517530D01*
X257762834Y-110579735D01*
X257765000Y-110602810D01*
X257765000Y-111912066D01*
X257745315Y-111979105D01*
X257740200Y-111986466D01*
X257652200Y-112103800D01*
X257596229Y-112145621D01*
X257553000Y-112153400D01*
X255581850Y-112153400D01*
X255514811Y-112133715D01*
X255478258Y-112097552D01*
X255285408Y-111804420D01*
X255265007Y-111737596D01*
X255265000Y-111736268D01*
X255265000Y-110483400D01*
X255175000Y-110403400D01*
X253642032Y-110403400D01*
X253574993Y-110383715D01*
X253547884Y-110360098D01*
X253494852Y-110298227D01*
X253466169Y-110234516D01*
X253465000Y-110217529D01*
X253465000Y-109466447D01*
X253484685Y-109399408D01*
X253491670Y-109389617D01*
X253577765Y-109280563D01*
X253634755Y-109240143D01*
X253675090Y-109233400D01*
X254855700Y-109233400D01*
X254922739Y-109253085D01*
G37*
%TD.AperFunction*%
%TD*%
%TA.AperFunction,Conductor*%
%TO.N,GND*%
G36*
X259511043Y-102723585D02*
G01*
X259539264Y-102748518D01*
X259556268Y-102768923D01*
X259584063Y-102833026D01*
X259585008Y-102848281D01*
X259585821Y-107071159D01*
X259566149Y-107138202D01*
X259560001Y-107146924D01*
X259322229Y-107455141D01*
X259265695Y-107496197D01*
X259224049Y-107503400D01*
X255525000Y-107503400D01*
X255245001Y-107953397D01*
X255244999Y-107953402D01*
X255236122Y-108406131D01*
X255215127Y-108472772D01*
X255190668Y-108499671D01*
X255030388Y-108630809D01*
X254944498Y-108701084D01*
X254938801Y-108705745D01*
X254874450Y-108732962D01*
X254861330Y-108733770D01*
X253781493Y-108742921D01*
X253714289Y-108723805D01*
X253687568Y-108701086D01*
X253426647Y-108406131D01*
X253296124Y-108258583D01*
X253266449Y-108195328D01*
X253265000Y-108176424D01*
X253265000Y-106343343D01*
X253284685Y-106276304D01*
X253299611Y-106257404D01*
X253978410Y-105551453D01*
X254039064Y-105516774D01*
X254067792Y-105513400D01*
X257585000Y-105513400D01*
X258105000Y-104953400D01*
X258105000Y-102978454D01*
X258124685Y-102911415D01*
X258133922Y-102898854D01*
X258259968Y-102748300D01*
X258318097Y-102709533D01*
X258355046Y-102703900D01*
X259428335Y-102703900D01*
X259444004Y-102703900D01*
X259511043Y-102723585D01*
G37*
%TD.AperFunction*%
%TD*%
M02*
